/* XPM */
static char * TheLostTest_xpm[] = {
"40 40 11 1",
" 	c None",
".	c #080000",
"+	c #B7B7B7",
"@	c #FFFFFF",
"#	c #898989",
"$	c #9CC8CC",
"%	c #9CC8CD",
"&	c #68989C",
"*	c #9DC9CD",
"=	c #67979C",
"-	c #67979B",
"                                        ",
"                                        ",
"                                        ",
"                ........                ",
"              ............              ",
"            ....++++++++....            ",
"           ...+@@@@@@@@@@+...           ",
"          ..+@@@@@@@@@@@@@@+..          ",
"         ..+@@@@@@@@@@@@@@@@+..         ",
"        ..+@@@@@@@@@@@@@@@@@@+..        ",
"        ..@@@@@@@@@@@@@@@@@@@@..        ",
"       ..+@@@@@@@@@@@@@@@@@@@@+..       ",
"       ..@@@@@@@@@@@@@@@@@@@@@@..       ",
"      ..+@@@@@@@@@@@@@@@@@@@@@@+..      ",
"      ..+@+....+@@@@@@@@+....+@+..      ",
"      ..+@.@@...@@@@@@@@.@@...@+..      ",
"      ..++.@@...@@@@@@@@.@@...++..      ",
"      ..#+......@@....@@......+#..      ",
"       ..+......@......@......+..       ",
"       ..#+....+@.@@@@.@+....+#..       ",
"        ..+$$$+@@......@@+$$$+..        ",
"        ..#%%%@@@@@@@@@@@@%%%#..        ",
"         ..&$*@@@@@@@@@@@@$%=..         ",
"          ..=$+@@@@@@@@@@+$-..          ",
"           ...-+@@@@@@@@+=...           ",
"            ....#++++++#....            ",
"             .............              ",
"            ..+@........                ",
"            ..@@@@@...                  ",
"            ..@@@@@@+....               ",
"            ..+@@@@@@@+...              ",
"             ..+@@@@@@@@+..             ",
"              ..........+..             ",
"               ...........              ",
"                 ....   .               ",
"                ..++..                  ",
"                 ..@+..                 ",
"                 ..+..                  ",
"                  ...                   ",
"                   .                    "};
