/* XPM */
static char * Globin_B3_xpm[] = {
"29 19 5 1",
" 	c None",
".	c #080000",
"+	c #571717",
"@	c #792020",
"#	c #380F0F",
"            .....            ",
"           ...+@..           ",
"          ..+@@@+........    ",
"         ..+@+..@+........   ",
"   ........@+...@+..+@@@+..  ",
"  ........+@...+@#.+@@@@@+.. ",
" ..+@@@+..+@#.+@+..+@@@@@+.. ",
"..@@@@@@+.+++#@++.++++@@++.. ",
"..@@@@@@++#++++++#@++++++..  ",
"..+@@@@+++++++++++++++....   ",
"..+++++++++#++++++++++++..   ",
" ..+++++++++####+++++++++..  ",
"  ...#+++##+++++++++++++++.. ",
"   ...#+#.+@@@+++++##++++#.. ",
"  ..####.+@@@@@+++#.##++##.. ",
"  ..####.#+@@@+++#..#####..  ",
"   ......##++++#..........   ",
"    ..............  .....    ",
"         ........            "};
