/* XPM */
static char * Globin_B4_xpm[] = {
"30 21 5 1",
" 	c None",
".	c #080000",
"+	c #571717",
"@	c #792020",
"#	c #380F0F",
"               .....          ",
"           ...........        ",
"         ......+++++...       ",
"    .......+@@@@@@@@++..      ",
"   .......+@@@@@@@@@@+..      ",
"  ..+@@@@@@@+.......@@+..     ",
" ..@@+.+@@@..........+@..     ",
"..+@@..+@@+.....++#...@...    ",
"..@@+..+@@......##....++...   ",
"..@@...+@@.....#+.#+++++++..  ",
"..@@...@@@....+#.#++##+++++.. ",
"..@@...@+++.#+##.++.+++@@++.. ",
"..@@..++#++#.##.#+.#++@@@@+.. ",
"..+@@@@#.+++#..++..+++@@@@+.. ",
" ..@@@+.#+++++++..#++@+@@++.. ",
" ..+@+.#++++++...#+++++++++#..",
"  ..#.#.#+++++#.#+...##++++#..",
"   ..###.##++++##.####+++###..",
"   ..###....####..####....... ",
"    ........................  ",
"     ...    ..........        "};
