/* XPM */
static char * Globin_B7_xpm[] = {
"28 33 7 1",
" 	c None",
".	c #080000",
"+	c #571717",
"@	c #792020",
"#	c #380F0F",
"$	c #655C66",
"%	c #98829B",
"          ......            ",
"        .........           ",
"       ...+@@@@+..          ",
"      ..+@@@@@@@+..         ",
"     ..+@@@@@@@@@+..        ",
"    ..+@@++++++++....       ",
"   ..++....++@@@+++....     ",
"  ..#+.##..+@@@@@@++.....   ",
"  ..+.##..+@+......+@@+...  ",
" ..#+.#...@@.$.......@@@+.. ",
" ..+.##..+@+.%.......+@@@+..",
" ..+.#...+@...........@@@@..",
"..#+.#..+@@...........+@@@..",
"..++...+@@@............@@@..",
"..+@++@@@@+............+@@..",
"..+@@@@@@+..............@@..",
"..+@@@@+@..#+#.#####....@+..",
"..+++++#@.#++.#+++++++#.@.. ",
"..+++++.@.++#++#..#++#.+@.. ",
"..#+++#.+.++++#.++.....@+.. ",
" ..#+##.++.....+@@@@@@++..  ",
"  ..####.+@@@@@+....+++..   ",
"   .......++++..####....    ",
"    ..........#+@@@@...     ",
"     ..###++++@@@@@@..      ",
"     ..++++++@@@@+++..      ",
"     ..++++#+@+++++..       ",
"     ..++++.++++++..        ",
"      ..##..++++....        ",
"       ....#++...##..       ",
"       ..#+++##.###..       ",
"        ............        ",
"         ...... ...         "};
