/* XPM */
static char * Globin_L_xpm[] = {
"40 40 9 1",
" 	c None",
".	c #080000",
"+	c #571717",
"@	c #792020",
"#	c #655C66",
"$	c #98829B",
"%	c #380F0F",
"&	c #FFFFFF",
"*	c #992424",
"                                        ",
"                                        ",
"                                        ",
"                                        ",
"                                        ",
"                ........                ",
"              .............             ",
"            ....++@@@@++....            ",
"           ...++@@@@@.@@@@@..           ",
"           ..@+.@@@@.@+...@@..          ",
"           ...@..+++.@.....++..         ",
"          ....@@@@@++@......@+..        ",
"        .....+@@+++@@@@.....+@..        ",
"       .....++@.....+@@@.....@+..       ",
"       ..++@+@.#$....+@@@....@%..       ",
"      ..+@@%@+.$&...$.+@@@...@.+..      ",
"      ..+@.@@.......&$.@%@@..@.+..      ",
"      ..++.@+........&.@@%@..@.+..      ",
"      ..+.%@.....%.....+@%@@@@%+..      ",
"      ..%.@+...%........@@%@@@+%..      ",
"       ..+@........%....+@@..@+..       ",
"       ..%+..%+..+%..%%...++%.%..       ",
"        ..+%...+%.%+%..%%..@%%..        ",
"        ..%+%......%++%..%.+%%..        ",
"         ..%+%...%%.......%+%..         ",
"          ..%+%.........%@+%..          ",
"           ...%+@@@@@@@@+%...           ",
"            ....%++++++%....            ",
"             ..............             ",
"              ...........               ",
"             ..+@@@@@@@+..              ",
"             ..@@@@@@@**@..             ",
"             ..@@@@@@@***@..            ",
"            ...******@.**@..            ",
"            ..@@******@.*@..            ",
"            ..@@@+.***@....             ",
"            ..@@@+.***@...              ",
"             ..@@+.@@@...               ",
"              ..........                ",
"               ........                 "};
