/* XPM */
static char * Globin_B6_xpm[] = {
"30 33 6 1",
" 	c None",
".	c #080000",
"+	c #571717",
"@	c #792020",
"#	c #380F0F",
"$	c #777777",
"        .....                 ",
"      .........               ",
"     ...+@@@+...              ",
"    ..+@@@@@@@+..             ",
"   ..+@@@@@@@@@+..            ",
"  ..+@@@@@@@@@@@+.......      ",
"  ..@@@@@@@@@@@@@+........    ",
" ..+@+....@@@++++++#.+@+...   ",
" ..@+.###.@@++####++##+@@+..  ",
"..+@.####.@++#.....++@@@@@+.. ",
"..@+.##...@+#.......+++@@@@.. ",
"..@.##...++#.$........++@@@#..",
"..@.##...++............+++@+..",
"..@.#...++......#+++#....++@..",
"..@.#..#+.....#+++++++#...+@..",
"..@#..#+..##.#++#...#+++#..@..",
"..@++++..##.#++#.+@+..#+++.@..",
"..+++++.#+.+++#.+@@@@+..#+.+..",
"..+++++.++++#..+@@@@@@@+.#.+..",
" ..+++@+.....+@@++#...#++..+..",
" ..+++++@@@@@@+#++@@+..#++++..",
"  ..++++++++++.+@@@@@@+.+++#..",
"   ...++++++..+@@@@@@@+.##... ",
"    .........+@@@@+++++.....  ",
"    ..#####.+@@+++++++#...    ",
"   ..#+++#..+++++++++#..      ",
"   ..++++#..++##++++#..       ",
"   ..+++#..++++........       ",
"    ......++@@@@#...##..      ",
"     .....+@@@++++#.##..      ",
"        ..+++++++#.....       ",
"         .......... ..        ",
"          ........            "};
