/* XPM */
static char * Globin_B8_xpm[] = {
"28 33 8 1",
" 	c None",
".	c #080000",
"+	c #571717",
"@	c #792020",
"#	c #380F0F",
"$	c #98829B",
"%	c #655C66",
"&	c #FFFFFF",
"          ........          ",
"       .............        ",
"      ....++@@@@++....      ",
"     ..@@@@@.@@@@@++...     ",
"    ..@@...+@.@@@@.+@..     ",
"   ..++.....@.+++..@...     ",
"  ..+@......@++@@@@@....    ",
"  ..@+.....@@@@+++@@+.....  ",
" ..+@.....@@@+.....@++..... ",
" ..#@....@@@+....$%.@+@++.. ",
"..+.@...@@@+.$...&$.+@#@@+..",
"..+.@..@@#@.$&.......@@.@+..",
"..+.@..@#@@.&........+@.++..",
"..+#@@@@#@+.....#.....@#.+..",
"..#+@@@#@@........#...+@.#..",
" ..+@..@@+....#........@+.. ",
" ..#.#++...##..#+..+#..+#.. ",
"  ..##@..##..#+#.#+...#+..  ",
"  ..##+.#..#++#......#+#..  ",
"   ..#+#.......##...#+#..   ",
"    ..#+@#.........#+#..    ",
"     ...#+@@@@@@@@+#...     ",
"      ....#++++++#....      ",
"       ..............       ",
"      ..+@..........        ",
"     ..+@@@+++++++..        ",
"     ..+@@.+@@@@@@...       ",
"     ..+@.+@@@@@@++..       ",
"      ....+@@@.#+++..       ",
"       ...+@@@.#+++..       ",
"        ...+++.#++..        ",
"         ..........         ",
"          ........          "};
