/* XPM */
static char * Globin_B1_xpm[] = {
"26 16 5 1",
" 	c None",
".	c #080000",
"+	c #571717",
"@	c #792020",
"#	c #380F0F",
"         ...              ",
"        ......            ",
"       ..+++... ...       ",
"      ..+@@@@+.......     ",
"      ..++...#..@+#...    ",
"      ....###.+@@@@+#..   ",
"     ..+.#++@@@@@@@@@..   ",
"   ...++.+@@@@+@@@@@@+..  ",
"  ...+@+#@@@@@#+@@@@@+..  ",
" ..+@@@@++@@@+##+@@@++..  ",
"..+@@++++++++++####++#... ",
"..+++++#+@@@++++@++++++#..",
" ..#####+@@++++#########..",
"  ......#++++####........ ",
"   .....................  ",
"        .........         "};
