/* XPM */
static char * wall_R_xpm[] = {
"52 52 11 1",
" 	c #39231B",
".	c #492D24",
"+	c #613C2F",
"@	c #704536",
"#	c #835140",
"$	c #704436",
"%	c #8E5E52",
"&	c #2B1A15",
"*	c #1C110E",
"=	c #000000",
"-	c #895849",
" .++@#+@@@$#.$$###########%%@%@..  &&***============",
" .+@@@@@@@$#.$#$##########-%@%@..  &&*****==========",
" .+++@@@@@$#.$$#########%@@.%%@..  &&*****==========",
" .+@@@@@@@$$.$$$#########%@@%%@.   &&*****==========",
" .+++@@@@+$..$$#$#########%@%%@..  &&*****==========",
" .+@@+@+@.. .$$$##########-%%%@.   &&*****==========",
" ..+ ....... $$#$#########-%%%@.   &&*****==========",
"    ..+..+$..$$$###########-%%@..  &&*****==========",
"  ..+++++@$$.$$############-%%@..  &&*****==========",
" ..+++@@@@$#.$$$###########-%%@..  &&*****==========",
" .++@+@@@@$#.$$$#%$########-%%@..  &&****===========",
" .+++@@@@@$#.$$############-%%@..  &&****===========",
"  .+@@@@@@$#.$#$##########-%%%@..  &&****===========",
" .++@@@@@@$#.$$############-%%@..  &&*****==========",
" .+@@@@@@@$#.$$$###########-%%@..  &&*****==========",
" .++@@@@@@$#.$$#$###########-%@..  &&*****==========",
" .+@@@@@@@$#.$#$###########-%%@..  &&*****==========",
" .++@@@@@@$#.$$#$###########-%@..  &&*****==========",
" .+@@@@@@@$#.$$$############-%@..  &&*****==========",
" .++@@@@@@$#.$$#$###########-%@..  &&*****==========",
" .+@@@@#+@$#.$$$#$##########-%@..  &&*****==========",
" .++@@@@@@$#.$$$$#$########-%%@..  &&****===========",
" .+++@@@@@$#.+$$$$$########-%%@..  &&*****==========",
" .+@@@@@@@$#..+$$$#########-%%@..  &&*****==========",
" .+++@@@@@$#.$$#$##########-%%@..  &&*****==========",
" .++@+@@@@$#.$$############-%%@..  &&*****==========",
" .+++@@@@@$#.$$$###########-%%@..  &&*****==========",
" .++@@@@@@$#.$$############-%%@..  &&****===========",
" .+++@@@@@$#.$#$###########-%%@..  &&*****==========",
" .+++@@@@@$#.$$###########-%%%@..  &&****===========",
" .++@@@@@@$#.$##$#########-#%%@..   &&*=**==========",
" ...+@@@@@$#.$#$####$$#####-%%@..  &**&*============",
" .++@@@@@@$#.$$############-%@@.  &===*=*===========",
" .++@@@@@@$#.$#$#########@#-%@. &&==================",
" .+@@@@@@@$#.$$#$$#####@@.-%@@...  &&*==============",
" .++@@@@@@$$ +$$#+++$$@@@##-%@@..   &&*=============",
" .+@@@@@@@$.  +++$$$$$@##@#-%%@..  &&**==*==========",
" .++@@@@@@$#. .$$##########-%%@..  &&**=*===========",
" .+@@@@@@@$#..$##$#########-%%@..  &&***============",
" .+@@@@@@@$#.$#$###########-%%@..  &&***=*==========",
" .+@+@@@@@$#.$$############-%%@..  &&**=*===========",
" .++@@@@@@$#.$$$##$########-%%@..  &&***=*==========",
" .+@+@@@@@$#..$##$$########-%%@..  &&*****==========",
" .++@@@@@@$#..$$#%#########-%%@..  &&***=*==========",
" .+++@@@@@$#.$$############-%%@..  &&****===========",
" .++@@@@@@$#.$#$###########-%%@..  &&****===========",
" .++@@@@@@$#.$$############-%%@..  &&*****==========",
" .++@@@@@@$#.$#$###########-%%@.   &&****===========",
" .+@+@@@#+$#.$$############-%%@.   &&****===========",
" .+@+@@@#+$#.$$############-%%@..  &&*****==========",
" .++@@@@@@$#.$$$###########@%%@..  &&*****==========",
" .+@+@@@@@$#.$$######%@####-%%@..  &&*****=========="};
