/* XPM */
static char * 0_xpm[] = {
"40 40 607 2",
"  	c None",
". 	c #C7CBE6",
"+ 	c #C6CAE6",
"@ 	c #C3C7E2",
"# 	c #C6CAE4",
"$ 	c #D4D8F2",
"% 	c #D0D4ED",
"& 	c #C8CCE5",
"* 	c #C6CAE3",
"= 	c #CFD3E9",
"- 	c #D0D4EB",
"; 	c #CDD1E8",
"> 	c #D1D4EB",
", 	c #CED2E8",
"' 	c #C9CDE8",
") 	c #CCCFEC",
"! 	c #CACDEC",
"~ 	c #EBEFFB",
"{ 	c #F4F4FA",
"] 	c #F4F4F9",
"^ 	c #F4F5F9",
"/ 	c #F7F8FD",
"( 	c #F6F6FB",
"_ 	c #F5F5FA",
": 	c #F5F5F9",
"< 	c #F6F7FB",
"[ 	c #F5F6FA",
"} 	c #F4F5FA",
"| 	c #D5D9F1",
"1 	c #D2D6ED",
"2 	c #C4C8DF",
"3 	c #CED2EB",
"4 	c #DFE1F4",
"5 	c #FFFFFF",
"6 	c #FEFEFF",
"7 	c #E5E8F9",
"8 	c #E1E4FD",
"9 	c #CED1E8",
"0 	c #D5D9F4",
"a 	c #E9EBF5",
"b 	c #FBFBFE",
"c 	c #FCFCFE",
"d 	c #FFFEFF",
"e 	c #C7CADC",
"f 	c #DBDEF3",
"g 	c #CACDE2",
"h 	c #CFD2EB",
"i 	c #EBEDFC",
"j 	c #FEFDFF",
"k 	c #FDFDFF",
"l 	c #FAFAFD",
"m 	c #FDFDFE",
"n 	c #EEEEF4",
"o 	c #D4D7ED",
"p 	c #D3D6ED",
"q 	c #C4C7DC",
"r 	c #D3D5EE",
"s 	c #E9EBF6",
"t 	c #FAFBFE",
"u 	c #FBFAFE",
"v 	c #F9F9FD",
"w 	c #F9F9FE",
"x 	c #FAFAFE",
"y 	c #FCFCFF",
"z 	c #F9F9FB",
"A 	c #F9FAFD",
"B 	c #FCFBFE",
"C 	c #FEFFFF",
"D 	c #E6E7EC",
"E 	c #C1C3DA",
"F 	c #D1D4ED",
"G 	c #BBBED3",
"H 	c #C8CBE4",
"I 	c #D5D9EF",
"J 	c #F7F7FC",
"K 	c #F6F6FC",
"L 	c #F5F6FB",
"M 	c #F5F4F9",
"N 	c #F6F5FA",
"O 	c #F7F6FB",
"P 	c #FCFBFD",
"Q 	c #C2C3CA",
"R 	c #C7CAE1",
"S 	c #C0C3D9",
"T 	c #D5D7E9",
"U 	c #FDFEFF",
"V 	c #F3F4F8",
"W 	c #F2F2F7",
"X 	c #F0F0F6",
"Y 	c #F1F2F7",
"Z 	c #EFEFF5",
"` 	c #F0F0F7",
" .	c #EDEDF5",
"..	c #EAEAF1",
"+.	c #EDEDF3",
"@.	c #ECECF3",
"#.	c #EBEBF2",
"$.	c #E9E8F0",
"%.	c #E3E2E9",
"&.	c #E4E4EB",
"*.	c #EEECF3",
"=.	c #F3F2F8",
"-.	c #EDECEE",
";.	c #BEC0D5",
">.	c #CACDE8",
",.	c #E4E8F4",
"'.	c #F3F4FA",
").	c #E4E4EC",
"!.	c #DADAE3",
"~.	c #C1C1CA",
"{.	c #AEAFB7",
"].	c #DCDCE4",
"^.	c #E7E7EF",
"/.	c #E6E6EF",
"(.	c #E3E4ED",
"_.	c #E1E2EB",
":.	c #E8E9F1",
"<.	c #E5E5EE",
"[.	c #E6E6EE",
"}.	c #E5E4ED",
"|.	c #E4E4ED",
"1.	c #E5E5ED",
"2.	c #E1E1E9",
"3.	c #DDDDE6",
"4.	c #DBDBE4",
"5.	c #D8D8DF",
"6.	c #9294A0",
"7.	c #DBDEF6",
"8.	c #828491",
"9.	c #C4C8E5",
"0.	c #FDFFFF",
"a.	c #F8F9FF",
"b.	c #E2E3EA",
"c.	c #C6C7CE",
"d.	c #A3A4B1",
"e.	c #F7F8FE",
"f.	c #ECEDF5",
"g.	c #EFF1F9",
"h.	c #F1F2FA",
"i.	c #F3F4FB",
"j.	c #E9E9F4",
"k.	c #E7E8F3",
"l.	c #E9E9F2",
"m.	c #E6E7F0",
"n.	c #EAEAF4",
"o.	c #EBEBF4",
"p.	c #E1E1EB",
"q.	c #E1E2EC",
"r.	c #E4E4EE",
"s.	c #E3E4EE",
"t.	c #E6E6F0",
"u.	c #9A9BA4",
"v.	c #D7DBF6",
"w.	c #969AAB",
"x.	c #C0C4E2",
"y.	c #EFF0FD",
"z.	c #F4F6FD",
"A.	c #E8E9F2",
"B.	c #C6C7D0",
"C.	c #908F97",
"D.	c #7F7E85",
"E.	c #817F85",
"F.	c #919196",
"G.	c #ABAAB1",
"H.	c #D4D3DC",
"I.	c #F2F3FC",
"J.	c #F1F0FA",
"K.	c #EFEFF9",
"L.	c #EBECF6",
"M.	c #EDEEF8",
"N.	c #EDEEF6",
"O.	c #A5A6AE",
"P.	c #BCC0D9",
"Q.	c #AFB2C9",
"R.	c #DADFFD",
"S.	c #E6E7F6",
"T.	c #D9D9E3",
"U.	c #A2A2AC",
"V.	c #4D4D53",
"W.	c #60616E",
"X.	c #A3A7BC",
"Y.	c #B0B4C9",
"Z.	c #888A9A",
"`.	c #51535C",
" +	c #8D8D96",
".+	c #EDEEF5",
"++	c #F9FAFF",
"@+	c #FCFDFF",
"#+	c #F8FAFF",
"$+	c #F5F6FD",
"%+	c #C5C5CD",
"&+	c #B8BACD",
"*+	c #D6D9EF",
"=+	c #080809",
"-+	c #CDCFE7",
";+	c #F5FBFF",
">+	c #E9EAF2",
",+	c #F7F7FB",
"'+	c #BABAC1",
")+	c #5C5B61",
"!+	c #878A9B",
"~+	c #B2B5CA",
"{+	c #C5C9E2",
"]+	c #A6A9BD",
"^+	c #A4A7B9",
"/+	c #C1C3D9",
"(+	c #D2D5EF",
"_+	c #ADB0C3",
":+	c #ECEDF4",
"<+	c #FCFEFF",
"[+	c #DBDCE1",
"}+	c #9496A8",
"|+	c #D4D8F4",
"1+	c #47474E",
"2+	c #C4C8E3",
"3+	c #E3E7FD",
"4+	c #EDEEF3",
"5+	c #FBFBFD",
"6+	c #D0D0D5",
"7+	c #3D3E44",
"8+	c #A9ACC1",
"9+	c #C6C9E1",
"0+	c #BDC0D5",
"a+	c #767884",
"b+	c #000000",
"c+	c #303035",
"d+	c #CACEE6",
"e+	c #BBBED5",
"f+	c #D7D9E3",
"g+	c #FBFBFF",
"h+	c #F8F9FE",
"i+	c #FBFCFE",
"j+	c #ECECF1",
"k+	c #9C9EAC",
"l+	c #D6D9F5",
"m+	c #6E717D",
"n+	c #C2C6E2",
"o+	c #BDC1DE",
"p+	c #EAEAF0",
"q+	c #F5F6F9",
"r+	c #FCFDFE",
"s+	c #87878B",
"t+	c #A6AABE",
"u+	c #6B6D78",
"v+	c #111214",
"w+	c #BABDD0",
"x+	c #C9CCE4",
"y+	c #C6C8D4",
"z+	c #FBFCFF",
"A+	c #EFF0F7",
"B+	c #F2F3F9",
"C+	c #E8E9F0",
"D+	c #8E8F9D",
"E+	c #C3C7E7",
"F+	c #868999",
"G+	c #C3C6E2",
"H+	c #BEC3E1",
"I+	c #F2F2F8",
"J+	c #84858A",
"K+	c #B6B9D0",
"L+	c #7D808C",
"M+	c #ABADBD",
"N+	c #CACDE6",
"O+	c #B8BBC9",
"P+	c #F7F7FD",
"Q+	c #EFEFF6",
"R+	c #EEEEF5",
"S+	c #F5F5FB",
"T+	c #E8E8F0",
"U+	c #868792",
"V+	c #BDBFDD",
"W+	c #797A89",
"X+	c #C1C5DF",
"Y+	c #B1B5CD",
"Z+	c #FCFBFF",
"`+	c #78797F",
" @	c #B5B9D0",
".@	c #666872",
"+@	c #CFD2E9",
"@@	c #ABAEBD",
"#@	c #F8F8FD",
"$@	c #F1F1F8",
"%@	c #E7E9F2",
"&@	c #F3F4F9",
"*@	c #E6E7EF",
"=@	c #7F818B",
"-@	c #C2C5E2",
";@	c #898C9C",
">@	c #C1C5E0",
",@	c #ACAFC7",
"'@	c #6B6B73",
")@	c #B7BAD0",
"!@	c #5D5E67",
"~@	c #CBCDE9",
"{@	c #A4A7B8",
"]@	c #F4F5FC",
"^@	c #F2F4FC",
"/@	c #F4F5FB",
"(@	c #E2E3EB",
"_@	c #8E909E",
":@	c #D1D5F0",
"<@	c #B3B5CC",
"[@	c #C8CCE7",
"}@	c #A9ABC1",
"|@	c #5F606A",
"1@	c #BFC2D8",
"2@	c #4C4D55",
"3@	c #A9ABC0",
"4@	c #FAFAFF",
"5@	c #ECEDF6",
"6@	c #E5E6EE",
"7@	c #E1E3F1",
"8@	c #B4B7CB",
"9@	c #C7CAE5",
"0@	c #BFC4DD",
"a@	c #A6AABD",
"b@	c #FDFCFF",
"c@	c #666871",
"d@	c #D0D3E6",
"e@	c #313238",
"f@	c #C9CDE9",
"g@	c #A3A6BC",
"h@	c #F9F9FF",
"i@	c #F3F4FC",
"j@	c #F5F6FC",
"k@	c #F0F2FC",
"l@	c #F4F4F6",
"m@	c #83838E",
"n@	c #CACDE9",
"o@	c #CED2ED",
"p@	c #A5A7BD",
"q@	c #F5F4FB",
"r@	c #6F717E",
"s@	c #4A4B54",
"t@	c #CBCEEB",
"u@	c #A9ACC2",
"v@	c #F5F5F7",
"w@	c #7F7F88",
"x@	c #CACEE9",
"y@	c #5B5C6A",
"z@	c #CED1EB",
"A@	c #A8ABC0",
"B@	c #F4F4FB",
"C@	c #F9FAFC",
"D@	c #7C7F8B",
"E@	c #C5C9E4",
"F@	c #A3A6BE",
"G@	c #C6C9E9",
"H@	c #A2A6BD",
"I@	c #FAFBFF",
"J@	c #F8F8FB",
"K@	c #818189",
"L@	c #CBCFEA",
"M@	c #5B5D6A",
"N@	c #D0D5EE",
"O@	c #9FA3B9",
"P@	c #F0F0F8",
"Q@	c #FAF9FE",
"R@	c #D1D2D6",
"S@	c #CACCE1",
"T@	c #CBCEE1",
"U@	c #D6DAF1",
"V@	c #B1B4C7",
"W@	c #7F7F86",
"X@	c #CCD0EC",
"Y@	c #5A5C69",
"Z@	c #D3D6F0",
"`@	c #ACB0C6",
" #	c #ECECF4",
".#	c #F8F8FE",
"+#	c #EBEBED",
"@#	c #BABDD2",
"##	c #D6DAF2",
"$#	c #9094A6",
"%#	c #D3D6F2",
"&#	c #ACAFC4",
"*#	c #F3F3F9",
"=#	c #7E7E85",
"-#	c #CCD0EB",
";#	c #5C5E6B",
">#	c #CCCFE7",
",#	c #BABED5",
"'#	c #F6F6FD",
")#	c #FBFCFD",
"!#	c #B9BBC5",
"~#	c #E0E3F9",
"{#	c #BEC0D9",
"]#	c #AFB1C7",
"^#	c #CACFE9",
"/#	c #E7E9F7",
"(#	c #CDD0E6",
"_#	c #F6F7FC",
":#	c #F7F8FC",
"<#	c #61636F",
"[#	c #C8CCE4",
"}#	c #C5C9E0",
"|#	c #F9F9FC",
"1#	c #DADEF6",
"2#	c #C4C7E4",
"3#	c #C5C9E3",
"4#	c #D7DBF1",
"5#	c #D0D5F2",
"6#	c #D4D8F1",
"7#	c #E3E5F3",
"8#	c #F1F0F8",
"9#	c #F1F1F9",
"0#	c #EFF0F6",
"a#	c #78787F",
"b#	c #D0D3EB",
"c#	c #5E606C",
"d#	c #D8DAE5",
"e#	c #EDF1FF",
"f#	c #E9EDFE",
"g#	c #F5F5FC",
"h#	c #DCDBE6",
"i#	c #DADAE5",
"j#	c #DCDCE6",
"k#	c #E2E2EC",
"l#	c #DFE1EA",
"m#	c #E3E5ED",
"n#	c #D6D7E0",
"o#	c #6F7078",
"p#	c #C7CBE2",
"q#	c #575964",
"r#	c #B8BBD2",
"s#	c #D4D5E0",
"t#	c #F8F8FC",
"u#	c #EAEBF0",
"v#	c #E2E3E8",
"w#	c #E1E2E9",
"x#	c #EEEFF5",
"y#	c #DBDCE3",
"z#	c #E0E1E9",
"A#	c #E2E3EC",
"B#	c #E3E3EB",
"C#	c #C9C9D2",
"D#	c #6F7179",
"E#	c #585965",
"F#	c #C2C7DF",
"G#	c #BFBFCB",
"H#	c #EFEEF6",
"I#	c #E8E7F1",
"J#	c #E4E5EC",
"K#	c #DCDCE5",
"L#	c #DADBE3",
"M#	c #DDDEE5",
"N#	c #DFE0E8",
"O#	c #F6F7FD",
"P#	c #F3F5FF",
"Q#	c #EEEFF9",
"R#	c #EAEAF3",
"S#	c #EAEBF4",
"T#	c #EAEBF5",
"U#	c #E5E7F0",
"V#	c #E6E8EF",
"W#	c #B5B6BA",
"X#	c #81838F",
"Y#	c #CCD0E7",
"Z#	c #4F515A",
"`#	c #C9CEE8",
" $	c #9FA0AF",
".$	c #D6D6E0",
"+$	c #CDCDD7",
"@$	c #B0B1BD",
"#$	c #DEDFE8",
"$$	c #F8F9FC",
"%$	c #F7F7FA",
"&$	c #F3F3FB",
"*$	c #F1F2FC",
"=$	c #ECECF5",
"-$	c #ECECF6",
";$	c #EEEFF8",
">$	c #EFF1FA",
",$	c #DFDFE6",
"'$	c #9B9A9E",
")$	c #ABADC1",
"!$	c #BCBFD5",
"~$	c #36373E",
"{$	c #C8CCE9",
"]$	c #9EA1B5",
"^$	c #CCCDD5",
"/$	c #E5E6F3",
"($	c #D7D8E3",
"_$	c #F9FAFE",
":$	c #F8F7FD",
"<$	c #F4F3FC",
"[$	c #EBEAF4",
"}$	c #F4F4FC",
"|$	c #EFEFFA",
"1$	c #EAEAF5",
"2$	c #E8E7F2",
"3$	c #F0F1FB",
"4$	c #CDCCD0",
"5$	c #6F7178",
"6$	c #C0C4DA",
"7$	c #ADB1C6",
"8$	c #070708",
"9$	c #C8CBE7",
"0$	c #BBBFD7",
"a$	c #71737F",
"b$	c #BCBBC4",
"c$	c #F8F7FE",
"d$	c #F6F7FE",
"e$	c #F0F2FB",
"f$	c #DBDCE2",
"g$	c #949495",
"h$	c #868897",
"i$	c #CCD0E9",
"j$	c #6F717D",
"k$	c #C0C5DC",
"l$	c #BDC0D8",
"m$	c #656774",
"n$	c #8E8D97",
"o$	c #EDECF6",
"p$	c #F2F3FA",
"q$	c #EEEEF7",
"r$	c #F0F1F9",
"s$	c #F2F2F9",
"t$	c #EEF0F8",
"u$	c #DCDDE3",
"v$	c #A8A7A7",
"w$	c #62646C",
"x$	c #C4C7DD",
"y$	c #B5B8CC",
"z$	c #010101",
"A$	c #C0C3DC",
"B$	c #8F92A5",
"C$	c #72727C",
"D$	c #BAB9C5",
"E$	c #EBEAF9",
"F$	c #AFAEB9",
"G$	c #E1E1E8",
"H$	c #F0F1F7",
"I$	c #EFEFF7",
"J$	c #F2F3FB",
"K$	c #F1F2F9",
"L$	c #EEEEF6",
"M$	c #DDDDE4",
"N$	c #C7C7CD",
"O$	c #838386",
"P$	c #60616A",
"Q$	c #B2B6CB",
"R$	c #575962",
"S$	c #B9BCD3",
"T$	c #AAAEC3",
"U$	c #5E606D",
"V$	c #5D5D68",
"W$	c #585A62",
"X$	c #D5D5DD",
"Y$	c #B8B7C2",
"Z$	c #9E9DA7",
"`$	c #BABAC4",
" %	c #CDCDD6",
".%	c #E2E2EB",
"+%	c #C7C6CE",
"@%	c #B3B3BA",
"#%	c #606065",
"$%	c #4C4E58",
"%%	c #7E808F",
"&%	c #C6C9E0",
"*%	c #60616B",
"=%	c #C4C7E1",
"-%	c #B6BAD5",
";%	c #B8BACC",
">%	c #75767E",
",%	c #717177",
"'%	c #52535C",
")%	c #A1A5B9",
"!%	c #7D7F8F",
"~%	c #585860",
"{%	c #66656D",
"]%	c #67676E",
"^%	c #5C5C62",
"/%	c #606066",
"(%	c #6B6A71",
"_%	c #565559",
":%	c #72747F",
"<%	c #ADAFC5",
"[%	c #C2C5DC",
"}%	c #D2D5EE",
"|%	c #5D5F6A",
"1%	c #7A7C88",
"2%	c #9A9DB1",
"3%	c #D1D5EC",
"4%	c #CFD2ED",
"5%	c #C0C4DD",
"6%	c #C9CCE6",
"7%	c #D3D7F2",
"8%	c #D5D8F4",
"9%	c #D2D6F2",
"0%	c #CED2EF",
"a%	c #C6C9E4",
"b%	c #B0B3CC",
"c%	c #858799",
"d%	c #2B2D31",
"e%	c #666776",
"f%	c #626472",
"g%	c #51525E",
"h%	c #5F616D",
"i%	c #6A6C7B",
"j%	c #6E6F7F",
"k%	c #6B6D7C",
"l%	c #6A6C7A",
"m%	c #676978",
"n%	c #656776",
"o%	c #606270",
"p%	c #2E2F35",
"                                                                                ",
"                                . + @ # $ % & * = - ; >                         ",
"                      , ' ) ! ~ { { ] ^ / ( _ : < [ } | 1                       ",
"                    2 3 4 5 5 5 5 5 5 5 5 5 5 5 5 5 6 7 8 9                     ",
"                  0 a b 5 5 5 6 c 6 6 5 5 5 6 6 d 6 6 ] e f g                   ",
"                h i 5 5 j k 6 6 c b l m 6 6 5 5 5 5 5 5 n o p q                 ",
"              r s 5 5 5 b t u v w x y b z A B j d 5 6 5 C D E F G               ",
"            H I C 5 l J K J ( L ( L { _ _ : M N O l P k 6 5 Q R S               ",
"            T U 5 m V W X W V W Y Z `  ...+.@.#.$.%.&.$.*.=.-.;.p               ",
"          >.,.5 '.).!.~.{.].^./.(._.:.<.[.[.}.<.|.^.1.2.3.4.5.6.7.8.            ",
"          9.0.5 a.b.c.d.e.A f.f.g.h.i.j.k.l.m.n.o.p.q.r.s.t.m.u.v.w.            ",
"          x.y.5 5 c z.5 5 C t L A.B.C.D.E.F.G.H.I.J.I.K.L.M.N.O.P.Q.            ",
"          R.S.5 C U 5 5 5 5 J T.U.V.W.X.Y.Z.`. +.+++@+5 0.#+$+%+&+*+=+          ",
"        -+;+>+U @+6 k k k ,+'+)+!+~+{+]+^+/+(+_+:+y 6 6 6 <+6 [+}+|+1+          ",
"        2+3+4+5 k 5 k U 5+6+7+8+9+0+a+b+b+c+d+e+f+y @+g+w h+i+j+k+l+m+          ",
"        n+o+p+q+v r+k 6 k s+t+e+u+v+b+      w+x+y+g+z+x L A+B+C+D+E+F+          ",
"        G+H+I+w w w g+u y J+K+L+b+b+        M+N+O+x w P+Q+R+S+T+U+V+W+          ",
"        X+Y+( z+k 6 k k Z+`+ @.@b+            +@@@Z+#@$@:.%@&@*@=@-@;@          ",
"        >@,@J y @+6 6 6 j '@)@!@              ~@{@x b v ]@^@/@(@_@:@<@          ",
"        [@}@J c k 6 5 d d |@1@2@              @ 3@4@z+#@` 5@B+6@7@8@9@          ",
"        0@a@#@y k m 5 d b@c@d@e@              f@g@4@y y h@i@j@k@l@m@n@          ",
"        o@p@q@g+k 5 6 y v r@; s@              t@u@x v w x 4@@+U v@w@x@y@        ",
"        z@A@B@g+g+c b b C@D@E@F@              G@H@k U b J w I@@+J@K@L@M@        ",
"        N@O@P@g+Q@#@g+k U R@S@T@              U@V@k y 6 k t v x S+W@X@Y@        ",
"        Z@`@ #4@.#t k 6 C +#@###$#            %#&#y b b x w #@#@*#=#-#;#        ",
"        >#,#1.'#b 6 6 5 U )#!#~#{#]#        ^#/#(#g+w J #@#@_#:#I+=#+@<#        ",
"        [#}#q.P+x k 6 U k k |#/#1#2#3#4#5#6#7#0.z+J $@8#{ 9#0#0#^.a#b#c#        ",
"        -+2+d#e.z+U 6 k k y z+t e#f#m 6 6 6 5 5 g#h#i#j#p.k#l#m#n#o#p#q#        ",
"          r#s#I@z+t#J { _ ] u#v#w#a.5 5 5 z+L x#y#z#A#(.B#B#(.^.C#D#h E#        ",
"          F#G#H#I#/.J#K#L#M#N#O#5 5 5 5 5 5 5 5 P#Q#l.R#S#T#U#V#W#X#Y#Z#        ",
"          `# $.$+$@$#$] i+5 5 6 c $$( v w x c %$&$*$=$-$5@;$>$,$'$)$!$~$        ",
"          {$]$^$b /$($^ 5 k _$w P+K P+:$.#P+<$[$K.}$|$1$2$3$I.4$5$6$7$8$        ",
"          9$0$a$b$c$5 l b x J t#K './@L K `  #N.i@$+$+d$I.e$f$g$h$i$j$b+        ",
"            k$l$m$n$o$k g+K S+J { p$S+S+S+=$q$}$i.r$s$d$t$u$v$w$x$y$z$          ",
"              !$A$B$C$D$E$F$G$( H$I$$@Q+ .f.J$J$K$i.L$M$N$O$P$Q$}#R$b+          ",
"                S$9@T$U$V$W$X$).Y$Z$`$ %).k#z#.%[.+%@%#%$%%%&%& *%b+b+          ",
"                    K+=%-%;%>%,%'%)%!%~%{%]%^%/%(%_%:%<%[%}%_+|%b+              ",
"                      1%2%3%4%>.3#5%6%7%8%9%9@-#0%2+a%b%c%d%b+b+                ",
"                              e%f%g%h%i%j%k%e%l%m%n%o%p%b+b+                    ",
"                                                                                "};
