/* XPM */
static char * 1_xpm[] = {
"40 40 405 2",
"  	c None",
". 	c #C5C8E6",
"+ 	c #C0C4E1",
"@ 	c #C4C8E7",
"# 	c #C1C4DF",
"$ 	c #C4C7DD",
"% 	c #CED2EB",
"& 	c #D6DAF2",
"* 	c #CBCEE6",
"= 	c #C2C5E4",
"- 	c #BCC0DD",
"; 	c #C1C5E3",
"> 	c #CFD4F4",
", 	c #DBDFFA",
"' 	c #EDF1FA",
") 	c #F5F6FA",
"! 	c #F5F6FB",
"~ 	c #F4F5FA",
"{ 	c #DFE4F9",
"] 	c #E8EDF8",
"^ 	c #F5F5FA",
"/ 	c #F4F5FC",
"( 	c #D3D7EE",
"_ 	c #BDC1D9",
": 	c #C7C9E3",
"< 	c #E0E3F9",
"[ 	c #FFFFFF",
"} 	c #FEFEFF",
"| 	c #E8E8EC",
"1 	c #BFC0D7",
"2 	c #B6B8CC",
"3 	c #C4C8E3",
"4 	c #FAFCFF",
"5 	c #FCFFFF",
"6 	c #EBECF1",
"7 	c #F2F3FB",
"8 	c #EEEFF8",
"9 	c #EDEDF4",
"0 	c #EDEDF6",
"a 	c #F4F5FE",
"b 	c #EEEFF7",
"c 	c #E4E5ED",
"d 	c #DEDDE4",
"e 	c #E2E2EA",
"f 	c #B9B9C0",
"g 	c #A9ABBC",
"h 	c #B0B4C7",
"i 	c #D0D2EE",
"j 	c #D3D8F3",
"k 	c #F9FBFF",
"l 	c #DEDEE6",
"m 	c #EBECF5",
"n 	c #EFEFF8",
"o 	c #EAEBF5",
"p 	c #EBEBF5",
"q 	c #F0F0FA",
"r 	c #F2F3F8",
"s 	c #D3D4DB",
"t 	c #D2D3DF",
"u 	c #C6C7CE",
"v 	c #BEC0CF",
"w 	c #A9ADBF",
"x 	c #CACFED",
"y 	c #FDFEFF",
"z 	c #F0F1FC",
"A 	c #F9FAFE",
"B 	c #DCDDE2",
"C 	c #ECEDF4",
"D 	c #EEEFF9",
"E 	c #EDEEFA",
"F 	c #FBFCFF",
"G 	c #FDFEFE",
"H 	c #F8F9FC",
"I 	c #E4E4E8",
"J 	c #B1B6C6",
"K 	c #A8AFBE",
"L 	c #CCD1EA",
"M 	c #D4D9EF",
"N 	c #E5E7FC",
"O 	c #FAFAFD",
"P 	c #F5F6FC",
"Q 	c #D5D6DD",
"R 	c #EDEEF6",
"S 	c #F8F8FD",
"T 	c #FDFDFF",
"U 	c #E2E2E8",
"V 	c #BBC0D1",
"W 	c #B2B7C7",
"X 	c #D2D6F1",
"Y 	c #E3E5F5",
"Z 	c #E4E6F8",
"` 	c #F5F5FC",
" .	c #D3D3DD",
"..	c #F7F9FF",
"+.	c #FCFDFF",
"@.	c #FBFBFF",
"#.	c #DDDDE7",
"$.	c #BFC4D3",
"%.	c #B6BBCA",
"&.	c #C8CBE9",
"*.	c #E8EDFC",
"=.	c #F4F4FC",
"-.	c #E0E2F0",
";.	c #FCFCFF",
">.	c #FAFAFE",
",.	c #FBFAFE",
"'.	c #FAFAFF",
").	c #DBDAE5",
"!.	c #BCC0CF",
"~.	c #BABECC",
"{.	c #D0D2EA",
"].	c #F6F7FD",
"^.	c #F1F1F8",
"/.	c #DCDEEB",
"(.	c #FBFAFF",
"_.	c #F9F9FE",
":.	c #F8F8FE",
"<.	c #F8F7FD",
"[.	c #F7F7FD",
"}.	c #CECCDB",
"|.	c #C3C8D7",
"1.	c #BEC2D1",
"2.	c #CCD0EA",
"3.	c #F5F5FB",
"4.	c #ECEEFF",
"5.	c #FFFEFF",
"6.	c #FCFCFE",
"7.	c #E1E1E6",
"8.	c #D5D6E3",
"9.	c #E8E7F0",
"0.	c #F1EFF9",
"a.	c #F1F0FC",
"b.	c #EDEEF8",
"c.	c #F0F0F7",
"d.	c #EFEEF6",
"e.	c #F1F1F7",
"f.	c #EEEEF5",
"g.	c #EDECF5",
"h.	c #C4C3CE",
"i.	c #BEC2D6",
"j.	c #B5B8C9",
"k.	c #BFC3DF",
"l.	c #ABB0CB",
"m.	c #B1B0B3",
"n.	c #DBDADD",
"o.	c #F8F8FB",
"p.	c #E0E0E5",
"q.	c #E2E3ED",
"r.	c #DFE0E9",
"s.	c #DCDCE6",
"t.	c #DCDAE6",
"u.	c #D6D7E0",
"v.	c #DFE1E7",
"w.	c #E0E0E7",
"x.	c #E1E2E9",
"y.	c #DEDFE7",
"z.	c #DADBE3",
"A.	c #A9A9B0",
"B.	c #BBBFD5",
"C.	c #AFB2C6",
"D.	c #C6CAE2",
"E.	c #C6C9E4",
"F.	c #9093A5",
"G.	c #323335",
"H.	c #9A999D",
"I.	c #D2D1D8",
"J.	c #E9EAF4",
"K.	c #EFF1FB",
"L.	c #EBECF6",
"M.	c #E7E8F3",
"N.	c #E9ECF5",
"O.	c #EBECF4",
"P.	c #EAEAF1",
"Q.	c #E6E7EF",
"R.	c #E9EAF3",
"S.	c #EAEBF4",
"T.	c #B2B2B9",
"U.	c #B7BACF",
"V.	c #A7AABE",
"W.	c #CBCFE8",
"X.	c #C8CBE2",
"Y.	c #BFC2DB",
"Z.	c #9193A5",
"`.	c #BBBCC5",
" +	c #E1E1EB",
".+	c #F7F8FE",
"++	c #C0C0C8",
"@+	c #B9BDD3",
"#+	c #ABAEC2",
"$+	c #C3C7E2",
"%+	c #B4B8D0",
"&+	c #A8ABBB",
"*+	c #E5E6F0",
"=+	c #EFF1FC",
"-+	c #F3F4FD",
";+	c #F6F8FE",
">+	c #D1D0DB",
",+	c #BDBFD5",
"'+	c #AAAEC1",
")+	c #BBBED7",
"!+	c #C2C6DD",
"~+	c #E5E7F0",
"{+	c #EBEDF7",
"]+	c #F0F1FA",
"^+	c #FEFFFF",
"/+	c #D4D4E0",
"(+	c #BCBFD5",
"_+	c #A8ABBF",
":+	c #C1C5DE",
"<+	c #D2D6EF",
"[+	c #F4F6FC",
"}+	c #ECEEF7",
"|+	c #F6F7FE",
"1+	c #DBDAE4",
"2+	c #BCBED5",
"3+	c #C1C5DF",
"4+	c #C6CBE7",
"5+	c #F3F4F8",
"6+	c #F4F5FB",
"7+	c #D9D8E2",
"8+	c #B6B9CF",
"9+	c #ABAFC3",
"0+	c #C2C5DF",
"a+	c #C6C9E5",
"b+	c #EDEEF2",
"c+	c #F8F9FE",
"d+	c #EAECF6",
"e+	c #E1E1E9",
"f+	c #EAEAEF",
"g+	c #F7F7FB",
"h+	c #D9D8E1",
"i+	c #BFC4DA",
"j+	c #B0B3C9",
"k+	c #C8CBE7",
"l+	c #C2C4E0",
"m+	c #E9E9EF",
"n+	c #FAFBFF",
"o+	c #EEF0FA",
"p+	c #DDDEE7",
"q+	c #E9EAF0",
"r+	c #F6F7FB",
"s+	c #FBFBFE",
"t+	c #FAFBFE",
"u+	c #E1E1E3",
"v+	c #BFC3D9",
"w+	c #A7AABF",
"x+	c #C5C9E6",
"y+	c #C8CCE7",
"z+	c #E3E3EB",
"A+	c #F3F5FF",
"B+	c #E5E6EF",
"C+	c #F3F2F8",
"D+	c #E2E0E3",
"E+	c #AEB2C9",
"F+	c #A9ABBD",
"G+	c #BDC0DC",
"H+	c #B8BCD5",
"I+	c #C8C9D3",
"J+	c #F5F7FF",
"K+	c #F7F7FC",
"L+	c #F6F6FB",
"M+	c #DAD8E2",
"N+	c #B0B4C9",
"O+	c #A4A8BC",
"P+	c #CDD1EE",
"Q+	c #F9F9FD",
"R+	c #F4F6FD",
"S+	c #EBEBF4",
"T+	c #EEEEF4",
"U+	c #F2F2F9",
"V+	c #F6F7FC",
"W+	c #CAC9D3",
"X+	c #B4B7CD",
"Y+	c #A3A6BB",
"Z+	c #CCD0ED",
"`+	c #BEC0D2",
" @	c #E6E7F2",
".@	c #E4E4ED",
"+@	c #EBEBF2",
"@@	c #EFEFF6",
"#@	c #C3C1CA",
"$@	c #BBBED3",
"%@	c #A5A9BD",
"&@	c #CBCFEC",
"*@	c #BABCCE",
"=@	c #F8F9FD",
"-@	c #F1F2F8",
";@	c #E7E7F0",
">@	c #EEEEF6",
",@	c #C0BFC7",
"'@	c #B1B4C9",
")@	c #A1A5B9",
"!@	c #CBCFEB",
"~@	c #BBBED0",
"{@	c #E7E8F0",
"]@	c #BBBBC2",
"^@	c #B7BAD2",
"/@	c #A8ABC2",
"(@	c #C8CCE9",
"_@	c #BABDCD",
":@	c #E7E9F1",
"<@	c #AEAEB9",
"[@	c #6F6F77",
"}@	c #ACB1CC",
"|@	c #A6A9C0",
"1@	c #CCD0EC",
"2@	c #B4B6C7",
"3@	c #F9F8FE",
"4@	c #F7F8FD",
"5@	c #EEF0F8",
"6@	c #E6E8F5",
"7@	c #C3C7E6",
"8@	c #B3B7D3",
"9@	c #D7DBF0",
"0@	c #C1C4D1",
"a@	c #F3F3F9",
"b@	c #FBFCFE",
"c@	c #F2F3FA",
"d@	c #EFF0FA",
"e@	c #D2D3DC",
"f@	c #9B9FB3",
"g@	c #B6BAD7",
"h@	c #555863",
"i@	c #CED0EA",
"j@	c #B9BBCD",
"k@	c #EDEEF5",
"l@	c #EFF0F7",
"m@	c #DFE0EA",
"n@	c #9697A5",
"o@	c #AAADC4",
"p@	c #B3B6C7",
"q@	c #DFE1EC",
"r@	c #FEFDFF",
"s@	c #CBCCD8",
"t@	c #BEC3DE",
"u@	c #BFC4DD",
"v@	c #595962",
"w@	c #F8F8FC",
"x@	c #F4F4FB",
"y@	c #9A9DAE",
"z@	c #BFC3DC",
"A@	c #575862",
"B@	c #CDD0EB",
"C@	c #B0B2C5",
"D@	c #F9FAFD",
"E@	c #D9D9E1",
"F@	c #CAC9CD",
"G@	c #61636E",
"H@	c #C0C4DC",
"I@	c #53545C",
"J@	c #CED1EC",
"K@	c #B7B9CE",
"L@	c #F3F4FA",
"M@	c #EAEAF2",
"N@	c #E4E3EC",
"O@	c #AAA9B2",
"P@	c #78787F",
"Q@	c #575861",
"R@	c #A4A9BE",
"S@	c #414248",
"T@	c #CACDE7",
"U@	c #A1A2B5",
"V@	c #DBDBE3",
"W@	c #EDEDF5",
"X@	c #E2E2EC",
"Y@	c #D4D4E1",
"Z@	c #C8C7D4",
"`@	c #8E8E97",
" #	c #545459",
".#	c #43454E",
"+#	c #61636F",
"@#	c #A3A6BC",
"##	c #C1C4DE",
"$#	c #52535D",
"%#	c #000000",
"&#	c #C2C5DC",
"*#	c #ACAFC3",
"=#	c #6E6E77",
"-#	c #797981",
";#	c #75747C",
">#	c #5E5D64",
",#	c #434348",
"'#	c #747583",
")#	c #A6A8BF",
"!#	c #B1B4CB",
"~#	c #BFC3DE",
"{#	c #A0A4B8",
"]#	c #717383",
"^#	c #474951",
"/#	c #040405",
"(#	c #CED3EA",
"_#	c #CDD1E9",
":#	c #C9CCE4",
"<#	c #CDD0E8",
"[#	c #C4C8E4",
"}#	c #ABAFC5",
"|#	c #9C9EB4",
"1#	c #6B6C78",
"2#	c #1E1E21",
"3#	c #595B67",
"4#	c #5A5B66",
"5#	c #50525D",
"6#	c #43444B",
"7#	c #1B1B1E",
"8#	c #010101",
"                                                                                ",
"                                      . + @ # $ % & *                           ",
"                          = - ; > , ' ) ! ~ { ] ^ / ( _                         ",
"                        : < [ [ [ [ [ [ [ } [ [ [ | 1 2                         ",
"                        3 4 5 6 7 8 9 0 a b c d e f g h                         ",
"                      i j k } l m n n o p q r s t u v w                         ",
"                      x y z A B C D 8 E F [ [ G H I J K                         ",
"                    L M N O P Q R S F [ [ } } T y U V W                         ",
"                    X Y Z } `  ...[ [ [ } +.@.@.+.#.$.%.                        ",
"                    &.*.@.T =.-.y } ;.;.>.,.'.'.@.).!.~.                        ",
"                    {.].[ ;.^./.P @.(.>._.S :.<.[.}.|.1.                        ",
"                  2.3.4.5.6.7.8.9.0.a.b.c.d.e.f.g.h.i.j.                        ",
"                  k.l.m.n.o.p.q.r.s.t.u.v.w.x.y.z.A.B.C.                        ",
"                  D.E.F.G.H.I.J.K.L.M.N.O.P.Q.R.S.T.U.V.                        ",
"                    W.X.Y.Z.`. +S.7 .+y [ ;.+.[ } ++@+#+                        ",
"                        $+%+&+*+=+-+;+y [ y [ [ [ >+,+'+                        ",
"                          )+!+~+{+0 ]++.^+T } T T /+(+_+                        ",
"                          :+<+[+}+8 |+;.} } } ;.;.1+2+#+                        ",
"                          3+4+5+D L.6+A >.;.;.T ;.7+8+9+                        ",
"                          0+a+b+c+d+e+f+g+>.T T T h+i+j+                        ",
"                          k+l+m+} n+o+p+q+r+s+t+T u+v+w+                        ",
"                          x+y+z+>.T S A+B+C+S ,.@.D+E+F+                        ",
"                          G+H+I+e.T 6.J+E O.K+L+>.M+N+O+                        ",
"                          P+[ [ Q+_.} '.R+S+T+U+V+W+X+Y+                        ",
"                          Z+`+S :.S ;.;.!  @.@+@@@#@$@%@                        ",
"                          &@*@S _.=@_.;.t+-@m ;@>@,@'@)@                        ",
"                          !@~@>._.S S >.T 3.b.L.{@]@^@/@                        ",
"                          (@_@_.S [.S S @.@.P :@<@[@}@|@                        ",
"                          1@2@3@[.4@@._.>.@.L+5@F 6@7@8@                        ",
"                          9@0@_.a@^ b@_._.@.>.c@d@e@f@g@h@                      ",
"                          i@j@a@r.k@>._.S @.s+~ l@m@n@x+o@                      ",
"                          W.p@U+q@G s+4@^ 4@r@[.R J.s@t@u@v@                    ",
"                          y+p@w@[ +.>.A P A T =@x@l@T+y@z@A@                    ",
"                          B@C@6+c+S D@>.V+4@T s+V+E@F@G@H@I@                    ",
"                          J@K@a@S =@Q+_.L@M@3.N@O@P@Q@R@y+S@                    ",
"                          T@U@V@e.W@X@Y@Z@`@ #.#+#@#:+##$#%#                    ",
"                          &#*#=#-#;#>#,#'#)#!#~#a+{#]#^#/#                      ",
"                            (#_#:#<#<#[#D.}#|#1#2#%#%#                          ",
"                                  3#4#5#6#7#8#                                  ",
"                                                                                "};
