/* XPM */
static char * 2_xpm[] = {
"40 40 663 2",
"  	c None",
". 	c #CED1E3",
"+ 	c #CACDE1",
"@ 	c #CCCFE6",
"# 	c #CDD0E9",
"$ 	c #CFD2EB",
"% 	c #D1D5EE",
"& 	c #D1D4ED",
"* 	c #D3D6EF",
"= 	c #D6D9F0",
"- 	c #D2D4EA",
"; 	c #CFD2E8",
"> 	c #D2D5EB",
", 	c #CDD0E6",
"' 	c #DEE2F6",
") 	c #D4D8EE",
"! 	c #C9CCE6",
"~ 	c #C3C6DF",
"{ 	c #C8CCE4",
"] 	c #CFD1E8",
"^ 	c #CACDE4",
"/ 	c #EDEEF9",
"( 	c #F7F7FB",
"_ 	c #F6F6FA",
": 	c #F6F7FB",
"< 	c #F7F8FC",
"[ 	c #F7F8FB",
"} 	c #F2F3FA",
"| 	c #E5E8FB",
"1 	c #D3D7EF",
"2 	c #B8BCCF",
"3 	c #CACDE7",
"4 	c #CBCFE8",
"5 	c #DFE3F6",
"6 	c #E3E6F5",
"7 	c #DFE0EF",
"8 	c #E8EAF7",
"9 	c #FAFAFE",
"0 	c #FFFFFF",
"a 	c #FCFCFF",
"b 	c #EEF0FD",
"c 	c #DBDFF4",
"d 	c #CCCFE7",
"e 	c #B8BBD1",
"f 	c #C9CDE8",
"g 	c #CDD2EC",
"h 	c #EEF0F8",
"i 	c #FEFEFE",
"j 	c #FDFDFF",
"k 	c #F7F7FC",
"l 	c #F7F7FD",
"m 	c #FBFBFF",
"n 	c #FDFDFE",
"o 	c #FEFEFF",
"p 	c #FCFCFE",
"q 	c #E2E4F0",
"r 	c #D5D9F1",
"s 	c #C9CEE7",
"t 	c #C8CCE7",
"u 	c #EAEBF5",
"v 	c #FCFCFD",
"w 	c #FDFEFF",
"x 	c #FBFCFF",
"y 	c #FBFBFE",
"z 	c #F6F6FC",
"A 	c #F8F9FE",
"B 	c #FEFDFF",
"C 	c #FBFBFD",
"D 	c #F3F3F6",
"E 	c #D3D5E3",
"F 	c #CACEE7",
"G 	c #C9CCE9",
"H 	c #CED1EC",
"I 	c #C9CDE7",
"J 	c #E5E6F2",
"K 	c #F1F2F9",
"L 	c #F7F8FD",
"M 	c #FCFDFF",
"N 	c #FBFCFE",
"O 	c #F8F8FD",
"P 	c #F8F7FC",
"Q 	c #FBFAFE",
"R 	c #FBFAFF",
"S 	c #F9F9FD",
"T 	c #F1F1F7",
"U 	c #D6D8EA",
"V 	c #CCCFEA",
"W 	c #C5C9E3",
"X 	c #D1D5F0",
"Y 	c #C6C9E1",
"Z 	c #E4E6EF",
"` 	c #F9FAFD",
" .	c #F6F6FB",
"..	c #F6F7FC",
"+.	c #D0D0D9",
"@.	c #E5E5EB",
"#.	c #F5F5FA",
"$.	c #F4F4FA",
"%.	c #F5F5FB",
"&.	c #EBEBF5",
"*.	c #DEE0F5",
"=.	c #D3D7F2",
"-.	c #C7CBE6",
";.	c #D5D8E8",
">.	c #D8DAEA",
",.	c #F0F1F7",
"'.	c #F9FAFE",
").	c #F4F5FA",
"!.	c #F3F4F9",
"~.	c #F1F2F8",
"{.	c #DFDFE6",
"].	c #B8B9C3",
"^.	c #DCDCE3",
"/.	c #EDEDF4",
"(.	c #ECECF3",
"_.	c #EBEBF2",
":.	c #EFEFF6",
"<.	c #EBECF5",
"[.	c #DBDEF3",
"}.	c #CED1ED",
"|.	c #C4C8E2",
"1.	c #C4C7DE",
"2.	c #BCBFD4",
"3.	c #E2E4EC",
"4.	c #FEFFFF",
"5.	c #EFEFF5",
"6.	c #EBECF3",
"7.	c #E8E9F1",
"8.	c #D2D3DB",
"9.	c #CCCEDB",
"0.	c #E2E4ED",
"a.	c #E7E8F1",
"b.	c #E4E5EE",
"c.	c #E6E6EF",
"d.	c #E8E8F1",
"e.	c #E7E7F1",
"f.	c #E9EAF3",
"g.	c #DADBE7",
"h.	c #CCD1EB",
"i.	c #BEC2DA",
"j.	c #CBCEE5",
"k.	c #BFC2D7",
"l.	c #DCDDE5",
"m.	c #F9F9FA",
"n.	c #FDFDFD",
"o.	c #FBFBFB",
"p.	c #F8F8F8",
"q.	c #F6F7F8",
"r.	c #F0F0F4",
"s.	c #E8E8EE",
"t.	c #DEDEE6",
"u.	c #D1D1DA",
"v.	c #C3C3CC",
"w.	c #ACACB4",
"x.	c #9B9CA5",
"y.	c #B6B6BF",
"z.	c #D6D6DF",
"A.	c #EFEFF8",
"B.	c #F0F1F9",
"C.	c #F3F4FC",
"D.	c #F4F5FD",
"E.	c #F0F1FA",
"F.	c #D0D1E0",
"G.	c #BCC0D8",
"H.	c #D0D3EA",
"I.	c #C6C9E0",
"J.	c #D8D9E3",
"K.	c #F6F6F7",
"L.	c #FBFBFC",
"M.	c #F4F4F6",
"N.	c #D0D0D1",
"O.	c #A4A4A5",
"P.	c #8B8B8C",
"Q.	c #87878A",
"R.	c #818186",
"S.	c #74757C",
"T.	c #6A6A72",
"U.	c #606068",
"V.	c #55555E",
"W.	c #575864",
"X.	c #717282",
"Y.	c #6D6E7C",
"Z.	c #9B9DA8",
"`.	c #E1E2E9",
" +	c #FAFBFE",
".+	c #F7F8FE",
"++	c #F3F4FD",
"@+	c #D4D5DE",
"#+	c #C8CBE7",
"$+	c #BCBFE1",
"%+	c #CFD3E9",
"&+	c #CDD1E9",
"*+	c #D6D8E4",
"=+	c #F1F2F5",
"-+	c #F8F8FB",
";+	c #EAE9EC",
">+	c #D1D0D2",
",+	c #9C9C9E",
"'+	c #696A71",
")+	c #757785",
"!+	c #868999",
"~+	c #A6A9BC",
"{+	c #BFC2D8",
"]+	c #BFC2D9",
"^+	c #BCBFD6",
"/+	c #C7C9E5",
"(+	c #C7CAE5",
"_+	c #B8BBD8",
":+	c #B9BCD3",
"<+	c #BEC0D6",
"[+	c #CBCDE2",
"}+	c #C3C6D7",
"|+	c #EAEBF1",
"1+	c #EDEEF1",
"2+	c #ABACBA",
"3+	c #ADB0D0",
"4+	c #808399",
"5+	c #D3D7F1",
"6+	c #D0D2E1",
"7+	c #DEDDE7",
"8+	c #ABAAB2",
"9+	c #68686D",
"0+	c #71737F",
"a+	c #ACB0C5",
"b+	c #BBBED5",
"c+	c #C1C5DC",
"d+	c #B6BBCF",
"e+	c #969AAB",
"f+	c #797B8A",
"g+	c #757682",
"h+	c #737581",
"i+	c #777985",
"j+	c #767885",
"k+	c #6D6E7B",
"l+	c #666773",
"m+	c #7F8290",
"n+	c #C1C4DA",
"o+	c #C1C5D9",
"p+	c #EAEBF0",
"q+	c #A9AAB1",
"r+	c #B4B8D1",
"s+	c #9698AC",
"t+	c #B8BCD1",
"u+	c #9697A5",
"v+	c #676872",
"w+	c #858898",
"x+	c #B1B6CA",
"y+	c #BDC2D7",
"z+	c #AEB1C6",
"A+	c #9EA1B2",
"B+	c #9B9EAF",
"C+	c #ACAFC2",
"D+	c #C1C5DA",
"E+	c #CFD3EA",
"F+	c #E1E4F4",
"G+	c #E6E8F5",
"H+	c #EAECF8",
"I+	c #E8EAF8",
"J+	c #DBDEF1",
"K+	c #D8DBF1",
"L+	c #D4D7EC",
"M+	c #E4E6F5",
"N+	c #E3E5F2",
"O+	c #F5F6FA",
"P+	c #FCFEFF",
"Q+	c #F9FBFE",
"R+	c #AEB0B4",
"S+	c #9C9EB2",
"T+	c #858698",
"U+	c #C4C8DD",
"V+	c #C2C6DD",
"W+	c #C8CBE4",
"X+	c #CBCEE7",
"Y+	c #A5A8BA",
"Z+	c #62646E",
"`+	c #8B8D9C",
" @	c #C4C7DD",
".@	c #D0D4EB",
"+@	c #E5EAF7",
"@@	c #F9FBFD",
"#@	c #F8F9FC",
"$@	c #9FA1A4",
"%@	c #9699AE",
"&@	c #848597",
"*@	c #4F4F58",
"=@	c #787A88",
"-@	c #60616D",
";@	c #A2A5B8",
">@	c #CDD0E5",
",@	c #EAECF9",
"'@	c #E7E7E9",
")@	c #8B8C8E",
"!@	c #A8ABC3",
"~@	c #7A7C8E",
"{@	c #25252A",
"]@	c #B7BAD0",
"^@	c #DADDF0",
"/@	c #F8F9FD",
"(@	c #F9F9FE",
"_@	c #FAFAFF",
":@	c #C9C9CC",
"<@	c #8B8C9A",
"[@	c #A3A6BE",
"}@	c #696B7B",
"|@	c #BEC1DB",
"1@	c #DEE1EF",
"2@	c #FCFBFE",
"3@	c #FAF9FE",
"4@	c #FFFEFF",
"5@	c #E7E8EB",
"6@	c #919296",
"7@	c #A1A4BD",
"8@	c #A5A8C0",
"9@	c #5B5C69",
"0@	c #C5C9E4",
"a@	c #D7DBF0",
"b@	c #F8F8FE",
"c@	c #EEEEF4",
"d@	c #A2A2A7",
"e@	c #868998",
"f@	c #B0B5D0",
"g@	c #818496",
"h@	c #323338",
"i@	c #C8CCE8",
"j@	c #ECEDF8",
"k@	c #FDFCFF",
"l@	c #F9FAFF",
"m@	c #FAFBFF",
"n@	c #FDFCFE",
"o@	c #F9F9FC",
"p@	c #EAEAEF",
"q@	c #A5A5A9",
"r@	c #838490",
"s@	c #B3B7CB",
"t@	c #9295A7",
"u@	c #41434D",
"v@	c #DDDFF6",
"w@	c #F4F6FE",
"x@	c #F7F7FA",
"y@	c #F5F5F8",
"z@	c #F3F4F7",
"A@	c #ECEDEF",
"B@	c #E2E3E6",
"C@	c #D5D5D9",
"D@	c #C0C0C6",
"E@	c #83838A",
"F@	c #838593",
"G@	c #B6BACE",
"H@	c #A5A8BB",
"I@	c #575863",
"J@	c #09090B",
"K@	c #BEC3E3",
"L@	c #ECEDF6",
"M@	c #F8F7FD",
"N@	c #EEEDF7",
"O@	c #E9E8F6",
"P@	c #E7E7F5",
"Q@	c #DAD9E7",
"R@	c #BBBBC4",
"S@	c #99999F",
"T@	c #7E7F84",
"U@	c #737379",
"V@	c #69696E",
"W@	c #5A5B60",
"X@	c #595B63",
"Y@	c #8A8D9D",
"Z@	c #B7BACF",
"`@	c #C7CAE1",
" #	c #9DA0B3",
".#	c #545660",
"+#	c #23242A",
"@#	c #CFD2E7",
"##	c #DEE0F0",
"$#	c #E3E5F7",
"%#	c #E9E8F0",
"&#	c #A1A0AA",
"*#	c #6A6A73",
"=#	c #676874",
"-#	c #7B7D8D",
";#	c #878A9C",
">#	c #9093A5",
",#	c #9B9EB1",
"'#	c #B3B6CB",
")#	c #C5C9E1",
"!#	c #C9CDE5",
"~#	c #C9CCE4",
"{#	c #CED2EB",
"]#	c #D2D6ED",
"^#	c #BABDCF",
"/#	c #A7A9B7",
"(#	c #9D9FB0",
"_#	c #A7AAC2",
":#	c #D7D9EE",
"<#	c #D8DBF0",
"[#	c #E2E4F4",
"}#	c #CFCED7",
"|#	c #8E8E98",
"1#	c #B6B9CC",
"2#	c #CCCFE4",
"3#	c #CDD0E7",
"4#	c #CACEE5",
"5#	c #CACDE3",
"6#	c #CED1E8",
"7#	c #D3D6EC",
"8#	c #E9ECF9",
"9#	c #E6E9FA",
"0#	c #CBCFEA",
"a#	c #BFC3DC",
"b#	c #D2D5E8",
"c#	c #DBDEF2",
"d#	c #F0F1FB",
"e#	c #F9F8FE",
"f#	c #FCFBFF",
"g#	c #F6F6F9",
"h#	c #DDE0F0",
"i#	c #B8BBD3",
"j#	c #CFD3E7",
"k#	c #E1E5F1",
"l#	c #F3F6FC",
"m#	c #F4F6FB",
"n#	c #F5F7FC",
"o#	c #F7F8FF",
"p#	c #F3F2F9",
"q#	c #F0F0F8",
"r#	c #F1F1F8",
"s#	c #C0C1CC",
"t#	c #BEC1D8",
"u#	c #BEC1DA",
"v#	c #CDCFE6",
"w#	c #D6D9EF",
"x#	c #EBEDF8",
"y#	c #EDEEF6",
"z#	c #EBECF4",
"A#	c #FAFAFD",
"B#	c #F3F3F7",
"C#	c #EAEBEF",
"D#	c #E3E3EA",
"E#	c #DEDEE5",
"F#	c #DAD9E1",
"G#	c #D5D5DD",
"H#	c #D2D2DB",
"I#	c #A3A3AB",
"J#	c #B3B5CE",
"K#	c #BBBED8",
"L#	c #D6DBF2",
"M#	c #DFE3F7",
"N#	c #EEEFFB",
"O#	c #EDEDF6",
"P#	c #E8E8F2",
"Q#	c #EBEBF4",
"R#	c #F6F5FB",
"S#	c #F2F2F8",
"T#	c #EEEFF5",
"U#	c #E8E8EF",
"V#	c #DFE0E5",
"W#	c #DADBDF",
"X#	c #DFE0E6",
"Y#	c #FDFEFE",
"Z#	c #F1F2FA",
"`#	c #B8BAC2",
" $	c #B9BBD2",
".$	c #9C9EB5",
"+$	c #BFC3DB",
"@$	c #D8DCF3",
"#$	c #DEE1F3",
"$$	c #E2E3EE",
"%$	c #E4E4ED",
"&$	c #E5E5EE",
"*$	c #E7E7F0",
"=$	c #EDEDF3",
"-$	c #F4F4F7",
";$	c #F5F5F9",
">$	c #F1F0F9",
",$	c #EDECF5",
"'$	c #E7E6EE",
")$	c #E4E3EB",
"!$	c #E1E0E8",
"~$	c #DCDCE5",
"{$	c #DFE0E8",
"]$	c #EFF0F6",
"^$	c #D1D2D6",
"/$	c #CED0E1",
"($	c #A9ACBD",
"_$	c #C5C9E5",
":$	c #DFE3F5",
"<$	c #E9EBF9",
"[$	c #EBEBF6",
"}$	c #ECECF4",
"|$	c #ECECF2",
"1$	c #E6E6EB",
"2$	c #E0E1E5",
"3$	c #E0E1E6",
"4$	c #E3E3EC",
"5$	c #E6E6EE",
"6$	c #E5E4EB",
"7$	c #E9E9F0",
"8$	c #F2F2F9",
"9$	c #F5F5FC",
"0$	c #F4F4FB",
"a$	c #F4F5FB",
"b$	c #F7F6FD",
"c$	c #CCCBD3",
"d$	c #C7C9E0",
"e$	c #A2A6BB",
"f$	c #C1C5E3",
"g$	c #EFF1FD",
"h$	c #FCFDFE",
"i$	c #E7E5F2",
"j$	c #D2D1DC",
"k$	c #EBEBF1",
"l$	c #F5F6FC",
"m$	c #F6F7FD",
"n$	c #C9C9D1",
"o$	c #A4A7BF",
"p$	c #BCC0DF",
"q$	c #CED2EC",
"r$	c #EEF0FA",
"s$	c #F1F1F5",
"t$	c #E5E5EC",
"u$	c #DFE0E9",
"v$	c #F4F5F9",
"w$	c #F3F4FA",
"x$	c #BEBEC7",
"y$	c #C2C5E0",
"z$	c #A4A7C2",
"A$	c #B9BCD4",
"B$	c #DEDEEA",
"C$	c #DDDCE6",
"D$	c #CECEDA",
"E$	c #EFEFF3",
"F$	c #FAFAFC",
"G$	c #F0EFF8",
"H$	c #EAE9F7",
"I$	c #E8E7F7",
"J$	c #ECEBF9",
"K$	c #EBEAF9",
"L$	c #E8E6F7",
"M$	c #EBE9F7",
"N$	c #F4F4F9",
"O$	c #F3F3FA",
"P$	c #E9E9F2",
"Q$	c #B8B8C1",
"R$	c #BFC2DE",
"S$	c #A4A7C3",
"T$	c #C5C8E7",
"U$	c #ABAEC5",
"V$	c #B8B9C5",
"W$	c #C7C8CD",
"X$	c #F0F0F1",
"Y$	c #D7D6E1",
"Z$	c #C0BFCA",
"`$	c #B3B2BD",
" %	c #91919B",
".%	c #6B6A75",
"+%	c #6D6D7A",
"@%	c #828594",
"#%	c #8D90A0",
"$%	c #7E808F",
"%%	c #6A6C76",
"&%	c #7B7C86",
"*%	c #A0A0AE",
"=%	c #B0AFBC",
"-%	c #C1C1CA",
";%	c #D8D8E0",
">%	c #E2E2EB",
",%	c #E8E8F0",
"'%	c #ECEDF5",
")%	c #EAEAF3",
"!%	c #B4B4BD",
"~%	c #BFC2DC",
"{%	c #CCD0EF",
"]%	c #B2B5CC",
"^%	c #C9CBD7",
"/%	c #F0F1F4",
"(%	c #EBEAF6",
"_%	c #E5E4F5",
":%	c #CAC8D8",
"<%	c #8E8D99",
"[%	c #505058",
"}%	c #3C3D45",
"|%	c #5D5E69",
"1%	c #C7CBE2",
"2%	c #D1D5EC",
"3%	c #D0D3EC",
"4%	c #C3C6E0",
"5%	c #B7BAD4",
"6%	c #8A8C9F",
"7%	c #525360",
"8%	c #40414A",
"9%	c #64646B",
"0%	c #9E9DA8",
"a%	c #BEBDC9",
"b%	c #D3D3DE",
"c%	c #E5E6EE",
"d%	c #DBDCE4",
"e%	c #9C9DA5",
"f%	c #B1B4CC",
"g%	c #9DA0B6",
"h%	c #CFD2E9",
"i%	c #B6B9CE",
"j%	c #A8A9B6",
"k%	c #94949D",
"l%	c #72717B",
"m%	c #70727F",
"n%	c #9295A9",
"o%	c #9FA2B8",
"p%	c #ACAFC5",
"q%	c #BDC0D8",
"r%	c #BABDD5",
"s%	c #A9ABC0",
"t%	c #9698AA",
"u%	c #7F818F",
"v%	c #60616C",
"w%	c #3C3D44",
"x%	c #34353A",
"y%	c #4F5059",
"z%	c #6E6F7C",
"A%	c #838597",
"B%	c #9D9FB3",
"C%	c #B1B4CE",
"D%	c #BCC0DD",
"E%	c #BCBFD9",
"F%	c #ABADC3",
"G%	c #9699AD",
"H%	c #7A7C8C",
"I%	c #6C6D78",
"J%	c #83838C",
"K%	c #888892",
"L%	c #797A88",
"M%	c #AFB2CA",
"N%	c #9094A7",
"O%	c #DADDF1",
"P%	c #D3D7F0",
"Q%	c #D3D7F4",
"R%	c #CFD3EF",
"S%	c #C6CAE4",
"T%	c #C6C9E4",
"U%	c #C1C5DE",
"V%	c #B3B6CE",
"W%	c #9193A5",
"X%	c #555661",
"Y%	c #1A1B1F",
"Z%	c #000000",
"`%	c #46464D",
" &	c #8A8C9B",
".&	c #AFB2C7",
"+&	c #BEC2DB",
"@&	c #BCC0DB",
"#&	c #AFB4CD",
"$&	c #999DB4",
"%&	c #AAADC5",
"&&	c #B8BCD5",
"*&	c #767989",
"=&	c #78798B",
"-&	c #5F616E",
";&	c #3E3F47",
">&	c #17181C",
",&	c #020202",
"'&	c #848698",
")&	c #898C9F",
"!&	c #8A8CA0",
"~&	c #5C5C69",
"{&	c #212226",
"                                                                                ",
"                              . + @ # $ % & * = - ; > ,                         ",
"            ' ) ! ~ { ] ^ % / ( _ : < [ [ ( ( < ( } | 1 2                       ",
"        3 4 5 6 7 8 9 0 0 0 0 0 0 0 0 0 0 0 0 0 0 a b c d e                     ",
"      f g h i 0 0 0 0 0 0 0 j k l m j n n o o o 0 0 p q r s                     ",
"      t u v w p w j m x w w y k z A 9 a B n C y a j o D E F G                   ",
"      H I J K L a M w w o o N O z k P O Q R l k S m S 9 T U V W                 ",
"      X Y Z ` w o o o o o 0 p O  ...k  . .T +.@.#. .$.%.: &.*.=.-.              ",
"      ;.>.,.n o o 0 o o o 0 w '.).!.!.~.T {.].^./.(._._.(.:.<.[.}.|.            ",
"      1.2.3.C o 0 0 4.o 4.0 o y  .T 5.6.7.8.9.0.a.b.b.c.d.e.f.g., h.i.          ",
"      j.k.l.m.0 0 4.4.4.n.o.p.q.r.s.t.u.v.w.x.y.z.<.A.A.B.C.D.E.F.$ G.          ",
"      H.I.J.K.o n L.m.M.N.O.P.Q.R.S.T.U.V.W.X.Y.Z.`. +N ` p .+++@+#+$+          ",
"      %+&+*+=+-+;+>+,+'+)+!+~+{+]+^+/+(+_+:+<+[+}+|+o 0 0 0 o w 1+2+3+4+        ",
"        5+6+7+8+9+0+a+b+c+d+e+f+g+h+i+j+k+l+m+n+o+p+j o o o 0 0 -+q+r+s+        ",
"        t+u+v+w+x+y+z+A+B+C+D+E+F+G+H+I+J+K+L+M+N+O+j j j w j P+Q+R+S+T+        ",
"        U+V+W+X+Y+Z+`+ @.@+@@@o 0 0 0 0 0 o o 0 0 4.o j j o o j #@$@%@&@*@      ",
"              =@-@;@>@,@x 0 0 4.j j j o o 0 0 0 0 o j m a j a a '@)@!@~@{@      ",
"                ]@^@l 0 0 0 y /@S (@_@j j j j j o j a m a j a ( :@<@[@}@        ",
"              |@1@/@0 0 o 2@3@'./@(@_@a j o 4@o 0 o j o o o a 5@6@7@8@9@        ",
"            0@a@..0 0 4.o y O b@O (@y m a j 0 4@0 o o o o p c@d@e@f@g@h@        ",
"            i@j@j j k@o o y b@(@l@m@y x j i o o B n@p C o@p@q@r@s@t@u@          ",
"          (+v@w@o 2@a o o p _@9 b@9 (@9 3@o@x@y@z@A@B@C@D@E@F@G@H@I@J@          ",
"          K@L@l@m Q x w j Q M@k %.N@O@P@Q@R@S@T@U@V@W@X@Y@Z@`@ #.#+#            ",
"        @###$#D.a y a o o j y y %#&#*#=#-#;#>#,#'#)#!#~#{#]#^#/#(#_#            ",
"        :#<#[#%._@(@a o o m (@O }#|#1#2#; 3#4#5#@ 6#; 7#8#Q+n n 9#0#a#t+        ",
"        b#c#d#(@(@e#f#B j a x z c.g#0 0 0 0 0 0 0 0 0 0 0 0 0 o o M h#! i#      ",
"        j#k#l#m#).n#` j j y ` z '.j '.'.(@y j a j j _@o#N C k p#q#r#s#t#u#      ",
"        v#w#x#y#z#K '.o o j M x a  +'.m@x 9 y C y A# .B#C#D#E#F#G#H#I#J#K#      ",
"        L#M#N#O#P#Q#R#p o a m a  +/@/@#@k $.S#T#(.U#V#W#X#z@Y#0 M Z#`# $.$      ",
"      +$@$#$$$%$&$*$=$-$-+;$S#>$,$'$)$)$!$~${$*$]$-$g#A#o o y 9 9 j ^$/$($      ",
"      _$:$<$[$}$/.|$1$2$3$`.4$5$6$7$8$9$` o o n L.v j p O 0$a$z b$l c$d$e$      ",
"      f$c g$9 j w 4.o o j h$p o 0 0 4.0 0 p q#i$j$k$l k ..l$m$k  .0$n$~#o$      ",
"      p$q$r$-+s$8$9 x a y j o o j y m a a 9 t$u$v$9 O l 9$w$w$$.S#}$x$y$z$      ",
"      f$A$B$C$D$E$w w w j y F$( G$H$I$J$K$L$M$>$#.#.N$#.8$O$0$r#:.P$Q$R$S$      ",
"      T$U$V$W$X$j f#O 8$}$Y$Z$`$ %.%+%@%#%$%%%&%*%=%-%;%>%,%(.'%y#)%!%~%!@      ",
"      {%]%^%/%;$(%_%:%<%[%}%|% #W $ 4#1%2%3%Y 4%5%6%7%8%9%0%a%b%c%d%e%f%g%      ",
"        h%i%j%k%l%m%n%o%p%q%r%s%t%u%v%w%x%y%z%A%B%C%D%E%F%G%H%I%J%K%L%M%N%      ",
"        O%P%Q%R%S%T%U%V%W%X%Y%Z%Z%Z%                `% &.&+&0@@&#&$&%&&&*&      ",
"              g%=&-&;&>&,&                                    '&;#)&!&~&{&      ",
"                                                                                "};
