/* XPM */
static char * 3_xpm[] = {
"40 40 608 2",
"  	c None",
". 	c #C7CAE1",
"+ 	c #CCCEE8",
"@ 	c #C3C7DF",
"# 	c #C8CBE4",
"$ 	c #D4D8F2",
"% 	c #D2D6F0",
"& 	c #CDCFEC",
"* 	c #C9CCEA",
"= 	c #BEC1DE",
"- 	c #C4C8E8",
"; 	c #C5CAEB",
"> 	c #BCC0E1",
", 	c #C2C7E2",
"' 	c #C1C5E2",
") 	c #C2C7E4",
"! 	c #BFC3DD",
"~ 	c #CBCEE9",
"{ 	c #C4C8E2",
"] 	c #C5C8E5",
"^ 	c #C4C8E4",
"/ 	c #C0C3DF",
"( 	c #C7CAE4",
"_ 	c #C9CDE6",
": 	c #C8CBE1",
"< 	c #CACDE4",
"[ 	c #D4D7F2",
"} 	c #CCCFE9",
"| 	c #C9CCE5",
"1 	c #C4C8E0",
"2 	c #CED2E9",
"3 	c #DADCEA",
"4 	c #F0F1F8",
"5 	c #F0F0F7",
"6 	c #F1F2F9",
"7 	c #F3F4FB",
"8 	c #F2F3FA",
"9 	c #EFEFF6",
"0 	c #EFF0F8",
"a 	c #ECEFF7",
"b 	c #EEF0F6",
"c 	c #EEEFF6",
"d 	c #EFF0F7",
"e 	c #F0F1F9",
"f 	c #EFEFF7",
"g 	c #F0F1F7",
"h 	c #F4F5FC",
"i 	c #E8EAF5",
"j 	c #C3C7E0",
"k 	c #CACEE5",
"l 	c #DEE0EC",
"m 	c #FDFEFE",
"n 	c #FFFFFF",
"o 	c #FFFEFF",
"p 	c #FEFEFF",
"q 	c #FDFDFE",
"r 	c #FDFEFF",
"s 	c #D1D3E2",
"t 	c #BEC2DA",
"u 	c #D8DBF0",
"v 	c #B6B9CB",
"w 	c #C6C7CD",
"x 	c #FDFDFF",
"y 	c #FCFCFF",
"z 	c #FCFBFF",
"A 	c #F5F5FC",
"B 	c #E9EAF2",
"C 	c #F4F4FB",
"D 	c #F4F4FC",
"E 	c #F7F8FF",
"F 	c #EEEEF6",
"G 	c #E9E9F1",
"H 	c #E9EAF1",
"I 	c #ECEDF4",
"J 	c #FCFDFF",
"K 	c #A6A7AE",
"L 	c #B6B9D0",
"M 	c #BFC2DB",
"N 	c #E1E3F9",
"O 	c #C1C5D8",
"P 	c #73747E",
"Q 	c #EFEFF2",
"R 	c #FDFCFF",
"S 	c #FAF9FE",
"T 	c #F1F1F9",
"U 	c #E2E3EA",
"V 	c #EEEFF7",
"W 	c #EBECF5",
"X 	c #ECEDF7",
"Y 	c #ECEDF6",
"Z 	c #EEEFF8",
"` 	c #F0F0F9",
" .	c #F1F2FB",
"..	c #F2F4FB",
"+.	c #F8F9FF",
"@.	c #EFEFF4",
"#.	c #83838A",
"$.	c #B8BBD4",
"%.	c #9FA1B6",
"&.	c #D2D7E6",
"*.	c #9EA1AF",
"=.	c #BDBEC4",
"-.	c #FBFBFF",
";.	c #FBFBFE",
">.	c #E0E2E7",
",.	c #EDEEF7",
"'.	c #F7F8FD",
").	c #FBFCFD",
"!.	c #D0D0D6",
"~.	c #585A66",
"{.	c #BCC1D8",
"].	c #848594",
"^.	c #D6DBEA",
"/.	c #CCD1E3",
"(.	c #8F919D",
"_.	c #EFEFF5",
":.	c #FAFAFE",
"<.	c #EBECF4",
"[.	c #DCDEE4",
"}.	c #FAFBFF",
"|.	c #FEFFFF",
"1.	c #F9FAFC",
"2.	c #88888A",
"3.	c #8C8EA0",
"4.	c #BBC0D6",
"5.	c #252629",
"6.	c #DBE0F2",
"7.	c #AFB2C4",
"8.	c #AFB0B9",
"9.	c #FAFBFE",
"0.	c #FBFCFF",
"a.	c #FAFAFF",
"b.	c #E4E3EE",
"c.	c #E7E8EE",
"d.	c #DDDEE6",
"e.	c #5D5D64",
"f.	c #DADCEE",
"g.	c #868794",
"h.	c #000000",
"i.	c #D0D3E5",
"j.	c #C7CBE0",
"k.	c #A1A3B4",
"l.	c #F6F6FA",
"m.	c #DCDBE7",
"n.	c #F2F3F9",
"o.	c #FCFCFE",
"p.	c #F8F7FF",
"q.	c #ABABB4",
"r.	c #9496A6",
"s.	c #BDC0D5",
"t.	c #494A52",
"u.	c #D1D4EB",
"v.	c #9D9FB0",
"w.	c #F0F0F5",
"x.	c #F9F9FF",
"y.	c #D8D9E3",
"z.	c #F0EFF7",
"A.	c #F6F5FE",
"B.	c #FBFAFF",
"C.	c #F9F9FE",
"D.	c #F7F7FE",
"E.	c #F6F6FC",
"F.	c #E8E7F4",
"G.	c #45464C",
"H.	c #B9BCD1",
"I.	c #A8ABBB",
"J.	c #08080A",
"K.	c #D1D4E9",
"L.	c #A6A9BE",
"M.	c #9B9B9E",
"N.	c #EDECEF",
"O.	c #FEFDFF",
"P.	c #FDFCFE",
"Q.	c #F5F4F8",
"R.	c #CFCFD5",
"S.	c #B1AFB5",
"T.	c #8B8893",
"U.	c #B5B4C2",
"V.	c #F6F5FD",
"W.	c #F1F2FA",
"X.	c #F2F2F9",
"Y.	c #F1F0F8",
"Z.	c #F2F1F8",
"`.	c #EDECF5",
" +	c #A4A2AC",
".+	c #717481",
"++	c #C7CBE3",
"@+	c #595A63",
"#+	c #D9DBF2",
"$+	c #CFD2EA",
"%+	c #9194A3",
"&+	c #444446",
"*+	c #B5B5B5",
"=+	c #E2E1E2",
"-+	c #EEEDF2",
";+	c #F7F7FA",
">+	c #F3F3F8",
",+	c #DDDCE1",
"'+	c #8D8C91",
")+	c #6D6D6C",
"!+	c #F9F9F9",
"~+	c #F4F6FE",
"{+	c #DDDDE8",
"]+	c #DCDDE5",
"^+	c #DBDBE2",
"/+	c #D7D8E0",
"(+	c #DADAE2",
"_+	c #D9D9E1",
":+	c #BEBDC4",
"<+	c #606065",
"[+	c #ADB2C6",
"}+	c #B3B7CB",
"|+	c #010101",
"1+	c #CDD0E6",
"2+	c #CDD1E8",
"3+	c #B5B8CD",
"4+	c #989BAE",
"5+	c #9699AB",
"6+	c #9497AA",
"7+	c #979AAC",
"8+	c #989BAD",
"9+	c #9093A6",
"0+	c #989BB0",
"a+	c #979AAF",
"b+	c #9497AD",
"c+	c #C7C9D8",
"d+	c #FEFEFE",
"e+	c #F8F9FE",
"f+	c #E3E4EF",
"g+	c #DCDFE8",
"h+	c #E3E4ED",
"i+	c #E6E7EE",
"j+	c #E8E9F1",
"k+	c #E7E8F0",
"l+	c #B3B2B8",
"m+	c #787985",
"n+	c #CBCFE8",
"o+	c #717380",
"p+	c #A1A4B4",
"q+	c #C3C6DB",
"r+	c #C5C9DC",
"s+	c #C1C5DC",
"t+	c #C4C7E1",
"u+	c #D2D6EB",
"v+	c #CED2E8",
"w+	c #C4C9E2",
"x+	c #C8CCE8",
"y+	c #C8CAE6",
"z+	c #F9FAFF",
"A+	c #F9FBFF",
"B+	c #F8FAFF",
"C+	c #F9FCFF",
"D+	c #F1F1F7",
"E+	c #9C9BA3",
"F+	c #A4A7BC",
"G+	c #C3C6DD",
"H+	c #656772",
"I+	c #131416",
"J+	c #343539",
"K+	c #A6AABD",
"L+	c #D9DBEE",
"M+	c #EAEBF5",
"N+	c #E8EAF4",
"O+	c #EAECF8",
"P+	c #EEEFFB",
"Q+	c #F9F9FD",
"R+	c #BCBECA",
"S+	c #DEE0EB",
"T+	c #DFE2F3",
"U+	c #D1D5EE",
"V+	c #A9AABD",
"W+	c #BBBFD7",
"X+	c #F8FCFF",
"Y+	c #DCE0F8",
"Z+	c #D0D3EB",
"`+	c #9799AA",
" @	c #C4C7DF",
".@	c #E8EAFA",
"+@	c #F5F6FB",
"@@	c #F9FAFE",
"#@	c #F0F1FD",
"$@	c #EBECF7",
"%@	c #EFF0FA",
"&@	c #D0D2E2",
"*@	c #D0D4EB",
"=@	c #CCCFE7",
"-@	c #CCD0E7",
";@	c #C0C3D7",
">@	c #E7E7F0",
",@	c #F6F7FC",
"'@	c #EEF0F9",
")@	c #E8E9F5",
"!@	c #F3F4FC",
"~@	c #F6F6FB",
"{@	c #B0B3C8",
"]@	c #D0D4F0",
"^@	c #C2C4DF",
"/@	c #CFD3EA",
"(@	c #B0B2C6",
"_@	c #E1E2E9",
":@	c #F8F8FD",
"<@	c #ECEDF8",
"[@	c #E6E7F1",
"}@	c #EBEBF1",
"|@	c #F5F5F9",
"1@	c #D3D3DB",
"2@	c #BFC3E0",
"3@	c #C5C8E3",
"4@	c #CACDE6",
"5@	c #BCBFD7",
"6@	c #C6C8D3",
"7@	c #F3F3F9",
"8@	c #EDEFF9",
"9@	c #D9DBE2",
"0@	c #E5E5EA",
"a@	c #F4F4FA",
"b@	c #EBEBF0",
"c@	c #9799AB",
"d@	c #D4D7ED",
"e@	c #838693",
"f@	c #CCD0E9",
"g@	c #E3E6FE",
"h@	c #EBECF8",
"i@	c #FBFCFE",
"j@	c #F0F3FC",
"k@	c #E5E6F0",
"l@	c #ECECF4",
"m@	c #F7F7FC",
"n@	c #9C9CA6",
"o@	c #B2B6CC",
"p@	c #C7CBE4",
"q@	c #C6CAE1",
"r@	c #DCDCE5",
"s@	c #EDEEF4",
"t@	c #E3E4EE",
"u@	c #F4F4F9",
"v@	c #F6F5FA",
"w@	c #F7F6FD",
"x@	c #C2C2CC",
"y@	c #9DA0B5",
"z@	c #BEC2DE",
"A@	c #4C4E55",
"B@	c #CBCDE4",
"C@	c #C8CCE4",
"D@	c #CDCFE8",
"E@	c #BCBFD6",
"F@	c #7F7F88",
"G@	c #8A8A90",
"H@	c #A6A6AE",
"I@	c #BFBEC9",
"J@	c #CDCDD9",
"K@	c #D6D5E2",
"L@	c #E3E3EF",
"M@	c #F5F5FB",
"N@	c #CCCDD5",
"O@	c #BBBBC4",
"P@	c #E4E4EB",
"Q@	c #F7F6FC",
"R@	c #F5F4FB",
"S@	c #A0A2B2",
"T@	c #D2D5EA",
"U@	c #9395A3",
"V@	c #CCD0E8",
"W@	c #DCDFEF",
"X@	c #DBDEED",
"Y@	c #EBEDFA",
"Z@	c #ADAEB6",
"`@	c #858897",
" #	c #767989",
".#	c #7A7C8D",
"+#	c #767889",
"@#	c #707283",
"##	c #797A8A",
"$#	c #747786",
"%#	c #737584",
"&#	c #7E8190",
"*#	c #BBBCC5",
"=#	c #EAEAF1",
"-#	c #F2F2F7",
";#	c #F2F2F8",
">#	c #F1F2F8",
",#	c #F4F5FA",
"'#	c #9899A6",
")#	c #C9CDE4",
"!#	c #ACAEC2",
"~#	c #BDC1D9",
"{#	c #C7CAE2",
"]#	c #BEC2E0",
"^#	c #EBF1FB",
"/#	c #F9F9FC",
"(#	c #F1F2F7",
"_#	c #D4D8EF",
":#	c #CDD0E9",
"<#	c #BEC2DD",
"[#	c #CCCFE8",
"}#	c #C5C9E2",
"|#	c #CACEE7",
"1#	c #F8F8FC",
"2#	c #F8F8FA",
"3#	c #E3E3EC",
"4#	c #F0F0F8",
"5#	c #9E9FA7",
"6#	c #C8CCE0",
"7#	c #A6A8B8",
"8#	c #D4D7E9",
"9#	c #EFF2FF",
"0#	c #F9FAFD",
"a#	c #FAFAFC",
"b#	c #C7C8D6",
"c#	c #E4E8FA",
"d#	c #D6D9EF",
"e#	c #DDDFEF",
"f#	c #E1E3F1",
"g#	c #DBDDE9",
"h#	c #E9EAF4",
"i#	c #E8E9F2",
"j#	c #EDEEF6",
"k#	c #E9E9F2",
"l#	c #ACABB5",
"m#	c #CFD2E6",
"n#	c #A7AABB",
"o#	c #D8DCF6",
"p#	c #F8F9FD",
"q#	c #F5F6FE",
"r#	c #EBECF6",
"s#	c #E7E8F1",
"t#	c #EAEAF3",
"u#	c #E9EAF3",
"v#	c #B9B8C3",
"w#	c #C1C4DC",
"x#	c #9EA0B4",
"y#	c #CDCFEA",
"z#	c #C1C4DA",
"A#	c #F5F5FA",
"B#	c #F7F8FC",
"C#	c #F8F8FE",
"D#	c #FAFAFD",
"E#	c #EAEBF4",
"F#	c #B2B1BB",
"G#	c #C4C7DD",
"H#	c #E3E5FB",
"I#	c #D2D2DA",
"J#	c #E7E6EF",
"K#	c #E4E3EC",
"L#	c #F3F4FA",
"M#	c #84858D",
"N#	c #9A9CAD",
"O#	c #D4D9F2",
"P#	c #B3B6CD",
"Q#	c #888A95",
"R#	c #D2D2DB",
"S#	c #4B4B52",
"T#	c #BFC0C8",
"U#	c #EEEEF4",
"V#	c #F6F6FD",
"W#	c #E8E9F3",
"X#	c #EBEDF7",
"Y#	c #EFEEF8",
"Z#	c #62636C",
"`#	c #7F818D",
" $	c #C9CCE9",
".$	c #86889A",
"+$	c #C5C5CF",
"@$	c #CECFDE",
"#$	c #9FA2B6",
"$$	c #D4D4DD",
"%$	c #F3F3FA",
"&$	c #F7F7FD",
"*$	c #E4E5F1",
"=$	c #FAFCFF",
"-$	c #A5A4AC",
";$	c #838494",
">$	c #CFD2E9",
",$	c #494951",
"'$	c #D5D8F4",
")$	c #BABED4",
"!$	c #8A8B98",
"~$	c #D7D8E1",
"{$	c #F3F5FD",
"]$	c #D5D5DB",
"^$	c #E1E1EA",
"/$	c #F5F6FC",
"($	c #F2F3FB",
"_$	c #E5E4EB",
":$	c #5C5B5F",
"<$	c #B2B5CA",
"[$	c #B0B3C6",
"}$	c #030303",
"|$	c #CACEE8",
"1$	c #A5A8BC",
"2$	c #65656E",
"3$	c #CFCED9",
"4$	c #FCFCFD",
"5$	c #ECECF5",
"6$	c #EBEBF3",
"7$	c #FBFAFD",
"8$	c #939399",
"9$	c #8A8D9C",
"0$	c #4F505A",
"a$	c #C1C4DD",
"b$	c #A8ABC1",
"c$	c #6F707C",
"d$	c #94949C",
"e$	c #C6C7D1",
"f$	c #DAD9E3",
"g$	c #E0DFE9",
"h$	c #E8E7F0",
"i$	c #D5D5DD",
"j$	c #F8F7FB",
"k$	c #F6F7FD",
"l$	c #E5E6EE",
"m$	c #D2D2D7",
"n$	c #9F9EA0",
"o$	c #606170",
"p$	c #CCCFE6",
"q$	c #9D9FB3",
"r$	c #19191D",
"s$	c #C0C3DC",
"t$	c #BDC0D9",
"u$	c #9497AB",
"v$	c #51535F",
"w$	c #4B4B53",
"x$	c #69686F",
"y$	c #8C8B95",
"z$	c #B7B7C2",
"A$	c #CECED9",
"B$	c #E5E5EE",
"C$	c #EDEDF4",
"D$	c #E2E1EA",
"E$	c #D6D5E1",
"F$	c #D0D0DD",
"G$	c #A5A4AE",
"H$	c #919098",
"I$	c #D0CFDA",
"J$	c #E6E5EF",
"K$	c #9C9BA4",
"L$	c #B5B5BD",
"M$	c #EAE9F1",
"N$	c #C4C4CA",
"O$	c #4E4E52",
"P$	c #595B69",
"Q$	c #C3C7E4",
"R$	c #BBBFD5",
"S$	c #0C0C0E",
"T$	c #B1B4CA",
"U$	c #C7CBE7",
"V$	c #C5C9E8",
"W$	c #B3B6D2",
"X$	c #A3A6C1",
"Y$	c #A5A8C2",
"Z$	c #9799B7",
"`$	c #6F7081",
" %	c #6C6C72",
".%	c #818188",
"+%	c #65656B",
"@%	c #4B4B51",
"#%	c #696B7A",
"$%	c #A0A4B9",
"%%	c #9DA1B8",
"&%	c #686975",
"*%	c #7E7D85",
"=%	c #525259",
"-%	c #55555C",
";%	c #908F97",
">%	c #76757B",
",%	c #51525B",
"'%	c #A0A4BC",
")%	c #C6CAE8",
"!%	c #A3A7C0",
"~%	c #31323A",
"{%	c #71737F",
"]%	c #979AAA",
"^%	c #A4A6BA",
"/%	c #B2B5CE",
"(%	c #B2B6D2",
"_%	c #BBBED9",
":%	c #BBBFDB",
"<%	c #C8CDE9",
"[%	c #C9CEE9",
"}%	c #BDC2DC",
"|%	c #B2B6D1",
"1%	c #B3B7D2",
"2%	c #C8CCE9",
"3%	c #C9CDEC",
"4%	c #C3C8E5",
"5%	c #BFC3DF",
"6%	c #C1C5E4",
"7%	c #CACEED",
"8%	c #CBD0ED",
"9%	c #C5C8E6",
"0%	c #9194A8",
"a%	c #040404",
"b%	c #6C6E7F",
"c%	c #6E7081",
"d%	c #727583",
"e%	c #696B77",
"f%	c #4A4B55",
"g%	c #202125",
"h%	c #52535F",
"i%	c #6D6F81",
"j%	c #6A6C7F",
"k%	c #6A6C7E",
"l%	c #666878",
"m%	c #6D6E7F",
"n%	c #77798A",
"o%	c #6C6E7E",
"p%	c #494B54",
"q%	c #070708",
"                                                                                ",
"                                                                                ",
"          . + @ # $ % & * = - ; > , ' ) ! ~ { ] ^ / ^ ( _ : < [ } | 1           ",
"        2 3 4 5 6 7 8 6 4 9 4 0 a b c d d 6 e 0 0 f e 0 6 g g h 4 i j {         ",
"        k l m n n n n n n o p n n n n p q n n n n n n n n n n n r s t #         ",
"        u v w p x p x y x y y y x p z A B C c d D E F G H I 8 J E K L M         ",
"        N O P Q x x p x x x y y y R S T U V W X Y Z `  ...+.n n @.#.$.%.        ",
"          &.*.=.-.x x x x x J p x x ;.` >.,. . .'.).p n n n n p !.~.{.].        ",
"          ^./.(._.J x y y x x p x x :.<.[.6 }.n n n |.p p p p 1.2.3.4.5.        ",
"            6.7.8.9.x p x x p x 0.-.a.b.c.n n n n x x y y x J d.e.f.g.h.        ",
"            i.j.k.l.x p p 0.x x J x a.m.n.|.x z o.-.-.a.:.y p.q.r.s.t.h.        ",
"              u.v.w.y x p ;.;.n p x x.y.` z.A.B.;.-.C.D.C.E.F.G.H.I.J.          ",
"              K.L.M.N.p O.;.x P.o o.Q.R.S.T.U.V.W.X.z.Y.Z.`. +.+++@+h.          ",
"              #+$+%+&+*+=+-+;+o R >+,+'+)+!+~+{+]+^+/+(+_+:+<+[+}+|+            ",
"                1+2+3+4+5+6+7+8+9+0+a+b+c+d+e+f+g+h+i+j+k+l+m+n+o+h.            ",
"                  p+q+r+s+t+u+v+w+x+y+% n n z+A+B+C+z+J D+E+F+G+H+I+            ",
"                        J+K+L+M+N+O+P+p n a.}.y J p p n Q+R+S+T+U+V+            ",
"                          W+X+n n n n n 0.P+M+D a.0.y n p x n }.Y+Z+`+          ",
"                           @.@+@y n p @@#@$@%@+.x x p p y x p o.&@*@=@          ",
"                          -@;@>@,@:.o.o.'@)@!@e+S a.y p y -.x y ~@{@]@^@        ",
"                          /@(@_@E.:@:.p @@<@[@}@|@:.y x x J x ;.x 1@2@3@        ",
"                          4@5@6@7@'.:@a.p z+8@9@0@a@:.0.-.x o.y x b@c@d@e@      ",
"                          f@g@h@i@'.C.:@-.y e+j@k@l@m@m@B.R x y y :.n@f@o@      ",
"                          p@q@r@s@7@m@m@+@0.x 4 M+t@u@v@E.-.x -.C.w@x@y@z@A@    ",
"                    B@C@2+D@E@F@G@H@I@J@K@L@M@T N@O@P@~@a@Q@R@E.,@E.G S@T@U@    ",
"                V@*@W@X@Y@r n n Z@`@ #.#+#@###$#%#&#*#=#-#;#>#,#,#+@n.'#)#!#    ",
"          ~#{#]#^#/#|.n n n n n (#_#f@:#j <#[#}#|#1#2#3#=#9 4#n.>#g (#5#6#7#    ",
"        1 8#9#n n n n r x 0#@@@@a#b#c#d#_#e#f#g#8 n x h#i#c j#j#F k#>#l#m#n#    ",
"        o#q n n n p#1#C.:.:@C.C.y 0#r x x n n n n n :@q#r#s#<.W t#u#J v#w#x#    ",
"        y#z#A#B#m@'.m@B#C.C#:.C#:.-.x x o.D#o.x x y Q+0 E#r#u#u#h#'.p F#G#%.    ",
"        H#L.I#J#K#>#m@M@E.C#C.C#C.:.C#C#:@L#C.y @@a.y a@,.E#h#,.p#n a.M#. N#    ",
"        O#P#Q#R#S#T#U#E.V#C#:@:@:@C.:@:@'.E.C.9.:@e+y 1#e W#k@X#x p Y#Z#j.`#    ",
"           $.$+$@$#$$$%$V#D.'.C#&$C.C.C.m@:@:.:.B#C -.C.n.s#*$=$n -.-$;$>$,$    ",
"          '$)$!$~${$]$^$X.%$/$:@'.B#Q+:@'.e+:.:.&$%$:.O.a@E#($n p _$:$<$[$}$    ",
"            |$1$2$3$4$5$6$Y.%$E.E.1#Q+:@:@z+@@:.,@C :@x m@8 h i@7$8$9$q@0$h.    ",
"              a$b$c$d$e$f$g$h$T ,@p#p#'.&$+@%$%$M@%$i$j$:.k$l$m$n$o$p$q$r$      ",
"                s$t$u$v$w$x$y$z$A$B$C$D$E$F$G$H$I$J$K$L$E.M$N$O$P$Q$R$S$h.      ",
"                  T$U$V$W$X$Y$Z$`$ %.%+%@%#%$%%%&%*%=%-%;%>%,%'%)%!%~%h.        ",
"                      {%]%^%/%(%_%:%<%_ [%}%|%1%2%3%4%5%6%7%8%9%0%a%h.          ",
"                                  b%c%d%e%f%g%h%i%j%k%l%m%n%o%p%q%              "};
