/* XPM */
static char * 6_xpm[] = {
"40 40 599 2",
"  	c None",
". 	c #CCD0E7",
"+ 	c #CED1E8",
"@ 	c #C8CBE3",
"# 	c #D0D4EC",
"$ 	c #CBCFE9",
"% 	c #C9CCE9",
"& 	c #C6CAE8",
"* 	c #BEC3E2",
"= 	c #C0C4E6",
"- 	c #BEC3E4",
"; 	c #BDC1E5",
"> 	c #BDC1DE",
", 	c #BEC3E0",
"' 	c #CED2EC",
") 	c #C7CBE9",
"! 	c #C3C5E3",
"~ 	c #C6C9E4",
"{ 	c #E2E5F9",
"] 	c #F7F7FB",
"^ 	c #F8F8FC",
"/ 	c #F7F7FC",
"( 	c #F6F6FB",
"_ 	c #F6F7FB",
": 	c #F5F6FA",
"< 	c #F5F6FB",
"[ 	c #F1F4F9",
"} 	c #E1E5FB",
"| 	c #C7CBE7",
"1 	c #A6A8B9",
"2 	c #D5D8EE",
"3 	c #D2D5EE",
"4 	c #D8DBF0",
"5 	c #EEEFFE",
"6 	c #FFFFFF",
"7 	c #FDFFFF",
"8 	c #ECF0FB",
"9 	c #CFD4EE",
"0 	c #C3C8E0",
"a 	c #D3D5ED",
"b 	c #CDD0E9",
"c 	c #FCFCFE",
"d 	c #FEFFFF",
"e 	c #FDFEFF",
"f 	c #FEFEFE",
"g 	c #FEFEFF",
"h 	c #FDFDFE",
"i 	c #F0F0F3",
"j 	c #C0C4DD",
"k 	c #C9CDE5",
"l 	c #B2B5C8",
"m 	c #D5D8F0",
"n 	c #DDE0F4",
"o 	c #FDFDFF",
"p 	c #FCFCFF",
"q 	c #FCFDFE",
"r 	c #FBFBFD",
"s 	c #FBFBFE",
"t 	c #C2C3CA",
"u 	c #C5C8E0",
"v 	c #C7CAE4",
"w 	c #737581",
"x 	c #CCCFEB",
"y 	c #F8F8FD",
"z 	c #FAFAFE",
"A 	c #FBFBFF",
"B 	c #F9F9FE",
"C 	c #F9F8FE",
"D 	c #FAFAFD",
"E 	c #F5F4F9",
"F 	c #9798A6",
"G 	c #C2C6DE",
"H 	c #676972",
"I 	c #D4D7EF",
"J 	c #EDF0FB",
"K 	c #F9F9FD",
"L 	c #F7F8FD",
"M 	c #F5F5FB",
"N 	c #F5F5FA",
"O 	c #F3F3FA",
"P 	c #F4F4F9",
"Q 	c #F1F1F6",
"R 	c #D3D2D8",
"S 	c #5E5F68",
"T 	c #BDC1D8",
"U 	c #61626B",
"V 	c #BFC4E9",
"W 	c #D9DBF2",
"X 	c #F5F5FC",
"Y 	c #F3F4FA",
"Z 	c #F3F3F9",
"` 	c #F2F2F9",
" .	c #F2F2F8",
"..	c #F1F2F7",
"+.	c #EFEFF5",
"@.	c #ECEDF3",
"#.	c #E6E7EF",
"$.	c #EBEBF2",
"%.	c #EAEBF3",
"&.	c #E9E9F1",
"*.	c #EFEFF6",
"=.	c #E7E7EF",
"-.	c #CAC8D3",
";.	c #5D5C61",
">.	c #9A9CAA",
",.	c #DFE2F5",
"'.	c #5D5F66",
").	c #C5C8EA",
"!.	c #FCFDFF",
"~.	c #FBFCFF",
"{.	c #F3F2F9",
"].	c #C9C9D1",
"^.	c #CBCBD3",
"/.	c #E8E8F0",
"(.	c #EAEBF2",
"_.	c #DBDCE3",
":.	c #CCCCD4",
"<.	c #CACAD2",
"[.	c #C4C5CE",
"}.	c #CECED9",
"|.	c #D5D5E0",
"1.	c #D9D9E3",
"2.	c #CFCFD9",
"3.	c #A6A5AF",
"4.	c #5D5C63",
"5.	c #85879B",
"6.	c #C3C6DC",
"7.	c #8E91A0",
"8.	c #000000",
"9.	c #D5D8F2",
"0.	c #E6EAF5",
"a.	c #F6F7FE",
"b.	c #DDDCE9",
"c.	c #CCCFE2",
"d.	c #F1F2F9",
"e.	c #DBDBE5",
"f.	c #A6A6AE",
"g.	c #454549",
"h.	c #36373E",
"i.	c #30323A",
"j.	c #36373D",
"k.	c #444449",
"l.	c #616168",
"m.	c #898992",
"n.	c #A1A0AC",
"o.	c #67676E",
"p.	c #3E3F47",
"q.	c #9598AD",
"r.	c #BCC1DC",
"s.	c #989AAB",
"t.	c #060607",
"u.	c #C9CCED",
"v.	c #D7DBF1",
"w.	c #E4E6F3",
"x.	c #F5F5F9",
"y.	c #F9F9FF",
"z.	c #DADAE2",
"A.	c #74747B",
"B.	c #646571",
"C.	c #ADB0C4",
"D.	c #C4C8DF",
"E.	c #B4B7D3",
"F.	c #B3B7D1",
"G.	c #ACB0C8",
"H.	c #A1A4B9",
"I.	c #A1A4BA",
"J.	c #A2A5BB",
"K.	c #A5A9BE",
"L.	c #B1B3CA",
"M.	c #B8BCD4",
"N.	c #7D7F8E",
"O.	c #C7CCE9",
"P.	c #C8CCE7",
"Q.	c #F6F6F9",
"R.	c #808087",
"S.	c #7B7D8C",
"T.	c #C4C6E3",
"U.	c #C3C6DE",
"V.	c #7F8190",
"W.	c #3A3B41",
"X.	c #656772",
"Y.	c #858998",
"Z.	c #A2A6BB",
"`.	c #B6BAD4",
" +	c #B9BDD6",
".+	c #B8BAD4",
"++	c #989AAD",
"@+	c #2A2A2E",
"#+	c #CED3EC",
"$+	c #E1E3ED",
"%+	c #B3B3B8",
"&+	c #696B79",
"*+	c #C5C8E3",
"=+	c #9C9EB3",
"-+	c #696B77",
";+	c #5C5C68",
">+	c #60616B",
",+	c #5B5E67",
"'+	c #44444B",
")+	c #CCCFE6",
"!+	c #C9CDE7",
"~+	c #D6D9E8",
"{+	c #F9F9FC",
"]+	c #F9F9FB",
"^+	c #FBFBFC",
"/+	c #FDFCFE",
"(+	c #F5F6F7",
"_+	c #707172",
":+	c #ACAFC5",
"<+	c #C2C6DF",
"[+	c #C7CAE7",
"}+	c #D5D9EF",
"|+	c #DADDF4",
"1+	c #DDE0F6",
"2+	c #D5D7E9",
"3+	c #D5D8E9",
"4+	c #CACDE6",
"5+	c #C7CBE5",
"6+	c #BEC2D7",
"7+	c #9597A7",
"8+	c #CBCEE6",
"9+	c #C7CBE3",
"0+	c #DEE1F3",
"a+	c #F8F7FA",
"b+	c #EDEDF7",
"c+	c #ECEDF5",
"d+	c #EEEEF5",
"e+	c #F0F0F5",
"f+	c #F0F1F4",
"g+	c #DDDDE0",
"h+	c #696971",
"i+	c #CED1EB",
"j+	c #DBDEF7",
"k+	c #F3F4FB",
"l+	c #F1F2F8",
"m+	c #E8EBFA",
"n+	c #CED2E9",
"o+	c #C8CBE2",
"p+	c #B7BAD5",
"q+	c #CCCFE8",
"r+	c #CACEE8",
"s+	c #EBEDFA",
"t+	c #FBFCFE",
"u+	c #FAFBFF",
"v+	c #E7E8ED",
"w+	c #848591",
"x+	c #EAECFA",
"y+	c #FFFEFF",
"z+	c #ECF0FF",
"A+	c #DADDF6",
"B+	c #C6CAE4",
"C+	c #BFC1D9",
"D+	c #D0D4ED",
"E+	c #CFD4ED",
"F+	c #DDDFE9",
"G+	c #F8F9FC",
"H+	c #ECECF3",
"I+	c #CCD0E8",
"J+	c #FBFAFF",
"K+	c #F7F8FF",
"L+	c #D3D6F4",
"M+	c #BFC3DC",
"N+	c #C1C5DC",
"O+	c #D5D9F3",
"P+	c #CFD3ED",
"Q+	c #DBDDE3",
"R+	c #FDFCFF",
"S+	c #F0F0F8",
"T+	c #D0D1DB",
"U+	c #F5F5F6",
"V+	c #DBDCE1",
"W+	c #DEDFE1",
"X+	c #ECEEFB",
"Y+	c #D7DCF7",
"Z+	c #C2C5E0",
"`+	c #BABDD7",
" @	c #C6CAE1",
".@	c #C8CBE6",
"+@	c #DBDCE2",
"@@	c #F8F8FE",
"#@	c #F6F6FC",
"$@	c #D7D6E3",
"%@	c #F3F4F7",
"&@	c #C1C3CF",
"*@	c #999AA4",
"=@	c #EAEBF9",
"-@	c #CCD0EE",
";@	c #CACCEA",
">@	c #BEC0D7",
",@	c #CBCFE8",
"'@	c #CACEE6",
")@	c #D9DBDF",
"!@	c #F7F7FE",
"~@	c #EEEEF8",
"{@	c #E3E4EF",
"]@	c #FFFFFE",
"^@	c #F9F8FB",
"/@	c #FCFBFF",
"(@	c #D2D3DF",
"_@	c #C5C9E8",
":@	c #BFC4DD",
"<@	c #A7AABB",
"[@	c #CBCEE7",
"}@	c #C8CCE4",
"|@	c #D4D5DB",
"1@	c #F5F6FC",
"2@	c #EEEFF8",
"3@	c #FAFBFE",
"4@	c #B5B5B9",
"5@	c #6F6F71",
"6@	c #565558",
"7@	c #8D8E90",
"8@	c #F1F2F6",
"9@	c #FBFCFD",
"0@	c #ABACBC",
"a@	c #B7BAD2",
"b@	c #CCCFE7",
"c@	c #D2D3DB",
"d@	c #F8F9FE",
"e@	c #FAFAFF",
"f@	c #EFEEF9",
"g@	c #C3C2CD",
"h@	c #5C5D62",
"i@	c #7A7C8D",
"j@	c #9EA0B5",
"k@	c #B3B6CB",
"l@	c #8D8FA1",
"m@	c #656571",
"n@	c #929296",
"o@	c #D5D5DB",
"p@	c #D6D6DA",
"q@	c #C8CBE4",
"r@	c #CACDE7",
"s@	c #CDD1E9",
"t@	c #CFD1DA",
"u@	c #EEEDFC",
"v@	c #9F9EAA",
"w@	c #37383D",
"x@	c #B1B4CD",
"y@	c #C5CAE8",
"z@	c #B8BBD3",
"A@	c #989BAC",
"B@	c #BEC2D9",
"C@	c #ADB1C5",
"D@	c #434449",
"E@	c #BFBEC7",
"F@	c #F6F6FD",
"G@	c #EBEBEC",
"H@	c #858794",
"I@	c #CFD2EE",
"J@	c #9DA0B3",
"K@	c #CACEE4",
"L@	c #CDD1E8",
"M@	c #C7CAD4",
"N@	c #F8F7FE",
"O@	c #B5B4C1",
"P@	c #525461",
"Q@	c #C7CAE2",
"R@	c #B8BBD2",
"S@	c #696A77",
"T@	c #0D0E10",
"U@	c #60626C",
"V@	c #9A9EAE",
"W@	c #747682",
"X@	c #D7D7E2",
"Y@	c #A2A2AB",
"Z@	c #CBCEE8",
"`@	c #CBD0EA",
" #	c #C9CDE3",
".#	c #C9CEE5",
"+#	c #BEC0CD",
"@#	c #B2B1BB",
"##	c #9498B0",
"$#	c #CBCFEC",
"%#	c #9C9FB1",
"&#	c #1C1D21",
"*#	c #040404",
"=#	c #5A5C65",
"-#	c #B9BCD3",
";#	c #ADB0C5",
">#	c #A7A8B5",
",#	c #E9EAF0",
"'#	c #9293A7",
")#	c #C9CCE6",
"!#	c #C8CBDF",
"~#	c #C6CBE3",
"{#	c #B8BAC9",
"]#	c #F9FAFE",
"^#	c #CACDE0",
"/#	c #D0D6F3",
"(#	c #CED2EF",
"_#	c #C0C2DA",
":#	c #BBBED0",
"<#	c #BEC2D4",
"[#	c #B4B7C8",
"}#	c #C6C9E0",
"|#	c #C2C4DC",
"1#	c #E1E3F4",
"2#	c #CBCDDE",
"3#	c #F7F6FD",
"4#	c #F3F2FB",
"5#	c #F7F7FD",
"6#	c #F4F4FA",
"7#	c #DDDDE9",
"8#	c #8A8D9F",
"9#	c #C8CDE6",
"0#	c #C8CCE5",
"a#	c #B7B9CB",
"b#	c #E7EAFF",
"c#	c #D3D5EC",
"d#	c #D3D5EA",
"e#	c #CACFEB",
"f#	c #CED2EA",
"g#	c #CACDE3",
"h#	c #E6EAFF",
"i#	c #E6E5EE",
"j#	c #D7D6E1",
"k#	c #E0DFE7",
"l#	c #E2E1E9",
"m#	c #E3E3E8",
"n#	c #B1B1BC",
"o#	c #8A8DA0",
"p#	c #C5C9E2",
"q#	c #A7ABBD",
"r#	c #FDFEFE",
"s#	c #F6F7FF",
"t#	c #F8F9FF",
"u#	c #FAFBFD",
"v#	c #EEEDF1",
"w#	c #EAEBEE",
"x#	c #E5E6EF",
"y#	c #DFE0EA",
"z#	c #DFE0E8",
"A#	c #D5D5DD",
"B#	c #99999E",
"C#	c #9A9DB0",
"D#	c #C1C6DD",
"E#	c #C8CCE3",
"F#	c #A9ABBE",
"G#	c #EBECEE",
"H#	c #F1F1F7",
"I#	c #F8F7FD",
"J#	c #F0F0F7",
"K#	c #E8E7F0",
"L#	c #E4E4EC",
"M#	c #E0E0E9",
"N#	c #ECEDF6",
"O#	c #E5E5EE",
"P#	c #7E7E84",
"Q#	c #A5A8BD",
"R#	c #A8ACC0",
"S#	c #CED1E5",
"T#	c #B6B9CB",
"U#	c #ACADB4",
"V#	c #E2E2E8",
"W#	c #BBBBC4",
"X#	c #C2C2CD",
"Y#	c #D9D8E4",
"Z#	c #D8D7E1",
"`#	c #DFDFEA",
" $	c #E6E6F0",
".$	c #E6E7F1",
"+$	c #EDEEF4",
"@$	c #F2F3F6",
"#$	c #F6F7FC",
"$$	c #FAF9FD",
"%$	c #F3F3F8",
"&$	c #D0CFD7",
"*$	c #BABDD5",
"=$	c #838493",
"-$	c #CACCE0",
";$	c #C5C8DE",
">$	c #838591",
",$	c #C6C7D1",
"'$	c #F3F4FC",
")$	c #C0C0CD",
"!$	c #D1D1DC",
"~$	c #FAFAFC",
"{$	c #F6F5FC",
"]$	c #F0EFF8",
"^$	c #E3E2ED",
"/$	c #ABA9B5",
"($	c #6D6F7B",
"_$	c #C6C9E3",
":$	c #41424A",
"<$	c #CFD1E7",
"[$	c #C5C8DB",
"}$	c #7C7D88",
"|$	c #D4D4DB",
"1$	c #F4F5FB",
"2$	c #EDEDF5",
"3$	c #E6E6EF",
"4$	c #CDCCD7",
"5$	c #66666D",
"6$	c #B3B6CD",
"7$	c #A8ADC1",
"8$	c #202126",
"9$	c #C9CDE6",
"0$	c #9C9FB8",
"a$	c #63656F",
"b$	c #B9B9C1",
"c$	c #F4F4FB",
"d$	c #E3E4ED",
"e$	c #CCCBD6",
"f$	c #76767D",
"g$	c #777989",
"h$	c #808293",
"i$	c #C2C6E1",
"j$	c #727483",
"k$	c #D7D6E2",
"l$	c #E3E2F0",
"m$	c #A1A1AA",
"n$	c #F8F7FF",
"o$	c #F2F3FA",
"p$	c #F2F3F9",
"q$	c #EEEFF7",
"r$	c #DFDEE8",
"s$	c #CBCBD6",
"t$	c #A5A5AF",
"u$	c #5E5D63",
"v$	c #717281",
"w$	c #BEC0DC",
"x$	c #A2A5B8",
"y$	c #1B1B1F",
"z$	c #CDD0EB",
"A$	c #BEC2E0",
"B$	c #9C9FB7",
"C$	c #626471",
"D$	c #6B6C76",
"E$	c #5A5B64",
"F$	c #E9E8F2",
"G$	c #E2E0EE",
"H$	c #B7B5C5",
"I$	c #C3C1D1",
"J$	c #D1CFDE",
"K$	c #DEDDE9",
"L$	c #E7E6F1",
"M$	c #E1E1E9",
"N$	c #D9D9E2",
"O$	c #D7D7E1",
"P$	c #D4D4DE",
"Q$	c #B4B3BD",
"R$	c #888890",
"S$	c #45464E",
"T$	c #6C6F80",
"U$	c #999CB3",
"V$	c #C9CDEB",
"W$	c #A4A7BF",
"X$	c #29292E",
"Y$	c #999BB1",
"Z$	c #C2C6E5",
"`$	c #C2C5E2",
" %	c #BDC0DB",
".%	c #898C9D",
"+%	c #5C5C62",
"@%	c #55555C",
"#%	c #737684",
"$%	c #9599AC",
"%%	c #565760",
"&%	c #4B4B51",
"*%	c #57575F",
"=%	c #515156",
"-%	c #4A4A4F",
";%	c #4D4D52",
">%	c #43444B",
",%	c #989AB1",
"'%	c #BABFE1",
")%	c #C6CBEA",
"!%	c #BABDDA",
"~%	c #757687",
"{%	c #27272D",
"]%	c #888A97",
"^%	c #AFB1C6",
"/%	c #C0C3DC",
"(%	c #B9BCD4",
"_%	c #BCC0DA",
":%	c #B8BDDA",
"<%	c #C5CAEA",
"[%	c #BCC0E0",
"}%	c #B9BDDA",
"|%	c #B9BEDF",
"1%	c #CDD0ED",
"2%	c #C2C5E1",
"3%	c #A0A4C0",
"4%	c #60626F",
"5%	c #0B0B0D",
"6%	c #464853",
"7%	c #41414B",
"8%	c #2F2F36",
"9%	c #383A42",
"0%	c #3E404A",
"a%	c #41424D",
"b%	c #40414C",
"c%	c #3D3E4A",
"d%	c #3A3B46",
"e%	c #3B3D49",
"f%	c #454651",
"g%	c #373840",
"h%	c #08090A",
"                                                                                ",
"                              . + @ # $ % & * = - ; > , '                       ",
"                        ) ! ~ { ] ] ^ ^ ] / ( _ : < : [ } | 1                   ",
"                    2 3 4 5 6 6 6 6 6 6 6 6 6 6 6 6 6 7 8 9 0                   ",
"                  a b c d 6 6 6 e 6 f 6 6 6 g h h g g 6 i j k l                 ",
"                m n ( 6 6 o p o e q r c p o g g c s s h h t u v w               ",
"                x g 6 6 s y ^ z A p A p z A B C B z p D ^ E F G H               ",
"              I J 6 6 K L L / ( _ M M ^ M / < < ( N O P Q R S T U               ",
"            V W 6 6 s X Y Y Z `  ...+.@.#.$.%.&.&.$.*.=.-.;.>.,.'.              ",
"            ).!.~.6 c {.].^./.(.&._.:.<.[.:.}.}.|.1.2.3.4.5.6.7.8.              ",
"          9.0.h 6 a.M b.c.6 B d.e.f.g.h.i.j.k.l.m.n.o.p.q.r.s.t.8.              ",
"          u.v.w.6 g x.y.6 6 o z.A.B.C.D.E.F.G.H.I.J.K.L.M.N.t.8.                ",
"          O.P.Q.g g 6 6 g d M R.S.T.U.V.W.X.Y.Z.`. +.+++@+8.8.                  ",
"          #+$+6 6 6 g g d c %+&+*+=+-+;+>+>+,+'+                                ",
"        )+!+~+{+]+^+/+f g (+_+:+<+[+}+|+1+2+3+4+5+6+7+                          ",
"        8+9+0+a+b+c+d+e+f+g+h+i+j+d.e 6 6 6 !.k+l+m+n+o+p+                      ",
"        q+r+s+6 g g !.t+u+v+w+x+6 6 6 y+6 6 g 6 6 6 e z+A+B+C+                  ",
"        D+E+F+6 p z y G+K H+I+6 6 6 g o g o J+A o o o 6 K+L+M+N+                ",
"        O+P+Q+6 R+B B z S+T+U+6 g g g g g o c o g o c V+W+X+Y+Z+`+              ",
"         @.@+@d p @@@@#@$@%@6 o o g 6 y+6 g g g g o o ^+&@*@=@-@;@>@            ",
"        ,@'@)@d o @@!@~@{@6 !.o o f ]@o ^@/@p o o o o g t+t+6 (@_@:@<@          ",
"        [@}@|@6 p z 1@2@3@g z p A r 4@5@6@7@8@] o o o 6 6 6 6 9@0@<+a@          ",
"        i+b@c@g p B y d@g e@y.f@g@h@i@j@k@l@m@n@o@y R+h g 6 e g p@U.q@          ",
"        r@s@t@g p B d@3@A !@u@v@w@x@y@z@A@B@k C@D@E@F@p p s s g G@H@I@J@        ",
"        K@L@M@6 o e@B B A N@O@P@Q@R@S@T@8.U@V@ @R@W@X@y.z 3@p p D Y@Z@`@        ",
"         #.#+#g p e@A z A A @###$#%#&#*#      =#-#;#>#B e@A e@B B ,#'#)#8.      ",
"        !#~#{#g o z B ]#z z ` ^#/#(#_#:#<#  [#}#|#1#2#3#4#5#M 6#` 7#8#9#8.      ",
"          0#a#6 o s K K B B L p d 6 b#c#d#e#f#g#h#6 ]#i#j#k#l#m#z.n#o#p#8.      ",
"          v q#r#g c p p 3@A A t+!.g 6 6 6 s#t#6 6 6 u#v#w#x#y#z#A#B#C#D#8.      ",
"          E#F#G#o H#( I#N H#J#d+K#L#M#N#d 6 6 6 6 6 g g g 6 6 6 O#P#Q#R#8.      ",
"          S#T#U#V#W#X#Y#Z#`# $.$+$i @$] d 6 6 o z #$< C I#z $$%$&$l.*$=$8.      ",
"          -$;$>$,$'$)$!$~$6 6 6 6 g g g g p L y #@X F@5#F@{$]$^$/$($_$:$8.      ",
"            <$[$}$|$c 6 d p ~.g o p o A B 5#( / 6#O 1$M O 2$3$4$5$6$7$8$        ",
"              9$0$a$b$+.p e@y.A A A !.A z X c$M 6#< c$Y J#d$e$f$g$<+h$8.        ",
"                i$U.j$A.k$l$m$n$B N@e@A B 5#o$6#Z p$q$r$s$t$u$v$w$x$y$          ",
"                  z$A$B$C$D$E$F$G$H$I$J$K$L$M$N$O$P$Q$R$S$T$U$V$W$X$8.          ",
"                    Y$Z$`$ %.%+%@%#%$%%%&%*%=%-%-%;%>%,%'%)%!%~%{%8.            ",
"                        ]%^%/%r+5+$ (%_%:%_@<%[%}%|%1%2%3%4%5%8.                ",
"                                6%7%8%9%0%a%b%c%d%e%f%g%h%8.                    ",
"                                                                                "};
