/* XPM */
static char * 7_xpm[] = {
"40 40 461 2",
"  	c None",
". 	c #CCCEE5",
"+ 	c #CED1E6",
"@ 	c #D2D5EC",
"# 	c #D2D5F0",
"$ 	c #D1D5F1",
"% 	c #C2C6E1",
"& 	c #C1C4DE",
"* 	c #C4C8E4",
"= 	c #C8CCE8",
"- 	c #C4C7E4",
"; 	c #C4C7E0",
"> 	c #CFD2E9",
", 	c #D8DCF2",
"' 	c #CACDE4",
") 	c #CBCFE6",
"! 	c #CCCFE8",
"~ 	c #F1F3FC",
"{ 	c #F8F8FC",
"] 	c #F8F9FC",
"^ 	c #F8F8FB",
"/ 	c #F9F9FD",
"( 	c #F7F8FC",
"_ 	c #F6F7FA",
": 	c #EFF1FA",
"< 	c #C5C9E4",
"[ 	c #C7CBE7",
"} 	c #C0C4E1",
"| 	c #C2C5DF",
"1 	c #C5C8E4",
"2 	c #E8EBFC",
"3 	c #F7F7FB",
"4 	c #EDEEFC",
"5 	c #CBCEE8",
"6 	c #CBCFE7",
"7 	c #BEC2E0",
"8 	c #C7CBE8",
"9 	c #C6C9E6",
"0 	c #C6CAE6",
"a 	c #FBFCFD",
"b 	c #FFFFFF",
"c 	c #F9FBFF",
"d 	c #FEFFFF",
"e 	c #F9FAFD",
"f 	c #FBFBFE",
"g 	c #FCFDFF",
"h 	c #DCDFF9",
"i 	c #CBCEEA",
"j 	c #C6CBE4",
"k 	c #C8CBE7",
"l 	c #D8DCF6",
"m 	c #FAFAFD",
"n 	c #FEFEFF",
"o 	c #FDFDFF",
"p 	c #FCFCFF",
"q 	c #F9F8FE",
"r 	c #E7E8EF",
"s 	c #EEEEFA",
"t 	c #EEEEF8",
"u 	c #EBEBF4",
"v 	c #F3F4FB",
"w 	c #E7E8F1",
"x 	c #E4E5ED",
"y 	c #E3E5ED",
"z 	c #EBECF5",
"A 	c #F5F7FF",
"B 	c #FCFEFF",
"C 	c #DADCE6",
"D 	c #CDCFEC",
"E 	c #ACAFC7",
"F 	c #CBCFEA",
"G 	c #A9ACC0",
"H 	c #FBFCFE",
"I 	c #F7F7FD",
"J 	c #E5E6ED",
"K 	c #ECEDF6",
"L 	c #EDEEF7",
"M 	c #EDEDF7",
"N 	c #EEEFF8",
"O 	c #F3F4FA",
"P 	c #F4F5F9",
"Q 	c #F7F8FD",
"R 	c #D6D7DE",
"S 	c #ACAFC9",
"T 	c #A9ACC5",
"U 	c #C5C9E5",
"V 	c #A4A7BC",
"W 	c #F9F9FC",
"X 	c #FCFCFE",
"Y 	c #E5E6EC",
"Z 	c #E8E9F1",
"` 	c #F1F2FB",
" .	c #F9FAFF",
"..	c #D6D6DC",
"+.	c #8E90A8",
"@.	c #A4A6C0",
"#.	c #C6C9E4",
"$.	c #A4A7BD",
"%.	c #EEEEF3",
"&.	c #E0E1E7",
"*.	c #E8EAF4",
"=.	c #FBFCFF",
"-.	c #FAFAFF",
";.	c #BCBCC2",
">.	c #B2B5D2",
",.	c #A3A6BF",
"'.	c #CDD0E9",
").	c #A2A5BB",
"!.	c #DCDDE4",
"~.	c #F7F8FE",
"{.	c #DBDCE5",
"].	c #F4F7FF",
"^.	c #FBFBFF",
"/.	c #F9F9FE",
"(.	c #F6F6FD",
"_.	c #8A8992",
":.	c #BFC2DE",
"<.	c #9FA1B7",
"[.	c #C9CCE5",
"}.	c #B8BBD5",
"|.	c #B0B1B9",
"1.	c #F7F7FE",
"2.	c #E3E4EF",
"3.	c #FDFEFF",
"4.	c #FCFBFF",
"5.	c #FBFAFE",
"6.	c #FAFAFE",
"7.	c #FBFAFF",
"8.	c #F8F8FD",
"9.	c #EFEEF9",
"0.	c #5F6069",
"a.	c #BABEDB",
"b.	c #808192",
"c.	c #CFD3EF",
"d.	c #808291",
"e.	c #DFDFE4",
"f.	c #F1F1F6",
"g.	c #FCFBFD",
"h.	c #FBFBFD",
"i.	c #FDFCFE",
"j.	c #F2F1F9",
"k.	c #D6D6E0",
"l.	c #ECECF3",
"m.	c #F7F5FF",
"n.	c #F8F7FE",
"o.	c #F6F6FC",
"p.	c #F4F4FC",
"q.	c #F6F6FB",
"r.	c #F3F3FA",
"s.	c #E8E7F2",
"t.	c #C7C6D4",
"u.	c #707180",
"v.	c #565662",
"w.	c #C5C9E7",
"x.	c #AEB1C9",
"y.	c #4B4C52",
"z.	c #6B6B6E",
"A.	c #7E7D7E",
"B.	c #7C7B80",
"C.	c #78777F",
"D.	c #7A7A7D",
"E.	c #7D7C7E",
"F.	c #808082",
"G.	c #7D7C7F",
"H.	c #717174",
"I.	c #525054",
"J.	c #656268",
"K.	c #76747F",
"L.	c #838291",
"M.	c #9697AA",
"N.	c #C1C2D1",
"O.	c #EBEAF3",
"P.	c #EDEDF5",
"Q.	c #EAEAF3",
"R.	c #E9E8F2",
"S.	c #E3E3ED",
"T.	c #E2E2EA",
"U.	c #E0E0E9",
"V.	c #D4D3DD",
"W.	c #A09EA8",
"X.	c #3B3B41",
"Y.	c #8E92AD",
"Z.	c #BFC4E5",
"`.	c #19191D",
" +	c #CBCEE6",
".+	c #D0D4EC",
"++	c #D3D6EC",
"@+	c #D0D3EA",
"#+	c #CDD0E8",
"$+	c #C3C6E2",
"%+	c #CBCEE3",
"&+	c #D7DAEE",
"*+	c #D0D3E8",
"=+	c #D2D5E9",
"-+	c #D6DAF0",
";+	c #F0F2FB",
">+	c #F3F4F6",
",+	c #F1F2F6",
"'+	c #DDDDE6",
")+	c #DBDBE3",
"!+	c #D8D8E1",
"~+	c #D5D5DE",
"{+	c #D3D4DD",
"]+	c #D0D1D7",
"^+	c #9C9B9F",
"/+	c #4D4F58",
"(+	c #AEB2CC",
"_+	c #555763",
":+	c #000000",
"<+	c #4C4E59",
"[+	c #4B4C57",
"}+	c #4A4B56",
"|+	c #494A57",
"1+	c #464854",
"2+	c #4C4E57",
"3+	c #50515B",
"4+	c #4D4E58",
"5+	c #B0B3C8",
"6+	c #D5D9F1",
"7+	c #ECEFFB",
"8+	c #F9FBFD",
"9+	c #EBEDF5",
"0+	c #E7EAF2",
"a+	c #E4E5EE",
"b+	c #E9EAF4",
"c+	c #E9EAF5",
"d+	c #E4E5EC",
"e+	c #B6B7B8",
"f+	c #5F6064",
"g+	c #B7BAD0",
"h+	c #C7CBE3",
"i+	c #45464F",
"j+	c #040506",
"k+	c #C1C5DC",
"l+	c #F3F4FF",
"m+	c #F1F4FF",
"n+	c #E3E5EA",
"o+	c #828287",
"p+	c #9B9DAE",
"q+	c #C8CBE1",
"r+	c #636470",
"s+	c #A4A6B7",
"t+	c #C2C7E1",
"u+	c #FAFEFF",
"v+	c #C2C2C6",
"w+	c #5A5B64",
"x+	c #C9CCE1",
"y+	c #A7A9BC",
"z+	c #060607",
"A+	c #C0C3DD",
"B+	c #DEE1F0",
"C+	c #E9ECFF",
"D+	c #EFEFF9",
"E+	c #EFEFFC",
"F+	c #71707B",
"G+	c #ABAEC1",
"H+	c #BCBFD3",
"I+	c #27272C",
"J+	c #CACEE8",
"K+	c #F5F6FF",
"L+	c #F0F1FA",
"M+	c #F4F6FE",
"N+	c #F8F8FF",
"O+	c #A6A6AF",
"P+	c #828592",
"Q+	c #CFD3E9",
"R+	c #737581",
"S+	c #C9CEEC",
"T+	c #FEFEFE",
"U+	c #FCFBFE",
"V+	c #DBDBE4",
"W+	c #2A2B2E",
"X+	c #BDC0D4",
"Y+	c #B2B4C7",
"Z+	c #202024",
"`+	c #C4C7E2",
" @	c #FBFDFE",
".@	c #EEF0FD",
"+@	c #E7E9F4",
"@@	c #E0E1E9",
"#@	c #EFEFF3",
"$@	c #9D9DA3",
"%@	c #8E909D",
"&@	c #D0D4EA",
"*@	c #262629",
"=@	c #D1D4EC",
"-@	c #EFF2FF",
";@	c #F3F4F9",
">@	c #EFF0FA",
",@	c #E5E6EE",
"'@	c #EDEDF1",
")@	c #D6D6DF",
"!@	c #61616C",
"~@	c #D9DBF0",
"{@	c #999CAB",
"]@	c #CED1EC",
"^@	c #D2D6F2",
"/@	c #F4F5FF",
"(@	c #FDFDFE",
"_@	c #F8F9FE",
":@	c #F5F6FE",
"<@	c #E9EAF1",
"[@	c #F4F4F9",
"}@	c #ECEBF2",
"|@	c #646468",
"1@	c #A5A7B9",
"2@	c #CBCFE5",
"3@	c #3D3E45",
"4@	c #C4C8E1",
"5@	c #F3F4FC",
"6@	c #FDFFFF",
"7@	c #F7F7FC",
"8@	c #FCFDFE",
"9@	c #F6F8FE",
"0@	c #F0F1FB",
"a@	c #EDEEF5",
"b@	c #CAC8D1",
"c@	c #4F5058",
"d@	c #D2D6ED",
"e@	c #71727E",
"f@	c #C2C7E2",
"g@	c #F0F1FC",
"h@	c #F6F7FE",
"i@	c #929299",
"j@	c #AAADBF",
"k@	c #C0C3D8",
"l@	c #CACDE9",
"m@	c #E1E4FD",
"n@	c #F6F7FD",
"o@	c #F4F5FA",
"p@	c #C2C2C8",
"q@	c #6B6C77",
"r@	c #CCCFE7",
"s@	c #9C9FB0",
"t@	c #C8CCE5",
"u@	c #DEDFF1",
"v@	c #EAECFF",
"w@	c #F9FAFE",
"x@	c #F6F6F9",
"y@	c #98989C",
"z@	c #8F92A3",
"A@	c #CBCFE8",
"B@	c #505159",
"C@	c #CCCFEB",
"D@	c #ECF1FF",
"E@	c #F6F8FF",
"F@	c #F3F2F7",
"G@	c #66666D",
"H@	c #ACAFC5",
"I@	c #A3A4B9",
"J@	c #C8CBE6",
"K@	c #FAFBFF",
"L@	c #F5F5FB",
"M@	c #D4D3DE",
"N@	c #5A5C66",
"O@	c #C5C8E2",
"P@	c #53545F",
"Q@	c #C3C7E4",
"R@	c #F5F8FF",
"S@	c #F8F8FE",
"T@	c #ECECF5",
"U@	c #818189",
"V@	c #A2A7BB",
"W@	c #B6B9CE",
"X@	c #25262A",
"Y@	c #D6D9F0",
"Z@	c #D7D7E0",
"`@	c #65676F",
" #	c #C7CADD",
".#	c #9194A2",
"+#	c #010102",
"@#	c #CED2EB",
"##	c #F8F9FD",
"$#	c #F3F3F9",
"%#	c #93929A",
"&#	c #8A8C9B",
"*#	c #C9CBE1",
"=#	c #2B2B30",
"-#	c #C7CBE4",
";#	c #EDEFF8",
">#	c #F4F4FA",
",#	c #5D5D64",
"'#	c #C1C3DA",
")#	c #9092A2",
"!#	c #C8CBE5",
"~#	c #C1C2CE",
"{#	c #F0F0F7",
"]#	c #B5B4BE",
"^#	c #8E90A0",
"/#	c #BEC2DB",
"(#	c #4F515A",
"_#	c #CACDE3",
":#	c #C5C8E3",
"<#	c #ECECF4",
"[#	c #B5B5C3",
"}#	c #F0F1F9",
"|#	c #E6E6EF",
"1#	c #47474E",
"2#	c #C4C8DF",
"3#	c #ACAFC6",
"4#	c #121215",
"5#	c #CED0EC",
"6#	c #E0E3F5",
"7#	c #EEEEF7",
"8#	c #F2F2F9",
"9#	c #F4F4FB",
"0#	c #D8D8E2",
"a#	c #D7D9E5",
"b#	c #9F9EA7",
"c#	c #777986",
"d#	c #D1D5EE",
"e#	c #5E5F69",
"f#	c #CED2EF",
"g#	c #E0E4FD",
"h#	c #EDEDF6",
"i#	c #E6E7EF",
"j#	c #D6D5E0",
"k#	c #4F4E53",
"l#	c #C9C9D2",
"m#	c #D9D8E5",
"n#	c #45454B",
"o#	c #C7CAE2",
"p#	c #A4A6B8",
"q#	c #010101",
"r#	c #D1D4F1",
"s#	c #A5A8BD",
"t#	c #7C7C84",
"u#	c #807F88",
"v#	c #8B8A93",
"w#	c #898991",
"x#	c #7F7F87",
"y#	c #68686E",
"z#	c #575860",
"A#	c #828594",
"B#	c #787A87",
"C#	c #6B6D79",
"D#	c #A4A8BB",
"E#	c #C9CDE4",
"F#	c #585964",
"G#	c #CDD2EC",
"H#	c #C8CAE8",
"I#	c #C4C9E5",
"J#	c #BCC0E0",
"K#	c #B2B6D5",
"L#	c #C5C8E0",
"M#	c #C0C5DD",
"N#	c #CACBE5",
"O#	c #C2C5DD",
"P#	c #CACEE6",
"Q#	c #C0C3DB",
"R#	c #C4C7E1",
"S#	c #53555C",
"T#	c #828496",
"U#	c #818494",
"V#	c #808293",
"W#	c #828595",
"X#	c #6F707D",
"Y#	c #484951",
"Z#	c #343439",
"`#	c #323339",
" $	c #313237",
"                                                                                ",
"                  . + @ # $ % &             * = - ; > , '                       ",
"        ) ! ~ { ] { ^ / ] ( _ : # < [ } | 1 2 3 3 _ 3 / 4 5 6 7 8 = 9           ",
"        0 a b b b b b b b b b b b b b b b c b d e f g b b b b b b h i j         ",
"        k l m n o o o p p p o o q r s t u u b v w x y z A B b b b C D E         ",
"        F G f o o o o n H o p p I J w K L M N N O P Q b b b b b n R S T         ",
"        U V W X n o n o X n f p I Y Z N N `  .b b b b b b b b b p ..+.@.        ",
"        #.$.%.n o f o o o n p p I &.*.Q =.b b b n o g o n n o p -.;.>.,.        ",
"        '.).!.H n n o o o o o p ~.{.].b b b n p ^.-.^.p o f f /.(._.:.<.        ",
"        [.}.|./.g n o X o o n p 1.2.3.3.4.p 5.6.7.-.-.p ^.6.8.(.9.0.a.b.        ",
"          c.d.e.f.g.5.I h.i.n f j.k.l.(.m.n.o.8.n.I I p.q.o.r.s.t.u.'.v.        ",
"          w.x.y.z.A.B.C.D.E.F.G.H.I.J.K.L.M.N.O.P.Q.R.S.T.U.V.W.X.Y.Z.`.        ",
"            7  +.+++@+#+5 $+%+&+*+=+-+;+e >+,+'+)+!+~+{+!+]+^+/+E (+_+:+        ",
"                  <+[+}+|+1+2+3+4+5+6+7+8+9+0+w a+w b+c+d+e+f+g+h+i+j+          ",
"                                  k+l+m+3.o b g =.b n 3.n+o+p+q+r+:+:+          ",
"                                s+t+u+ .I 3.b n d b b g v+w+x+y+z+:+            ",
"                                A+B+C+v D+=.d o n n g E+F+G+H+I+:+              ",
"                                J+ .K+L+M+g n n d o N+O+P+Q+R+:+                ",
"                                S+3.T+c+O 6.U+p o o V+W+X+Y+Z+                  ",
"                              `+ @.@n +@@@#@{ ^.o -.$@%@&@*@:+                  ",
"                            `+=@-@;@b  .>@,@'@3 /.)@!@~@{@:+                    ",
"                          ]@^@/@b (@6.p _@:@<@[@}@|@1@2@3@:+                    ",
"                          4@5@6@b o.7@o 8@9@0@a@b@c@d@e@:+                      ",
"                          f@g@b+I 8.8.Q o =.h@!.i@j@k@:+                        ",
"                          l@m@n@-.6./.I p o o@p@q@r@s@:+                        ",
"                        t@u@v@o w@6.6.I /.p x@y@z@A@B@:+                        ",
"                        C@D@E@o p ^.f Q /.m F@G@H@I@:+                          ",
"                      J@, K@o ^.o 6.8.o.I L@M@N@O@P@:+                          ",
"                      Q@;@R@3.^.^.S@8.n@-.T@U@V@W@X@                            ",
"                    % Y@ .n S@S@(.I 8.I f Z@`@ #.#+#                            ",
"                    @#b b f n@S@I I 8.##$#%#&#*#=#:+                            ",
"                  -#;#g n 7@7@8.I L@>#o.U.,#'#)#:+                              ",
"                !#, d n ( q.o.o.o.Z ~#{#]#^#/#(#:+                              ",
"              _#:#=.3.6.L@q.n@8.<#[#}#|#1#2#3#4#                                ",
"              5#6#3.m 7#8#9#o.L@0#a#W b#c#d#e#:+                                ",
"              f#g#L+h#7#h#i#S.j#k#l#m#n#o#p#q#                                  ",
"              r#s#t#u#v#w#x#y#z#A#B#C#D#E#F#:+                                  ",
"              G#H#I#J#K#L#M#N#O#P#A@Q#R#S#:+                                    ",
"                      T#U#V#W#X#Y#Z#`# $                                        ",
"                                                                                "};
