/* XPM */
static char * 8_xpm[] = {
"40 40 596 2",
"  	c None",
". 	c #CBCEE8",
"+ 	c #CBCEE9",
"@ 	c #C9CCE8",
"# 	c #C4C7E5",
"$ 	c #D0D3EF",
"% 	c #C7CBE5",
"& 	c #C9CCE6",
"* 	c #CBCFE8",
"= 	c #C3C7DE",
"- 	c #C5C6DF",
"; 	c #C4C7E2",
"> 	c #C8CBE2",
", 	c #BFC3DD",
"' 	c #C0C3E1",
") 	c #CBCFEE",
"! 	c #EEF0FC",
"~ 	c #F9F9FD",
"{ 	c #F8F9FC",
"] 	c #FAFAFD",
"^ 	c #F9F9FC",
"/ 	c #F8F8FB",
"( 	c #F3F8FB",
"_ 	c #D4D8F3",
": 	c #C6C9E7",
"< 	c #D0D3F0",
"[ 	c #D2D6EE",
"} 	c #CFD4ED",
"| 	c #DCE0F2",
"1 	c #E9EBF9",
"2 	c #FFFFFF",
"3 	c #F8FBFF",
"4 	c #DFE2F8",
"5 	c #C8CDEA",
"6 	c #C0C3DA",
"7 	c #C7CBE3",
"8 	c #C3C7E4",
"9 	c #F2F3F9",
"0 	c #FEFEFF",
"a 	c #FEFFFF",
"b 	c #FFFEFF",
"c 	c #FEFDFF",
"d 	c #F4F8FF",
"e 	c #E8EDFF",
"f 	c #D4D7F1",
"g 	c #C9CDE7",
"h 	c #C2C5D9",
"i 	c #C1C6E0",
"j 	c #DADCEB",
"k 	c #F3F6FF",
"l 	c #FBFBFE",
"m 	c #FAFAFE",
"n 	c #FCFCFE",
"o 	c #FDFDFE",
"p 	c #FEFEFE",
"q 	c #FCFDFE",
"r 	c #DDDCDF",
"s 	c #E8E8E8",
"t 	c #F6F9FF",
"u 	c #DBE0FB",
"v 	c #D1D5ED",
"w 	c #CCCFE6",
"x 	c #C8CCE4",
"y 	c #CCCFE2",
"z 	c #F5F5FB",
"A 	c #F7F8FC",
"B 	c #FCFCFF",
"C 	c #FAFAFF",
"D 	c #FBFBFF",
"E 	c #FDFDFF",
"F 	c #FAFBFE",
"G 	c #F8F8FD",
"H 	c #E3E4EC",
"I 	c #EFF0F9",
"J 	c #D7DBF3",
"K 	c #CED1EA",
"L 	c #A7A8B9",
"M 	c #BDC2D9",
"N 	c #DBDDEC",
"O 	c #FCFDFF",
"P 	c #F7F8FD",
"Q 	c #F7F7FC",
"R 	c #DDDDE4",
"S 	c #F3F3F9",
"T 	c #F7F7FD",
"U 	c #F9F9FE",
"V 	c #F6F6FC",
"W 	c #F7F7FA",
"X 	c #AEAFB7",
"Y 	c #C6C9DF",
"Z 	c #9DA0AF",
"` 	c #C6C9E4",
" .	c #F7FAFF",
"..	c #F5F5FA",
"+.	c #F6F6FB",
"@.	c #F8F8FC",
"#.	c #D8D8E1",
"$.	c #D9D9E2",
"%.	c #F4F4FA",
"&.	c #F2F2F8",
"*.	c #F0F0F7",
"=.	c #EFEFF6",
"-.	c #F1F1F7",
";.	c #F1F1F6",
">.	c #F0F0F6",
",.	c #DCDCE2",
"'.	c #4F5055",
").	c #AFB2C5",
"!.	c #9FA2B2",
"~.	c #F6F7FC",
"{.	c #F4F5FA",
"].	c #F1F2F8",
"^.	c #D4D3DD",
"/.	c #CFD0D9",
"(.	c #E6E6ED",
"_.	c #E5E5EC",
":.	c #E5E5ED",
"<.	c #E8E8EF",
"[.	c #E9EAF1",
"}.	c #E8E8F0",
"|.	c #E6E6EE",
"1.	c #E2E2EB",
"2.	c #E5E5EE",
"3.	c #E7E6F0",
"4.	c #E7E7F0",
"5.	c #E9E9F1",
"6.	c #E5E6EE",
"7.	c #B0B1BB",
"8.	c #D0D3EA",
"9.	c #CACDE4",
"0.	c #C7CAE2",
"a.	c #FCFFFF",
"b.	c #ECEEF8",
"c.	c #F1F1F8",
"d.	c #EEEFF7",
"e.	c #EAEAF2",
"f.	c #C9C9D3",
"g.	c #CECFDB",
"h.	c #E6E7EF",
"i.	c #E9EAF2",
"j.	c #EAEBF3",
"k.	c #E3E4ED",
"l.	c #DADAE3",
"m.	c #E2E3EC",
"n.	c #EBECF5",
"o.	c #EDEEF6",
"p.	c #E7E8F2",
"q.	c #E7E7F2",
"r.	c #E9E9F3",
"s.	c #E8E9F2",
"t.	c #EAEBF4",
"u.	c #D9D9E3",
"v.	c #B1B3C5",
"w.	c #D3D5EC",
"x.	c #C5CAE2",
"y.	c #F1F7FF",
"z.	c #F0F1F6",
"A.	c #FDFEFE",
"B.	c #EDEEF5",
"C.	c #ADACB4",
"D.	c #67676D",
"E.	c #6A6B71",
"F.	c #828289",
"G.	c #95959E",
"H.	c #ABABB7",
"I.	c #C0C0CC",
"J.	c #AEAEBA",
"K.	c #5D5C62",
"L.	c #A8A8B1",
"M.	c #EDEDF5",
"N.	c #F3F3FC",
"O.	c #EDEEF9",
"P.	c #EEEEFA",
"Q.	c #F1F2FC",
"R.	c #EAEBF6",
"S.	c #E6E6F0",
"T.	c #A9AAB7",
"U.	c #D3D7ED",
"V.	c #9294A5",
"W.	c #CACFEA",
"X.	c #CCD0EC",
"Y.	c #5B5C65",
"Z.	c #9294AA",
"`.	c #A5A8BE",
" +	c #9092A7",
".+	c #888B9C",
"++	c #878999",
"@+	c #828495",
"#+	c #9395A7",
"$+	c #BCBECD",
"%+	c #F7F8FE",
"&+	c #FBFCFF",
"*+	c #F5F6FD",
"=+	c #F6F7FD",
"-+	c #F8F9FF",
";+	c #F8FAFF",
">+	c #F6F7FE",
",+	c #A7A6B1",
"'+	c #8B8E9E",
")+	c #DBDDF3",
"!+	c #BEC1D3",
"~+	c #FCFCFD",
"{+	c #F8F8FE",
"]+	c #8C8EA1",
"^+	c #BEC1DF",
"/+	c #8F91A3",
"(+	c #ADAFC5",
"_+	c #BFC3D9",
":+	c #C8CBE3",
"<+	c #C3C6DF",
"[+	c #C8CCE5",
"}+	c #C1C4D6",
"|+	c #FDFEFF",
"1+	c #FCFEFF",
"2+	c #AAAAB4",
"3+	c #C6C9E5",
"4+	c #888B9E",
"5+	c #D0D3EC",
"6+	c #9B9FB1",
"7+	c #FBFBFD",
"8+	c #FBFCFE",
"9+	c #A8ABC1",
"0+	c #C4C6E4",
"a+	c #9496AC",
"b+	c #9194A9",
"c+	c #9396A9",
"d+	c #9597A9",
"e+	c #9194A6",
"f+	c #9698A9",
"g+	c #CACDE5",
"h+	c #BFC3D8",
"i+	c #AFADB8",
"j+	c #C9CCE5",
"k+	c #9093A6",
"l+	c #CBD0E9",
"m+	c #8D90A0",
"n+	c #CDCDD1",
"o+	c #DDDCE4",
"p+	c #DDDCE5",
"q+	c #E6E5ED",
"r+	c #EDEBF3",
"s+	c #F3F2F9",
"t+	c #F8F9FA",
"u+	c #FAFBFD",
"v+	c #A4A7B8",
"w+	c #C3C6E0",
"x+	c #C9CCE7",
"y+	c #CACEE9",
"z+	c #D2D5EF",
"A+	c #D7DBF4",
"B+	c #D0D4EA",
"C+	c #CED2E8",
"D+	c #CBCEE7",
"E+	c #B9BCD2",
"F+	c #FAF9FE",
"G+	c #A6A7B3",
"H+	c #D0D3EE",
"I+	c #8A8C9E",
"J+	c #CCCFE7",
"K+	c #ADAFC4",
"L+	c #E1E2EB",
"M+	c #F3F4F8",
"N+	c #F4F5FB",
"O+	c #E7E8F1",
"P+	c #EAEEFD",
"Q+	c #DCE0F8",
"R+	c #CDD2E4",
"S+	c #92929E",
"T+	c #818494",
"U+	c #CED1E8",
"V+	c #BCC0D8",
"W+	c #ADAFB8",
"X+	c #F7F8FA",
"Y+	c #FAFBFF",
"Z+	c #FAFFFF",
"`+	c #F5F4FD",
" @	c #D1D1D9",
".@	c #75767E",
"+@	c #D1D4EE",
"@@	c #757686",
"#@	c #8D8EA0",
"$@	c #96969A",
"%@	c #E2E2E7",
"&@	c #D3D3DB",
"*@	c #CDCFDE",
"=@	c #F6F6FE",
"-@	c #676873",
";@	c #C7CAE6",
">@	c #61626E",
",@	c #C4C8E4",
"'@	c #E8EAF6",
")@	c #FDFCFF",
"!@	c #F8F9FE",
"~@	c #F9FAFE",
"{@	c #CCCCD0",
"]@	c #B3B4BD",
"^@	c #E4E4E7",
"/@	c #E7E7EB",
"(@	c #E9E9ED",
"_@	c #EEEEF5",
":@	c #A7A7AD",
"<@	c #8B8DA1",
"[@	c #D0D4ED",
"}@	c #393940",
"|@	c #C6CAE7",
"1@	c #F8FAFE",
"2@	c #F9FAFF",
"3@	c #F8F9FB",
"4@	c #E1E4EE",
"5@	c #EDEDED",
"6@	c #EFEFF0",
"7@	c #CDD0DF",
"8@	c #707076",
"9@	c #4A4B53",
"0@	c #BABCD6",
"a@	c #BBBED2",
"b@	c #0E0E10",
"c@	c #D3D6F5",
"d@	c #EEEFFB",
"e@	c #FEFFFE",
"f@	c #F8FCFF",
"g@	c #D6DAF3",
"h@	c #C8CCE8",
"i@	c #8B8EA1",
"j@	c #CDD0EA",
"k@	c #EEF1FE",
"l@	c #E7E7F4",
"m@	c #D0D1DE",
"n@	c #D3D7F5",
"o@	c #B6BAD5",
"p@	c #F9FBFF",
"q@	c #EEEFF8",
"r@	c #F9F8FF",
"s@	c #F0EFFB",
"t@	c #C4C3CE",
"u@	c #B7B7C0",
"v@	c #B7B7BE",
"w@	c #B8B9BD",
"x@	c #BDBEC0",
"y@	c #D2D2D5",
"z@	c #E8E8EC",
"A@	c #8A8DA1",
"B@	c #C7CAE5",
"C@	c #62646F",
"D@	c #DDE1FF",
"E@	c #F7F6FB",
"F@	c #F2F1FD",
"G@	c #7E7D87",
"H@	c #292A30",
"I@	c #797B8C",
"J@	c #9294A8",
"K@	c #AEB1C7",
"L@	c #B1B4C8",
"M@	c #484951",
"N@	c #C7C7CC",
"O@	c #696971",
"P@	c #808292",
"Q@	c #DADEF3",
"R@	c #D0D3ED",
"S@	c #FBFAFE",
"T@	c #51525D",
"U@	c #BCC0D9",
"V@	c #BEC2DC",
"W@	c #ADB0C7",
"X@	c #ACB0C5",
"Y@	c #BFC3D4",
"Z@	c #C1C5DC",
"`@	c #757781",
" #	c #E3E3EB",
".#	c #88888F",
"+#	c #AFB2C9",
"@#	c #8A8C9B",
"##	c #C5C9E5",
"$#	c #B5B7C8",
"%#	c #FBFAFF",
"&#	c #E8E8F1",
"*#	c #DEE0F8",
"=#	c #EFF2FF",
"-#	c #D0D3EB",
";#	c #C9CCE3",
">#	c #CED1E7",
",#	c #DDE0F0",
"'#	c #DBDEF4",
")#	c #BFC1CF",
"!#	c #C2C3CD",
"~#	c #F9F8FE",
"{#	c #F5F5FC",
"]#	c #8F8F98",
"^#	c #848794",
"/#	c #C4C7E3",
"(#	c #979BAF",
"_#	c #EFF0F5",
":#	c #F2F2F9",
"<#	c #E4E3ED",
"[#	c #E7E6EE",
"}#	c #EAE9F0",
"|#	c #E9E9EE",
"1#	c #E4E4EA",
"2#	c #DCDBE7",
"3#	c #81818B",
"4#	c #A0A3BA",
"5#	c #818493",
"6#	c #C8CBE6",
"7#	c #9B9DB3",
"8#	c #DEDEE7",
"9#	c #F9F9FA",
"0#	c #F6F6F7",
"a#	c #EFF0F4",
"b#	c #D9DAE2",
"c#	c #DCDDE2",
"d#	c #D6D6DC",
"e#	c #DBDBE2",
"f#	c #D7D8DF",
"g#	c #D6D6DE",
"h#	c #D8D8DF",
"i#	c #D8D9DF",
"j#	c #73747A",
"k#	c #ABAFC8",
"l#	c #828291",
"m#	c #C8CCE6",
"n#	c #B1B5CE",
"o#	c #C5C6D0",
"p#	c #FAFBFC",
"q#	c #EDEDF4",
"r#	c #EAEBF1",
"s#	c #E2E2EA",
"t#	c #DFDFE7",
"u#	c #DEDFE7",
"v#	c #E7E8F0",
"w#	c #F4F5F7",
"x#	c #FAFAFC",
"y#	c #F1F2FB",
"z#	c #D5D4DC",
"A#	c #595961",
"B#	c #B3B6D0",
"C#	c #727381",
"D#	c #C8CBE8",
"E#	c #9496A2",
"F#	c #DBDCDF",
"G#	c #ACADB1",
"H#	c #E4E4EC",
"I#	c #E8E8F2",
"J#	c #E3E2EB",
"K#	c #DFDEE7",
"L#	c #DFE0E9",
"M#	c #E0DFE9",
"N#	c #E1E2E8",
"O#	c #E2E2E9",
"P#	c #EBECF2",
"Q#	c #F8F9FD",
"R#	c #BEBDC3",
"S#	c #595A65",
"T#	c #C2C6E1",
"U#	c #464750",
"V#	c #C6CAE6",
"W#	c #9CA0B4",
"X#	c #C9CAD5",
"Y#	c #BABDCD",
"Z#	c #C7C9D7",
"`#	c #E4E4EE",
" $	c #F2F3FA",
".$	c #FAFAFB",
"+$	c #FBFBFC",
"@$	c #F5F6FC",
"#$	c #F6F6FD",
"$$	c #F8F7FE",
"%$	c #F6F5FC",
"&$	c #EEEDF6",
"*$	c #E2E2EC",
"=$	c #9E9AA0",
"-$	c #848799",
";$	c #BABDD6",
">$	c #060608",
",$	c #C3C7E2",
"'$	c #BCBFDA",
")$	c #8F919E",
"!$	c #EBECF1",
"~$	c #E9E9F2",
"{$	c #CCCCD6",
"]$	c #62626C",
"^$	c #BDC1DC",
"/$	c #979AAE",
"($	c #000000",
"_$	c #C2C6E2",
":$	c #A0A3B7",
"<$	c #F6F6FA",
"[$	c #F9F9FF",
"}$	c #F3F4FB",
"|$	c #ECECF4",
"1$	c #ECECF5",
"2$	c #D5D5DF",
"3$	c #5B5B60",
"4$	c #8B8EA2",
"5$	c #BEC1DD",
"6$	c #5A5D68",
"7$	c #B4B7D1",
"8$	c #CACEE7",
"9$	c #989BB2",
"0$	c #727379",
"a$	c #C2C2C9",
"b$	c #F6F5FE",
"c$	c #F7F7FF",
"d$	c #F4F3FA",
"e$	c #D5D5DE",
"f$	c #E4E3EB",
"g$	c #F0F1F8",
"h$	c #EEEFF6",
"i$	c #E4E5EE",
"j$	c #CFCFDA",
"k$	c #7E7D86",
"l$	c #7C7D8E",
"m$	c #B7BAD4",
"n$	c #858799",
"o$	c #030304",
"p$	c #A9ACBE",
"q$	c #C8CCEA",
"r$	c #A9ADC3",
"s$	c #5C5D69",
"t$	c #3F4048",
"u$	c #727177",
"v$	c #9C9BA5",
"w$	c #BFBDCD",
"x$	c #DDDBED",
"y$	c #E8E6F5",
"z$	c #F5F4FC",
"A$	c #F2F1FB",
"B$	c #E9E7F7",
"C$	c #DEDCEE",
"D$	c #B9B7C7",
"E$	c #A1A0AB",
"F$	c #D7D6DF",
"G$	c #8E8D94",
"H$	c #B7B6BF",
"I$	c #D4D4DD",
"J$	c #B4B3BD",
"K$	c #525157",
"L$	c #777888",
"M$	c #D1D5F2",
"N$	c #A0A3BD",
"O$	c #B5B9CF",
"P$	c #C5C9E2",
"Q$	c #C2C6DE",
"R$	c #AEB2C8",
"S$	c #9C9FB4",
"T$	c #5C5C63",
"U$	c #8B8B96",
"V$	c #7C7B84",
"W$	c #54545B",
"X$	c #5E5F6D",
"Y$	c #A8ABBC",
"Z$	c #9EA0B6",
"`$	c #646570",
" %	c #76757D",
".%	c #43444A",
"+%	c #6E6F79",
"@%	c #75757C",
"#%	c #5F5E65",
"$%	c #5F606C",
"%%	c #A2A5BB",
"&%	c #BCBFD9",
"*%	c #989BB0",
"=%	c #2C2D33",
"-%	c #60606C",
";%	c #8D90A1",
">%	c #A7ABBF",
",%	c #B3B6CC",
"'%	c #B9BCD5",
")%	c #CFD3ED",
"!%	c #C4C7E1",
"~%	c #BFC2DC",
"{%	c #B7BBD2",
"]%	c #BEC0D3",
"^%	c #C7CBE1",
"/%	c #CDD0E7",
"(%	c #CBCEE5",
"_%	c #C6C8E0",
":%	c #BEC1DB",
"<%	c #C7CBE6",
"[%	c #C3C6E1",
"}%	c #B8BBD5",
"|%	c #848697",
"1%	c #0A0A0C",
"2%	c #6B6D7B",
"3%	c #676876",
"4%	c #616370",
"5%	c #4D4F57",
"6%	c #2B2B30",
"7%	c #474951",
"8%	c #666873",
"9%	c #656874",
"0%	c #656773",
"a%	c #6D6F7F",
"b%	c #646575",
"c%	c #696B7B",
"d%	c #373840",
"e%	c #000001",
"                                                                                ",
"                              . + @ # $ % & * & = - ;                           ",
"                      > , ' ) ! ~ ~ { ] ^ ^ ^ ^ / ( _ : < [                     ",
"                    } | 1 2 2 2 2 2 2 2 2 2 2 2 2 2 2 3 4 5 6                   ",
"                7 8 9 2 2 2 2 0 2 2 2 2 a 2 b 0 c 2 2 2 d e f g h               ",
"              i j k 2 2 l m n o o p q o 0 2 2 2 o n n r s a t u v w             ",
"            x y 2 2 2 m z A ~ l p B m m C D B E E B F G 2 H 0 I J K L           ",
"          M N 2 2 2 O G z P Q z R S T m U ~ G Q Q V Q ~ ] l ] W X Y Z           ",
"          `  .2 2 2 o G ..+.Q @.#.$.....S S %.S ..&.*.=.-.;.>.,.'.).!.          ",
"          f F 2 0 a 0 l ~.{.].=.^./.(._.:.<.[.}.|.1.2.3.4.5.|.6.7.8.9.          ",
"        0.a.b.2 a 2 0 n ~ c.d.e.f.g.6.h.i.j.k.l.m.n.o.p.q.r.s.t.u.v.w.          ",
"        x.y.z.A.2 2 2 0 0 o B.C.D.E.F.G.H.I.J.K.L.M.N.O.P.Q.R.r.S.T.U.V.        ",
"        W.X.W 2 2 0 0 0 a 0 c.Y.Z.`. +.+++@+++#+$+%+&+*+=+&+-+;+>+,+v '+        ",
"        )+!+~+0 0 0 2 2 0 0 {+]+^+/+(+_+:+<+[+* }+Q a |+0 |+1+2 |+2+3+4+        ",
"        5+6+7+E c 2 2 0 2 0 8+9+0+a+b+c+d+e+f+g+h+~ 0 2 |+E E 0 O i+j+k+        ",
"        l+m+n+o+p+q+r+s+t+u+|+v+w+x+y+z+A+B+C+D+E+F+O 8+O O &+O &+G+H+I+        ",
"        J+K+L+2 F ~ W ..M+M+N+O+2 2 2 2 2 2 P+Q+R+B B 8+|+0 0 E {+S+x+T+        ",
"        U+V+W+X+D D U A G Y+U 2 2 2 0 B E 2 O Z+O 2 `+ @o 2 0 0 D .@+@@@        ",
"          y+#@$@%@B U G G P U B E E 0 E 0 0 E 2 2 2 &@*@o 0 O l =@-@;@>@        ",
"          ,@'@2 a )@T U !@P ~@B E 0 2 0 b b 0 0 0 0 {@]@^@/@(@_@:@<@[@}@        ",
"          |@1@0 0 D T %+{+2@Y+F E o p b 0 0 0 E E O 3@4@5@6@7@8@9@0@a@b@        ",
"          c@d@2 a D {+U %+U D D E 0 e@0 E 0 0 B E 0 0 2 2 2 2 2 f@g@h@i@        ",
"        j@k@l@2 |+)@C F G U B D D )@B l n |+0 7+n B B 2 0 2 0 0 0 m@n@o@        ",
"        ;@p@q@a E B {+P ~ m D r@s@t@u@v@w@x@y@] n l D E E 0 q E 2 z@A@B@C@      ",
"        3+D@E@2 0 E D m m m B F@G@H@I@J@K@L@M@N@D B B &+B l 8+O 0 m O@h@P@      ",
"        Q@R@l 2 0 B C m m &+S@t@T@U@V@W@X@Y@Z@`@ #m D D Y+D D U U G .#+#@#      ",
"        ##$#T p |+E B &+U %#G &#*#=#-#;#>#,#'#)#!#T C U ~#F+T {#G c.]#`.^#      ",
"        /#(#_#a 0 n m ~@U %+*+~@2 2 2 2 2 2 2 2 ~@:#=.4.<#[#}#|#1#2#3#4#5#      ",
"        6#7#8#2 2 0 E E Y+m Y+B O F o ~+7+7+9#0#a#b#c#d#e#f#g#h#i# @j#k#l#      ",
"        m#n#o#p#2 E G m m T ....:#q#r#s#t#t#u#v#w#l 2 2 2 E n x#y#z#A#B#C#      ",
"          D#E#F#G#H#4.I#J#K#L#1.M#N#O#P#P |+2 2 E n @.Q#G l E x#N+R#S#T#U#      ",
"          V#W#X#Y#Z#`# $.$+$o E o 2 2 2 a E l m G @$#${+$$T %$&$*$=$-$;$>$      ",
"          ,$'$)$!$F 9 o 2 E O 0 0 |+Y+D C m T A G %.+.V z c.B.~${$]$^$/$($      ",
"            _$:$.@<$2 ~ E |+B E B D D D [$G V P V }$N+z {.|$1$2$3$4$5$6$($      ",
"            7$8$9$0$a$#$b$c$U D D U %#C [$#$d$Q &.e$f$g$h$i$j$k$l$m$n$o$        ",
"              p$q$r$s$t$u$v$w$x$y$z$A$B$C$D$E$F$M#G$H$H#I$J$K$L$M$N$($          ",
"                  O$P$Q$R$K@S$.+T$U$V$W$X$Y$Z$`$ %.%+%@%#%$%%%&%*%=%($          ",
"                    -%;%>%,%'%w+g )%!%~%{%]%^%/%(%_%B@:%<%[%}%|%1%($            ",
"                                  2%3%4%5%6%7%8%9%0%a%b%c%4%d%e%                ",
"                                                                                "};
