/* XPM */
static char * 9_xpm[] = {
"40 40 591 2",
"  	c None",
". 	c #CCCFEB",
"+ 	c #C1C5E0",
"@ 	c #C5CAE5",
"# 	c #C8CDEA",
"$ 	c #C4C9E4",
"% 	c #C8CBE5",
"& 	c #CACFEA",
"* 	c #C1C5E2",
"= 	c #C7CAE9",
"- 	c #C2C7E2",
"; 	c #C4C7E1",
"> 	c #BFC2E1",
", 	c #B8BDDF",
"' 	c #C5C7E8",
") 	c #DBDFF7",
"! 	c #EBECF5",
"~ 	c #EFF0F8",
"{ 	c #EDEFF7",
"] 	c #EDEEF6",
"^ 	c #F0F1FA",
"/ 	c #EFF0F9",
"( 	c #EDEEF7",
"_ 	c #DCE1F7",
": 	c #C9CCEB",
"< 	c #BFC3E0",
"[ 	c #C4C7DF",
"} 	c #C4C9DB",
"| 	c #CACDE7",
"1 	c #C7CBE7",
"2 	c #CACDE8",
"3 	c #E5E8FF",
"4 	c #FFFFFF",
"5 	c #FEFEFF",
"6 	c #FCFCFE",
"7 	c #FDFDFE",
"8 	c #F0F3FF",
"9 	c #D7DAF2",
"0 	c #CED1E8",
"a 	c #D6DAF2",
"b 	c #D6DAF1",
"c 	c #C6CADF",
"d 	c #C9CDE8",
"e 	c #F3F4FA",
"f 	c #FDFDFF",
"g 	c #FAFAFE",
"h 	c #ECECF4",
"i 	c #F2F3FA",
"j 	c #F0F1F9",
"k 	c #EFEFF6",
"l 	c #F0F1F8",
"m 	c #F8F8FE",
"n 	c #F6F7FD",
"o 	c #F5F6FC",
"p 	c #FCFCFF",
"q 	c #F8F9FD",
"r 	c #E6EAFD",
"s 	c #D0D3E9",
"t 	c #BEC2D9",
"u 	c #B9BCD3",
"v 	c #C1C4DE",
"w 	c #F9F9FD",
"x 	c #E7E7EF",
"y 	c #EBECF4",
"z 	c #EFF0F7",
"A 	c #ECECF6",
"B 	c #EFEFF7",
"C 	c #F3F4FC",
"D 	c #FAFBFF",
"E 	c #F6F9FE",
"F 	c #CACDE9",
"G 	c #BDC1DA",
"H 	c #D1D4F0",
"I 	c #F8F8FD",
"J 	c #E6E7ED",
"K 	c #EAEBF1",
"L 	c #F4F5FC",
"M 	c #F0F1FB",
"N 	c #FBFBFD",
"O 	c #F2F4FF",
"P 	c #DCE2FD",
"Q 	c #CDD0EC",
"R 	c #CCD0E9",
"S 	c #C5C8E3",
"T 	c #FBFCFF",
"U 	c #E0E1E8",
"V 	c #E8E9F0",
"W 	c #FCFDFF",
"X 	c #F9F9FB",
"Y 	c #E0E0E3",
"Z 	c #F9F9FC",
"` 	c #C9CDE5",
" .	c #CFD3EF",
"..	c #ACB0C3",
"+.	c #D1D5F0",
"@.	c #F6F9FF",
"#.	c #FDFEFF",
"$.	c #F9F9FE",
"%.	c #DBDBE4",
"&.	c #F5F5FA",
"*.	c #FBFBFF",
"=.	c #D5D6DE",
"-.	c #A3A4AE",
";.	c #F6F6FD",
">.	c #B2B3BB",
",.	c #B3B7D1",
"'.	c #C3C7E5",
").	c #CACEE3",
"!.	c #E4E5F3",
"~.	c #E1E3F5",
"{.	c #F6F6FE",
"].	c #CCCCD7",
"^.	c #E6E7E9",
"/.	c #F0EFF4",
"(.	c #D9D8DE",
"_.	c #F6F5FB",
":.	c #FBFAFE",
"<.	c #FAFAFF",
"[.	c #F9FAFE",
"}.	c #F2F2F7",
"|.	c #8A8DA3",
"1.	c #C4C9E7",
"2.	c #D0D4E9",
"3.	c #DBDFF8",
"4.	c #E4E5F1",
"5.	c #FBFBFE",
"6.	c #F6F5FF",
"7.	c #C9C8D4",
"8.	c #54545A",
"9.	c #3B3B3D",
"0.	c #3A3A3D",
"a.	c #232326",
"b.	c #6F6F74",
"c.	c #D3D1DA",
"d.	c #EFEEFD",
"e.	c #F6F5FD",
"f.	c #F6F6FC",
"g.	c #F6F7FC",
"h.	c #F6F6FB",
"i.	c #F7F7FD",
"j.	c #E9E8F1",
"k.	c #9093A8",
"l.	c #D1D4ED",
"m.	c #CCD0EC",
"n.	c #C2C5E4",
"o.	c #F0EFF5",
"p.	c #FDFCFF",
"q.	c #EFEFF1",
"r.	c #858488",
"s.	c #565869",
"t.	c #898CA7",
"u.	c #A8ACC6",
"v.	c #C2C6E1",
"w.	c #C4C9E2",
"x.	c #9A9CB4",
"y.	c #8D8D9E",
"z.	c #696973",
"A.	c #A4A4AE",
"B.	c #DEDDE7",
"C.	c #F0F0F7",
"D.	c #EEEEF5",
"E.	c #EBEBF2",
"F.	c #EBEAF2",
"G.	c #EAEAF1",
"H.	c #E0DFE9",
"I.	c #E1E1EB",
"J.	c #D4D2DB",
"K.	c #8E909F",
"L.	c #C6C9E5",
"M.	c #D2D5F5",
"N.	c #B4B8D2",
"O.	c #F9F9FA",
"P.	c #9E9E9F",
"Q.	c #6C6E81",
"R.	c #BBBFE0",
"S.	c #B8BDDA",
"T.	c #7E8191",
"U.	c #3E3F47",
"V.	c #888999",
"W.	c #BCC0DB",
"X.	c #CFD2E7",
"Y.	c #C7CAE1",
"Z.	c #888A99",
"`.	c #6C6D73",
" +	c #CAC9D0",
".+	c #D2D2DA",
"++	c #D8D8DF",
"@+	c #DDDDE5",
"#+	c #E2E2E9",
"$+	c #DBDCE7",
"%+	c #E3E4ED",
"&+	c #CFCFD6",
"*+	c #8A8D99",
"=+	c #C8CCE8",
"-+	c #727583",
";+	c #D2D7EF",
">+	c #B1B4CA",
",+	c #EDEDEC",
"'+	c #FDFDFB",
")+	c #FDFDFD",
"!+	c #FEFEFE",
"~+	c #FFFEFF",
"{+	c #AAAAAD",
"]+	c #A7ABC4",
"^+	c #C0C4E1",
"/+	c #767788",
"(+	c #08090B",
"_+	c #000000",
":+	c #A5A7B9",
"<+	c #CBCEE4",
"[+	c #B7BACE",
"}+	c #CDCEDA",
"|+	c #E6E7F0",
"1+	c #E8E8F0",
"2+	c #E6E7EF",
"3+	c #E8E9F1",
"4+	c #E3E5ED",
"5+	c #DCDDE4",
"6+	c #9B9CA6",
"7+	c #D0D3EA",
"8+	c #838594",
"9+	c #B2B5C8",
"0+	c #84858D",
"a+	c #CACACD",
"b+	c #DCDDE0",
"c+	c #E4E4E8",
"d+	c #EBEBF0",
"e+	c #F3F3F7",
"f+	c #FAF9FC",
"g+	c #F4F4F5",
"h+	c #ABAEC4",
"i+	c #C8CCE9",
"j+	c #C1C5E5",
"k+	c #9DA0B7",
"l+	c #535562",
"m+	c #C0C3D7",
"n+	c #D5D8EB",
"o+	c #FAFCFF",
"p+	c #F9FBFF",
"q+	c #FBFDFF",
"r+	c #F5F7FF",
"s+	c #F6F8FF",
"t+	c #9A9BA5",
"u+	c #CACEE7",
"v+	c #868798",
"w+	c #CCCFE5",
"x+	c #B1B5C6",
"y+	c #EBECF3",
"z+	c #F5F5F9",
"A+	c #F2F2F4",
"B+	c #F3F3F6",
"C+	c #F2F2F8",
"D+	c #E1E2EB",
"E+	c #EBEEFC",
"F+	c #DDE2F8",
"G+	c #BEC2E1",
"H+	c #BFC4E1",
"I+	c #ADB1CA",
"J+	c #BFC2DC",
"K+	c #C8CCE1",
"L+	c #E4E6F4",
"M+	c #FEFFFF",
"N+	c #A2A1AB",
"O+	c #CACEE8",
"P+	c #86899A",
"Q+	c #CFD3E8",
"R+	c #B3B6C8",
"S+	c #CACBD4",
"T+	c #F9F8FE",
"U+	c #F7F9FF",
"V+	c #E7EBFB",
"W+	c #C6CAE0",
"X+	c #DDE0F2",
"Y+	c #F1F0FB",
"Z+	c #EAEAF3",
"`+	c #FAFBFE",
" @	c #A8A8B2",
".@	c #CCD0E8",
"+@	c #8A8D9F",
"@@	c #D2D6EB",
"#@	c #D0D4EB",
"$@	c #90929D",
"%@	c #E4E4EE",
"&@	c #CACAD4",
"*@	c #E7E6F0",
"=@	c #F5F5FD",
"-@	c #F8F9FF",
";@	c #F9F9FF",
">@	c #E5E5F0",
",@	c #F8F8FC",
"'@	c #F6F7FB",
")@	c #F7F8FD",
"!@	c #ABABB4",
"~@	c #D0D3ED",
"{@	c #9194A6",
"]@	c #B2B4C6",
"^@	c #7B7C85",
"/@	c #A7A7AF",
"(@	c #919195",
"_@	c #C9C8D7",
":@	c #ECECF5",
"<@	c #EEF0FA",
"[@	c #FCFBFF",
"}@	c #D9DBE5",
"|@	c #F8F9FE",
"1@	c #F7F7FC",
"2@	c #AFAFB8",
"3@	c #D8DCF4",
"4@	c #9497A9",
"5@	c #CFD2E8",
"6@	c #A4A7B8",
"7@	c #9C9DA6",
"8@	c #F7F8FC",
"9@	c #F1F1F4",
"0@	c #E8E9F3",
"a@	c #F4F5FA",
"b@	c #F8F8FF",
"c@	c #EAEBF7",
"d@	c #E2E3EC",
"e@	c #EEEEF3",
"f@	c #F8F8FB",
"g@	c #EBEBF3",
"h@	c #DDDEE2",
"i@	c #ACABB5",
"j@	c #D8DCF5",
"k@	c #9092A4",
"l@	c #C9CBE1",
"m@	c #A1A2B4",
"n@	c #72737B",
"o@	c #C7C8CD",
"p@	c #E1E3EE",
"q@	c #F2F3F9",
"r@	c #F7F8FF",
"s@	c #E7E9F4",
"t@	c #D9DAE1",
"u@	c #E9E9ED",
"v@	c #DADAE3",
"w@	c #9B9CA1",
"x@	c #FAF9FF",
"y@	c #F4F5FB",
"z@	c #A7A6B0",
"A@	c #CFD3EB",
"B@	c #9295A6",
"C@	c #C7CADF",
"D@	c #C0C4D9",
"E@	c #8D8E9D",
"F@	c #616166",
"G@	c #A6A6AE",
"H@	c #E0E0EB",
"I@	c #EAEAF4",
"J@	c #F3F3FA",
"K@	c #EDEFF9",
"L@	c #D7D8DE",
"M@	c #DFDDE7",
"N@	c #A5A5AD",
"O@	c #48494D",
"P@	c #9FA1AE",
"Q@	c #F9F8FB",
"R@	c #F2F2F9",
"S@	c #9F9FA6",
"T@	c #D2D5F0",
"U@	c #8C8FA1",
"V@	c #B8BCCE",
"W@	c #D5D9F0",
"X@	c #B2B5CB",
"Y@	c #7F8193",
"Z@	c #5F616C",
"`@	c #74747C",
" #	c #A4A3AE",
".#	c #C0BFC9",
"+#	c #CDCDD4",
"@#	c #C6C6CE",
"##	c #9A9AA0",
"$#	c #818285",
"%#	c #525259",
"&#	c #646676",
"*#	c #B2B6CE",
"=#	c #B9BBCF",
"-#	c #F3F2F7",
";#	c #FBFAFF",
">#	c #EFEEF5",
",#	c #92929A",
"'#	c #DADDF7",
")#	c #8F91A3",
"!#	c #8F919F",
"~#	c #BFC3D8",
"{#	c #C2C5E1",
"]#	c #C1C6E1",
"^#	c #B5B8D6",
"/#	c #9A9EB5",
"(#	c #6E7080",
"_#	c #585965",
":#	c #666876",
"<#	c #9A9CB1",
"[#	c #C4C8E0",
"}#	c #C3C8E5",
"|#	c #BCC1E1",
"1#	c #CCCEE7",
"2#	c #F3F4F9",
"3#	c #F5F5FB",
"4#	c #F7F6FC",
"5#	c #EDEDF5",
"6#	c #82838B",
"7#	c #D4D6F1",
"8#	c #878999",
"9#	c #A4A8BC",
"0#	c #9C9FB4",
"a#	c #A3A6BE",
"b#	c #A5A6BE",
"c#	c #A3A6BD",
"d#	c #A2A5BB",
"e#	c #A2A4B9",
"f#	c #A9ACC2",
"g#	c #B7BAD1",
"h#	c #C6C9E2",
"i#	c #E2E5F6",
"j#	c #E4E8FE",
"k#	c #F5F6FB",
"l#	c #E5E4ED",
"m#	c #72737C",
"n#	c #D0D4EC",
"o#	c #747782",
"p#	c #BFC1D8",
"q#	c #BABDD2",
"r#	c #767684",
"s#	c #0D0D10",
"t#	c #0E0E10",
"u#	c #0D0D0F",
"v#	c #72737F",
"w#	c #C8CBE3",
"x#	c #C4C8DF",
"y#	c #FCFEFF",
"z#	c #F1F2F8",
"A#	c #F2F3F8",
"B#	c #E9EAF1",
"C#	c #C9C9D4",
"D#	c #797B88",
"E#	c #CDCFE8",
"F#	c #585A63",
"G#	c #E8EAF6",
"H#	c #EBEDF9",
"I#	c #DBDFF4",
"J#	c #C5C9E5",
"K#	c #C3C6DE",
"L#	c #B4B8CE",
"M#	c #9EA2B6",
"N#	c #AAADC3",
"O#	c #D5D8F4",
"P#	c #ECEDFA",
"Q#	c #FDFFFF",
"R#	c #EAEBF3",
"S#	c #DADBE3",
"T#	c #CECFD6",
"U#	c #DFDFE7",
"V#	c #EAEBF2",
"W#	c #E9EAF3",
"X#	c #B4B4BD",
"Y#	c #969AAB",
"Z#	c #CED2EB",
"`#	c #2C2C32",
" $	c #D9DBEE",
".$	c #F9FAFF",
"+$	c #D9DCF8",
"@$	c #ECEEFB",
"#$	c #D9DAE2",
"$$	c #B7B7BE",
"%$	c #91929A",
"&$	c #D0D2E2",
"*$	c #E2E2ED",
"=$	c #EAEBF5",
"-$	c #76767E",
";$	c #9D9FB2",
">$	c #BBBED3",
",$	c #CFD1E9",
"'$	c #CACEE4",
")$	c #EAECF4",
"!$	c #D9DAE0",
"~$	c #F4F6FF",
"{$	c #B8B9C3",
"]$	c #424348",
"^$	c #C1C4DB",
"/$	c #80818F",
"($	c #D1D5EB",
"_$	c #C2C4DB",
":$	c #C3C4CF",
"<$	c #F8F7FE",
"[$	c #ECEEF7",
"}$	c #F0F2FB",
"|$	c #F4F6FD",
"1$	c #EDEEFA",
"2$	c #F1F1F9",
"3$	c #7B7B81",
"4$	c #B0B4C8",
"5$	c #C6C9E0",
"6$	c #1F1F23",
"7$	c #D2D4E9",
"8$	c #CED1E5",
"9$	c #9A9BA9",
"0$	c #E3E3EC",
"a$	c #E5E6F2",
"b$	c #E3E4F0",
"c$	c #F2F4FC",
"d$	c #6F707F",
"e$	c #C3C8DF",
"f$	c #818391",
"g$	c #010101",
"h$	c #CFD2ED",
"i$	c #ABADC2",
"j$	c #AEAEB9",
"k$	c #F3F4FB",
"l$	c #F0F0F8",
"m$	c #EAEBF6",
"n$	c #D1D1D8",
"o$	c #414146",
"p$	c #A6AAC3",
"q$	c #B3B5CE",
"r$	c #CBCEE6",
"s$	c #9294A1",
"t$	c #E2E2EA",
"u$	c #F9FAFD",
"v$	c #F5F5FC",
"w$	c #F1F1F8",
"x$	c #E7E7F3",
"y$	c #F2F3FB",
"z$	c #636367",
"A$	c #9A9CB7",
"B$	c #B2B6D6",
"C$	c #464751",
"D$	c #C7CAE2",
"E$	c #ABAEC2",
"F$	c #A2A2AC",
"G$	c #EDEEF5",
"H$	c #E8E8F1",
"I$	c #BBBBC1",
"J$	c #626265",
"K$	c #808396",
"L$	c #BDC2E1",
"M$	c #78798C",
"N$	c #BEC1D5",
"O$	c #C3C7DE",
"P$	c #838593",
"Q$	c #EFEEF7",
"R$	c #515155",
"S$	c #8D8FA4",
"T$	c #B8BBD8",
"U$	c #797B8E",
"V$	c #070708",
"W$	c #C3C7DD",
"X$	c #C1C3DA",
"Y$	c #7F818F",
"Z$	c #7B7C84",
"`$	c #C2C2CD",
" %	c #DADAE2",
".%	c #EAEAF2",
"+%	c #E8E9F2",
"@%	c #D2D2DB",
"#%	c #CDCCD6",
"$%	c #CFCED7",
"%%	c #929199",
"&%	c #4C4D56",
"*%	c #9597AE",
"=%	c #C5C9E6",
"-%	c #86899D",
";%	c #CFD2EB",
">%	c #CED2EA",
",%	c #BCC0D5",
"'%	c #49494E",
")%	c #59585E",
"!%	c #5B5A60",
"~%	c #454449",
"{%	c #414147",
"]%	c #727484",
"^%	c #B3B6D2",
"/%	c #BDC1DE",
"(%	c #C1C5E3",
"_%	c #787A8B",
":%	c #BFC3D6",
"<%	c #BFC2D7",
"[%	c #C5C9E1",
"}%	c #C0C4E2",
"|%	c #BFC2DD",
"1%	c #B0B3CC",
"2%	c #A4A8C1",
"3%	c #979AAF",
"4%	c #4D4E57",
"5%	c #3C3E49",
"6%	c #3B3C48",
"7%	c #3C3D47",
"8%	c #373841",
"9%	c #29292F",
"0%	c #131417",
"                                                                                ",
"                                                                                ",
"                          . + @ # $ % & * = - ;                                 ",
"                    > , ' ) ! ~ ~ { ] ^ { / ( _ : < $ [ }                       ",
"                | 1 2 3 4 4 4 4 5 6 6 7 7 5 4 4 4 8 9 0 a b                     ",
"              c d e 5 4 4 4 5 f g h i j k l m n o 5 4 p q r s t u               ",
"              v / 4 4 4 f f f p w x y z e A B j i C D 4 4 4 E & F G             ",
"              H 5 4 5 5 f 5 f f I J K j L M N 6 4 4 4 4 4 4 4 O P Q R           ",
"            S 4 T 5 p f f 5 p p I U V o W 4 4 4 4 5 5 5 5 X Y Z { `  ...        ",
"            +.@.T 5 p f #.#.p p $.%.&.4 4 4 4 W T *.T f p N =.-.;.>.,.'.        ",
"          ).!.~.5 5 f p f f f p {.].^./.(._.:.*.p <.<.p *.*.[.6 }.%.|.1.        ",
"          2.3.4.f f f 5.f 4 5 6.7.8.9.0.a.b.c.d.e.$.$.f.g.g.h.i.4 j.k.l.        ",
"          m.n.o.5 4 p.p f p.q.r.s.t.u.v.w.x.y.z.A.B.C.D.E.F.G.H.I.J.K.L.        ",
"          M.N.O.4 4 5 5 4 4 P.Q.R.S.T.U.V.W.X.Y.Z.`. +.+++@+#+$+%+&+*+=+-+      ",
"          ;+>+,+'+)+!+5 4 ~+{+]+^+/+(+_+      :+<+[+}+|+1+2+3+4+2+5+6+7+8+      ",
"          X.9+0+a+b+c+d+e+f+g+h+i+j+k+l+      m+n+o+4 p p+#.q+r+s+l t+u+v+      ",
"            w+x+y+5 Z z+A+B+C+D+E+F+G+H+I+J+K+L+#.4 4 M+4 5 4 4 4 4 N+O+P+      ",
"            Q+R+S+T+f #.5 5 4 #.U+4 4 V+W+X+4 4 4 4 5 *.Y+Z+g *.`+T  @.@+@      ",
"            @@#@$@%@&@*@=@$.p 4 f -@#.4 4 4 4 4 4 f p ;@>@w 6 ,@'@)@!@~@{@      ",
"              s ]@^@/@(@_@:@g.g W ,@<@^ 6 6 *.[@5 f ;@I.}@5 f 5.|@1@2@3@4@      ",
"                5@6@7@8@9@0@a@I g f b@c@d@e@f@5.p.p g@h@5 p f [@$.f.i@j@k@      ",
"                  l@m@n@o@p@q@f.I p 5 r@s@t@u@&.h.v@w@4 #.f f p x@y@z@A@B@      ",
"                    C@D@E@F@G@H@I@J@*.p n K@L@M@N@O@P@Q@W p f *.I R@S@T@U@      ",
"                      V@W@X@Y@Z@`@ #.#+#@###$#%#&#*#=#-#p.;#$.i.)@>#,#'#)#      ",
"                        !#~#{#]#v.^#/#(#_#:#<#[#}#|#1#2#3#1@4#1@)@5#6#7#8#      ",
"                              9#0#a#b#c#d#e#f#g#h#i#j#)@a@k#&.1@1@l#m#n#o#      ",
"                            p#D@q#r#s#s#t#u#v#w#x#W y#e z#a@z#A#B#C#D#E#F#      ",
"                          s G#H#I#J#K#L#M#N#O#P#Q#4 2#R#S#T#U#V#W#X#Y#Z#`#      ",
"                        #@ $4 4 4 4 4 .$+$@$4 4 4 q+#$$$%$&$H#*$=$-$;$>$_+      ",
"                        ,$'$=$5 f 5 4 4 4 4 4 4 g ( )$!$~$W q 5 {$]$^$/$        ",
"                        ($_$:$;.<$$.w g.*.*.I *.*.l [$}$|$1$W 2$3$4$5$6$        ",
"                        7$8$9$0$I $.w w `+g i.<.p 3#j a$b$c$f.!@d$e$f$g$        ",
"                          h$i$j$k$w I $.T [.1@g.f 1@l$*$m$[.n$o$p$q$t#_+        ",
"                            r$s$t$1@u$[.5.|@f.v$p.g w$x$y$c+z$A$B$C$_+          ",
"                            D$E$F$G$)@$.`+w v$v$5.5.k#H$I$J$K$L$M$g$            ",
"                            N$O$P$2@g@1@g m f.3#g 5.Q$.#R$S$T$U$V$              ",
"                              W$X$Y$Z$`$ %.%+%@%#%$%%%&%*%=%-%t#_+              ",
"                                ;%>%,%D#'%)%!%~%{%]%^%/%(%_%t#_+                ",
"                                  :%<%5$[%}%j+=%|%1%2%3%4%_+                    ",
"                                          5%6%7%8%9%0%g$                        "};
