/* XPM */
static char * :_xpm[] = {
"40 40 290 2",
"  	c None",
". 	c #CCD1E7",
"+ 	c #CDD2EA",
"@ 	c #CDD1EA",
"# 	c #D1D5EE",
"$ 	c #CBCFE9",
"% 	c #C2C5E3",
"& 	c #BABED7",
"* 	c #CBCFE7",
"= 	c #CBCEE6",
"- 	c #D7DAEF",
"; 	c #E7E9F4",
"> 	c #FFFFFF",
", 	c #FDFEFF",
"' 	c #E9EEFD",
") 	c #CCD0EA",
"! 	c #BCBFD8",
"~ 	c #B7BADB",
"{ 	c #C9CFED",
"] 	c #FAFCFF",
"^ 	c #FEFEFF",
"/ 	c #EDEEFF",
"( 	c #C7CBF0",
"_ 	c #BBBFE1",
": 	c #A7A9BF",
"< 	c #C3C7E0",
"[ 	c #D8DBEC",
"} 	c #FDFDFF",
"| 	c #F9F9FE",
"1 	c #BDBECD",
"2 	c #DCDFED",
"3 	c #C8CCE9",
"4 	c #B1B4CD",
"5 	c #CCCFE6",
"6 	c #CCD0E8",
"7 	c #F6F8FF",
"8 	c #FCFCFF",
"9 	c #FCFCFE",
"0 	c #E9EBF6",
"a 	c #D2D6F0",
"b 	c #C8CCE6",
"c 	c #C3C6DF",
"d 	c #C9CCE5",
"e 	c #D3D6E9",
"f 	c #F2F3F8",
"g 	c #FDFDFE",
"h 	c #D3D4DB",
"i 	c #CED1EB",
"j 	c #BDC1D8",
"k 	c #CACEE9",
"l 	c #CBCFE6",
"m 	c #E4E5F1",
"n 	c #F6F7FB",
"o 	c #EFF0F3",
"p 	c #F1F2F5",
"q 	c #F3F3F7",
"r 	c #F7F8FB",
"s 	c #FAFAFD",
"t 	c #E8E8EB",
"u 	c #A2A3B3",
"v 	c #C8CBE4",
"w 	c #C4C7E2",
"x 	c #E2E3EC",
"y 	c #FBFCFE",
"z 	c #FBFBFF",
"A 	c #FAFBFF",
"B 	c #FBFCFF",
"C 	c #FDFCFF",
"D 	c #F8F8FB",
"E 	c #74747B",
"F 	c #CED2EB",
"G 	c #616270",
"H 	c #C1C5E1",
"I 	c #C7CBE0",
"J 	c #D3D5DE",
"K 	c #F3F3F8",
"L 	c #F1F2F7",
"M 	c #F8F8FD",
"N 	c #FEFDFF",
"O 	c #EFEFF4",
"P 	c #626269",
"Q 	c #4F505B",
"R 	c #C3C7E1",
"S 	c #CBCEE5",
"T 	c #A5A7B2",
"U 	c #EDEDF4",
"V 	c #B0B0B8",
"W 	c #D5D5DE",
"X 	c #FAFAFE",
"Y 	c #FEFFFF",
"Z 	c #D9D8DF",
"` 	c #4F5057",
" .	c #CFD3EC",
"..	c #4B4C57",
"+.	c #C7CAE1",
"@.	c #CED1E7",
"#.	c #9E9FB0",
"$.	c #9797A0",
"%.	c #DFDFE9",
"&.	c #DDDFF4",
"*.	c #F0F0F7",
"=.	c #FFFEFF",
"-.	c #F9F7F9",
";.	c #908F94",
">.	c #8E91A1",
",.	c #C0C3D9",
"'.	c #3A3B42",
").	c #CCCFE5",
"!.	c #9A9CAD",
"~.	c #84848C",
"{.	c #C3C3CD",
"].	c #E5E5EC",
"^.	c #FFFFFE",
"/.	c #E4E3E7",
"(.	c #888789",
"_.	c #6F707D",
":.	c #CDD0E6",
"<.	c #9C9EB0",
"[.	c #0F0F12",
"}.	c #CCCFE4",
"|.	c #D6D9F0",
"1.	c #B0B2C6",
"2.	c #6B6C7A",
"3.	c #5D5D65",
"4.	c #A7A6AD",
"5.	c #DDDCDF",
"6.	c #D0D0D2",
"7.	c #79797C",
"8.	c #474851",
"9.	c #868997",
"0.	c #A7AABD",
"a.	c #101011",
"b.	c #000000",
"c.	c #B8BBCD",
"d.	c #BCBED6",
"e.	c #BABDD5",
"f.	c #ADB0C7",
"g.	c #A8ABC2",
"h.	c #A3A7C2",
"i.	c #B0B3CD",
"j.	c #C4C7DE",
"k.	c #C5C8DE",
"l.	c #8F91A0",
"m.	c #2A2B30",
"n.	c #868898",
"o.	c #BABED5",
"p.	c #C2C5E2",
"q.	c #C1C4E2",
"r.	c #C0C2DB",
"s.	c #8F92A1",
"t.	c #303237",
"u.	c #C8CCE2",
"v.	c #C3C7DE",
"w.	c #CDD1EB",
"x.	c #C7CAE2",
"y.	c #C1C4DA",
"z.	c #8F90A0",
"A.	c #121215",
"B.	c #CACDE5",
"C.	c #D0D5EE",
"D.	c #DADCED",
"E.	c #F7F8FD",
"F.	c #F7FAFF",
"G.	c #DBDFF5",
"H.	c #8D8E9F",
"I.	c #CACEE8",
"J.	c #E3E5F9",
"K.	c #E5E8F8",
"L.	c #D7DBF5",
"M.	c #CACEE6",
"N.	c #979AAB",
"O.	c #CBCFE8",
"P.	c #F2F2F8",
"Q.	c #FCFDFF",
"R.	c #F5F6FA",
"S.	c #AFB1C2",
"T.	c #D6DAEF",
"U.	c #C9CDE5",
"V.	c #C4C8E1",
"W.	c #E1E5FB",
"X.	c #FAFBFE",
"Y.	c #F7F8FC",
"Z.	c #F6F6FB",
"`.	c #E4E4EB",
" +	c #DEE0EB",
".+	c #EDEFFF",
"++	c #DEE2F6",
"@+	c #C4C7DF",
"#+	c #C9CDE4",
"$+	c #F9F8FB",
"%+	c #EFEFF5",
"&+	c #EDEDF3",
"*+	c #E9E8F1",
"=+	c #E6E6EE",
"-+	c #E9EAF1",
";+	c #E4E5EC",
">+	c #C4C8DC",
",+	c #D0D2E8",
"'+	c #B2B4C5",
")+	c #E1E3F8",
"!+	c #EBEBF4",
"~+	c #D8D8E1",
"{+	c #E1E1EA",
"]+	c #EAEBF4",
"^+	c #EDEEF7",
"/+	c #EFF0F8",
"(+	c #F9F9FB",
"_+	c #FBFBFC",
":+	c #FCFCFD",
"<+	c #FCFDFE",
"[+	c #BBBDC8",
"}+	c #CBCDE3",
"|+	c #C7CADF",
"1+	c #D0D3EC",
"2+	c #D3D5ED",
"3+	c #C2C2CB",
"4+	c #B8BBD4",
"5+	c #B6BAD1",
"6+	c #D1D4EB",
"7+	c #C2C5D6",
"8+	c #F9F9FD",
"9+	c #F4F4FC",
"0+	c #B5B4C0",
"a+	c #B9BCD6",
"b+	c #A2A5B9",
"c+	c #C6CAE7",
"d+	c #9194A5",
"e+	c #DCDDE5",
"f+	c #EEEEF6",
"g+	c #C2C1CD",
"h+	c #ECEBF5",
"i+	c #ECEAF7",
"j+	c #7B7B84",
"k+	c #9C9FB4",
"l+	c #CDD0EA",
"m+	c #A8ABC4",
"n+	c #7B7C84",
"o+	c #F2F1FC",
"p+	c #D3D5E2",
"q+	c #D0D2E3",
"r+	c #F7F7FE",
"s+	c #FAFAFF",
"t+	c #F6F5FD",
"u+	c #BDBBC8",
"v+	c #5C5D68",
"w+	c #C2C5DE",
"x+	c #848897",
"y+	c #C5C8E5",
"z+	c #9597AC",
"A+	c #6C6C73",
"B+	c #C6C6CE",
"C+	c #F3F3FA",
"D+	c #FBFAFF",
"E+	c #F9F8FF",
"F+	c #F0EFFB",
"G+	c #B7B6C3",
"H+	c #4E4E56",
"I+	c #A0A3B9",
"J+	c #BCC0D8",
"K+	c #383940",
"L+	c #AAADC1",
"M+	c #CBCEE9",
"N+	c #BABDD8",
"O+	c #636572",
"P+	c #4E4E53",
"Q+	c #9F9EA7",
"R+	c #DAD9E8",
"S+	c #E3E2F3",
"T+	c #AAA8B4",
"U+	c #505056",
"V+	c #B1B3CE",
"W+	c #B5BAD4",
"X+	c #555661",
"Y+	c #B8BBD1",
"Z+	c #C1C3DA",
"`+	c #9295A6",
" @	c #9194A6",
".@	c #9294A6",
"+@	c #A1A3B6",
"@@	c #BBBFD8",
"#@	c #6F7180",
"$@	c #030303",
"%@	c #80818E",
"&@	c #A7A9BD",
"*@	c #C3C6DD",
"=@	c #C7CBE3",
"-@	c #C7CCE3",
";@	c #B2B4C9",
">@	c #696A74",
",@	c #16161A",
"                                                                                ",
"                                                                                ",
"                                                                                ",
"                                                                                ",
"                                                                                ",
"                                                                                ",
"                                  . + @ # $ % &                                 ",
"                              * = - ; > > , ' ) !                               ",
"                            ~ { ] > > > > ^ / ( _ :                             ",
"                          < [ > > > > ^ } } | 1 2 3 4                           ",
"                        5 6 7 > > , , 8 , } 9 0 > a b c                         ",
"                        d e f , g > > } ^ ^ ^ > > h i j                         ",
"                        k l m n o p q r s 9 ^ ^ ^ t u v                         ",
"                        w 5 x y z A B 8 8 8 8 C ^ D E F G                       ",
"                        H I J K L M 8 } ^ ^ } } N O P # Q                       ",
"                        R S T U V W X ^ ^ > Y > ^ Z `  ...                      ",
"                        +.@.#.$.%.&.*.} ^ > =.> -.;.>.,.'.                      ",
"                            ).!.~.{.].} g ^.g /.(._.:.<.[.                      ",
"                            }.|.1.2.3.4.5.6.7.8.9.S 0.a.b.                      ",
"                                c.d.e.f.g.h.i.j.k.l.m.b.                        ",
"                                  n.o.b p.q.r.s.t.b.b.                          ",
"                                  u.v.d w.x.y.z.A.                              ",
"                              B.C.D.E.> > F.G.= H.                              ",
"                            I.J.E.> > > > } K.L.M.N.                            ",
"                          O.P.> > > ^ Q.Q.} R.S.T.U.                            ",
"                        V.W.> > } 8 X.X.Y.Z.`. +.+++@+                          ",
"                        #+^ y $+%+&+&+*+=+=+-+A ;+>+,+'+                        ",
"                        w.)+!+~+{+]+^+/+(+_+:+^ <+[+}+|+                        ",
"                        1+2+s > > > > > Y , ^ ^ , 3+4+5+                        ",
"                        6+7+Z.M 8+X.} ^ } } 8 z 9+0+a+b+                        ",
"                        c+d+e+f+g+h+z 8 z 8 8 z i+j+& k+                        ",
"                        l+m+n+o+p+q+r+s+X z 8 t+u+v+w+x+                        ",
"                          y+z+A+B+P.C+D+z E+F+G+H+I+J+K+                        ",
"                          L+M+N+O+P+Q+R+S+T+U+8.V+W+X+b.                        ",
"                              Y+Z+L+`+ @ @.@+@@@i.#@$@                          ",
"                                %@&@*@=@U.-@;@>@,@b.                            ",
"                                      b.b.b.b.b.b.                              ",
"                                                                                ",
"                                                                                ",
"                                                                                "};
