/* XPM */
static char * corener_RD_xpm[] = {
"40 40 174 2",
"  	c #3E261E",
". 	c #553429",
"+ 	c #6B4234",
"@ 	c #704536",
"# 	c #704436",
"$ 	c #754839",
"% 	c #684033",
"& 	c #6B4134",
"* 	c #794A3B",
"= 	c #825140",
"- 	c #835140",
"; 	c #845241",
"> 	c #8B5B4D",
", 	c #8E5E52",
"' 	c #6E4435",
") 	c #492D24",
"! 	c #3F271E",
"~ 	c #39231B",
"{ 	c #2B1A15",
"] 	c #231511",
"^ 	c #1C110E",
"/ 	c #000000",
"( 	c #56352A",
"_ 	c #5F3B2E",
": 	c #6A4133",
"< 	c #663E31",
"[ 	c #724537",
"} 	c #764839",
"| 	c #7F4E3E",
"1 	c #613C2F",
"2 	c #5F3A2E",
"3 	c #533329",
"4 	c #694133",
"5 	c #4F3127",
"6 	c #673F32",
"7 	c #744738",
"8 	c #100806",
"9 	c #623C2F",
"0 	c #4C2F25",
"a 	c #663F31",
"b 	c #4A2E24",
"c 	c #7E4E3D",
"d 	c #40271F",
"e 	c #6C4234",
"f 	c #663F32",
"g 	c #603C2F",
"h 	c #653E31",
"i 	c #633D30",
"j 	c #784A3A",
"k 	c #462B22",
"l 	c #3A231B",
"m 	c #734638",
"n 	c #7B4B3C",
"o 	c #5C392D",
"p 	c #623C30",
"q 	c #714536",
"r 	c #794B3B",
"s 	c #82503F",
"t 	c #865444",
"u 	c #8D5D50",
"v 	c #331F19",
"w 	c #1A100D",
"x 	c #070303",
"y 	c #704537",
"z 	c #714537",
"A 	c #7A4B3B",
"B 	c #81503F",
"C 	c #3C251D",
"D 	c #180E0B",
"E 	c #050202",
"F 	c #55342A",
"G 	c #543429",
"H 	c #4D2F26",
"I 	c #503127",
"J 	c #804F3F",
"K 	c #442A21",
"L 	c #1A0F0D",
"M 	c #56342A",
"N 	c #694033",
"O 	c #77493A",
"P 	c #482D24",
"Q 	c #78493A",
"R 	c #724637",
"S 	c #6F4335",
"T 	c #301D17",
"U 	c #814F3F",
"V 	c #804F3E",
"W 	c #7C4C3C",
"X 	c #2E1C16",
"Y 	c #8C5C50",
"Z 	c #714436",
"` 	c #352119",
" .	c #7E4D3D",
"..	c #684032",
"+.	c #7B4C3C",
"@.	c #6D4335",
"#.	c #805346",
"$.	c #120907",
"%.	c #855445",
"&.	c #090504",
"*.	c #895A4E",
"=.	c #36211A",
"-.	c #784C3E",
";.	c #8A5A4C",
">.	c #845342",
",.	c #140B09",
"'.	c #74493A",
").	c #8A5B4F",
"!.	c #8A594B",
"~.	c #835241",
"{.	c #89594C",
"].	c #7C4F42",
"^.	c #1B100D",
"/.	c #1B110E",
"(.	c #724738",
"_.	c #7F5144",
":.	c #865545",
"<.	c #835343",
"[.	c #784D40",
"}.	c #805347",
"|.	c #603B2E",
"1.	c #170D0B",
"2.	c #120A08",
"3.	c #88594D",
"4.	c #7F5245",
"5.	c #291914",
"6.	c #251612",
"7.	c #1E120F",
"8.	c #0E0705",
"9.	c #150C0A",
"0.	c #150C09",
"a.	c #6F4435",
"b.	c #38231B",
"c.	c #331F18",
"d.	c #271713",
"e.	c #050302",
"f.	c #180E0C",
"g.	c #090403",
"h.	c #472C23",
"i.	c #452B22",
"j.	c #2A1914",
"k.	c #110806",
"l.	c #21130E",
"m.	c #20120C",
"n.	c #150A08",
"o.	c #060302",
"p.	c #3B241C",
"q.	c #1D100B",
"r.	c #321E18",
"s.	c #1E120E",
"t.	c #040201",
"u.	c #0D0705",
"v.	c #180C09",
"w.	c #100807",
"x.	c #2A1A15",
"y.	c #1B100E",
"z.	c #241511",
"A.	c #221511",
"B.	c #0B0504",
"C.	c #170E0B",
"D.	c #130A08",
"E.	c #281814",
"F.	c #221411",
"G.	c #1A0F0C",
"H.	c #190F0C",
"I.	c #110907",
"J.	c #080403",
"K.	c #040202",
"L.	c #020101",
"M.	c #0A0504",
"N.	c #010101",
"O.	c #160D0A",
"P.	c #0F0806",
"Q.	c #140B08",
"  . + @ @ # # $ % & # * = - - - - - - - ; > , ' ) ! ~ { ] ^ ^ ^ ^ / / / / / / / ",
". ( _ : @ # # $ % < [ } | - - - - - - - ; > , ' ) ! ~ { ] ^ ^ ^ ^ / / / / / / / ",
"1 2 3 1 4 # # $ % 5 6 # 7 - - - - - - - ; > , ' ) ! ~ { ] ^ ^ ^ 8 / / / / / / / ",
"9 1 1 0 a # # $ % b # # c [ - - - - - - ; > , ' ) d ~ { ] ^ ^ ^ ^ / / / / / / / ",
"@ e f g . h # $ % i # } j - - - - - - - ; > , ' ) k l { ] ^ ^ ^ ^ / / / / / / / ",
"@ @ @ + h . < $ % & # } * - - - - - - - ; > , ' ) ! ~ { ] ^ ^ ^ ^ / / / / / / / ",
"@ @ @ @ @ a 0 + % & m n c - - - - - - - ; > , ' ) ! ~ { ] ^ ^ ^ ^ / / / / / / / ",
"@ @ @ @ @ # < o p & q r s - - - - - - - - t u ' ) ! ~ v ] ^ ^ w x / / / / / / / ",
"n n n n n n n y . & z A B - - - - - - - - t u ' k C ~ { ] ^ ^ D E / / / / / / / ",
"F F F F F F F G H I J s - - - - - - - - - t u ' K ~ ~ { ] ^ ^ ^ L / / / / / / / ",
"M # # # [ [ # # N i h O = - - - - - - - ; > , ' P   ~ { ] ^ ^ ^ ^ / / / / / / / ",
"Q 7 R * A A * R 7 # S N O - - - - - - - ; > , ' k C ~ T ] ^ ^ ^ ^ / / / / / / / ",
"= U V - V V } W A R R O 6 } - - - - - - ; > , ' ) ! ~ X ] ^ ^ ^ ^ / / / / / / / ",
"- - > Y - - - - - 7 V Z Z i } - - - - - ; > , ' ) ! ~ ` ] ^ ^ ^ ^ / / / / / / / ",
"- - - Q - - - - - - *  .J } ..O - - - - ; > , ' ) ! ~ { ] ^ ^ ^ ^ / / / / / / / ",
"- - - - - - - - - - - - - - +.@.s - - - ; > #.' ) ! ~ { ] ^ ^ ^ $./ / / / / / / ",
"- - - - - - - - - - - - - - - s h - - - ; > %.' ) ! ~ { ] ^ ^ ^ &./ / / / / / / ",
"- - - - - - - - - - - - - - - - - j B - ; > *.' ) ! ~ =.] ^ ^ ^ 8 / / / / / / / ",
"- - - - - - - - - - - - - - - - - B A s ; > -.' ) ! ~ T ] ^ ^ ^ ^ / / / / / / / ",
"Y ;.>.- - - - - - - - - - - - - - - s - ; > -.' ) ! ~ { ] ^ ^ ,.D / / / / / / / ",
"'.).!.; ; ; ; ; ; ; ; - - - ; ; ; ; ; ; ~.{.].' P   ~ { ] ^ ^ ^././ / / / / / / ",
"(._.).> > > > > > > ;.t t :.> > > > > > <.[.}.|.K ~ ~ { ] ^ ^ 1.2./ / / / / / / ",
"3., , , , , , , , , , u u u , , , , , , u 4.. P C ~ ~ 5.6.7.8.9.0./ / / / / / / ",
"a.a.a.a.a.a.a.a.a.a.a.a.a.a.a.a.a.a.a.a.a.|.P b.c.c.{ d.^.e.f.8 g./ / / / / / / ",
") h.K ) ) ) ) ) ) ) P K K K K K K i.k K K K C j.k.l.m.n.o./ / / / / / / / / / / ",
"! C ~ ! ! ! ! ! ! !   ~ ~ ~ ~ ~ ~ p.C ~ ~ ~ ~ c.q.r.T ] s.0.t.u./ / / / / / / / ",
"~ ~ ~ ~ ~ ~ ~ ~ ~ ~ ~ ~ ~ ~ ~ ~ ~ ~ ~ ~ ~ ~ ~ { v.{ { ^ 6.7.f.w.g./ / / / / / / ",
"{ { { { { { { { { { { { { { { { { { { { { { v j./ 0.x.^ ^ ^ y.2.0./ / / / / / / ",
"z.z.z.z.z.z.z.z.z.z.z.z.z.z.z.z.z.z.z.z.z.z.5.A./ B.] ] ^ ^ ^.C.9./ / / / / / / ",
"^ ^ ^ ^ ^ ^ ^ ^ ^ ^ ^ ^ ^ ^ ^ ^ ^ ^ ^ ^ ^ ^ 7.e./ D.E.F.A.^ ^ ^ u./ / / / / / / ",
"^ ^ ^ ^ ^ ^ ^ ^ ^ ^ ^ ^ ^ ^ ^ ^ ^ ^ ^ G.^ ^ w e./ / ^.w ^ ^ G.^ ^ / / / / / / / ",
"^.C.9.^ H.H.^ ^ C.D.^ ^ ^ ^ ^ ^ ^ L f.2.,.D I.2./ B.D.,.^ ^ I.C.9./ / / / / / / ",
"J.K.L.M.o.o.M.M.K./ M.M.M.M.M.M.M.x e.M.N.e.x O.M.P.1.8 Q.w J.K.L./ / / / / / / ",
"/ / / / / / / / / / / / / / / / / / / / / / / / / / / / / / / / / / / / / / / / ",
"/ / / / / / / / / / / / / / / / / / / / / / / / / / / / / / / / / / / / / / / / ",
"/ / / / / / / / / / / / / / / / / / / / / / / / / / / / / / / / / / / / / / / / ",
"/ / / / / / / / / / / / / / / / / / / / / / / / / / / / / / / / / / / / / / / / ",
"/ / / / / / / / / / / / / / / / / / / / / / / / / / / / / / / / / / / / / / / / ",
"/ / / / / / / / / / / / / / / / / / / / / / / / / / / / / / / / / / / / / / / / ",
"/ / / / / / / / / / / / / / / / / / / / / / / / / / / / / / / / / / / / / / / / "};
