/* XPM */
static char * corener_LU_xpm[] = {
"40 40 174 2",
"  	c #000000",
". 	c #020101",
"+ 	c #040202",
"@ 	c #080403",
"# 	c #1A100D",
"$ 	c #140B08",
"% 	c #100806",
"& 	c #170D0B",
"* 	c #0F0806",
"= 	c #0A0504",
"- 	c #160D0A",
"; 	c #070303",
"> 	c #050302",
", 	c #010101",
"' 	c #060302",
") 	c #150C0A",
"! 	c #170E0B",
"~ 	c #110907",
"{ 	c #1C110E",
"] 	c #140B09",
"^ 	c #130A08",
"/ 	c #0B0504",
"( 	c #120A08",
"_ 	c #180E0B",
": 	c #180E0C",
"< 	c #1A0F0D",
"[ 	c #190F0C",
"} 	c #1B100D",
"| 	c #1A0F0C",
"1 	c #0D0705",
"2 	c #221511",
"3 	c #221411",
"4 	c #281814",
"5 	c #1E120F",
"6 	c #231511",
"7 	c #291914",
"8 	c #241511",
"9 	c #150C09",
"0 	c #1B100E",
"a 	c #2A1A15",
"b 	c #2A1914",
"c 	c #331F19",
"d 	c #2B1A15",
"e 	c #090403",
"f 	c #100807",
"g 	c #251612",
"h 	c #180C09",
"i 	c #39231B",
"j 	c #040201",
"k 	c #1E120E",
"l 	c #301D17",
"m 	c #321E18",
"n 	c #1D100B",
"o 	c #331F18",
"p 	c #3C251D",
"q 	c #3B241C",
"r 	c #3E261E",
"s 	c #3F271E",
"t 	c #150A08",
"u 	c #20120C",
"v 	c #21130E",
"w 	c #110806",
"x 	c #442A21",
"y 	c #462B22",
"z 	c #452B22",
"A 	c #482D24",
"B 	c #492D24",
"C 	c #472C23",
"D 	c #271713",
"E 	c #38231B",
"F 	c #603B2E",
"G 	c #6F4435",
"H 	c #0E0705",
"I 	c #553429",
"J 	c #7F5245",
"K 	c #8D5D50",
"L 	c #8E5E52",
"M 	c #88594D",
"N 	c #805347",
"O 	c #784D40",
"P 	c #835343",
"Q 	c #8B5B4D",
"R 	c #865545",
"S 	c #865444",
"T 	c #8A5A4C",
"U 	c #8A5B4F",
"V 	c #7F5144",
"W 	c #724738",
"X 	c #1B110E",
"Y 	c #6E4435",
"Z 	c #7C4F42",
"` 	c #89594C",
" .	c #835241",
"..	c #845241",
"+.	c #835140",
"@.	c #8A594B",
"#.	c #74493A",
"$.	c #784C3E",
"%.	c #82503F",
"&.	c #845342",
"*.	c #8C5C50",
"=.	c #7A4B3B",
"-.	c #81503F",
";.	c #36211A",
">.	c #895A4E",
",.	c #784A3A",
"'.	c #090504",
").	c #855445",
"!.	c #653E31",
"~.	c #120907",
"{.	c #805346",
"].	c #6D4335",
"^.	c #7B4C3C",
"/.	c #77493A",
"(.	c #684032",
"_.	c #764839",
":.	c #804F3F",
"<.	c #7E4D3D",
"[.	c #794A3B",
"}.	c #78493A",
"|.	c #352119",
"1.	c #633D30",
"2.	c #714436",
"3.	c #804F3E",
"4.	c #744738",
"5.	c #2E1C16",
"6.	c #673F32",
"7.	c #724637",
"8.	c #7C4C3C",
"9.	c #814F3F",
"0.	c #825140",
"a.	c #694033",
"b.	c #6F4335",
"c.	c #704436",
"d.	c #724537",
"e.	c #56342A",
"f.	c #503127",
"g.	c #4D2F26",
"h.	c #543429",
"i.	c #55342A",
"j.	c #050202",
"k.	c #714537",
"l.	c #6B4134",
"m.	c #704537",
"n.	c #7B4B3C",
"o.	c #794B3B",
"p.	c #714536",
"q.	c #623C30",
"r.	c #5C392D",
"s.	c #663E31",
"t.	c #704536",
"u.	c #7E4E3D",
"v.	c #734638",
"w.	c #684033",
"x.	c #6B4234",
"y.	c #4C2F25",
"z.	c #663F31",
"A.	c #754839",
"B.	c #3A231B",
"C.	c #603C2F",
"D.	c #663F32",
"E.	c #6C4234",
"F.	c #40271F",
"G.	c #4A2E24",
"H.	c #613C2F",
"I.	c #623C2F",
"J.	c #4F3127",
"K.	c #694133",
"L.	c #533329",
"M.	c #5F3A2E",
"N.	c #7F4E3E",
"O.	c #6A4133",
"P.	c #5F3B2E",
"Q.	c #56352A",
"                                                                                ",
"                                                                                ",
"                                                                                ",
"                                                                                ",
"                                                                                ",
"                                                                                ",
"                                                                                ",
"              . + @ # $ % & * = - ; > , = > ; = = = = = = =   + = = ' ' = . + @ ",
"              ) ! ~ { { ] ^ /   ( ~ _ ] ( : < { { { { { { { ^ ! { { [ [ { ) ! } ",
"              { { | { { # }     > # { { | { { { { { { { { { { { { { { { { { { { ",
"              1 { { { 2 3 4 ^   > 5 { { { { { { { { { { { { { { { { { { { { { { ",
"              ) ! } { { 6 6 /   2 7 8 8 8 8 8 8 8 8 8 8 8 8 8 8 8 8 8 8 8 8 8 8 ",
"              9 ( 0 { { { a 9   b c d d d d d d d d d d d d d d d d d d d d d d ",
"              e f : 5 g { d d h d i i i i i i i i i i i i i i i i i i i i i i i ",
"                1 j 9 k 6 l m n o i i i i p q i i i i i i r s s s s s s s i p s ",
"                      ' t u v w b p x x x y z x x x x x x A B B B B B B B x C B ",
"              e % : > } D d o o E A F G G G G G G G G G G G G G G G G G G G G G ",
"              9 ) H 5 g 7 i i p A I J K L L L L L L K K K L L L L L L L L L L M ",
"              ( & { { 6 d i i x F N O P Q Q Q Q Q Q R S S T Q Q Q Q Q Q Q U V W ",
"              X } { { 6 d i r A Y Z `  .............+.+.+.................@.U #.",
"              _ ] { { 6 d i s B Y $.Q ..+.%.+.+.+.+.+.+.+.+.+.+.+.+.+.+.+.&.T *.",
"              { { { { 6 l i s B Y $.Q ..%.=.-.+.+.+.+.+.+.+.+.+.+.+.+.+.+.+.+.+.",
"              % { { { 6 ;.i s B Y >.Q ..+.-.,.+.+.+.+.+.+.+.+.+.+.+.+.+.+.+.+.+.",
"              '.{ { { 6 d i s B Y ).Q ..+.+.+.!.%.+.+.+.+.+.+.+.+.+.+.+.+.+.+.+.",
"              ~.{ { { 6 d i s B Y {.Q ..+.+.+.%.].^.+.+.+.+.+.+.+.+.+.+.+.+.+.+.",
"              { { { { 6 d i s B Y L Q ..+.+.+.+./.(._.:.<.[.+.+.+.+.+.+.}.+.+.+.",
"              { { { { 6 |.i s B Y L Q ..+.+.+.+.+._.1.2.2.3.4.+.+.+.+.+.*.Q +.+.",
"              { { { { 6 5.i s B Y L Q ..+.+.+.+.+.+._.6./.7.7.=.8._.3.3.+.3.9.0.",
"              { { { { 6 l i p y Y L Q ..+.+.+.+.+.+.+./.a.b.c.4.7.[.=.=.[.7.4.}.",
"              { { { { 6 d i r A Y L Q ..+.+.+.+.+.+.+.0./.!.1.a.c.c.d.d.c.c.c.e.",
"              < { { { 6 d i i x Y K S +.+.+.+.+.+.+.+.+.%.:.f.g.h.i.i.i.i.i.i.i.",
"              j._ { { 6 d i p y Y K S +.+.+.+.+.+.+.+.-.=.k.l.I m.n.n.n.n.n.n.n.",
"              ; # { { 6 c i s B Y K S +.+.+.+.+.+.+.+.%.o.p.l.q.r.s.c.t.t.t.t.t.",
"              { { { { 6 d i s B Y L Q ..+.+.+.+.+.+.+.u.n.v.l.w.x.y.z.t.t.t.t.t.",
"              { { { { 6 d i s B Y L Q ..+.+.+.+.+.+.+.[._.c.l.w.A.s.I !.x.t.t.t.",
"              { { { { 6 d B.y B Y L Q ..+.+.+.+.+.+.+.,._.c.1.w.A.c.!.I C.D.E.t.",
"              { { { { 6 d i F.B Y L Q ..+.+.+.+.+.+.d.u.c.c.G.w.A.c.c.z.y.H.H.I.",
"              % { { { 6 d i s B Y L Q ..+.+.+.+.+.+.+.4.c.6.J.w.A.c.c.K.H.L.M.H.",
"              { { { { 6 d i s B Y L Q ..+.+.+.+.+.+.+.N._.d.s.w.A.c.c.t.O.P.Q.I ",
"              { { { { 6 d i s B Y L Q ..+.+.+.+.+.+.+.0.[.c.l.w.A.c.c.t.t.x.I r "};
