/* XPM */
static char * corener_RU_xpm[] = {
"40 40 174 2",
"  	c #000000",
". 	c #1C110E",
"+ 	c #100806",
"@ 	c #070303",
"# 	c #050202",
"$ 	c #1A0F0D",
"% 	c #120907",
"& 	c #090504",
"* 	c #180E0B",
"= 	c #1B110E",
"- 	c #120A08",
"; 	c #150C09",
"> 	c #090403",
", 	c #150C0A",
"' 	c #0D0705",
") 	c #020101",
"! 	c #1A100D",
"~ 	c #140B09",
"{ 	c #1B100D",
"] 	c #170D0B",
"^ 	c #100807",
"/ 	c #170E0B",
"( 	c #040202",
"_ 	c #0E0705",
": 	c #180E0C",
"< 	c #040201",
"[ 	c #1B100E",
"} 	c #1A0F0C",
"| 	c #110907",
"1 	c #080403",
"2 	c #1E120F",
"3 	c #050302",
"4 	c #231511",
"5 	c #251612",
"6 	c #060302",
"7 	c #1E120E",
"8 	c #221511",
"9 	c #140B08",
"0 	c #2B1A15",
"a 	c #331F19",
"b 	c #301D17",
"c 	c #2E1C16",
"d 	c #352119",
"e 	c #36211A",
"f 	c #291914",
"g 	c #271713",
"h 	c #150A08",
"i 	c #221411",
"j 	c #39231B",
"k 	c #3A231B",
"l 	c #20120C",
"m 	c #2A1A15",
"n 	c #281814",
"o 	c #130A08",
"p 	c #3F271E",
"q 	c #40271F",
"r 	c #462B22",
"s 	c #3C251D",
"t 	c #3E261E",
"u 	c #331F18",
"v 	c #21130E",
"w 	c #321E18",
"x 	c #0B0504",
"y 	c #0F0806",
"z 	c #492D24",
"A 	c #442A21",
"B 	c #482D24",
"C 	c #110806",
"D 	c #1D100B",
"E 	c #180C09",
"F 	c #0A0504",
"G 	c #6E4435",
"H 	c #603B2E",
"I 	c #38231B",
"J 	c #2A1914",
"K 	c #160D0A",
"L 	c #8E5E52",
"M 	c #8D5D50",
"N 	c #805346",
"O 	c #855445",
"P 	c #895A4E",
"Q 	c #784C3E",
"R 	c #7C4F42",
"S 	c #805347",
"T 	c #553429",
"U 	c #8B5B4D",
"V 	c #865444",
"W 	c #89594C",
"X 	c #784D40",
"Y 	c #7F5245",
"Z 	c #241511",
"` 	c #845241",
" .	c #835140",
"..	c #835241",
"+.	c #835343",
"@.	c #6F4435",
"#.	c #010101",
"$.	c #82503F",
"%.	c #81503F",
"&.	c #7A4B3B",
"*.	c #784A3A",
"=.	c #452B22",
"-.	c #3B241C",
";.	c #653E31",
">.	c #77493A",
",.	c #6D4335",
"'.	c #764839",
").	c #684032",
"!.	c #7B4C3C",
"~.	c #724537",
"{.	c #633D30",
"].	c #865545",
"^.	c #825140",
"/.	c #7F4E3E",
"(.	c #744738",
"_.	c #7E4E3D",
":.	c #794A3B",
"<.	c #673F32",
"[.	c #714436",
"}.	c #804F3F",
"|.	c #704436",
"1.	c #7B4B3C",
"2.	c #794B3B",
"3.	c #694033",
"4.	c #7E4D3D",
"5.	c #734638",
"6.	c #714536",
"7.	c #714537",
"8.	c #6F4335",
"9.	c #724637",
"0.	c #804F3E",
"a.	c #8A5A4C",
"b.	c #6B4134",
"c.	c #663E31",
"d.	c #4F3127",
"e.	c #4A2E24",
"f.	c #503127",
"g.	c #684033",
"h.	c #623C30",
"i.	c #4D2F26",
"j.	c #754839",
"k.	c #6B4234",
"l.	c #5C392D",
"m.	c #704537",
"n.	c #543429",
"o.	c #7C4C3C",
"p.	c #4C2F25",
"q.	c #55342A",
"r.	c #663F31",
"s.	c #190F0C",
"t.	c #704536",
"u.	c #694133",
"v.	c #6A4133",
"w.	c #613C2F",
"x.	c #603C2F",
"y.	c #8C5C50",
"z.	c #78493A",
"A.	c #5F3B2E",
"B.	c #533329",
"C.	c #663F32",
"D.	c #845342",
"E.	c #8A594B",
"F.	c #8A5B4F",
"G.	c #56352A",
"H.	c #5F3A2E",
"I.	c #6C4234",
"J.	c #814F3F",
"K.	c #7F5144",
"L.	c #472C23",
"M.	c #623C2F",
"N.	c #56342A",
"O.	c #74493A",
"P.	c #724738",
"Q.	c #88594D",
"                                                                                ",
"                                                                                ",
"                                                                                ",
"                                                                                ",
"                                                                                ",
"                                                                                ",
"                                                                                ",
". . + . . . . @ # $ . . . . . % & + . * = - ; >     > ; , ' . , )               ",
". . . . . . . ! * . . . . . . . . . . ~ { ] , +   ' ^ - / . . / (               ",
". . . . . . . . . . . . . . . . . . . . . . _ :   < : [ { . } | 1               ",
". . . . . . . . . . . . . . . . . . . . . . 2 3   ; 2 . . . . . !               ",
"4 4 4 4 4 4 4 4 4 4 4 4 4 4 4 4 4 4 4 4 4 4 5 { 6 7 5 . . 8 . . 9               ",
"0 0 0 0 0 0 0 a 0 0 0 b c d 0 0 0 e b 0 0 0 f g h 4 . . 4 i ! ~ +               ",
"j j j j k j j j j j j j j j j j j j j j j j j 0 l b 0 m 4 n { o ]               ",
"p p p q r p p p s j t s p p p p p p p p t j j u v w 0 ; x o   x y               ",
"z z z z z z z z r A B r z z z z z z z z B A s u C D E           F               ",
"G G G G G G G G G G G G G G G G G G G G G H B I J u 0 J 8 3 3 - K               ",
"L L L L L L L M M M L L L L L N O P Q Q R S T B s j j a f 2 ! | @               ",
"U U U U U U U V V V U U U U U U U U U U W X Y H A j j 0 Z . . * 3               ",
"` ` ` ` ` ` `  . . .` ` ` ` ` ` ` ` ` ` ..+.M @.A j j 0 Z . . ~ #.              ",
" . . . . . . . . . . . . . . . . . .$. .` U L @.A j j 0 Z . } - F               ",
" . . . . . . . . . . . . . . . . .%.&.$.` U L @.r s j 0 Z . . : 3               ",
" . . . . . . . . . . . . . . . . .*.%. .` U L @.=.-.j 0 Z . . $ @               ",
" . . . . . . . . . . . . . . .$.;. . . .` U L @.A j j 0 Z . . . F               ",
" . . . . . . . . . . . . . .>.,.$. . . .` U L @.A j j 0 Z . . . F               ",
" . . . . . . . . . . . . .'.).!. . . . .` U L @.A j j 0 Z . . . F               ",
" . . .~. . . . . . . . .'.{.'. . . . . . .].M @.A j j 0 Z . . . F               ",
"^./.(._.*.:._.$.%. .^.>.<.[.}. . . . . . .V M @.A j j 0 Z . . . F               ",
":.'.|.|.'.'.1.2.&.$.>.3.>.[.4. . . . . . .V M @.A j j 0 Z . . . F               ",
"|.~.<.|.|.|.5.6.7.}.;.8.9.0.:. . . . . .` a.L @.B t j 0 Z . . . F               ",
"b.c.d.e.{.b.b.b.b.f.{.|.9.(. . . . . . .` U L @.z p j 0 Z . . o                 ",
"g.g.g.g.g.g.g.h.T i.3.(.&. . . . . . . .` U L @.z p j 0 Z . . / (               ",
"j.j.j.j.j.j.k.l.m.n.|.9.o. . . . . . . .` U L @.z p j 0 Z . . . F               ",
"|.|.|.|.|.c.p.c.1.q.|.:.'. . . . . . . .` U L @.z p j 0 Z . . . F               ",
"|.|.|.|.;.T r.|.1.q.~.&.0. . . . . . . .` U L @.z p j 0 Z . . s.6               ",
"t.t.u.r.T ;.t.t.1.q.~.&.0. . . . . . . .` U L @.z p j 0 Z . . s.6               ",
"t.v.w.p.x.k.t.t.1.q.|.:. .y.z. . . . . .` U L @.z p j 0 Z . . . F               ",
"k.A.B.w.C.t.t.t.1.q.|.9.0.U  . . . . .D.E.F.L @.A j j 0 Z . . , )               ",
"T G.H.w.I.t.t.t.1.q.|.(.J. . . . . . .a.F.K.L @.L.s j 0 Z . . / (               ",
"t T w.M.t.t.t.t.1.q.N.z.^. . . . . . .y.O.P.Q.@.z p j 0 Z . . { 1               "};
