/* XPM */
static char * corener_LD_xpm[] = {
"40 40 174 2",
"  	c #000000",
". 	c #080403",
"+ 	c #1B100D",
"@ 	c #1C110E",
"# 	c #241511",
"$ 	c #2B1A15",
"% 	c #39231B",
"& 	c #3F271E",
"* 	c #492D24",
"= 	c #6F4435",
"- 	c #88594D",
"; 	c #724738",
"> 	c #74493A",
", 	c #8C5C50",
"' 	c #835140",
") 	c #825140",
"! 	c #78493A",
"~ 	c #56342A",
"{ 	c #55342A",
"] 	c #7B4B3C",
"^ 	c #704536",
"/ 	c #623C2F",
"( 	c #613C2F",
"_ 	c #553429",
": 	c #3E261E",
"< 	c #040202",
"[ 	c #170E0B",
"} 	c #3C251D",
"| 	c #472C23",
"1 	c #8E5E52",
"2 	c #7F5144",
"3 	c #8A5B4F",
"4 	c #8A5A4C",
"5 	c #814F3F",
"6 	c #744738",
"7 	c #704436",
"8 	c #6C4234",
"9 	c #5F3A2E",
"0 	c #56352A",
"a 	c #020101",
"b 	c #150C0A",
"c 	c #442A21",
"d 	c #8A594B",
"e 	c #845342",
"f 	c #8B5B4D",
"g 	c #804F3E",
"h 	c #724637",
"i 	c #663F32",
"j 	c #533329",
"k 	c #5F3B2E",
"l 	c #6B4234",
"m 	c #0A0504",
"n 	c #845241",
"o 	c #794A3B",
"p 	c #603C2F",
"q 	c #4C2F25",
"r 	c #6A4133",
"s 	c #060302",
"t 	c #190F0C",
"u 	c #7A4B3B",
"v 	c #724537",
"w 	c #653E31",
"x 	c #663F31",
"y 	c #694133",
"z 	c #764839",
"A 	c #663E31",
"B 	c #7C4C3C",
"C 	c #543429",
"D 	c #704537",
"E 	c #5C392D",
"F 	c #754839",
"G 	c #694033",
"H 	c #4D2F26",
"I 	c #623C30",
"J 	c #684033",
"K 	c #130A08",
"L 	c #633D30",
"M 	c #503127",
"N 	c #6B4134",
"O 	c #4A2E24",
"P 	c #4F3127",
"Q 	c #482D24",
"R 	c #6F4335",
"S 	c #804F3F",
"T 	c #714537",
"U 	c #714536",
"V 	c #734638",
"W 	c #673F32",
"X 	c #8D5D50",
"Y 	c #865444",
"Z 	c #7E4D3D",
"` 	c #714436",
" .	c #77493A",
"..	c #82503F",
"+.	c #794B3B",
"@.	c #81503F",
"#.	c #7E4E3D",
"$.	c #784A3A",
"%.	c #7F4E3E",
"&.	c #865545",
"*.	c #7B4C3C",
"=.	c #684032",
"-.	c #6D4335",
";.	c #070303",
">.	c #1A0F0D",
",.	c #3B241C",
"'.	c #452B22",
").	c #050302",
"!.	c #180E0C",
"~.	c #462B22",
"{.	c #120A08",
"].	c #1A0F0C",
"^.	c #010101",
"/.	c #140B09",
"(.	c #835343",
"_.	c #835241",
":.	c #180E0B",
"<.	c #603B2E",
"[.	c #7F5245",
"}.	c #784D40",
"|.	c #89594C",
"1.	c #110907",
"2.	c #1A100D",
"3.	c #1E120F",
"4.	c #291914",
"5.	c #331F19",
"6.	c #805347",
"7.	c #7C4F42",
"8.	c #784C3E",
"9.	c #895A4E",
"0.	c #855445",
"a.	c #805346",
"b.	c #160D0A",
"c.	c #221511",
"d.	c #2A1914",
"e.	c #331F18",
"f.	c #38231B",
"g.	c #6E4435",
"h.	c #180C09",
"i.	c #1D100B",
"j.	c #110806",
"k.	c #0F0806",
"l.	c #0B0504",
"m.	c #150C09",
"n.	c #321E18",
"o.	c #21130E",
"p.	c #40271F",
"q.	c #170D0B",
"r.	c #281814",
"s.	c #231511",
"t.	c #2A1A15",
"u.	c #301D17",
"v.	c #20120C",
"w.	c #3A231B",
"x.	c #100806",
"y.	c #221411",
"z.	c #150A08",
"A.	c #271713",
"B.	c #36211A",
"C.	c #352119",
"D.	c #2E1C16",
"E.	c #140B08",
"F.	c #251612",
"G.	c #1E120E",
"H.	c #1B100E",
"I.	c #040201",
"J.	c #0E0705",
"K.	c #100807",
"L.	c #0D0705",
"M.	c #090403",
"N.	c #1B110E",
"O.	c #090504",
"P.	c #120907",
"Q.	c #050202",
"              . + @ @ # $ % & * = - ; > , ' ' ' ' ' ' ) ! ~ { ] ^ ^ ^ ^ / ( _ : ",
"              < [ @ @ # $ % } | = 1 2 3 4 ' ' ' ' ' ' 5 6 7 { ] ^ ^ ^ 8 ( 9 0 _ ",
"              a b @ @ # $ % % c = 1 3 d e ' ' ' ' ' f g h 7 { ] ^ ^ ^ i ( j k l ",
"              m @ @ @ # $ % & * = 1 f n ' ' ' ' ' ! , ' o 7 { ] ^ ^ l p q ( r ^ ",
"              s t @ @ # $ % & * = 1 f n ' ' ' ' ' ' ' g u v { ] ^ ^ w _ x y ^ ^ ",
"              s t @ @ # $ % & * = 1 f n ' ' ' ' ' ' ' g u v { ] 7 x _ w 7 7 7 7 ",
"              m @ @ @ # $ % & * = 1 f n ' ' ' ' ' ' ' z o 7 { ] A q A 7 7 7 7 7 ",
"              m @ @ @ # $ % & * = 1 f n ' ' ' ' ' ' ' B h 7 C D E l F F F F F F ",
"              < [ @ @ # $ % & * = 1 f n ' ' ' ' ' ' ' u 6 G H _ I J J J J J J J ",
"                K @ @ # $ % & * = 1 f n ' ' ' ' ' ' 6 h 7 L M N N N N L O P A N ",
"              m @ @ @ # $ % : Q = 1 4 n ' ' ' ' ' o g h R w S T U V 7 7 7 W v 7 ",
"              m @ @ @ # $ % % c = X Y ' ' ' ' ' ' Z `  .G  ...u +.] z z 7 7 z o ",
"              m @ @ @ # $ % % c = X Y ' ' ' ' ' ' S ` W  .) ' @...#.o $.#.6 %.) ",
"              m @ @ @ # $ % % c = X &.' ' ' ' ' ' z L z ' ' ' ' ' ' ' ' v ' ' ' ",
"              m @ @ @ # $ % % c = 1 f n ' ' ' ' *.=.z ' ' ' ' ' ' ' ' ' ' ' ' ' ",
"              m @ @ @ # $ % % c = 1 f n ' ' ' ..-. .' ' ' ' ' ' ' ' ' ' ' ' ' ' ",
"              m @ @ @ # $ % % c = 1 f n ' ' ' w ..' ' ' ' ' ' ' ' ' ' ' ' ' ' ' ",
"              ;.>.@ @ # $ % ,.'.= 1 f n ' @.$.' ' ' ' ' ' ' ' ' ' ' ' ' ' ' ' ' ",
"              ).!.@ @ # $ % } ~.= 1 f n ..u @.' ' ' ' ' ' ' ' ' ' ' ' ' ' ' ' ' ",
"              m {.].@ # $ % % c = 1 f n ' ..' ' ' ' ' ' ' ' ' ' ' ' ' ' ' ' ' ' ",
"              ^./.@ @ # $ % % c = X (._.n n n n n n n n n n ' ' ' n n n n n n n ",
"              ).:.@ @ # $ % % c <.[.}.|.f f f f f f f f f f Y Y Y f f f f f f f ",
"              ;.1.2.3.4.5.% % } Q _ 6.7.8.8.9.0.a.1 1 1 1 1 X X X 1 1 1 1 1 1 1 ",
"              b.{.).).c.d.$ e.d.f.Q <.g.g.g.g.g.g.g.g.g.g.g.g.g.g.g.g.g.g.g.g.g.",
"              m           h.i.j.e.} c Q * * * * * * * * ~.Q c ~.* * * * * * * * ",
"              k.l.  K l.m.$ n.o.e.% % : & & & & & & & & } : % } & & & ~.p.& & & ",
"              q.K + r.s.t.$ u.v.$ % % % % % % % % % % % % % % % % % % w.% % % % ",
"              x./.2.y.s.@ @ s.z.A.4.$ $ $ u.B.$ $ $ C.D.u.$ $ $ 5.$ $ $ $ $ $ $ ",
"              E.@ @ c.@ @ F.G.s + F.s.s.s.s.s.s.s.s.s.s.s.s.s.s.s.s.s.s.s.s.s.s.",
"              2.@ @ @ @ @ 3.m.  ).3.@ @ @ @ @ @ @ @ @ @ @ @ @ @ @ @ @ @ @ @ @ @ ",
"              . 1.].@ + H.!.I.  !.J.@ @ @ @ @ @ @ @ @ @ @ @ @ @ @ @ @ @ @ @ @ @ ",
"              < [ @ @ [ {.K.L.  x.b q.+ /.@ @ @ @ @ @ @ @ @ @ :.2.@ @ @ @ @ @ @ ",
"              a b @ L.b m.M.    M.m.{.N.:.@ x.O.P.@ @ @ @ @ >.Q.;.@ @ @ @ x.@ @ ",
"                                                                                ",
"                                                                                ",
"                                                                                ",
"                                                                                ",
"                                                                                ",
"                                                                                ",
"                                                                                "};
