/* XPM */
static char * floor4x4_xpm[] = {
"104 104 8 1",
" 	c #734136",
".	c #683F33",
"+	c #5F3D31",
"@	c #734636",
"#	c #734436",
"$	c #693F34",
"%	c #6D4034",
"&	c #6E4035",
"                                                                                                        ",
"                                                                                                        ",
"          ...                                                                                           ",
"        .... . .... .       .....                                                      ...              ",
"                                   ..                                      ...      .......             ",
"                                                                         .......     ....               ",
"                                                                   .................                    ",
"                                                                 ......................                 ",
"                                                                      ................                  ",
"                                                                         ......                         ",
"                                                                                                        ",
"                                                                                                        ",
"                                                                                                        ",
"                                                                                                        ",
"                                                                                                        ",
"                                                    ++                                                  ",
"  @                                                                                                     ",
"                                                                                                        ",
"                                                                                                        ",
"                                                                                                        ",
"                                                                                                        ",
"                                                                                                        ",
"                                             #######                                                    ",
"      $$$$$$                                                  ##                                        ",
"     $$$$$$$$               @@@@                               ##                                       ",
"     $$$$$$$$$             %%% %%%%%                                                                    ",
"    $$$$$$$$$$                %%                                                                        ",
"    $$$$+++$$$                                                                                          ",
"   $$$+++++++$                                                                                          ",
"   $$+++++++$                                                                                           ",
"   $$++++++++                               #############                            #                  ",
"  &+++++++++$                         ######       ########                                             ",
"   $+++++++$                                                                                            ",
"  & $$$$$$$                                    #######                                                  ",
" & & &                                                                                                  ",
"  & & &                                                                                                 ",
"   & &              %%                                                                                  ",
"                   %%%%                                                                              %% ",
"                   %%%%                                                                                 ",
"                    %%                                                                                  ",
"                                                            %+%%%                                       ",
"                                                                                                        ",
"                                                                                                        ",
"                                                                                                        ",
"                                                                                                        ",
"                                                                                                        ",
"                                                                                                        ",
"                                                                                                        ",
"                                                                                          %%%%%%%%      ",
"                                                                                                        ",
"                                                                                                        ",
"                                                                                                        ",
"                                                                                                      %%",
"                                                                                                        ",
"                                                                          %%%%%%                        ",
"                                                                     %%%                                ",
"                                                                         %%%%%                          ",
"                                                                                                        ",
"                                                                                                        ",
"                  %%%%%%%         @@          @                                                         ",
"                                                                                                        ",
"                                    @@                                 @                              ##",
"    $$                           @@@@@@@@@                                                              ",
"    $$$                                @                                                                ",
"    $$$                                                                                                 ",
"     $$                                                                                                 ",
"                             ##@@@@@@   @@         %%                                                   ",
"                                                   %%%%%%                                               ",
"                                                %%%%%%%%%%%                                             ",
"                                                          %%%%%%%                                       ",
"                                                  %%%%%                        %%%++% %%%               ",
"                                                                                 ++%%%%                 ",
"                                                                 %%          %%%%+%%      #####         ",
"                                                                                      #########         ",
"                                                                                  #####@@@@@@@@@###     ",
"                                                                                 ###@@@@@@@@@@@@@###    ",
"                                                                                  ####@@@@@@@@@@@@##    ",
"                                     %%%%%                                            #######@@@@@@     ",
"                                                                                              ####@@@@  ",
"                                                                             ######               ###   ",
"                                                                              ####@@######              ",
"                                                                                ##@@@@@@@@@#            ",
"                                                                                    ###########         ",
"                              +                                                                         ",
"                                                                                                        ",
"                   %%                                  %%                                               ",
"                 %%%%%%                        %%%                                                      ",
"                %%%%%%                           %%%%%%%%%%%%                                           ",
"                 %                                                                                      ",
"                                                                                                        ",
"                                                                                                        ",
"            %%%                                                                                         ",
"           %%%%                                                                                         ",
"          %%%%%                             #                                                           ",
"          %                                ##                      ####                                 ",
"                                                                    ##                                  ",
"                                                                                                        ",
"                                                                                                        ",
"                                                                                                        ",
"                                                                                                        ",
"                                                                                                        ",
"                                                                                                        ",
"                                                                    @@                  @               ",
"                                                                                                        "};
