/* XPM */
static char * GoblinB7_xpm[] = {
"40 40 14 1",
" 	c #734136",
".	c #080000",
"+	c #571717",
"@	c #792020",
"#	c #724136",
"$	c #734236",
"%	c #704035",
"&	c #380F0F",
"*	c #655C66",
"=	c #98829B",
"-	c #6C3F34",
";	c #714035",
">	c #714136",
",	c #6D4034",
"                                        ",
"                                        ",
"                                        ",
"                                        ",
"                                        ",
"                                        ",
"                                        ",
"                ......                  ",
"              .........                 ",
"             ...+@@@@+..                ",
"            ..+@@@@@@@+..               ",
"           ..+@@@@@@@@@+..              ",
"          ..+@@++++++++....             ",
"      # $..++....++@@@+++....           ",
"     #% ..&+.&&..+@@@@@@++.....         ",
"        ..+.&&..+@+......+@@+...        ",
"       ..&+.&...@@.*.......@@@+..       ",
"       ..+.&&..+@+.=.......+@@@+..      ",
"       ..+.&...+@...........@@@@..      ",
"      ..&+.&..+@@...........+@@@..      ",
"      ..++...+@@@............@@@..      ",
"      ..+@++@@@@+............+@@..      ",
"      ..+@@@@@@+..............@@..      ",
"     #..+@@@@+@..&+&.&&&&&....@+..      ",
"    %-..+++++&@.&++.&+++++++&.@..       ",
"    #;..+++++.@.++&++&..&++&.+@..       ",
"      ..&+++&.+.++++&.++.....@+..       ",
"       ..&+&&.++.....+@@@@@@++..        ",
"        ..&&&&.+@@@@@+....+++..#>#      ",
"         .......++++..&&&&....,#%#      ",
"          ..........&+@@@@...           ",
"           ..&&&++++@@@@@@..            ",
"           ..++++++@@@@+++..            ",
"           ..++++&+@+++++..             ",
"           ..++++.++++++..              ",
"            ..&&..++++....              ",
"             ....&++...&&..             ",
"             ..&+++&&.&&&..             ",
"              ............              ",
"               ...... ...               "};
