/* XPM */
static char * GoblinB1_xpm[] = {
"40 40 16 1",
" 	c #734136",
".	c #724136",
"+	c #734236",
"@	c #704035",
"#	c #714136",
"$	c #6F4035",
"%	c #714135",
"&	c #080000",
"*	c #6C3F34",
"=	c #6D4035",
"-	c #714035",
";	c #571717",
">	c #6E4035",
",	c #792020",
"'	c #380F0F",
")	c #6D4034",
"                                        ",
"                                        ",
"                                        ",
"                                        ",
"                                        ",
"                                        ",
"                                        ",
"                                        ",
"                                        ",
"                                        ",
"                                        ",
"                                        ",
"                                        ",
"      . +                               ",
"     .@ +        ..                     ",
"               #.@$#                    ",
"               . %%.                    ",
"                                        ",
"                                        ",
"                                        ",
"                                        ",
"                                        ",
"                                        ",
"     ..         &&&                     ",
"    @*=        &&&&&&                   ",
"    .-#       &&;;;&&& &&&              ",
"        @>#  &&;,,,,;&&&&&&&            ",
"        #$.  &&;;&&&'&&,;'&&&           ",
"             &&&&'''&;,,,,;'&&@.#.      ",
"            &&;&';;,,,,,,,,,&&).@.      ",
"          &&&;;&;,,,,;,,,,,,;&&         ",
"         &&&;,;',,,,,';,,,,,;&&         ",
"        &&;,,,,;;,,,;'';,,,;;&&         ",
"       &&;,,;;;;;;;;;;'''';;'&&&        ",
"       &&;;;;;';,,,;;;;,;;;;;;'&&       ",
"        &&''''';,,;;;;'''''''''&&       ",
"         &&&&&&';;;;''''&&&&&&&&        ",
"          &&&&&&&&&&&&&&&&&&&&&         ",
"               &&&&&&&&&                ",
"                 ++                     "};
