/* XPM */
static char * GoblinB6_xpm[] = {
"40 40 10 1",
" 	c #734136",
".	c #080000",
"+	c #571717",
"@	c #792020",
"#	c #380F0F",
"$	c #724136",
"%	c #777777",
"&	c #704035",
"*	c #714035",
"=	c #734236",
"                                        ",
"                                        ",
"                                        ",
"                                        ",
"                                        ",
"                                        ",
"             .....                      ",
"           .........                    ",
"          ...+@@@+...                   ",
"         ..+@@@@@@@+..                  ",
"        ..+@@@@@@@@@+..                 ",
"       ..+@@@@@@@@@@@+.......           ",
"       ..@@@@@@@@@@@@@+........         ",
"      ..+@+....@@@++++++#.+@+...        ",
"     $..@+.###.@@++####++##+@@+..       ",
"     ..+@.####.@++#.....++@@@@@+..      ",
"     ..@+.##...@+#.......+++@@@@..      ",
"     ..@.##...++#.%........++@@@#..     ",
"     ..@.##...++............+++@+..     ",
"     ..@.#...++......#+++#....++@..     ",
"     ..@.#..#+.....#+++++++#...+@..     ",
"     ..@#..#+..##.#++#...#+++#..@..     ",
"     ..@++++..##.#++#.+@+..#+++.@..     ",
"     ..+++++.#+.+++#.+@@@@+..#+.+..     ",
"    &..+++++.++++#..+@@@@@@@+.#.+..     ",
"    $*..+++@+.....+@@++#...#++..+..     ",
"      ..+++++@@@@@@+#++@@+..#++++..     ",
"       ..++++++++++.+@@@@@@+.+++#..     ",
"        ...++++++..+@@@@@@@+.##...      ",
"         .........+@@@@+++++.....$      ",
"         ..#####.+@@+++++++#...         ",
"        ..#+++#..+++++++++#..           ",
"        ..++++#..++##++++#..            ",
"        ..+++#..++++........            ",
"         ......++@@@@#...##..           ",
"          .....+@@@++++#.##..           ",
"             ..+++++++#.....            ",
"              .......... ..             ",
"               ........                 ",
"                 ==                     "};
