/* XPM */
static char * move_xpm[] = {
"40 40 836 2",
"  	c None",
". 	c #CDD1E5",
"+ 	c #D0D3EA",
"@ 	c #D4D6EE",
"# 	c #C8CBE3",
"$ 	c #C6C9E3",
"% 	c #CED2EF",
"& 	c #C3C6E2",
"* 	c #C4C7E3",
"= 	c #C6CAE4",
"- 	c #CACDE8",
"; 	c #C7CCE3",
"> 	c #C4C8DD",
", 	c #CFD3EB",
"' 	c #D1D6EF",
") 	c #CBCFE6",
"! 	c #D4D8F1",
"~ 	c #ECF0FA",
"{ 	c #ECEDF7",
"] 	c #E7E8F2",
"^ 	c #E6E8F2",
"/ 	c #E7E8F4",
"( 	c #E6E7F2",
"_ 	c #E8E9F5",
": 	c #EAEBF6",
"< 	c #E5E8F5",
"[ 	c #D3D6F1",
"} 	c #C9CDE5",
"| 	c #CDD0E9",
"1 	c #CBCFE8",
"2 	c #C0C3D8",
"3 	c #CBCEE4",
"4 	c #C9CDE4",
"5 	c #DADEF8",
"6 	c #FBFBFD",
"7 	c #FCFCFE",
"8 	c #FFFFFF",
"9 	c #FCFDFF",
"0 	c #EEF1FE",
"a 	c #CFD3EC",
"b 	c #C4C7E1",
"c 	c #CBCEE8",
"d 	c #CBCEE5",
"e 	c #D4D8EF",
"f 	c #E2E4F5",
"g 	c #F5F6FE",
"h 	c #FBFBFC",
"i 	c #F5F5F7",
"j 	c #EDEDF0",
"k 	c #DADAE0",
"l 	c #C8C7D1",
"m 	c #BFBFC9",
"n 	c #BAB9C4",
"o 	c #BDBCC6",
"p 	c #CACAD1",
"q 	c #DBDAE1",
"r 	c #EFEFF2",
"s 	c #F4F4F7",
"t 	c #F9F8FA",
"u 	c #FDFDFE",
"v 	c #F9FBFF",
"w 	c #E3E5F8",
"x 	c #D2D6EF",
"y 	c #C2C6DC",
"z 	c #C1C4D9",
"A 	c #D7DAF1",
"B 	c #D0D3EC",
"C 	c #ECEEF9",
"D 	c #DEDEE3",
"E 	c #B8B8BE",
"F 	c #8B8B93",
"G 	c #717178",
"H 	c #525258",
"I 	c #5A5B64",
"J 	c #7D7F8F",
"K 	c #8D90A3",
"L 	c #7C7E8D",
"M 	c #5D5D66",
"N 	c #5D5C62",
"O 	c #7A7980",
"P 	c #919199",
"Q 	c #BAB9C1",
"R 	c #D9D9E0",
"S 	c #EEEEF4",
"T 	c #FCFCFF",
"U 	c #E3E6FB",
"V 	c #D1D3EA",
"W 	c #BFC1D6",
"X 	c #D8D9F0",
"Y 	c #DCE0F8",
"Z 	c #ECEEFD",
"` 	c #E7E7EB",
" .	c #9E9EA5",
"..	c #404043",
"+.	c #25262B",
"@.	c #5B5D69",
"#.	c #AEB1C6",
"$.	c #CED1E8",
"%.	c #D6DAF2",
"&.	c #E6EAF6",
"*.	c #FEFFFF",
"=.	c #F3F6FF",
"-.	c #D7DBF6",
";.	c #B6B9D0",
">.	c #7B7D8B",
",.	c #37373E",
"'.	c #5E5F65",
").	c #B5B3BE",
"!.	c #D9D9E2",
"~.	c #F3F4FC",
"{.	c #F4F6FF",
"].	c #DFE2FD",
"^.	c #D3D7F2",
"/.	c #BEC2DD",
"(.	c #B5B8D2",
"_.	c #D6DAF1",
":.	c #E8EAF8",
"<.	c #FDFDFF",
"[.	c #D9D9DC",
"}.	c #797A7F",
"|.	c #5E6069",
"1.	c #8C8FA1",
"2.	c #CFD3EF",
"3.	c #DEE1F0",
"4.	c #F5F8FC",
"5.	c #DEE0EB",
"6.	c #D8DBF3",
"7.	c #A9ABBC",
"8.	c #7B7D89",
"9.	c #83838C",
"0.	c #BEBEC6",
"a.	c #E7E7F0",
"b.	c #E7E9F7",
"c.	c #D6D9F5",
"d.	c #C9CCE9",
"e.	c #C5C8E6",
"f.	c #999BAF",
"g.	c #D1D4EC",
"h.	c #ECEDF8",
"i.	c #FEFEFF",
"j.	c #CDCDD4",
"k.	c #55545A",
"l.	c #73758A",
"m.	c #B1B5D2",
"n.	c #C0C5E1",
"o.	c #C9CCEA",
"p.	c #F5F6FC",
"q.	c #FAFCFF",
"r.	c #F1F2FA",
"s.	c #BFBFC8",
"t.	c #FCFCFC",
"u.	c #EDEEF7",
"v.	c #A7A9BF",
"w.	c #BCC0E0",
"x.	c #BABEDD",
"y.	c #9498B2",
"z.	c #676770",
"A.	c #B0AFB5",
"B.	c #D9DBEC",
"C.	c #D1D6FC",
"D.	c #C0C6E9",
"E.	c #ABAECD",
"F.	c #D2D6EC",
"G.	c #D2D5EC",
"H.	c #F8F9FF",
"I.	c #DEDEE1",
"J.	c #56565B",
"K.	c #8C8E9E",
"L.	c #D1D3E6",
"M.	c #CFD2E6",
"N.	c #EBEEF9",
"O.	c #FAFAFC",
"P.	c #F8F8FA",
"Q.	c #FCFDFE",
"R.	c #EBEDF2",
"S.	c #E6E7ED",
"T.	c #F2F3F8",
"U.	c #C4C5CB",
"V.	c #EEF3F6",
"W.	c #F4F5FD",
"X.	c #F8FAFF",
"Y.	c #B9BAC5",
"Z.	c #9CA0BB",
"`.	c #C2C5E7",
" +	c #B9BEDF",
".+	c #9A9DB8",
"++	c #616370",
"@+	c #C3C3CC",
"#+	c #E8EAF4",
"$+	c #B4B5C7",
"%+	c #BCC1DE",
"&+	c #BBC0DE",
"*+	c #999DAE",
"=+	c #D1D4EA",
"-+	c #EEEEF5",
";+	c #F9F9FB",
">+	c #858589",
",+	c #7B7D93",
"'+	c #CED2E8",
")+	c #BEC1D9",
"!+	c #C8CCE4",
"~+	c #ECEDF9",
"{+	c #F0F1FE",
"]+	c #E7EBF3",
"^+	c #F4F4FA",
"/+	c #C1C1CA",
"(+	c #C5C7CF",
"_+	c #C3C3CB",
":+	c #C5C7CA",
"<+	c #E4E5EA",
"[+	c #9798A0",
"}+	c #A7AAC3",
"|+	c #F0F1F7",
"1+	c #F7F8FC",
"2+	c #C3C4CC",
"3+	c #8F92A7",
"4+	c #C7CBE8",
"5+	c #9699B1",
"6+	c #C3C7E3",
"7+	c #A3A7BE",
"8+	c #9294A0",
"9+	c #E5E6EB",
"0+	c #E6E7EE",
"a+	c #B6B9CC",
"b+	c #C9CDE6",
"c+	c #CACEE6",
"d+	c #C5C9E2",
"e+	c #FBFCFF",
"f+	c #FAFBFF",
"g+	c #B4B4B6",
"h+	c #636472",
"i+	c #AFB2D2",
"j+	c #B7B9CD",
"k+	c #9FA2B5",
"l+	c #D4D7EC",
"m+	c #EFF3FF",
"n+	c #D2D2DB",
"o+	c #A5A5AC",
"p+	c #D9DCF3",
"q+	c #F7F7F8",
"r+	c #FDFDFD",
"s+	c #ECEEF4",
"t+	c #F5F5F8",
"u+	c #DFE1EE",
"v+	c #EAECF5",
"w+	c #77787E",
"x+	c #9C9FB3",
"y+	c #CDD0EA",
"z+	c #292A30",
"A+	c #A6A8BD",
"B+	c #C5C9E3",
"C+	c #9A9EB1",
"D+	c #C7C8D0",
"E+	c #FBFCFE",
"F+	c #C0C2CB",
"G+	c #CCCFE7",
"H+	c #D3D7EF",
"I+	c #F2F5FE",
"J+	c #F2F6FD",
"K+	c #EFF0F1",
"L+	c #2F2F33",
"M+	c #9C9EB4",
"N+	c #B2B5D3",
"O+	c #3B3D43",
"P+	c #989BAD",
"Q+	c #D0D4E9",
"R+	c #BDBECB",
"S+	c #C2C2C5",
"T+	c #ACAEBB",
"U+	c #F2F3F4",
"V+	c #D9DDE7",
"W+	c #A1A3AB",
"X+	c #43444C",
"Y+	c #BCBFD6",
"Z+	c #ADB1C5",
"`+	c #000000",
" @	c #55555E",
".@	c #C2C4DB",
"+@	c #BABED3",
"@@	c #9C9EAA",
"#@	c #E9EAF0",
"$@	c #D6D7DD",
"%@	c #C2C5D7",
"&@	c #BEC2D6",
"*@	c #CACEE5",
"=@	c #F9FCFE",
"-@	c #F0F1FC",
";@	c #AFB0B4",
">@	c #535560",
",@	c #C7CAE6",
"'@	c #828497",
")@	c #9093AA",
"!@	c #C3C8E2",
"~@	c #71727E",
"{@	c #ADADB0",
"]@	c #8A8C94",
"^@	c #E2E2E7",
"/@	c #8E909E",
"(@	c #ADB0C4",
"_@	c #CED2EA",
":@	c #6B6C79",
"<@	c #9B9DAE",
"[@	c #CACDE5",
"}@	c #A4A7BA",
"|@	c #D1D2DB",
"1@	c #E5E5EC",
"2@	c #9495A0",
"3@	c #A1A4B6",
"4@	c #D3D7EB",
"5@	c #DDE2F6",
"6@	c #909095",
"7@	c #A2A5B9",
"8@	c #C2C5E2",
"9@	c #52535F",
"0@	c #A7A9BD",
"a@	c #C0C2DD",
"b@	c #ACB0C6",
"c@	c #CACEDE",
"d@	c #FCFCFD",
"e@	c #F5F5F6",
"f@	c #94949A",
"g@	c #DCDFF7",
"h@	c #A4A6BA",
"i@	c #0C0D0F",
"j@	c #CACCE4",
"k@	c #BFC3D8",
"l@	c #B7B8C6",
"m@	c #ECECF3",
"n@	c #9E9FA6",
"o@	c #C8CCE3",
"p@	c #B6BACD",
"q@	c #CFD2E9",
"r@	c #EAEDF6",
"s@	c #DEE1EF",
"t@	c #E7E7EC",
"u@	c #74747C",
"v@	c #C3C8E3",
"w@	c #ACAFC6",
"x@	c #232429",
"y@	c #ADB0C3",
"z@	c #C2C6DF",
"A@	c #D7DBE8",
"B@	c #F6F7FB",
"C@	c #F7F8FB",
"D@	c #919197",
"E@	c #D3D6EE",
"F@	c #9B9EB0",
"G@	c #BABDD4",
"H@	c #C3C6DD",
"I@	c #A3A6B7",
"J@	c #E6E6EE",
"K@	c #B2B2BA",
"L@	c #A3A6B8",
"M@	c #C2C5DB",
"N@	c #E0E3F7",
"O@	c #E4E6F2",
"P@	c #DBDBE1",
"Q@	c #71727D",
"R@	c #CCD0EB",
"S@	c #9294A8",
"T@	c #010102",
"U@	c #C3C7E0",
"V@	c #A9ACBF",
"W@	c #EEEEF3",
"X@	c #FDFEFF",
"Y@	c #F0F0F4",
"Z@	c #828388",
"`@	c #9FA1B3",
" #	c #CACEE7",
".#	c #B6B9CF",
"+#	c #DFE0E9",
"@#	c #C6C7CE",
"##	c #858797",
"$#	c #C3C6DF",
"%#	c #494A55",
"&#	c #C7CBE2",
"*#	c #C7CBE3",
"=#	c #E9EAF3",
"-#	c #D1D1DA",
";#	c #9293A0",
">#	c #C5C9E5",
",#	c #717482",
"'#	c #C3C8E1",
")#	c #A1A4B7",
"!#	c #B1B2BA",
"~#	c #636468",
"{#	c #C9CCE3",
"]#	c #CACCE5",
"^#	c #BABDD3",
"/#	c #D6D7E1",
"(#	c #D1D2DA",
"_#	c #747583",
":#	c #C5C7E1",
"<#	c #4A4A56",
"[#	c #C7CAE3",
"}#	c #BBBED5",
"|#	c #EDEDF7",
"1#	c #CECDDA",
"2#	c #999CAD",
"3#	c #BEC2DE",
"4#	c #51525C",
"5#	c #C2C5DC",
"6#	c #C1C4DB",
"7#	c #747580",
"8#	c #E3E3E9",
"9#	c #CFCFD3",
"0#	c #6E707B",
"a#	c #D3D6EF",
"b#	c #858897",
"c#	c #C6C8E1",
"d#	c #CCCEDA",
"e#	c #D5D6DE",
"f#	c #6C6D7A",
"g#	c #C1C5DE",
"h#	c #494C56",
"i#	c #BABFD5",
"j#	c #EFF0F8",
"k#	c #CAC9D5",
"l#	c #9699B0",
"m#	c #B3B7D7",
"n#	c #43454D",
"o#	c #D0D4EC",
"p#	c #9597A8",
"q#	c #ACADB3",
"r#	c #9E9EA0",
"s#	c #CBCFE9",
"t#	c #4D4F58",
"u#	c #C3C5DF",
"v#	c #BEC2DA",
"w#	c #D3D5E5",
"x#	c #DADAE3",
"y#	c #696B78",
"z#	c #4A4C56",
"A#	c #C8CDE6",
"B#	c #B6BAD1",
"C#	c #ECEDF5",
"D#	c #CDCCD8",
"E#	c #9D9FB6",
"F#	c #BCBFDE",
"G#	c #5A5B66",
"H#	c #C6CAE1",
"I#	c #8D8F9B",
"J#	c #E1E1E7",
"K#	c #67676A",
"L#	c #B1B4C9",
"M#	c #040505",
"N#	c #C7C9E2",
"O#	c #C9CDEA",
"P#	c #D7D8EB",
"Q#	c #DFDFE8",
"R#	c #656773",
"S#	c #4A4C57",
"T#	c #CED2E9",
"U#	c #BCBFD5",
"V#	c #E9E9F2",
"W#	c #D6D5DF",
"X#	c #C7CBE5",
"Y#	c #808190",
"Z#	c #C5C9E1",
"`#	c #A9ABBE",
" $	c #C8C9D1",
".$	c #FAFAFE",
"+$	c #FBFBFE",
"@$	c #B2B5CC",
"#$	c #818293",
"$$	c #C3C6E3",
"%$	c #D8DDFA",
"&$	c #D4D6E4",
"*$	c #D9D9E1",
"=$	c #626370",
"-$	c #C8CCE6",
";$	c #4D4E58",
">$	c #CDD1E8",
",$	c #B9BDD2",
"'$	c #DDDEE8",
")$	c #9697A7",
"!$	c #CACEEA",
"~$	c #989BB0",
"{$	c #BCC0D5",
"]$	c #AFB2BE",
"^$	c #FBFBFF",
"/$	c #F1F1FB",
"($	c #676979",
"_$	c #BBBFD8",
":$	c #474750",
"<$	c #C2C6E2",
"[$	c #EAEEFE",
"}$	c #DEDFEB",
"|$	c #C9C8CF",
"1$	c #646674",
"2$	c #C2C5DF",
"3$	c #484A55",
"4$	c #BEC2D8",
"5$	c #CACBD7",
"6$	c #F1F2F6",
"7$	c #9696A1",
"8$	c #B1B4C7",
"9$	c #C1C3D8",
"0$	c #C9CCE4",
"a$	c #AEB0C2",
"b$	c #EFEFFC",
"c$	c #777988",
"d$	c #BDC2DA",
"e$	c #35363B",
"f$	c #C4C7E2",
"g$	c #EFF1FF",
"h$	c #E7E8F3",
"i$	c #B4B5BB",
"j$	c #6F707F",
"k$	c #B9BDD6",
"l$	c #43454E",
"m$	c #D1D5EC",
"n$	c #BDC0D7",
"o$	c #AAAAB8",
"p$	c #F7F6FE",
"q$	c #AEAFB7",
"r$	c #C6CAE0",
"s$	c #CED0E4",
"t$	c #787985",
"u$	c #F9F8FD",
"v$	c #FAFBFE",
"w$	c #FAFAFF",
"x$	c #F2F1FE",
"y$	c #838695",
"z$	c #C3C7DF",
"A$	c #62636C",
"B$	c #D0D3F0",
"C$	c #DFE2FE",
"D$	c #EBECF5",
"E$	c #97969D",
"F$	c #7E8091",
"G$	c #AFB2CA",
"H$	c #3A3B43",
"I$	c #C6CAE3",
"J$	c #8A8C9C",
"K$	c #D2D4DE",
"L$	c #8C8F9F",
"M$	c #D3D7F0",
"N$	c #A9ABBF",
"O$	c #CDD1EA",
"P$	c #B7BACF",
"Q$	c #F9F8FE",
"R$	c #F8F7FE",
"S$	c #F9F9FF",
"T$	c #F3F2FA",
"U$	c #F2F1F9",
"V$	c #E8E6F3",
"W$	c #80808F",
"X$	c #BCBFD8",
"Y$	c #8C8F9E",
"Z$	c #E6E7EF",
"`$	c #74757B",
" %	c #A2A4BB",
".%	c #A3A7BF",
"+%	c #2C2D34",
"@%	c #D2D6EE",
"#%	c #9194A5",
"$%	c #CCCDD7",
"%%	c #F0F1FA",
"&%	c #CCD0EA",
"*%	c #70727E",
"=%	c #D7DBF2",
"-%	c #C0C3D7",
";%	c #EDEDF5",
">%	c #E1E1EA",
",%	c #D7D6E0",
"'%	c #D8D7E1",
")%	c #CDCCD5",
"!%	c #848592",
"~%	c #BDC0D9",
"{%	c #ACB0C7",
"]%	c #020203",
"^%	c #CBCFEA",
"/%	c #F0F3FA",
"(%	c #EDEFFC",
"_%	c #CACCD4",
":%	c #5E5F67",
"<%	c #BBBFDB",
"[%	c #9598AE",
"}%	c #151519",
"|%	c #D5D8EF",
"1%	c #B0B3C7",
"2%	c #A5A6B0",
"3%	c #F2F2F8",
"4%	c #E4E4ED",
"5%	c #BABDD1",
"6%	c #D0D4EF",
"7%	c #BBBED6",
"8%	c #D7DAF0",
"9%	c #D6DBF3",
"0%	c #CBCEE2",
"a%	c #EEF0F5",
"b%	c #F6F6F8",
"c%	c #F4F4F5",
"d%	c #F4F5F7",
"e%	c #E5E6F2",
"f%	c #9899A5",
"g%	c #BABDD8",
"h%	c #BEC0DC",
"i%	c #3F3F46",
"j%	c #C4C8E4",
"k%	c #D7DAEF",
"l%	c #F4F8FF",
"m%	c #F9FAFE",
"n%	c #A3A3AA",
"o%	c #787A8A",
"p%	c #C0C4E0",
"q%	c #828496",
"r%	c #010101",
"s%	c #898B98",
"t%	c #CFD0D8",
"u%	c #F0F0F6",
"v%	c #C4C5D2",
"w%	c #D6DBF4",
"x%	c #C3C6DC",
"y%	c #C8CAE0",
"z%	c #CFD4ED",
"A%	c #DFE3F7",
"B%	c #B9BBC4",
"C%	c #BBC0DC",
"D%	c #52535D",
"E%	c #BCBED8",
"F%	c #F7FBFF",
"G%	c #FDFFFF",
"H%	c #D3D5DC",
"I%	c #75757C",
"J%	c #BFC2DA",
"K%	c #54545E",
"L%	c #D7DAF3",
"M%	c #B1B4C8",
"N%	c #92949E",
"O%	c #D0D0D9",
"P%	c #DEDFE9",
"Q%	c #D7DBF4",
"R%	c #CACCE3",
"S%	c #B8BBCF",
"T%	c #C7C9D9",
"U%	c #F8F9FC",
"V%	c #F6F6FB",
"W%	c #F7F7FD",
"X%	c #F9F9FE",
"Y%	c #CFCED8",
"Z%	c #B8B9C9",
"`%	c #D1D4EB",
" &	c #484950",
".&	c #979BAB",
"+&	c #B8BCD2",
"@&	c #D7DBF0",
"#&	c #F5F7FE",
"$&	c #F1F0F2",
"%&	c #A5A4A8",
"&&	c #848694",
"*&	c #D1D3E8",
"=&	c #B2B3C4",
"-&	c #0C0C0D",
";&	c #D7D9F1",
">&	c #9DA0B3",
",&	c #B2B2BD",
"'&	c #F4F5F9",
")&	c #F6F8FD",
"!&	c #DCE0F9",
"~&	c #DDE0F7",
"{&	c #CBCEE6",
"]&	c #C0C3DC",
"^&	c #BCBFD9",
"/&	c #989AAB",
"(&	c #EEEEF8",
"_&	c #F3F3FB",
":&	c #F6F6FD",
"<&	c #F6F5FC",
"[&	c #C4C2D0",
"}&	c #9092A4",
"|&	c #CED2EC",
"1&	c #8D8FA2",
"2&	c #BCC0D8",
"3&	c #C8CCE5",
"4&	c #F1F3FE",
"5&	c #C0BFC4",
"6&	c #505157",
"7&	c #A9ACC0",
"8&	c #CED1E9",
"9&	c #474850",
"0&	c #BDC1D7",
"a&	c #737481",
"b&	c #BCBCC5",
"c&	c #F7F7FB",
"d&	c #F7F8FF",
"e&	c #EAEDFF",
"f&	c #E5EAFD",
"g&	c #BDC0DA",
"h&	c #C2C6E0",
"i&	c #8F92A6",
"j&	c #BEBDC7",
"k&	c #EBEBF3",
"l&	c #F3F4FB",
"m&	c #F4F4FB",
"n&	c #F3F3F9",
"o&	c #E3E2EB",
"p&	c #9E9EA6",
"q&	c #B7B9CB",
"r&	c #D3D6F3",
"s&	c #CCD0E9",
"t&	c #D9DCF0",
"u&	c #C7C8CD",
"v&	c #6E6F6F",
"w&	c #848798",
"x&	c #C2C4DF",
"y&	c #9193A6",
"z&	c #B5B8CC",
"A&	c #B9BCD3",
"B&	c #797A85",
"C&	c #ADACB6",
"D&	c #F6F5FE",
"E&	c #F9FCFF",
"F&	c #F6F8FE",
"G&	c #D1D4F2",
"H&	c #C9CCE8",
"I&	c #B6B8D2",
"J&	c #6F707B",
"K&	c #A8A8B0",
"L&	c #D7D7E1",
"M&	c #DFDEE8",
"N&	c #C8C7D0",
"O&	c #919098",
"P&	c #595A64",
"Q&	c #CCD0E3",
"R&	c #EFF0FB",
"S&	c #F4F6FC",
"T&	c #F2F2F4",
"U&	c #BCBDC1",
"V&	c #676869",
"W&	c #848799",
"X&	c #BCC0DA",
"Y&	c #3D3E48",
"Z&	c #B7BCCF",
"`&	c #CCCFE8",
" *	c #63646F",
".*	c #6D6D75",
"+*	c #E1E0EE",
"@*	c #F6F6F9",
"#*	c #8B8DA5",
"$*	c #2F2F34",
"%*	c #19181B",
"&*	c #37383E",
"**	c #ABAEC4",
"=*	c #FEFEFE",
"-*	c #DEDDE6",
";*	c #9F9FA4",
">*	c #313234",
",*	c #818395",
"'*	c #BBBDD5",
")*	c #35363D",
"!*	c #C5C9E0",
"~*	c #9395A6",
"{*	c #A8A7B4",
"]*	c #CECED9",
"^*	c #EAEAF1",
"/*	c #F4F4F9",
"(*	c #F8F8FB",
"_*	c #FBFCFD",
":*	c #F1F1F5",
"<*	c #EAEAED",
"[*	c #D3D3D8",
"}*	c #A8A6B0",
"|*	c #6A696F",
"1*	c #5F606D",
"2*	c #9396AA",
"3*	c #C3C7E2",
"4*	c #AAADC4",
"5*	c #35363C",
"6*	c #D3D7ED",
"7*	c #B5B7CE",
"8*	c #9497AB",
"9*	c #5D5E69",
"0*	c #6E6E78",
"a*	c #83828C",
"b*	c #A2A1A8",
"c*	c #BABAC0",
"d*	c #C8C8CE",
"e*	c #D2D2DA",
"f*	c #CFCFD6",
"g*	c #CAC9D0",
"h*	c #BDBDC2",
"i*	c #A7A7AD",
"j*	c #87878D",
"k*	c #6A6970",
"l*	c #535359",
"m*	c #696A77",
"n*	c #A1A4BB",
"o*	c #B9BCD6",
"p*	c #BFC2DE",
"q*	c #9296A9",
"r*	c #3E414A",
"s*	c #9596A6",
"t*	c #BDBED7",
"u*	c #C0C4DF",
"v*	c #C3C6E1",
"w*	c #7E8296",
"x*	c #50525C",
"y*	c #4B4C56",
"z*	c #44454F",
"A*	c #42434D",
"B*	c #40414C",
"C*	c #3E3F49",
"D*	c #42434E",
"E*	c #444650",
"F*	c #4E505B",
"G*	c #6A6C7A",
"H*	c #C0C3DE",
"I*	c #ABAEC5",
"J*	c #464750",
"K*	c #A0A1B4",
"L*	c #B1B5CA",
"M*	c #A1A5BA",
"N*	c #B4B8D3",
"O*	c #C1C4DA",
"P*	c #C6C9E1",
"Q*	c #C4C8E0",
"R*	c #C5C9E6",
"S*	c #BBBED9",
"T*	c #C2C5E1",
"U*	c #A9ADC3",
"V*	c #A2A5BA",
"W*	c #585A65",
"X*	c #0F0F12",
"Y*	c #51535E",
"Z*	c #565865",
"`*	c #585B68",
" =	c #515360",
".=	c #545663",
"+=	c #535462",
"@=	c #4D4E59",
"#=	c #464751",
"$=	c #36373F",
"%=	c #1C1C21",
"&=	c #020202",
"                                                                                ",
"                            . + @ # $ % & * = - ; >                             ",
"                    , ' ) ! ~ { { ] ^ / ] ( _ : < [ } | 1 2                     ",
"                  3 4 5 6 7 8 8 8 8 8 8 8 8 8 8 8 9 6 0 a b c                   ",
"              d e f g 8 8 h i j k l m n o p q r s t u 8 v w x y z               ",
"            A B C 8 8 9 D E F G H I J K L M N O P Q R S T 8 U x V W             ",
"          X Y Z 8 8 `  ...+.@.#.$.%.&.*.8 =.-.;.>.,.'.).!.~.{.].^./.(.          ",
"          _.:.8 <.[.}.|.1.(.2.3.4.8 8 8 u 5.u 8 T 6.7.8.9.0.a.b.c.d.e.f.        ",
"        g.h.8 i.j.k.l.m.n.o.p.*.*.q.8 8 r.s.t.v u.v.w.x.y.z.A.] B.C.D.E.        ",
"      F.G.H.8 I.J.K.$.L.M.N.O.<.P.Q.R.S.T.U.V.W.X.Y.Z.`. +.+++@+#+$+%+&+*+      ",
"      =+-+8 ;+>+,+'+)+!+~+{+]+^+/+(+_+:+<+[+}+|+1+2+3+4+5+6+7+8+9+0+a+b+c+      ",
"    d+, e+f+g+h+i+j+k+l+8 8 m+n+o+p+q+r+r+s+t+u+v+w+x+y+z+A+B+C+D+E+F+G+H+7.    ",
"    !+I+J+K+L+M+N+O+P+Q+R+P.S+T+U+8 8 8 *.8 8 V+W+X+Y+Z+`+ @.@+@@@#@$@%@_.&@    ",
"    *@=@-@;@>@,@'@`+)@!@~@{@]@H.8 <.<.<.9 i.i.^@/@(@_@:@`+  <@[@}@|@1@2@*@3@    ",
"  4@5@5 ^+6@7@8@9@`+0@a@b@c@d@8 <.<.<.T T i.8 e@f@g@h@i@`+    j@k@l@m@n@o@p@    ",
"  q@r@s@t@u@v@w@x@`+  y@z@A@B@<.T T <.T 7 u i.C@D@E@F@`+      G@H@I@J@K@L@M@    ",
"  q@N@O@P@Q@R@S@T@      U@V@W@<.i.i.i.X@i.i.i.Y@Z@V `@`+         #.#+#@###$#%#  ",
"  &#*#=#-#;#>#,#`+      '#)#!#<.i.i.<.T <.i.Q.D ~#{#F@          ]#^#/#(#_#:#<#  ",
"  [#}#|#1#2#3#4#        5#6#7#8#T <.<.<.i.i.u 9#0#a#b#          c#G@d#e#f#g#h#  ",
"  b+i#j#k#l#m#n#          o#p#q#t+<.<.<.i.8 7 r#v.s#t#          u#v#w#x#y#U@z#  ",
"  A#B#C#D#E#F#G#          M@H#I#J#7 7 <.i.X@*.K#L#B#M#          N#O#P#Q#R#'#S#  ",
"  T#U#V#W#3@X#Y#            Z#`# $.$+$+$<.<.f+I @$#$`+          $$%$&$*$=$-$;$  ",
"  >$,$'$8#)$!$~$            *#{$]$^$T T T 9 /$($_$:$`+          <$[$}$|$1$2$3$  ",
"  q@4$5$6$7$T#8$            9$0$a$.$^$T T +$b$c$d$e$`+          f$g$h$i$j$k$l$  ",
"  m$n$o$p$q$r$s$t$            o#L#u$v$w$^$w$x$y$z$A$`+        b+B$C$D$E$F$G$H$  ",
"    I$J$u.K$L$M$N$            O$P$Q$R$S$T$U$V$W$X$Y$`+        !$u.6.Z$`$ %.%+%  ",
"    @%#%$%%%@@&%/.*%          =%-%;%>%>%,%'%)%!%~%{%]%        ^%/%(%_%:%<%[%}%  ",
"    |%1%2%3%4%5%6%7%        8%9%0%u.a%b%c%d%e%f%g%h%i%      j%k%l%m%n%o%p%q%r%  ",
"    ! a s%t%u%v%w% #x%      y%z%A%8 8 i.i.i.X@B%4 C%D%    E%'#F%G%H%I%.#J%K%    ",
"      L%M%N%O%P%=+Q%R%4     S%d+T%U%U%V%W%W%X%Y%Z%`% &.&+&@&#&8 $&%&&&*&=&-&    ",
"      ;&O$>&,&'&)&!&~&{&]&  L#^&/&(&_&:&W%R$<&[&}&|&1&2&3&4&8 P.5&6&7&8&9&`+    ",
"        H#0&a&b&c&d&e&f&_@j%g&h&i&j&k&l&m&n&o&p&q&r&s&t&8 8 P.u&v&w&x&y&`+`+    ",
"        z&*@A&B&C&D&f+E&F&r@G&H&I&J&K&L&M&N&O&P&Q&R&S&*.8 T&U&V&W&X&7+Y&`+      ",
"          Z&`&^# *.*+*e+8 8 8 *.i.@*#*$*%*&***=*8 8 8 8 -*;*>*,*/.'*)*`+        ",
"            a+!*!*~*A${*]*^*/*(*i.8 8 8 8 8 8 _*:*<*[*}*|*1*2*3*4*5*`+          ",
"                6*a#7*8*9*0*a*b*c*d*j.e*f*g*h*i*j*k*l*m*n*o*p*q*r*`+`+          ",
"                  s*t*u*v*_$w*x*y*z*A*B*C*D*E*F*G*x+^%^%H*I*J*`+`+              ",
"                      K*L*M*N*O*P*Q*B+R*S*<$T*^&(.U*V*}&W*X*`+`+                ",
"                                Y*>@Z*`* =.=+=@=#=$=%=&=                        ",
"                                                                                "};
