/* XPM */
static char * penny_xpm[] = {
"25 14 75 1",
" 	c None",
".	c #000000",
"+	c #41331E",
"@	c #685230",
"#	c #755C36",
"$	c #9C7B48",
"%	c #82663C",
"&	c #342918",
"*	c #40321C",
"=	c #987239",
"-	c #976F34",
";	c #61461E",
">	c #1D1508",
",	c #0D0A06",
"'	c #5B472A",
")	c #B68F54",
"!	c #D1A461",
"~	c #40311A",
"{	c #322511",
"]	c #251B0D",
"^	c #715327",
"/	c #AB7D3A",
"(	c #A0732F",
"_	c #9E712E",
":	c #91682A",
"<	c #593F19",
"[	c #2C1F0C",
"}	c #070502",
"|	c #2D200E",
"1	c #A57B3D",
"2	c #CFA05A",
"3	c #CE9F58",
"4	c #CB984C",
"5	c #191208",
"6	c #130E05",
"7	c #775422",
"8	c #6F4E1F",
"9	c #160F06",
"0	c #8D6429",
"a	c #B18038",
"b	c #C49043",
"c	c #CA9546",
"d	c #0C0904",
"e	c #997032",
"f	c #AB7C35",
"g	c #94692B",
"h	c #765422",
"i	c #805B25",
"j	c #966B2B",
"k	c #422F13",
"l	c #3B2A11",
"m	c #835D25",
"n	c #9B6F2D",
"o	c #31230E",
"p	c #855E26",
"q	c #0E0A04",
"r	c #8C6428",
"s	c #110C05",
"t	c #513A17",
"u	c #65481D",
"v	c #8A6228",
"w	c #4A3415",
"x	c #34240E",
"y	c #60441B",
"z	c #876127",
"A	c #8C662E",
"B	c #67502D",
"C	c #68512E",
"D	c #654A23",
"E	c #5F4620",
"F	c #4F3817",
"G	c #583F19",
"H	c #9C7A47",
"I	c #8F6930",
"J	c #6C4D1F",
"       ..........        ",
"    .................    ",
"   ....+@#$%&*=-;>.....  ",
"  ..,')!$~{]..^/(_:<[}.. ",
" ..|1234]..]5..6___7789. ",
"..[0abccd]ef_ghi__j777k..",
"..lmn___>....>ogjp7777q..",
"...[<irgggs.tuvm7777w9...",
".......q>>x[llllll>...>..",
"..<[}..............>xy>. ",
" .[87zhhA^B@CDEFFG77w9.. ",
" ...>kGh--H$H-IhhJx}...  ",
"  ....................   ",
"      .............      "};
