/* XPM */
static char * penny_xpm[] = {
"40 40 451 2",
"  	c #734136",
". 	c #714035",
"+ 	c #724136",
"@ 	c #704035",
"# 	c #724036",
"$ 	c #714036",
"% 	c #703F35",
"& 	c #6F3F35",
"* 	c #6E3E34",
"= 	c #6F4035",
"- 	c #724035",
"; 	c #000000",
"> 	c #703E33",
", 	c #6D3E33",
"' 	c #080502",
") 	c #100A04",
"! 	c #171006",
"~ 	c #1A1207",
"{ 	c #1E1609",
"] 	c #261C0C",
"^ 	c #241A0C",
"/ 	c #120C04",
"( 	c #0A0602",
"_ 	c #1D1406",
": 	c #261A08",
"< 	c #261A07",
"[ 	c #201505",
"} 	c #140C03",
"| 	c #090501",
"1 	c #020100",
"2 	c #100D0F",
"3 	c #1A1010",
"4 	c #2C2212",
"5 	c #42341D",
"6 	c #554326",
"7 	c #5D492A",
"8 	c #695330",
"9 	c #7E6339",
"0 	c #7A6037",
"a 	c #6A5330",
"b 	c #48381F",
"c 	c #2E2414",
"d 	c #342816",
"e 	c #684D26",
"f 	c #805F2E",
"g 	c #7F5D2B",
"h 	c #6E5023",
"i 	c #4F3817",
"j 	c #31230D",
"k 	c #110C04",
"l 	c #020201",
"m 	c #100C0A",
"n 	c #21190E",
"o 	c #513E22",
"p 	c #6D542F",
"q 	c #7E6239",
"r 	c #82663C",
"s 	c #7C6239",
"t 	c #715934",
"u 	c #6E5732",
"v 	c #81653A",
"w 	c #7D6238",
"x 	c #6C5431",
"y 	c #483820",
"z 	c #71552A",
"A 	c #916C34",
"B 	c #9B7236",
"C 	c #8F682F",
"D 	c #785624",
"E 	c #684A1D",
"F 	c #5C4118",
"G 	c #553B15",
"H 	c #432E0F",
"I 	c #2E1F09",
"J 	c #1D1305",
"K 	c #0F0902",
"L 	c #020101",
"M 	c #010000",
"N 	c #713F35",
"O 	c #070503",
"P 	c #281F11",
"Q 	c #503E24",
"R 	c #886B3E",
"S 	c #B38C52",
"T 	c #C49A5B",
"U 	c #BE9558",
"V 	c #9D7C48",
"W 	c #735A34",
"X 	c #44341C",
"Y 	c #413119",
"Z 	c #3A2C16",
"` 	c #302412",
" .	c #1B1308",
"..	c #59411D",
"+.	c #805E2C",
"@.	c #A27637",
"#.	c #A47735",
"$.	c #9D712E",
"%.	c #9B6F2D",
"&.	c #966B2B",
"*.	c #8E6529",
"=.	c #725120",
"-.	c #503816",
";.	c #36260E",
">.	c #201607",
",.	c #060402",
"'.	c #693B31",
").	c #0F0803",
"!.	c #1F1508",
"~.	c #644922",
"{.	c #896634",
"].	c #A27D45",
"^.	c #B68D4F",
"/.	c #C59956",
"(.	c #CB9C56",
"_.	c #B78C4D",
":.	c #775C34",
"<.	c #503E22",
"[.	c #281D0D",
"}.	c #211809",
"|.	c #22180A",
"1.	c #241A0D",
"2.	c #191107",
"3.	c #0C0803",
"4.	c #010100",
"5.	c #392810",
"6.	c #563E1B",
"7.	c #705124",
"8.	c #8A632A",
"9.	c #9F722E",
"0.	c #9E712E",
"a.	c #9C702D",
"b.	c #996D2C",
"c.	c #815C25",
"d.	c #694A1E",
"e.	c #62451B",
"f.	c #5B3F19",
"g.	c #523915",
"h.	c #31210A",
"i.	c #0B0602",
"j.	c #2C1E0A",
"k.	c #493315",
"l.	c #89652F",
"m.	c #AF8342",
"n.	c #C79852",
"o.	c #CD9D56",
"p.	c #CD9D54",
"q.	c #CC994E",
"r.	c #AC803F",
"s.	c #402E15",
"t.	c #201506",
"u.	c #3F2C10",
"v.	c #4D3715",
"w.	c #553D19",
"x.	c #4F3816",
"y.	c #493313",
"z.	c #3B280C",
"A.	c #36240B",
"B.	c #3B290E",
"C.	c #755320",
"D.	c #9D702D",
"E.	c #896127",
"F.	c #775422",
"G.	c #745221",
"H.	c #6D4D1F",
"I.	c #463112",
"J.	c #1C1306",
"K.	c #030201",
"L.	c #040201",
"M.	c #201507",
"N.	c #523916",
"O.	c #7E5924",
"P.	c #9D7131",
"Q.	c #B4833C",
"R.	c #C29045",
"S.	c #C89549",
"T.	c #CB974A",
"U.	c #CA9648",
"V.	c #AB7E3B",
"W.	c #3A2911",
"X.	c #1C1409",
"Y.	c #463215",
"Z.	c #7F5D29",
"`.	c #936B2E",
" +	c #9C7130",
".+	c #946A2C",
"++	c #8D6529",
"@+	c #876027",
"#+	c #785522",
"$+	c #735221",
"%+	c #9C6F2D",
"&+	c #986C2C",
"*+	c #865F26",
"=+	c #765422",
"-+	c #735121",
";+	c #533B17",
">+	c #32230D",
",+	c #703F34",
"'+	c #6F3E33",
")+	c #070401",
"!+	c #2A1D0A",
"~+	c #593F19",
"{+	c #855F26",
"]+	c #9B6F2F",
"^+	c #AA7B35",
"/+	c #B2823A",
"(+	c #B6853C",
"_+	c #B8873D",
":+	c #9C7232",
"<+	c #181107",
"[+	c #3A2910",
"}+	c #6B4E21",
"|+	c #7C5925",
"1+	c #835E26",
"2+	c #7D5923",
"3+	c #775421",
"4+	c #735120",
"5+	c #835D26",
"6+	c #91672A",
"7+	c #9A6E2D",
"8+	c #8A6228",
"9+	c #7F5A24",
"0+	c #291C09",
"a+	c #060301",
"b+	c #2F210C",
"c+	c #573D18",
"d+	c #7D5823",
"e+	c #9D702E",
"f+	c #876026",
"g+	c #2B1D08",
"h+	c #211504",
"i+	c #0C0601",
"j+	c #191004",
"k+	c #251B0A",
"l+	c #34250E",
"m+	c #553C18",
"n+	c #886027",
"o+	c #94692B",
"p+	c #93692A",
"q+	c #805B25",
"r+	c #755321",
"s+	c #704F20",
"t+	c #432E11",
"u+	c #090603",
"v+	c #180F04",
"w+	c #36250C",
"x+	c #67491D",
"y+	c #866027",
"z+	c #92682A",
"A+	c #90662A",
"B+	c #805A24",
"C+	c #71501F",
"D+	c #39270D",
"E+	c #070502",
"F+	c #38270D",
"G+	c #4A3414",
"H+	c #6A4B1E",
"I+	c #7B5723",
"J+	c #7D5924",
"K+	c #7A5623",
"L+	c #725121",
"M+	c #61441B",
"N+	c #533A17",
"O+	c #452F12",
"P+	c #271A07",
"Q+	c #713F34",
"R+	c #110A03",
"S+	c #221708",
"T+	c #3D2A0F",
"U+	c #66481C",
"V+	c #704F1F",
"W+	c #765420",
"X+	c #7B5722",
"Y+	c #1C1305",
"Z+	c #402D11",
"`+	c #503917",
" @	c #59401A",
".@	c #6C4D1F",
"+@	c #735220",
"@@	c #6E4E1F",
"#@	c #68491D",
"$@	c #65471C",
"%@	c #64461C",
"&@	c #5E4219",
"*@	c #2F200B",
"=@	c #110B04",
"-@	c #0E0903",
";@	c #090502",
">@	c #6E3F34",
",@	c #050301",
"'@	c #0D0701",
")@	c #150C02",
"!@	c #1C1103",
"~@	c #201404",
"{@	c #221605",
"]@	c #2B1E0A",
"^@	c #30210C",
"/@	c #30220C",
"(@	c #31220C",
"_@	c #2F210D",
":@	c #2C1F0C",
"<@	c #382810",
"[@	c #3D2C12",
"}@	c #3E2C12",
"|@	c #412E13",
"1@	c #433013",
"2@	c #422F13",
"3@	c #422E13",
"4@	c #412E12",
"5@	c #2B1E0B",
"6@	c #221706",
"7@	c #190F03",
"8@	c #110902",
"9@	c #080401",
"0@	c #160F05",
"a@	c #6C3E33",
"b@	c #0A0401",
"c@	c #37260C",
"d@	c #3B280E",
"e@	c #231808",
"f@	c #140D04",
"g@	c #040301",
"h@	c #100A03",
"i@	c #100B03",
"j@	c #1E1406",
"k@	c #1C1205",
"l@	c #231707",
"m@	c #181005",
"n@	c #231807",
"o@	c #473112",
"p@	c #171005",
"q@	c #0E0802",
"r@	c #453012",
"s@	c #4D3615",
"t@	c #412D11",
"u@	c #3A280E",
"v@	c #37250C",
"w@	c #3B290C",
"x@	c #39270B",
"y@	c #34230A",
"z@	c #38260C",
"A@	c #3E2B10",
"B@	c #38270E",
"C@	c #31220D",
"D@	c #2D210F",
"E@	c #2D2110",
"F@	c #2D2211",
"G@	c #2D2210",
"H@	c #2C200E",
"I@	c #2C1E0B",
"J@	c #271B08",
"K@	c #221606",
"L@	c #211505",
"M@	c #241706",
"N@	c #2B1C07",
"O@	c #34220A",
"P@	c #3B2910",
"Q@	c #483314",
"R@	c #553C17",
"S@	c #36250E",
"T@	c #2E1F0B",
"U@	c #6A4A1D",
"V@	c #6F4E1F",
"W@	c #785622",
"X@	c #745321",
"Y@	c #6B4C1E",
"Z@	c #725222",
"`@	c #7E5C28",
" #	c #725326",
".#	c #654B24",
"+#	c #5F4927",
"@#	c #5E4929",
"##	c #5E4A2B",
"$#	c #5E492A",
"%#	c #5D4726",
"&#	c #5C4320",
"*#	c #543D1B",
"=#	c #4A3516",
"-#	c #473214",
";#	c #5A4019",
">#	c #6B4B1E",
",#	c #6D4C1E",
"'#	c #67481D",
")#	c #3D2B11",
"!#	c #2D1F0B",
"~#	c #1A1105",
"{#	c #6E3E33",
"]#	c #030200",
"^#	c #191005",
"/#	c #593E18",
"(#	c #6D4E1F",
"_#	c #6B4C1F",
":#	c #725221",
"<#	c #7F5C27",
"[#	c #906930",
"}#	c #8A652F",
"|#	c #836130",
"1#	c #826438",
"2#	c #82663B",
"3#	c #816336",
"4#	c #7E5D2C",
"5#	c #7A5A29",
"6#	c #745426",
"7#	c #674A1F",
"8#	c #62461C",
"9#	c #61451C",
"0#	c #5D4119",
"a#	c #553B16",
"b#	c #402C10",
"c#	c #2A1C09",
"d#	c #0D0803",
"e#	c #200E0A",
"f#	c #130D04",
"g#	c #3B2A10",
"h#	c #4A3515",
"i#	c #573E19",
"j#	c #6A4C1E",
"k#	c #7E5B27",
"l#	c #916A31",
"m#	c #926C32",
"n#	c #936E36",
"o#	c #967442",
"p#	c #977745",
"q#	c #977746",
"r#	c #967340",
"s#	c #936C34",
"t#	c #8E6830",
"u#	c #86622C",
"v#	c #775624",
"w#	c #5C411A",
"x#	c #37260F",
"y#	c #211607",
"z#	c #050402",
"A#	c #23100C",
"B#	c #120C03",
"C#	c #2A1C08",
"D#	c #32220A",
"E#	c #3E2B0E",
"F#	c #4A3413",
"G#	c #563E1A",
"H#	c #573F1B",
"I#	c #58401D",
"J#	c #5A4424",
"K#	c #5A4626",
"L#	c #5A4627",
"M#	c #594323",
"N#	c #463111",
"O#	c #3F2B0E",
"P#	c #35240B",
"Q#	c #1E1305",
"R#	c #100902",
"                                                                                ",
"    .                                                                           ",
"  + @     .                                               #     # # # # # #     ",
"  + .     @ +               + # # # . @                 + @     # # # # $ %     ",
"  # #     @       .         . # # # .             # # #     @ +         @       ",
"  # #             + % +                               #       . #     . +       ",
"  # #             + + +             # & @                       . .             ",
"  # #     .   # # .                 * %                           # .           ",
"  # #     %                     # $ @     . + @ # + +               +           ",
"  + .   # #                       . +     @     # . . @ . .   # . #             ",
"    @   . .           #                   @             + +   # . #   #         ",
"    @   % +         . #             . . % $ # #                       @ $ #     ",
"        #       + @ +               + + & # # #                       . @ .     ",
"        @     # .                     # #                             # % .     ",
"        = + @ #                     # #                                 # #     ",
"        + +                       . #                                           ",
"                                    #                                           ",
"# #                   @ - - - . . - .   + - - - # - -                           ",
"+ .                   . ; ; ; ; ; ; ; ; ; ; ; ; ; ; ; ;                         ",
"+ .         > > > - , ' ) ! ~ { ] ^ { / ' ( _ : < [ } | 1 * - . . %             ",
"          > > 2 3 ; ' 4 5 6 7 8 9 0 a b c d e f g h i j k 1 ; ; ; ; ; *         ",
"        > > l m n o p q r s t u v w x y c d z A B C D E F G H I J K L M N       ",
"      > > ; O P Q R S T U V W X Y Z `  .' ( ..+.@.#.$.%.&.*.=.-.;.>.,.L '.>     ",
"    > ; ).!.~.{.].^./.(._.:.<.[.}.|.1.2.3.4.5.6.7.8.9.0.a.b.c.d.e.f.g.h.( 4.    ",
"  > 4.i.j.k.l.m.n.o.p.q.r.s.! t.u.v.w.x.y.H z.A.B.C.0.0.0.D.E.F.F.G.H.I.J.K.;   ",
"> > L.M.N.O.P.Q.R.S.T.U.V.W.X.Y.Z.`. +.+++@+#+H.$+E.0.0.%+&+*+F.F.=+-+;+>+| ; ,+",
"'+; )+!+~+{+]+^+/+(+_+_+:+;.<+[+}+|+1+2+3+4+E d.5+6+7+&.6+8+9+F.F.F.G.-.0+a+; # ",
"'+; )+b+c+d+*.b.%.e+e+e+f+u.g+h+i+M 4.i+j+k+l+m+n+o+p+E.q+#+F.F.r+G.s+t+u+4.; . ",
"> ; 1 v+w+N.x+#+y+*.z+&.A+B+d+C+D+E+i+F+G+m+H+I+*+*+c.J+K+F.F.L+M+N+O+P+K.; ; . ",
"Q+; ; ; R+S+T+N.U+V+W+X+d+O.O.4+u.J.Y+Z+`+ @.@F.+@@@d.d.#@$@%@&@I.*@=@-@;@M ; - ",
">@; ; ; 1 ,@'@)@!@~@{@P+]@^@/@(@>+_@:@<@[@}@|@1@2@3@4@4@[+5@6@7@8@9@L.0@0@1 a@- ",
",+; b@c@d@e@f@K.4.; ; g@( h@i@f@j@j@k@l@: : : : : : : : >./ / m@n@F+o@b+p@1 Q+  ",
"- ; q@r@s@t@u@v@w@x@y@y@z@A@B@C@D@E@F@G@H@I@!+J@K@[ L@M@N@O@D+P@5.Q@R@S@f@1     ",
"  Q+9@T@G+%@U@V@W@X@Y@Y@Z@`@ #.#+#@###$#%#&#..*#=#-#Q@v.;#>#,#'#x.)#!#~#,@{#    ",
"    ]#^#v@g./#M+.@(#_#:#<#[#}#|#1#2#r 2#3#4#5#6#7#8#8#8#9#M+0#a#b#c#d#,@; @ +   ",
"  @ . e#; ; f#k+g#h#i#j#k#l#m#n#o#p#q#p#r#s#t#u#v#L+=..@w#x#y#z#4.; ; A#% + @ $ ",
"  @   > ; ; )+B#t.C#D#E#F#G#H#I#J#K#L#K#M#H#w.`+N#H H O#P#Q#R#L ; > - - + . + + ",
"  # . +   % ; ; ; ; A#; ; ; ; ; ; ; ; ; ; ; ; ; ; ; ; ; A#; ; ; Q+      # # # # ",
"    # @ +           .   # - + - . % -   + . @ . . N ,+Q+- @             @ + % + ",
"      + +                         # . @ @ @ . .                     @ @ & . &   "};
