/* XPM */
static char * penny3_xpm[] = {
"40 40 172 2",
"  	c #734136",
". 	c #724136",
"+ 	c #734236",
"@ 	c #704035",
"# 	c #724035",
"$ 	c #714035",
"% 	c #6C3D32",
"& 	c #100604",
"* 	c #060301",
"= 	c #0A0602",
"- 	c #070401",
"; 	c #010100",
"> 	c #050301",
", 	c #090501",
"' 	c #010101",
") 	c #080302",
"! 	c #62352C",
"~ 	c #040302",
"{ 	c #150F05",
"] 	c #2D2211",
"^ 	c #685330",
"/ 	c #765D35",
"( 	c #6B5430",
"_ 	c #0E0904",
": 	c #674B22",
"< 	c #956F36",
"[ 	c #825F2E",
"} 	c #4B3513",
"| 	c #36240A",
"1 	c #100A02",
"2 	c #562F27",
"3 	c #512B23",
"4 	c #120A03",
"5 	c #0C0702",
"6 	c #AC864C",
"7 	c #C09556",
"8 	c #5D4A2A",
"9 	c #110C04",
"0 	c #110D04",
"a 	c #4B381E",
"b 	c #9F7535",
"c 	c #9B6F2D",
"d 	c #876027",
"e 	c #513916",
"f 	c #1D1204",
"g 	c #020101",
"h 	c #321914",
"i 	c #502B23",
"j 	c #0A0601",
"k 	c #2F2009",
"l 	c #A87E3E",
"m 	c #CB994F",
"n 	c #AB8040",
"o 	c #82612E",
"p 	c #161005",
"q 	c #9F7639",
"r 	c #AF823F",
"s 	c #6C4E1F",
"t 	c #8A642B",
"u 	c #93692A",
"v 	c #9D702E",
"w 	c #916729",
"x 	c #775422",
"y 	c #725121",
"z 	c #2A1D09",
"A 	c #000000",
"B 	c #020100",
"C 	c #130B02",
"D 	c #8B6328",
"E 	c #A47732",
"F 	c #AB7C36",
"G 	c #9B7131",
"H 	c #89642C",
"I 	c #1A1206",
"J 	c #765623",
"K 	c #7F5B24",
"L 	c #64481C",
"M 	c #694D21",
"N 	c #956B2C",
"O 	c #8C6428",
"P 	c #7E5924",
"Q 	c #765422",
"R 	c #735121",
"S 	c #34230C",
"T 	c #050101",
"U 	c #010000",
"V 	c #140B03",
"W 	c #4B3414",
"X 	c #6F4F1F",
"Y 	c #825D25",
"Z 	c #795622",
"` 	c #66471D",
" .	c #4A3312",
"..	c #1C1206",
"+.	c #160E04",
"@.	c #191004",
"#.	c #302411",
"$.	c #7F5B26",
"%.	c #6E4D1F",
"&.	c #5F431A",
"*.	c #36260D",
"=.	c #080401",
"-.	c #080201",
";.	c #110902",
">.	c #150D04",
",.	c #1E1506",
"'.	c #4F3815",
").	c #533917",
"!.	c #473113",
"~.	c #35250E",
"{.	c #120B03",
"].	c #432F11",
"^.	c #795A2D",
"/.	c #75582C",
"(.	c #4E3714",
"_.	c #1E1606",
":.	c #181104",
"<.	c #150F04",
"[.	c #0D0902",
"}.	c #512C23",
"|.	c #26120D",
"1.	c #513815",
"2.	c #5D4218",
"3.	c #241908",
"4.	c #1B1206",
"5.	c #1E1507",
"6.	c #1F1507",
"7.	c #1C1407",
"8.	c #191005",
"9.	c #170F05",
"0.	c #1B1205",
"a.	c #160F05",
"b.	c #573C17",
"c.	c #4A3414",
"d.	c #35250C",
"e.	c #63382E",
"f.	c #0D0502",
"g.	c #483213",
"h.	c #5E441B",
"i.	c #725221",
"j.	c #8F6930",
"k.	c #8C6A38",
"l.	c #8D6F41",
"m.	c #87693B",
"n.	c #85622E",
"o.	c #765625",
"p.	c #65481C",
"q.	c #63461C",
"r.	c #493313",
"s.	c #0D0701",
"t.	c #080402",
"u.	c #110504",
"v.	c #714136",
"w.	c #6C3F34",
"x.	c #6D4035",
"y.	c #724036",
"z.	c #63372D",
"A.	c #1A0B08",
"B.	c #050201",
"C.	c #0C0502",
"D.	c #060401",
"E.	c #110A02",
"F.	c #0B0501",
"G.	c #050200",
"H.	c #100503",
"I.	c #6E4035",
"J.	c #6F4035",
"K.	c #714135",
"L.	c #704135",
"M.	c #724135",
"N.	c #6C4034",
"O.	c #6D4034",
"                                                                                ",
"                                                                                ",
"                                                                                ",
"                                                                                ",
"                                                                                ",
"                                                                                ",
"                                                                                ",
"                                                                                ",
"                                                                                ",
"                                                                                ",
"                                                                                ",
"                                                                                ",
"                                                                                ",
"            .   +                                                               ",
"          . @   +                 . .                                           ",
"                    .   # $ % & * = - ; > , ' ) # # .                           ",
"                      # ! ~ { ] ^ / ( _ : < [ } | 1 ; 2                         ",
"                    # 3 4 5 6 7 / 8 9 0 _ a b c d e f g h                       ",
"                    i j k l m n o p q r s t u v w x y z A                       ",
"                    B C D E F G H I J K L M N O P Q R S T                       ",
"                    U V W X Y Z `  ...+.@.#.$.y %.&.*.=.-.                      ",
"                    A ;.>.,.'.).).!.~.{.].^./.(._.:.<.[.}.                      ",
"                    |.; 1.2.3.4.5.6.7.8.9.0...a.b.c.d.B e.                      ",
"          . .       e.f.=.g.h.i.j.k.l.m.n.o.p.q.r.s.t.u.v.                      ",
"        @ w.x.      y.z.A.B.C.' =.> D.D.E.F.G.> ; H.# y.y.                      ",
"        . $ v.                                                                  ",
"                @ I.v.                                                          ",
"                v.J..                           K.L..                           ",
"                                            M.J.N.O.J.K.$ @ @ . v..             ",
"                                            K.O.N.J.J.J.I.N.O.. @ .             ",
"                                                                                ",
"                                                                                ",
"                                                                                ",
"                                                                                ",
"                                                                                ",
"                                                                                ",
"                                                                                ",
"                                                                                ",
"                                                                                ",
"                                  + +                                           "};
