/* XPM */
static char * penny_xpm[] = {
"38 20 445 2",
"  	c #714035",
". 	c #734136",
"+ 	c #000000",
"@ 	c #703E33",
"# 	c #724035",
"$ 	c #6D3E33",
"% 	c #080502",
"& 	c #100A04",
"* 	c #171006",
"= 	c #1A1207",
"- 	c #1E1609",
"; 	c #261C0C",
"> 	c #241A0C",
", 	c #120C04",
"' 	c #0A0602",
") 	c #1D1406",
"! 	c #261A08",
"~ 	c #261A07",
"{ 	c #201505",
"] 	c #140C03",
"^ 	c #090501",
"/ 	c #020100",
"( 	c #6E3E34",
"_ 	c #703F35",
": 	c #100D0F",
"< 	c #1A1010",
"[ 	c #2C2212",
"} 	c #42341D",
"| 	c #554326",
"1 	c #5D492A",
"2 	c #695330",
"3 	c #7E6339",
"4 	c #7A6037",
"5 	c #6A5330",
"6 	c #48381F",
"7 	c #2E2414",
"8 	c #342816",
"9 	c #684D26",
"0 	c #805F2E",
"a 	c #7F5D2B",
"b 	c #6E5023",
"c 	c #4F3817",
"d 	c #31230D",
"e 	c #110C04",
"f 	c #020201",
"g 	c #100C0A",
"h 	c #21190E",
"i 	c #513E22",
"j 	c #6D542F",
"k 	c #7E6239",
"l 	c #82663C",
"m 	c #7C6239",
"n 	c #715934",
"o 	c #6E5732",
"p 	c #81653A",
"q 	c #7D6238",
"r 	c #6C5431",
"s 	c #483820",
"t 	c #71552A",
"u 	c #916C34",
"v 	c #9B7236",
"w 	c #8F682F",
"x 	c #785624",
"y 	c #684A1D",
"z 	c #5C4118",
"A 	c #553B15",
"B 	c #432E0F",
"C 	c #2E1F09",
"D 	c #1D1305",
"E 	c #0F0902",
"F 	c #020101",
"G 	c #010000",
"H 	c #713F35",
"I 	c #070503",
"J 	c #281F11",
"K 	c #503E24",
"L 	c #886B3E",
"M 	c #B38C52",
"N 	c #C49A5B",
"O 	c #BE9558",
"P 	c #9D7C48",
"Q 	c #735A34",
"R 	c #44341C",
"S 	c #413119",
"T 	c #3A2C16",
"U 	c #302412",
"V 	c #1B1308",
"W 	c #59411D",
"X 	c #805E2C",
"Y 	c #A27637",
"Z 	c #A47735",
"` 	c #9D712E",
" .	c #9B6F2D",
"..	c #966B2B",
"+.	c #8E6529",
"@.	c #725120",
"#.	c #503816",
"$.	c #36260E",
"%.	c #201607",
"&.	c #060402",
"*.	c #693B31",
"=.	c #0F0803",
"-.	c #1F1508",
";.	c #644922",
">.	c #896634",
",.	c #A27D45",
"'.	c #B68D4F",
").	c #C59956",
"!.	c #CB9C56",
"~.	c #B78C4D",
"{.	c #775C34",
"].	c #503E22",
"^.	c #281D0D",
"/.	c #211809",
"(.	c #22180A",
"_.	c #241A0D",
":.	c #191107",
"<.	c #0C0803",
"[.	c #010100",
"}.	c #392810",
"|.	c #563E1B",
"1.	c #705124",
"2.	c #8A632A",
"3.	c #9F722E",
"4.	c #9E712E",
"5.	c #9C702D",
"6.	c #996D2C",
"7.	c #815C25",
"8.	c #694A1E",
"9.	c #62451B",
"0.	c #5B3F19",
"a.	c #523915",
"b.	c #31210A",
"c.	c #0B0602",
"d.	c #2C1E0A",
"e.	c #493315",
"f.	c #89652F",
"g.	c #AF8342",
"h.	c #C79852",
"i.	c #CD9D56",
"j.	c #CD9D54",
"k.	c #CC994E",
"l.	c #AC803F",
"m.	c #402E15",
"n.	c #201506",
"o.	c #3F2C10",
"p.	c #4D3715",
"q.	c #553D19",
"r.	c #4F3816",
"s.	c #493313",
"t.	c #3B280C",
"u.	c #36240B",
"v.	c #3B290E",
"w.	c #755320",
"x.	c #9D702D",
"y.	c #896127",
"z.	c #775422",
"A.	c #745221",
"B.	c #6D4D1F",
"C.	c #463112",
"D.	c #1C1306",
"E.	c #030201",
"F.	c #040201",
"G.	c #201507",
"H.	c #523916",
"I.	c #7E5924",
"J.	c #9D7131",
"K.	c #B4833C",
"L.	c #C29045",
"M.	c #C89549",
"N.	c #CB974A",
"O.	c #CA9648",
"P.	c #AB7E3B",
"Q.	c #3A2911",
"R.	c #1C1409",
"S.	c #463215",
"T.	c #7F5D29",
"U.	c #936B2E",
"V.	c #9C7130",
"W.	c #946A2C",
"X.	c #8D6529",
"Y.	c #876027",
"Z.	c #785522",
"`.	c #735221",
" +	c #9C6F2D",
".+	c #986C2C",
"++	c #865F26",
"@+	c #765422",
"#+	c #735121",
"$+	c #533B17",
"%+	c #32230D",
"&+	c #070401",
"*+	c #2A1D0A",
"=+	c #593F19",
"-+	c #855F26",
";+	c #9B6F2F",
">+	c #AA7B35",
",+	c #B2823A",
"'+	c #B6853C",
")+	c #B8873D",
"!+	c #9C7232",
"~+	c #181107",
"{+	c #3A2910",
"]+	c #6B4E21",
"^+	c #7C5925",
"/+	c #835E26",
"(+	c #7D5923",
"_+	c #775421",
":+	c #735120",
"<+	c #835D26",
"[+	c #91672A",
"}+	c #9A6E2D",
"|+	c #8A6228",
"1+	c #7F5A24",
"2+	c #291C09",
"3+	c #060301",
"4+	c #2F210C",
"5+	c #573D18",
"6+	c #7D5823",
"7+	c #9D702E",
"8+	c #876026",
"9+	c #2B1D08",
"0+	c #211504",
"a+	c #0C0601",
"b+	c #191004",
"c+	c #251B0A",
"d+	c #34250E",
"e+	c #553C18",
"f+	c #886027",
"g+	c #94692B",
"h+	c #93692A",
"i+	c #805B25",
"j+	c #755321",
"k+	c #704F20",
"l+	c #432E11",
"m+	c #090603",
"n+	c #180F04",
"o+	c #36250C",
"p+	c #67491D",
"q+	c #866027",
"r+	c #92682A",
"s+	c #90662A",
"t+	c #805A24",
"u+	c #71501F",
"v+	c #39270D",
"w+	c #070502",
"x+	c #38270D",
"y+	c #4A3414",
"z+	c #6A4B1E",
"A+	c #7B5723",
"B+	c #7D5924",
"C+	c #7A5623",
"D+	c #725121",
"E+	c #61441B",
"F+	c #533A17",
"G+	c #452F12",
"H+	c #271A07",
"I+	c #110A03",
"J+	c #221708",
"K+	c #3D2A0F",
"L+	c #66481C",
"M+	c #704F1F",
"N+	c #765420",
"O+	c #7B5722",
"P+	c #1C1305",
"Q+	c #402D11",
"R+	c #503917",
"S+	c #59401A",
"T+	c #6C4D1F",
"U+	c #735220",
"V+	c #6E4E1F",
"W+	c #68491D",
"X+	c #65471C",
"Y+	c #64461C",
"Z+	c #5E4219",
"`+	c #2F200B",
" @	c #110B04",
".@	c #0E0903",
"+@	c #090502",
"@@	c #050301",
"#@	c #0D0701",
"$@	c #150C02",
"%@	c #1C1103",
"&@	c #201404",
"*@	c #221605",
"=@	c #2B1E0A",
"-@	c #30210C",
";@	c #30220C",
">@	c #31220C",
",@	c #2F210D",
"'@	c #2C1F0C",
")@	c #382810",
"!@	c #3D2C12",
"~@	c #3E2C12",
"{@	c #412E13",
"]@	c #433013",
"^@	c #422F13",
"/@	c #422E13",
"(@	c #412E12",
"_@	c #2B1E0B",
":@	c #221706",
"<@	c #190F03",
"[@	c #110902",
"}@	c #080401",
"|@	c #160F05",
"1@	c #6C3E33",
"2@	c #0A0401",
"3@	c #37260C",
"4@	c #3B280E",
"5@	c #231808",
"6@	c #140D04",
"7@	c #040301",
"8@	c #100A03",
"9@	c #100B03",
"0@	c #1E1406",
"a@	c #1C1205",
"b@	c #231707",
"c@	c #181005",
"d@	c #231807",
"e@	c #473112",
"f@	c #171005",
"g@	c #713F34",
"h@	c #0E0802",
"i@	c #453012",
"j@	c #4D3615",
"k@	c #412D11",
"l@	c #3A280E",
"m@	c #37250C",
"n@	c #3B290C",
"o@	c #39270B",
"p@	c #34230A",
"q@	c #38260C",
"r@	c #3E2B10",
"s@	c #38270E",
"t@	c #31220D",
"u@	c #2D210F",
"v@	c #2D2110",
"w@	c #2D2211",
"x@	c #2D2210",
"y@	c #2C200E",
"z@	c #2C1E0B",
"A@	c #271B08",
"B@	c #221606",
"C@	c #211505",
"D@	c #241706",
"E@	c #2B1C07",
"F@	c #34220A",
"G@	c #3B2910",
"H@	c #483314",
"I@	c #553C17",
"J@	c #36250E",
"K@	c #2E1F0B",
"L@	c #6A4A1D",
"M@	c #6F4E1F",
"N@	c #785622",
"O@	c #745321",
"P@	c #6B4C1E",
"Q@	c #725222",
"R@	c #7E5C28",
"S@	c #725326",
"T@	c #654B24",
"U@	c #5F4927",
"V@	c #5E4929",
"W@	c #5E4A2B",
"X@	c #5E492A",
"Y@	c #5D4726",
"Z@	c #5C4320",
"`@	c #543D1B",
" #	c #4A3516",
".#	c #473214",
"+#	c #5A4019",
"@#	c #6B4B1E",
"##	c #6D4C1E",
"$#	c #67481D",
"%#	c #3D2B11",
"&#	c #2D1F0B",
"*#	c #1A1105",
"=#	c #6E3E33",
"-#	c #030200",
";#	c #191005",
">#	c #593E18",
",#	c #6D4E1F",
"'#	c #6B4C1F",
")#	c #725221",
"!#	c #7F5C27",
"~#	c #906930",
"{#	c #8A652F",
"]#	c #836130",
"^#	c #826438",
"/#	c #82663B",
"(#	c #816336",
"_#	c #7E5D2C",
":#	c #7A5A29",
"<#	c #745426",
"[#	c #674A1F",
"}#	c #62461C",
"|#	c #61451C",
"1#	c #5D4119",
"2#	c #553B16",
"3#	c #402C10",
"4#	c #2A1C09",
"5#	c #0D0803",
"6#	c #704035",
"7#	c #724136",
"8#	c #200E0A",
"9#	c #130D04",
"0#	c #3B2A10",
"a#	c #4A3515",
"b#	c #573E19",
"c#	c #6A4C1E",
"d#	c #7E5B27",
"e#	c #916A31",
"f#	c #926C32",
"g#	c #936E36",
"h#	c #967442",
"i#	c #977745",
"j#	c #977746",
"k#	c #967340",
"l#	c #936C34",
"m#	c #8E6830",
"n#	c #86622C",
"o#	c #775624",
"p#	c #5C411A",
"q#	c #37260F",
"r#	c #211607",
"s#	c #050402",
"t#	c #23100C",
"u#	c #120C03",
"v#	c #2A1C08",
"w#	c #32220A",
"x#	c #3E2B0E",
"y#	c #4A3413",
"z#	c #563E1A",
"A#	c #573F1B",
"B#	c #58401D",
"C#	c #5A4424",
"D#	c #5A4626",
"E#	c #5A4627",
"F#	c #594323",
"G#	c #463111",
"H#	c #3F2B0E",
"I#	c #35240B",
"J#	c #1E1305",
"K#	c #100902",
"L#	c #724036",
"  . . . . . . . . .   + + + + + + + + + + + + + + + + . . . . . . . . . . . ",
"  . . . . @ @ @ # $ % & * = - ; > - , % ' ) ! ~ { ] ^ / ( #     _ . . . . . ",
". . . . @ @ : < + % [ } | 1 2 3 4 5 6 7 8 9 0 a b c d e / + + + + + ( . . . ",
". . . @ @ f g h i j k l m n o p q r s 7 8 t u v w x y z A B C D E F G H . . ",
". . @ @ + I J K L M N O P Q R S T U V % ' W X Y Z `  ...+.@.#.$.%.&.F *.@ . ",
". @ + =.-.;.>.,.'.).!.~.{.].^./.(._.:.<.[.}.|.1.2.3.4.5.6.7.8.9.0.a.b.' [.. ",
"@ [.c.d.e.f.g.h.i.j.k.l.m.* n.o.p.q.r.s.B t.u.v.w.4.4.4.x.y.z.z.A.B.C.D.E.+ ",
"@ F.G.H.I.J.K.L.M.N.O.P.Q.R.S.T.U.V.W.X.Y.Z.B.`.y.4.4. +.+++z.z.@+#+$+%+^ + ",
"+ &+*+=+-+;+>+,+'+)+)+!+$.~+{+]+^+/+(+_+:+y 8.<+[+}+..[+|+1+z.z.z.A.#.2+3++ ",
"+ &+4+5+6++.6. .7+7+7+8+o.9+0+a+G [.a+b+c+d+e+f+g+h+y.i+Z.z.z.j+A.k+l+m+[.+ ",
"+ / n+o+H.p+Z.q++.r+..s+t+6+u+v+w+a+x+y+e+z+A+++++7.B+C+z.z.D+E+F+G+H+E.+ + ",
"+ + + I+J+K+H.L+M+N+O+6+I.I.:+o.D.P+Q+R+S+T+z.U+V+8.8.W+X+Y+Z+C.`+ @.@+@G + ",
"+ + + / @@#@$@%@&@*@H+=@-@;@>@%+,@'@)@!@~@{@]@^@/@(@(@{+_@:@<@[@}@F.|@|@/ 1@",
"+ 2@3@4@5@6@E.[.+ + 7@' 8@9@6@0@0@a@b@! ! ! ! ! ! ! ! %., , c@d@x+e@4+f@/ g@",
"+ h@i@j@k@l@m@n@o@p@p@q@r@s@t@u@v@w@x@y@z@*+A@B@{ C@D@E@F@v+G@}.H@I@J@6@/ . ",
"g@}@K@y+Y+L@M@N@O@P@P@Q@R@S@T@U@V@W@X@Y@Z@W `@ #.#H@p.+#@###$#r.%#&#*#@@=#. ",
". -#;#m@a.>#E+T+,#'#)#!#~#{#]#^#/#l /#(#_#:#<#[#}#}#}#|#E+1#2#3#4#5#@@+ 6#7#",
"6#  8#+ + 9#c+0#a#b#c#d#e#f#g#h#i#j#i#k#l#m#n#o#D+@.T+p#q#r#s#[.+ + t#_ 7#6#",
"6#. @ + + &+u#n.v#w#x#y#z#A#B#C#D#E#D#F#A#q.R+G#B B H#I#J#K#F + @ # # 7#  7#",
"L#  7#. _ + + + + t#+ + + + + + + + + + + + + + + + + t#+ + + g@. . . L#L#L#"};
