/* XPM */
static char * penny2_xpm[] = {
"19 10 159 2",
"  	c #724136",
". 	c #734136",
"+ 	c #724035",
"@ 	c #714035",
"# 	c #6C3D32",
"$ 	c #100604",
"% 	c #060301",
"& 	c #0A0602",
"* 	c #070401",
"= 	c #010100",
"- 	c #050301",
"; 	c #090501",
"> 	c #010101",
", 	c #080302",
"' 	c #62352C",
") 	c #040302",
"! 	c #150F05",
"~ 	c #2D2211",
"{ 	c #685330",
"] 	c #765D35",
"^ 	c #6B5430",
"/ 	c #0E0904",
"( 	c #674B22",
"_ 	c #956F36",
": 	c #825F2E",
"< 	c #4B3513",
"[ 	c #36240A",
"} 	c #100A02",
"| 	c #562F27",
"1 	c #512B23",
"2 	c #120A03",
"3 	c #0C0702",
"4 	c #AC864C",
"5 	c #C09556",
"6 	c #5D4A2A",
"7 	c #110C04",
"8 	c #110D04",
"9 	c #4B381E",
"0 	c #9F7535",
"a 	c #9B6F2D",
"b 	c #876027",
"c 	c #513916",
"d 	c #1D1204",
"e 	c #020101",
"f 	c #321914",
"g 	c #502B23",
"h 	c #0A0601",
"i 	c #2F2009",
"j 	c #A87E3E",
"k 	c #CB994F",
"l 	c #AB8040",
"m 	c #82612E",
"n 	c #161005",
"o 	c #9F7639",
"p 	c #AF823F",
"q 	c #6C4E1F",
"r 	c #8A642B",
"s 	c #93692A",
"t 	c #9D702E",
"u 	c #916729",
"v 	c #775422",
"w 	c #725121",
"x 	c #2A1D09",
"y 	c #000000",
"z 	c #020100",
"A 	c #130B02",
"B 	c #8B6328",
"C 	c #A47732",
"D 	c #AB7C36",
"E 	c #9B7131",
"F 	c #89642C",
"G 	c #1A1206",
"H 	c #765623",
"I 	c #7F5B24",
"J 	c #64481C",
"K 	c #694D21",
"L 	c #956B2C",
"M 	c #8C6428",
"N 	c #7E5924",
"O 	c #765422",
"P 	c #735121",
"Q 	c #34230C",
"R 	c #010000",
"S 	c #140B03",
"T 	c #4B3414",
"U 	c #6F4F1F",
"V 	c #825D25",
"W 	c #795622",
"X 	c #66471D",
"Y 	c #4A3312",
"Z 	c #1C1206",
"` 	c #160E04",
" .	c #191004",
"..	c #302411",
"+.	c #7F5B26",
"@.	c #6E4D1F",
"#.	c #5F431A",
"$.	c #36260D",
"%.	c #080401",
"&.	c #110902",
"*.	c #150D04",
"=.	c #1E1506",
"-.	c #4F3815",
";.	c #533917",
">.	c #473113",
",.	c #35250E",
"'.	c #120B03",
").	c #432F11",
"!.	c #795A2D",
"~.	c #75582C",
"{.	c #4E3714",
"].	c #1E1606",
"^.	c #181104",
"/.	c #150F04",
"(.	c #0D0902",
"_.	c #502C23",
":.	c #26120D",
"<.	c #513815",
"[.	c #5D4218",
"}.	c #241908",
"|.	c #1B1206",
"1.	c #1E1507",
"2.	c #1F1507",
"3.	c #1C1407",
"4.	c #191005",
"5.	c #170F05",
"6.	c #1B1205",
"7.	c #160F05",
"8.	c #573C17",
"9.	c #4A3414",
"0.	c #35250C",
"a.	c #63382E",
"b.	c #0D0502",
"c.	c #483213",
"d.	c #5E441B",
"e.	c #725221",
"f.	c #8F6930",
"g.	c #8C6A38",
"h.	c #8D6F41",
"i.	c #87693B",
"j.	c #85622E",
"k.	c #765625",
"l.	c #65481C",
"m.	c #63461C",
"n.	c #493313",
"o.	c #0D0701",
"p.	c #080402",
"q.	c #110504",
"r.	c #714136",
"s.	c #724036",
"t.	c #63372D",
"u.	c #1A0B08",
"v.	c #030101",
"w.	c #0A0402",
"x.	c #060401",
"y.	c #110A02",
"z.	c #0B0501",
"A.	c #050200",
"B.	c #0E0403",
"  . + @ # $ % & * = - ; > , + +   . . ",
". + ' ) ! ~ { ] ^ / ( _ : < [ } = | . ",
"+ 1 2 3 4 5 ] 6 7 8 / 9 0 a b c d e f ",
"g h i j k l m n o p q r s t u v w x y ",
"z A B C D E F G H I J K L M N O P Q R ",
"R S T U V W X Y Z `  ...+.w @.#.$.%.R ",
"y &.*.=.-.;.;.>.,.'.).!.~.{.].^./.(._.",
":.= <.[.}.|.1.2.3.4.5.6.Z 7.8.9.0.z a.",
"a.b.%.c.d.e.f.g.h.i.j.k.l.m.n.o.p.q.r.",
"s.t.u.v.w.> %.- x.x.y.z.A.- = B.+ s.s."};
