/* XPM */
static char * rock1_4_xpm[] = {
"40 40 253 2",
"  	c #734136",
". 	c #643A31",
"+ 	c #6E3E34",
"@ 	c #6C3D33",
"# 	c #2F2524",
"$ 	c #2B2323",
"% 	c #683C32",
"& 	c #6F3F35",
"* 	c #6B3D34",
"= 	c #643A32",
"- 	c #5D362F",
"; 	c #54322C",
"> 	c #402B25",
", 	c #362C2B",
"' 	c #352B2B",
") 	c #332A2A",
"! 	c #2B2526",
"~ 	c #2C2525",
"{ 	c #2D2525",
"] 	c #312524",
"^ 	c #2B2223",
"/ 	c #322525",
"( 	c #302424",
"_ 	c #2C2323",
": 	c #362725",
"< 	c #2F2324",
"[ 	c #2A2223",
"} 	c #252122",
"| 	c #242022",
"1 	c #2E2324",
"2 	c #262122",
"3 	c #4D302A",
"4 	c #372825",
"5 	c #342826",
"6 	c #392D2C",
"7 	c #594645",
"8 	c #594646",
"9 	c #4B3B3B",
"0 	c #523F3E",
"a 	c #503E3C",
"b 	c #4D3937",
"c 	c #483635",
"d 	c #4A3836",
"e 	c #453533",
"f 	c #443432",
"g 	c #3B2E2D",
"h 	c #382C2C",
"i 	c #302728",
"j 	c #332929",
"k 	c #2F2627",
"l 	c #2C2527",
"m 	c #403130",
"n 	c #2B2324",
"o 	c #3B2727",
"p 	c #382924",
"q 	c #302828",
"r 	c #372D2D",
"s 	c #5A4747",
"t 	c #5C4848",
"u 	c #4F3E3E",
"v 	c #483837",
"w 	c #352827",
"x 	c #5E362F",
"y 	c #4A2F27",
"z 	c #4C3B3B",
"A 	c #4C3C3C",
"B 	c #2F2525",
"C 	c #342827",
"D 	c #312827",
"E 	c #483939",
"F 	c #392E2E",
"G 	c #5A4847",
"H 	c #5C4948",
"I 	c #513F3F",
"J 	c #3D3131",
"K 	c #272223",
"L 	c #4D3D3D",
"M 	c #3B3030",
"N 	c #5D4A49",
"O 	c #5F4B4A",
"P 	c #51403F",
"Q 	c #4E3D3D",
"R 	c #514040",
"S 	c #503F3F",
"T 	c #392C2C",
"U 	c #56332D",
"V 	c #473939",
"W 	c #362C2C",
"X 	c #413534",
"Y 	c #644F4E",
"Z 	c #534141",
"` 	c #342B2B",
" .	c #493838",
"..	c #472D28",
"+.	c #382E2E",
"@.	c #463838",
"#.	c #443737",
"$.	c #403333",
"%.	c #413434",
"&.	c #564444",
"*.	c #574544",
"=.	c #564343",
"-.	c #3D3030",
";.	c #4F3228",
">.	c #382D2D",
",.	c #3B2F2F",
"'.	c #4A3A3A",
").	c #3C3030",
"!.	c #604C4B",
"~.	c #48312C",
"{.	c #453737",
"].	c #4A3B3B",
"^.	c #352C2C",
"/.	c #322929",
"(.	c #473838",
"_.	c #312929",
":.	c #442F2A",
"<.	c #372925",
"[.	c #423535",
"}.	c #2E2727",
"|.	c #554443",
"1.	c #554343",
"2.	c #544241",
"3.	c #443636",
"4.	c #584545",
"5.	c #544342",
"6.	c #493939",
"7.	c #554342",
"8.	c #412E29",
"9.	c #382825",
"0.	c #282324",
"a.	c #252123",
"b.	c #2F2727",
"c.	c #604B4A",
"d.	c #624E4D",
"e.	c #5D4949",
"f.	c #3A2A27",
"g.	c #372924",
"h.	c #292324",
"i.	c #2C2526",
"j.	c #3A2F2F",
"k.	c #362D2D",
"l.	c #584645",
"m.	c #614D4C",
"n.	c #524040",
"o.	c #4E3E3E",
"p.	c #3C3131",
"q.	c #433635",
"r.	c #412D29",
"s.	c #5B352C",
"t.	c #2D2626",
"u.	c #262224",
"v.	c #272224",
"w.	c #2D2727",
"x.	c #524140",
"y.	c #3E3332",
"z.	c #463837",
"A.	c #544343",
"B.	c #423434",
"C.	c #46302C",
"D.	c #232022",
"E.	c #242123",
"F.	c #544242",
"G.	c #42302E",
"H.	c #2A2425",
"I.	c #2D2627",
"J.	c #3F3332",
"K.	c #5A4746",
"L.	c #342B2C",
"M.	c #352624",
"N.	c #2C2626",
"O.	c #312828",
"P.	c #372C2C",
"Q.	c #5E4A49",
"R.	c #5B4847",
"S.	c #4D2F2B",
"T.	c #4D3C3C",
"U.	c #574444",
"V.	c #292424",
"W.	c #322A2A",
"X.	c #3F3333",
"Y.	c #524141",
"Z.	c #463737",
"`.	c #4B3C3B",
" +	c #2E2626",
".+	c #2D2424",
"++	c #2F2828",
"@+	c #2F2728",
"#+	c #392923",
"$+	c #402A25",
"%+	c #322827",
"&+	c #262223",
"*+	c #292425",
"=+	c #372725",
"-+	c #392F2F",
";+	c #403434",
">+	c #362928",
",+	c #402B24",
"'+	c #493A3A",
")+	c #4B3A3A",
"!+	c #332827",
"~+	c #433535",
"{+	c #483838",
"]+	c #50403F",
"^+	c #554242",
"/+	c #634E4D",
"(+	c #463736",
"_+	c #352625",
":+	c #262123",
"<+	c #4A3A3B",
"[+	c #342726",
"}+	c #272324",
"|+	c #3E3131",
"1+	c #2E2627",
"2+	c #3D3232",
"3+	c #503E3E",
"4+	c #3B2A28",
"5+	c #3E3232",
"6+	c #524241",
"7+	c #564443",
"8+	c #584544",
"9+	c #3F3232",
"0+	c #2A2323",
"a+	c #382724",
"b+	c #472D29",
"c+	c #302523",
"d+	c #382B29",
"e+	c #5E372F",
"f+	c #342A2A",
"g+	c #3A2E2E",
"h+	c #2E2525",
"i+	c #432B28",
"j+	c #55332D",
"k+	c #4E2F2B",
"l+	c #382725",
"m+	c #2F2423",
"n+	c #2D2323",
"o+	c #282222",
"p+	c #3C2F2F",
"q+	c #312728",
"r+	c #34292A",
"s+	c #362A29",
"t+	c #362724",
"u+	c #2A2324",
"v+	c #3E2A25",
"w+	c #50302B",
"x+	c #442C28",
"y+	c #452C28",
"z+	c #53322C",
"A+	c #5B362F",
"B+	c #6B3D33",
"C+	c #613830",
"D+	c #5D372F",
"                                  .                                             ",
"                        + + + + @ # $ % &   & % % % % * & & = - ;               ",
"                    > , ' ) ) ) ! ~ { ] ^ / ( _ : < [ } | | [ 1 2 3 %           ",
"                4 5 6 7 8 9 9 9 9 0 a b c d e f g h i j k l h m m n o           ",
"              p q q r s t u u u u u u u u u u u u u u u u u u u u v w x         ",
"          y 5 q q q ' z u u u u u u u u u u u u u u u u u u u u u u A B %       ",
"          C D ) E F ' z u u u u u G H I u u u u u u u u u u u u u u u J K &     ",
"          q ) r L M ' z u u u u u N O P u L Q R S u u u u L Q R u u u u T U     ",
"          q V L q q ' z u u u u u u u u A W X Y Z u u u 9 ` E Y S u u u  ...    ",
"          q +.J V F ' z u u u u u u u u Q E @.#.J $.u %.%.&.*.=.u u u u Q -.;.  ",
"          q ) >.A ,.' Q R u u u u u u u u u '.' ' M A F ).!.N u u u u u u E ~.  ",
"        y q {.].^./.+.H N u u u u u u u u u Q A A (.^._.).!.N u u u u u u A :.  ",
"      + <.q [.(.q }.` |.8 1.1.2.u u u u u u u u '.3.q r $.4.5.6.7.Z u u u A 8.& ",
"      9.q q q q q 0.a.b.%.Y Y c.u u u u u u u u r q q 6.9 ` q q d.e.u u u {.f.  ",
"        g.q h.a.a.i.b.q ) ).).j.k.l.m.m.O n.'.k._.r 9 Q o.z 9 9 p.q.u u u u r.  ",
"        s.t.u.| v.w.q q q q q q q x.G G 7 A 3.q y.z.A.S u u u u j.B.u u S R C.  ",
"          D.D.E.q q q q q q q q q q q q q q q q N Y Y 1.u u u u u u u u F.H G.  ",
"          D.H.I.q q q q q q q q q q q q q q q q J.X X 8 O O K.u u u u t s L.M.  ",
"          D.N.O.P./.q q q q q q q q q q q q q q q q q 1.Q.Q.s Z u S Z R.*.H.S.  ",
"          D.N.` T.,.q q q q q q q q q q q q q q q q q ^.r r ].d.S U.d.{.' H.%   ",
"          V.}.) {.%.J W.q q q q q q q q q q q q q q q q q q X.Y.Z.`.5.). +.+    ",
"          q q q q (.A W q q q q q q q q q q q q q q q q q q i.D.++q q @+{ y     ",
"          q q q q [.@.` q q q q q q q q q q q q q q q q q q i.D.++q q q 5 +     ",
"        #+q q q q q q q q q q q q q q q q q q q q q q q q q i.D.++q q q 9.      ",
"      $+%+q q q q q q q q q q q q q q q q q q q q q q q }.&+*+}.q q q q =+      ",
"      4 q q q _.F ) _.>.r q q q q q q q q q q q q q q }.q -+p.%.%.%.;+M >+      ",
"    ,+%+q q q ` u ).' z '+q q q q q q q q q q q q q q v.L.!.Y Y Y Y Y 7.)+..%   ",
"    !+O.q q ~+'.u 9 {+).J '+^.q q q q q q q q q q }.v.]+8 1.^+^+/+O ^+S Q (+_+  ",
"    %+q q q V u u u T.,.).9 ^.q q q q q q q q q }.t.:+&.O R u u !.R.u u u <+[+& ",
"    #+%+q q V u u u u L E ` O.q q q q q q q q q &+}+@+].I u u u R S u u u <+[+& ",
"      5 q q V u u u u u 9 |+W.q q q q q q q b.! *+H.q S U.S u u u n.4.R u <+[+& ",
"      9.q q V u u u u u u u k.q q q q q q q I.D.1+q q s m.R u u u *.Y 7.u E [+  ",
"    y %+F Q ).^.u u u u '+_.q q q q q q b.:+v.++q q q W.2+!.H u u 3+S u u <+4+  ",
"    <.D W {.$.5+{.A Q (.3.J W.q q q ++! H.h.H.q q q q q >.6+7+8+3+u u u u A :.  ",
"    q q q q V T.q (.A W F u k.q q q &+| D.&+0.q q q q q q q E Y S u u u u E ~.  ",
"    q q r '+5+M '+9+,.(.Z.F /.q 1+0+a+  % b+_+c+%+q q q q q r %.O *.u A $.d+e+  ",
"    %+O.r (.F f+'+g+f+(.3.q q O.h+i+        j+k+l+_ m+m+n+o+} o+>.p+q+r+s+      ",
"    t+{ i.! a.}+! 1+1+@+*+}+}+u+v+              % w+j+j+S.x+y+z+A+U e+B+        ",
"      & & % % . . % % % C+D+. &                         &                       ",
"                          &                                                     "};
