/* XPM */
static char * rock1_3_xpm[] = {
"40 40 253 2",
"  	c #734136",
". 	c #362724",
"+ 	c #322827",
"@ 	c #302828",
"# 	c #372925",
"$ 	c #4A2F27",
"% 	c #392923",
"& 	c #332827",
"* 	c #402B24",
"= 	c #6F3F35",
"- 	c #2D2525",
"; 	c #312828",
"> 	c #312827",
", 	c #382825",
"' 	c #342826",
") 	c #372825",
"! 	c #402A25",
"~ 	c #6E3E34",
"{ 	c #2C2526",
"] 	c #372D2D",
"^ 	c #362C2C",
"/ 	c #392E2E",
"( 	c #5B352C",
"_ 	c #372924",
": 	c #683C32",
"< 	c #2B2526",
"[ 	c #473838",
"} 	c #493A3A",
"| 	c #453737",
"1 	c #4E3D3D",
"2 	c #292424",
"3 	c #232022",
"4 	c #2D2626",
"5 	c #342827",
"6 	c #252123",
"7 	c #3E3232",
"8 	c #473939",
"9 	c #403333",
"0 	c #3C3030",
"a 	c #433535",
"b 	c #2E2727",
"c 	c #2C2626",
"d 	c #2A2425",
"e 	c #262224",
"f 	c #292324",
"g 	c #423535",
"h 	c #332A2A",
"i 	c #382E2E",
"j 	c #643A31",
"k 	c #272324",
"l 	c #342A2A",
"m 	c #3B3030",
"n 	c #4D3C3C",
"o 	c #352C2C",
"p 	c #4F3E3E",
"q 	c #4A3A3A",
"r 	c #342B2B",
"s 	c #312929",
"t 	c #2D2627",
"u 	c #242123",
"v 	c #242022",
"w 	c #4A3B3B",
"x 	c #382D2D",
"y 	c #3D3131",
"z 	c #4D3D3D",
"A 	c #382924",
"B 	c #372C2C",
"C 	c #272224",
"D 	c #4C3C3C",
"E 	c #483939",
"F 	c #2E2627",
"G 	c #3A2E2E",
"H 	c #3F3232",
"I 	c #4B3B3B",
"J 	c #413434",
"K 	c #3B2F2F",
"L 	c #322929",
"M 	c #2D2727",
"N 	c #282324",
"O 	c #483838",
"P 	c #352B2B",
"Q 	c #463838",
"R 	c #2F2727",
"S 	c #392D2C",
"T 	c #402B25",
"U 	c #2F2728",
"V 	c #4C3B3B",
"W 	c #322A2A",
"X 	c #554443",
"Y 	c #5C4948",
"Z 	c #5A4747",
"` 	c #594645",
" .	c #362C2B",
"..	c #613830",
"+.	c #292425",
"@.	c #443636",
"#.	c #463737",
"$.	c #594646",
"%.	c #5D4A49",
"&.	c #514040",
"*.	c #5C4848",
"=.	c #5D372F",
"-.	c #3E3131",
";.	c #644F4E",
">.	c #554343",
",.	c #362D2D",
"'.	c #2A2324",
").	c #3A2F2F",
"!.	c #604B4A",
"~.	c #544241",
"{.	c #3E2A25",
"].	c #2E2525",
"^.	c #6C3D33",
"/.	c #432B28",
"(.	c #2A2323",
"_.	c #524140",
":.	c #584645",
"<.	c #5A4847",
"[.	c #523F3E",
"}.	c #2C2525",
"|.	c #2F2524",
"1.	c #382724",
"2.	c #262223",
"3.	c #2F2828",
"4.	c #614D4C",
"5.	c #5F4B4A",
"6.	c #503E3C",
"7.	c #2B2323",
"8.	c #51403F",
"9.	c #513F3F",
"0.	c #4D3937",
"a.	c #312524",
"b.	c #483635",
"c.	c #2B2223",
"d.	c #472D29",
"e.	c #262123",
"f.	c #524040",
"g.	c #4A3836",
"h.	c #322525",
"i.	c #55332D",
"j.	c #352625",
"k.	c #413534",
"l.	c #453533",
"m.	c #302424",
"n.	c #4E2F2B",
"o.	c #302523",
"p.	c #443737",
"q.	c #443432",
"r.	c #2C2323",
"s.	c #382725",
"t.	c #3F3332",
"u.	c #3E3332",
"v.	c #534141",
"w.	c #503F3F",
"x.	c #3B2E2D",
"y.	c #362725",
"z.	c #50302B",
"A.	c #463837",
"B.	c #382C2C",
"C.	c #2F2324",
"D.	c #2F2423",
"E.	c #544343",
"F.	c #302728",
"G.	c #2A2223",
"H.	c #564444",
"I.	c #50403F",
"J.	c #493939",
"K.	c #332929",
"L.	c #252122",
"M.	c #6B3D34",
"N.	c #4D2F2B",
"O.	c #2D2323",
"P.	c #3D3232",
"Q.	c #574444",
"R.	c #342B2C",
"S.	c #5E4A49",
"T.	c #4E3E3E",
"U.	c #2F2627",
"V.	c #442C28",
"W.	c #282222",
"X.	c #524241",
"Y.	c #604C4B",
"Z.	c #392F2F",
"`.	c #584545",
" +	c #2C2527",
".+	c #452C28",
"++	c #564443",
"@+	c #554242",
"#+	c #3C3131",
"$+	c #3F3333",
"%+	c #5A4746",
"&+	c #544342",
"*+	c #574544",
"=+	c #643A32",
"-+	c #53322C",
";+	c #584544",
">+	c #524141",
",+	c #624E4D",
"'+	c #564343",
")+	c #403130",
"!+	c #2E2324",
"~+	c #5D362F",
"{+	c #5B362F",
"]+	c #503E3E",
"^+	c #634E4D",
"/+	c #554342",
"(+	c #262122",
"_+	c #54322C",
":+	c #56332D",
"<+	c #3C2F2F",
"[+	c #5B4847",
"}+	c #4B3C3B",
"|+	c #423434",
"1+	c #433635",
"2+	c #5D4949",
"3+	c #483837",
"4+	c #2B2324",
"5+	c #4D302A",
"6+	c #5E372F",
"7+	c #312728",
"8+	c #403434",
"9+	c #352827",
"0+	c #3B2727",
"a+	c #6B3D33",
"b+	c #34292A",
"c+	c #2F2525",
"d+	c #5E362F",
"e+	c #362A29",
"f+	c #4B3A3A",
"g+	c #362928",
"h+	c #372725",
"i+	c #2E2626",
"j+	c #544242",
"k+	c #493838",
"l+	c #392C2C",
"m+	c #272223",
"n+	c #382B29",
"o+	c #4A3A3B",
"p+	c #463736",
"q+	c #472D28",
"r+	c #2D2424",
"s+	c #3D3030",
"t+	c #48312C",
"u+	c #442F2A",
"v+	c #3B2A28",
"w+	c #342726",
"x+	c #352624",
"y+	c #42302E",
"z+	c #46302C",
"A+	c #412D29",
"B+	c #3A2A27",
"C+	c #412E29",
"D+	c #4F3228",
"                                                                                ",
"                                                                                ",
"    . + @ @ # $     % + & *                                                     ",
"  = - ; @ @ > + , ' + @ ; + ) !                     , ~                         ",
"  = { ] ] @ ^ / @ @ @ @ @ @ @ + %               ( _ @ # $                       ",
"  : < [ } @ | 1 @ @ @ @ @ @ @ @ @ @ @ 2 3 3 3 3 4 @ @ @ @ @ @ @ @ 5 $           ",
"  : 6 / 7 8 9 0 8 8 8 8 a @ @ @ @ @ @ b c c d 3 e f @ g | h i 8 h > '           ",
"  j k l m n 7 o p p p p q r s @ @ @ @ h r ; t u v 6 @ [ w x y z ] h @ A         ",
"  j < } } @ | p p p p p p p / @ @ @ @ | n B @ @ C 6 @ @ o D 8 @ z E @ @ )       ",
"  : F G H [ D p p p p p I 0 h @ @ g [ J K L @ @ M { N b L K / @ m / @ @ '       ",
"  : F l K D 1 p p p p n O P s @ @ Q D y @ @ @ @ @ R 6 r i P P P P P P ] S T     ",
"  : U [ [ ^ [ p p p z K 0 V x @ @ r ^ W @ @ @ @ @ @ R X Y 1 V V V V V Z `  .    ",
"  ..+.@.#./ @.} p I E 0 y } ] @ @ @ @ @ @ @ @ @ @ h J $.%.&.p p p p p *.$.P ~   ",
"= =.k @ / p y s p -.r I } @ @ @ @ @ @ @ @ @ @ @ @ 0 ;.>.p p p p p p p p I h ~   ",
"  j k @ L ,.W @ ,.W ; o o @ @ @ @ @ @ @ @ @ @ @ @ 0 ;.>.p p p p p p p p I h ~   ",
"  = '.; @ @ @ @ @ @ @ @ @ @ @ @ @ @ @ @ @ @ @ @ @ ).!.~.p p p p p p p p I h ~   ",
"    {.].F @ @ @ @ @ @ @ @ @ @ @ @ @ @ @ @ @ @ @ @ ,.p p p p p p p p p p I < ^.  ",
"      /.(.@ @ @ @ @ @ @ @ @ @ @ @ @ @ @ @ @ @ @ _.:.p p p p p p %.<.p p [.}.|.j ",
"        1.2.3.@ @ @ @ @ @ @ @ @ @ @ @ @ @ @ @ @ <.4.p p p p p p 5.Y p p 6.- 7.  ",
"          v < @ @ @ @ @ @ @ @ @ @ @ @ @ @ @ @ @ <.4.p p p p p p 8.9.p p 0.a.:   ",
"        : 3 d R @ @ @ @ @ @ @ @ @ @ @ @ @ @ @ @ ` 5.p p p p 1 D p p p p b.c.=   ",
"        d.2.f e.@ @ @ @ @ @ @ @ @ @ @ @ @ @ @ @ D f.p p p p E ^ z p p p g.h.    ",
"      i.j.N d C t R @ @ @ @ @ @ @ @ @ @ @ @ @ @ @.q p p 1 q Q k.1 p p p l.m.=   ",
"      n.o.@ @ 3.3 < @ @ @ @ @ @ @ @ @ @ @ @ @ @ @ ,.p p D P p.;.&.p p p q.r.:   ",
"    : s.+ @ @ @ F +.2.b @ @ @ @ @ @ @ @ @ @ t.%.u.s ] q D P y v.w.p p p x.y.:   ",
"    z.r.@ @ @ @ @ d k 4 b @ @ @ @ @ @ @ @ @ k.;.A.] @ @.[ m 9 p p p p p B.C.:   ",
"    i.D.@ @ @ @ @ @ U e.C @ @ @ @ @ @ @ @ @ k.;.E.I @ @ o D p p p p p p F.G.:   ",
"    i.D.@ @ @ W Z w.w H.I.C b @ @ @ @ @ o >.$.>.w.1 J.] s / J p p p p p K.L.M.  ",
"  = N.O.@ @ x P.4.Q.9.5.$.R.@ b @ @ @ @ ] S.5.p p T.I 9 0 0 J I p p p p U.v =   ",
"    V.W.@ @ X.Y.&.w.p &.>.Y.Z.2.@ @ @ @ ] S.5.p p V r `.Y.Y.H.r z p p p  +v =   ",
"    .+L.] E ++Y p p p p @+;.#++.{ { { $+w Z %+p p I @ &+%.%.*+E 1 p p p B.G.=+  ",
"    -+W.J ;.;+p p p p p @+;.J b 3 3 3 >+,+v.p p p I @ J.p p '+;.&.p p p )+!+~+  ",
"    {+x 5.w.]+p p p &.Y.^+;.J @ 3.3.3.#.w.p p p ).#+,+/+p p p w.p p p p )+(+_+  ",
"    :+<+*+p p ]+*+f.w.[+5.;.J @ @ @ @ }+Q.w.p p |+1+2+v.p p p p p p p 3+4+5+    ",
"    6+7+p p p w.;.`.p p @+;.8+@ @ @ @ &+,+v.p p p p p p p p p p p p D 9+0+:     ",
"    a+b+D p p p /+&.p p w./+m @ @ @ U 0 | [+*.p p p p p p p p p p y c+d+        ",
"      e+9 p p p p p p p 1 f+g+h+, ' - i+P *+Z j+w.p p p p p 1 k+l+m+:           ",
"        n+E D o+E o+o+o+p+q+      ~ $ r+d d R.Y &.p | D D E s+q+:+=             ",
"        6+t+u+v+w+w+w+w+j.:             : N.x+y+z+A+B+C+u+t+D+                  ",
"                  = = =                               =                         "};
