/* XPM */
static char * rock1_xpm[] = {
"90 99 9 1",
" 	c None",
".	c #5C2B0C",
"+	c #502911",
"@	c #3B2922",
"#	c #4F3E3E",
"$	c #644F4E",
"%	c #302828",
"&	c #232022",
"*	c #684A42",
"                                                                                          ",
"                                                                                          ",
"                                                                                          ",
"                                                                                          ",
"                                                                                          ",
"                                                                                          ",
"                                                                                          ",
"                                                                                          ",
"                                                                                          ",
"                                                                                          ",
"                                                                                          ",
"                                                                                          ",
"                                                                                          ",
"                        ...+++++++++++++++++++++....      ...+++++++++++++++...           ",
"                        ...+++++++++++++++++++++....      ...+++++++++++++++...           ",
"                        ...+++++++++++++++++++++....      ...+++++++++++++++...           ",
"                  ...+++@@@############$$$%%%%%%@@@@++++++@@@###############@@@...        ",
"                  ...+++@@@############$$$%%%%%%@@@@++++++@@@###############@@@...        ",
"                  ...+++@@@############$$$%%%%%%@@@@++++++@@@###############@@@...        ",
"               ...@@@#####################$$$%%%%%%%%%%%%%#####################+++        ",
"               ...@@@#####################$$$%%%%%%%%%%%%%#####################+++        ",
"               ...@@@#####################$$$%%%%%%%%%%%%%#####################+++        ",
"            ...@@@###########################$$$%%%%%%%%%%$$$######$$$#########+++        ",
"            ...@@@###########################$$$%%%%%%%%%%$$$######$$$#########+++        ",
"            ...@@@###########################$$$%%%%%%%%%%$$$######$$$#########+++        ",
"            +++##################$$$%%%#########%%%%%%%%%%$$$$$$############$$$+++        ",
"            +++##################$$$%%%#########%%%%%%%%%%$$$$$$############$$$+++        ",
"            +++##################$$$%%%#########%%%%%%%%%%$$$$$$############$$$+++        ",
"            +++#########$$$######%%%#########$$$&&&&&&&%%%$$$############$$$%%%+++        ",
"            +++#########$$$######%%%#########$$$&&&&&&&%%%$$$############$$$%%%+++        ",
"            +++#########$$$######%%%#########$$$&&&&&&&%%%$$$############$$$%%%+++        ",
"            +++#########%%%$$$$$$%%%######$$$%%%%%%%%%%&&&$$$#########$$$%%%%%%+++        ",
"            +++#########%%%$$$$$$%%%######$$$%%%%%%%%%%&&&$$$#########$$$%%%%%%+++        ",
"            +++#########%%%$$$$$$%%%######$$$%%%%%%%%%%&&&$$$#########$$$%%%%%%+++        ",
"            +++############%%%%%%#########$$$%%%%%%%%%%%%%&&&$$$###$$$%%%%%%%%%+++        ",
"            +++############%%%%%%#########$$$%%%%%%%%%%%%%&&&$$$###$$$%%%%%%%%%+++        ",
"            +++############%%%%%%#########$$$%%%%%%%%%%%%%&&&$$$###$$$%%%%%%%%%+++        ",
"            +++###############%%%%%%###$$$%%%%%%%%%%%%%%%%%%%&&&%%%%%%%%%%%%%%%+++        ",
"            +++###############%%%%%%###$$$%%%%%%%%%%%%%%%%%%%&&&%%%%%%%%%%%%%%%+++        ",
"            +++###############%%%%%%###$$$%%%%%%%%%%%%%%%%%%%&&&%%%%%%%%%%%%%%%+++        ",
"            +++############%%%###%%%%%%$$$%%%%%%%%%%%%%%%%%%%%%%&&&%%%%%%%%%%%%+++        ",
"            +++############%%%###%%%%%%$$$%%%%%%%%%%%%%%%%%%%%%%&&&%%%%%%%%%%%%+++        ",
"            +++############%%%###%%%%%%$$$%%%%%%%%%%%%%%%%%%%%%%&&&%%%%%%%%%%%%+++        ",
"            +++#########$$$%%%######%%%%%%%%%%%%%%%%%%%%%%%%%%%%%%%&&&%%%%%%@@@...        ",
"            +++#########$$$%%%######%%%%%%%%%%%%%%%%%%%%%%%%%%%%%%%&&&%%%%%%@@@...        ",
"            +++#########$$$%%%######%%%%%%%%%%%%%%%%%%%%%%%%%%%%%%%&&&%%%%%%@@@...        ",
"            +++#########%%%############%%%%%%%%%%%%%%%%%%%%%%%%%%%%%%%&&&%%%+++           ",
"            +++#########%%%############%%%%%%%%%%%%%%%%%%%%%%%%%%%%%%%&&&%%%+++           ",
"            +++#########%%%############%%%%%%%%%%%%%%%%%%%%%%%%%%%%%%%&&&%%%+++           ",
"            +++#####################$$$%%%%%%%%%%%%%%%%%%%%%%%%%%%%%%%%%%&&&+++           ",
"            +++#####################$$$%%%%%%%%%%%%%%%%%%%%%%%%%%%%%%%%%%&&&+++           ",
"            +++#####################$$$%%%%%%%%%%%%%%%%%%%%%%%%%%%%%%%%%%&&&+++           ",
"            +++#####################$$$%%%%%%%%%%%%%%%%%%%%%%%%%%%%%%%%%%&&&+++           ",
"         ...***######$$$############$$$%%%%%%%%%%%%%%%%%%%%%%%%%%%%%%%%%%%%%@@@...        ",
"         ...***######$$$############$$$%%%%%%%%%%%%%%%%%%%%%%%%%%%%%%%%%%%%%@@@...        ",
"         ...***######$$$############$$$%%%%%%%%%%%%%%%%%%%%%%%%%%%%%%%%%%%%%@@@...        ",
"         +++%%%#####################%%%%%%%%%%%%%%%%%%%%%%%%%%%%%%%%%%%%%%%%%%%@@@...     ",
"         +++%%%#####################%%%%%%%%%%%%%%%%%%%%%%%%%%%%%%%%%%%%%%%%%%%@@@...     ",
"         +++%%%#####################%%%%%%%%%%%%%%%%%%%%%%%%%%%%%%%%%%%%%%%%%%%@@@...     ",
"         +++%%%##################$$$%%%%%%%%%%%%%%%%%%%%%%%%%%%%%%%%%%%%%%%%%%%%%%+++     ",
"         +++%%%##################$$$%%%%%%%%%%%%%%%%%%%%%%%%%%%%%%%%%%%%%%%%%%%%%%+++     ",
"         +++%%%##################$$$%%%%%%%%%%%%%%%%%%%%%%%%%%%%%%%%%%%%%%%%%%%%%%+++     ",
"         +++%%%##################$$$%%%%%%%%%%%%%%%%%%%%%%%%%###%%%###%%%###%%%%%%+++     ",
"         +++%%%##################$$$%%%%%%%%%%%%%%%%%%%%%%%%%###%%%###%%%###%%%%%%+++     ",
"         +++%%%##################$$$%%%%%%%%%%%%%%%%%%%%%%%%%###%%%###%%%###%%%%%%+++     ",
"         +++%%%$$$############$$$%%%%%%%%%%%%%%%%%%%%%%%%%###%%%#########%%%###%%%+++     ",
"         +++%%%$$$############$$$%%%%%%%%%%%%%%%%%%%%%%%%%###%%%#########%%%###%%%+++     ",
"         +++%%%$$$############$$$%%%%%%%%%%%%%%%%%%%%%%%%%###%%%#########%%%###%%%+++     ",
"         ...@@@%%%%%%%%%%%%%%%%%%&&&%%%%%%%%%%%%####%%%%%%%%%###############%%%%%%+++     ",
"         ...@@@%%%%%%%%%%%%%%%%%%&&&%%%%%%%%%%%%####%%%%%%%%%###############%%%%%%+++     ",
"         ...@@@%%%%%%%%%%%%%%%%%%&&&%%%%%%%%%%%%####%%%%%%%%%###############%%%%%%+++     ",
"            +++%%%%%%###%%%###%%%%%%&&&%%%%%%###%%%%%%%%%%###############%%%###%%%+++     ",
"            +++%%%%%%###%%%###%%%%%%&&&%%%%%%###%%%%%%%%%%###############%%%###%%%+++     ",
"            +++%%%%%%###%%%###%%%%%%&&&%%%%%%###%%%%%%%%%%###############%%%###%%%+++     ",
"            ...@@@%%%%%%###%%%###%%%&&&&&&%%%%%%%%%%%%%%%%%%%#########%%%###%%%%%%+++     ",
"            ...@@@%%%%%%###%%%###%%%&&&&&&%%%%%%%%%%%%%%%%%%%#########%%%###%%%%%%+++     ",
"            ...@@@%%%%%%###%%%###%%%&&&&&&%%%%%%%%%%%%%%%%%%%#########%%%###%%%%%%+++     ",
"               ...@@@%%%%%%%%%%%%%%%%%%&&&&&&&&&%%%%%%%%%%%%%%%%%%%%%%###%%%###%%%+++     ",
"               ...@@@%%%%%%%%%%%%%%%%%%&&&&&&&&&%%%%%%%%%%%%%%%%%%%%%%###%%%###%%%+++     ",
"               ...@@@%%%%%%%%%%%%%%%%%%&&&&&&&&&%%%%%%%%%%%%%%%%%%%%%%###%%%###%%%+++     ",
"                  ...+++++++++@@@%%%@@@+++++++++++++@@@%%%%%%%%%%%%%%%%%%%%%%%%%%%+++     ",
"                  ...+++++++++@@@%%%@@@+++++++++++++@@@%%%%%%%%%%%%%%%%%%%%%%%%%%%+++     ",
"                  ...+++++++++@@@%%%@@@+++++++++++++@@@%%%%%%%%%%%%%%%%%%%%%%%%%%%+++     ",
"                              ...+++...             ...+++@@@%%%@@@+++@@@%%%%%%@@@...     ",
"                              ...+++...             ...+++@@@%%%@@@+++@@@%%%%%%@@@...     ",
"                              ...+++...             ...+++@@@%%%@@@+++@@@%%%%%%@@@...     ",
"                                                          ...+++...   ...++++++...        ",
"                                                          ...+++...   ...++++++...        ",
"                                                          ...+++...   ...++++++...        ",
"                                                                                          ",
"                                                                                          ",
"                                                                                          ",
"                                                                                          ",
"                                                                                          ",
"                                                                                          ",
"                                                                                          ",
"                                                                                          ",
"                                                                                          ",
"                                                                                          "};
