/* XPM */
static char * rock2_3_xpm[] = {
"40 40 309 2",
"  	c #734136",
". 	c #6D3E34",
"+ 	c #724136",
"@ 	c #724035",
"# 	c #713F32",
"$ 	c #61382D",
"% 	c #683B30",
"& 	c #6F3F35",
"* 	c #272121",
"= 	c #2C2322",
"- 	c #2F2322",
"; 	c #3D2926",
"> 	c #4C2F28",
", 	c #5E372F",
"' 	c #6D3E33",
") 	c #5B362F",
"! 	c #683C32",
"~ 	c #6A3D33",
"{ 	c #2D2321",
"] 	c #2C2220",
"^ 	c #2F231F",
"/ 	c #32241E",
"( 	c #53322B",
"_ 	c #262123",
": 	c #292325",
"< 	c #292324",
"[ 	c #282224",
"} 	c #282223",
"| 	c #3E2927",
"1 	c #703E31",
"2 	c #252122",
"3 	c #242022",
"4 	c #242122",
"5 	c #252123",
"6 	c #272123",
"7 	c #272324",
"8 	c #2A2325",
"9 	c #2E2525",
"0 	c #432B27",
"a 	c #5B362E",
"b 	c #2A2324",
"c 	c #362B2D",
"d 	c #32292B",
"e 	c #2D2628",
"f 	c #352625",
"g 	c #482D29",
"h 	c #6E3D30",
"i 	c #51312B",
"j 	c #2B2526",
"k 	c #34292B",
"l 	c #33292B",
"m 	c #352A2C",
"n 	c #32282A",
"o 	c #372C2E",
"p 	c #342A2C",
"q 	c #302829",
"r 	c #2F2729",
"s 	c #312829",
"t 	c #312625",
"u 	c #633931",
"v 	c #282325",
"w 	c #2B2426",
"x 	c #292222",
"y 	c #312524",
"z 	c #2B2527",
"A 	c #3D3032",
"B 	c #534141",
"C 	c #544242",
"D 	c #2A2426",
"E 	c #55332B",
"F 	c #653A31",
"G 	c #503F3F",
"H 	c #604B4A",
"I 	c #4C3C3C",
"J 	c #352B2D",
"K 	c #272223",
"L 	c #6B3D33",
"M 	c #2B2321",
"N 	c #252222",
"O 	c #282425",
"P 	c #4A3A3B",
"Q 	c #524141",
"R 	c #3F3233",
"S 	c #2E2628",
"T 	c #2D2424",
"U 	c #50302B",
"V 	c #564443",
"W 	c #5D4949",
"X 	c #564343",
"Y 	c #433536",
"Z 	c #2C2526",
"` 	c #2A2223",
" .	c #442C28",
"..	c #5C362F",
"+.	c #222222",
"@.	c #403234",
"#.	c #4F3E3E",
"$.	c #3A2726",
"%.	c #634D4C",
"&.	c #5B4747",
"*.	c #382D2F",
"=.	c #272224",
"-.	c #232022",
";.	c #3B3031",
">.	c #242123",
",.	c #292223",
"'.	c #50312A",
").	c #2B2325",
"!.	c #4D3C3D",
"~.	c #3E3132",
"{.	c #372B2D",
"].	c #31282A",
"^.	c #272424",
"/.	c #3C2F31",
"(.	c #4D3D3D",
"_.	c #362C2D",
":.	c #282324",
"<.	c #443537",
"[.	c #4E3D3E",
"}.	c #49393A",
"|.	c #2C2627",
"1.	c #2A2627",
"2.	c #473839",
"3.	c #4A3939",
"4.	c #2E2727",
"5.	c #352624",
"6.	c #31292A",
"7.	c #332624",
"8.	c #352B2C",
"9.	c #322A2B",
"0.	c #2B2626",
"a.	c #262324",
"b.	c #3F2A28",
"c.	c #2D2728",
"d.	c #282525",
"e.	c #312B2B",
"f.	c #302A2A",
"g.	c #252223",
"h.	c #302729",
"i.	c #4B3B3C",
"j.	c #514040",
"k.	c #2C2527",
"l.	c #382926",
"m.	c #54332B",
"n.	c #5A4646",
"o.	c #403233",
"p.	c #4E3E3E",
"q.	c #2B2425",
"r.	c #2E2424",
"s.	c #342A2B",
"t.	c #443536",
"u.	c #614B4B",
"v.	c #4B3B3B",
"w.	c #413334",
"x.	c #372D2E",
"y.	c #292224",
"z.	c #53322C",
"A.	c #3D2C2A",
"B.	c #5D4847",
"C.	c #644E4D",
"D.	c #554343",
"E.	c #614B4A",
"F.	c #5B4746",
"G.	c #3C2F30",
"H.	c #34292A",
"I.	c #2B2323",
"J.	c #4C2F2A",
"K.	c #392B2A",
"L.	c #604B49",
"M.	c #584545",
"N.	c #554242",
"O.	c #5E4A49",
"P.	c #3A2E2F",
"Q.	c #382B2C",
"R.	c #2F2524",
"S.	c #382726",
"T.	c #4E3029",
"U.	c #392E2F",
"V.	c #3E2A26",
"W.	c #4D3029",
"X.	c #5A4747",
"Y.	c #554342",
"Z.	c #2C2425",
"`.	c #462D28",
" +	c #423535",
".+	c #5C4848",
"++	c #524040",
"@+	c #382C2E",
"#+	c #262224",
"$+	c #332625",
"%+	c #402B27",
"&+	c #3C3131",
"*+	c #594545",
"=+	c #453637",
"-+	c #3B3030",
";+	c #4C3C3D",
">+	c #382D2E",
",+	c #423435",
"'+	c #422C27",
")+	c #2D2627",
"!+	c #392F2F",
"~+	c #3C3031",
"{+	c #503E3F",
"]+	c #463838",
"^+	c #614C4B",
"/+	c #564444",
"(+	c #3F3133",
"_+	c #403334",
":+	c #3F2A27",
"<+	c #482E28",
"[+	c #2A2527",
"}+	c #392D2F",
"|+	c #5F4A49",
"1+	c #594645",
"2+	c #372A2B",
"3+	c #332525",
"4+	c #442C29",
"5+	c #693C32",
"6+	c #534241",
"7+	c #443636",
"8+	c #534040",
"9+	c #5A4746",
"0+	c #473737",
"a+	c #584444",
"b+	c #483939",
"c+	c #3B2F31",
"d+	c #372B2C",
"e+	c #402A27",
"f+	c #634E4D",
"g+	c #574544",
"h+	c #3B2E30",
"i+	c #53403F",
"j+	c #544241",
"k+	c #372725",
"l+	c #392726",
"m+	c #2E2627",
"n+	c #524041",
"o+	c #443637",
"p+	c #584544",
"q+	c #624D4C",
"r+	c #482D28",
"s+	c #48393A",
"t+	c #3A2F30",
"u+	c #413435",
"v+	c #513F3F",
"w+	c #594646",
"x+	c #584645",
"y+	c #5D4848",
"z+	c #342727",
"A+	c #4E302B",
"B+	c #433435",
"C+	c #4F3E3F",
"D+	c #4A3A3A",
"E+	c #624C4C",
"F+	c #2F2829",
"G+	c #492D29",
"H+	c #3B2D2C",
"I+	c #483839",
"J+	c #3E3133",
"K+	c #5E4949",
"L+	c #5F4A4A",
"M+	c #352828",
"N+	c #643A31",
"O+	c #663B32",
"P+	c #57332D",
"Q+	c #3E2B26",
"R+	c #352B2B",
"S+	c #5C4847",
"T+	c #5D4948",
"U+	c #574444",
"V+	c #3D3132",
"W+	c #2D2425",
"X+	c #412B27",
"Y+	c #30282A",
"Z+	c #44312E",
"`+	c #3B2926",
" @	c #302728",
".@	c #392F30",
"+@	c #2F2628",
"@@	c #2E2729",
"#@	c #382E2F",
"$@	c #292323",
"%@	c #362725",
"&@	c #2F2627",
"*@	c #503F40",
"=@	c #3A2F2F",
"-@	c #2F2626",
";@	c #453330",
">@	c #262223",
",@	c #362C2C",
"'@	c #433535",
")@	c #2E2626",
"!@	c #362928",
"~@	c #4A2E28",
"{@	c #2A2425",
"]@	c #342624",
"^@	c #58342D",
"/@	c #332524",
"(@	c #342B2B",
"_@	c #2F2728",
":@	c #2E2526",
"<@	c #55332D",
"[@	c #53322D",
"}@	c #643A32",
"|@	c #613830",
"1@	c #50302C",
"2@	c #3E2A27",
"3@	c #4F302B",
"4@	c #6A3C33",
"                                                                                ",
"                . + + + @   #                                     $ $ $ %       ",
"              & * = - ; > , @               ' & ) , ! ! ! ! ! ~ { ] ^ / %       ",
"            ( _ : < [ } } | ! 1             [ 2 3 2 _ 4 5 _ 6 6 7 < 8 < 9 0     ",
"          a 3 b c c c d e 9 f g h         i j k l m m n n k d o p q e r s t     ",
"        u } v c c c c c c m w x )         y z c c c c c c c A B C C c c l D E   ",
"      F 6 : c G H C I c c c J j K L     M N O c c c P Q Q Q Q C C C Q R S T U & ",
"      f b c I V W X G Y o c c c Z `  ...+.+.O c @.Y #.C C C C C C C P < } $.!   ",
"      b c c %.&.C C C B *.c c c c D =.3 -.+.O c I B C C C C C B G ;.>.,.'.      ",
"    & ).S c Y !.C C #.~.{.c c c c c c m ].^.O c /.~.(.C C C G _.:.K ,           ",
"    & < =.c c <.[.[.}.c c c c c c c c c c |.1.d m c 2.[.[.3.4._ 5.~             ",
"      b v c c c c c c c c c c c c c c c c c d +.6.c c c l } 7.) &               ",
"      < j c c c c c c c c c c c c c c c c c 8.9.0.^.^.a.-.b.&                   ",
"      _ D c c c c c c c c c c c c c c c c c c c c.d.e.f.g.&                     ",
"    L =.h.c c c c c c c c c c c c c c c c c c c c c i.j.k.l.m.        @ + +     ",
"    & b m c &.&.&.&.&.&.&.&.n.o.c c c c c c c c c c i.p.k.q.r.!             +   ",
"    & s.t.t.u.u.u.u.u.u.u.u.H v.w.c c c c c c c c c 2.!.x.J y.z.            @   ",
"    A.B.C.C.C C C C C C C C D.E.F.c c c c c c c c c c G.C R H.I.J.              ",
"  L K.L.C.C.C C C C D.M.C C N.O.M.c c c c c c c c c c P.p.A Q.R.S.              ",
"  T.U.H C.C.C C C C M.C.D.C C C [.c c c c c c c c c c c o c c r } V.            ",
"  W.U.H u.X.C C C C X X.Y.C C C [.c c c c c c c c c c c c c c c 8 Z.&           ",
"  `.8. +.+C C C C C C C C C C ++i.c /.A A @+c c c c c c c c c c l #+$+          ",
"  %+].&+*+C C C C C C C C C B ~.c c W C.C.=+c c c c c c c c c c c n 5 t '.      ",
"  ; r -+*+C C P R R =+C C ;+R >+,+&.*+M.M.G }.c c c c c c c c c c c w Z ,.)     ",
"  '+)+!+*+C C }.~+o ~.{+{+]+{.R v.^+/+C C C [.c c c c c c (+_+A A A c c 9 :+    ",
"  <+[+9.*+C C B G /.{.}+}+@+}+F.|+D.C C C C [.c c c c c c 1+|+B Q Q c c 2+3+4+  ",
"  5+=.j 6+C C C B P 7+c c Y 8+9+9+C C C C C [.c c c c >+0+a+F.N.C C b+c+d+K e+  ",
"    } |.#.C C C C C [.c c !.f+g+C C C C C C [.c c c c h+i+j+C C C C C _+c =.k+  ",
"    l+m+j.C C C n+~+c c c o+C C C C C C C R c c c c p+q+C C C C C C C C v.: r+& ",
"    l+Z s+C C C n+~+w.*+}+t+u+G C C C C C R c c v+*+w+x+C C C C C C C y+C z z+& ",
"    A+9 B+C C Q C+,+D+E+,+c+@+I j.C C C C R c c g+E+1+C C X /+C C C C |+6+F+K.! ",
"    G+; H+C C I+J+&.K+X H ++c }+,+C C C C R c c [.X Y.C C L+H D.C C C D.G z M+N+",
"    O+P+Q+R+(.I ]+9+S+C T+U+I I [.C C C C V+c c !.C C C C S+.+Y.M.F.C C j.v W+! ",
"        , X+;._+C C C C C &.C.C.H C C G G x.r Y+!.C C C C C C C W C.C C b+k.Z+  ",
"          ! `+ @.@(.C C C C C C C C  +>++@r l z @@#@9+C C C C C C C C j.w $@    ",
"              %@&@k.t+]+C j.*@,+=@!+ @-@J.    ) ;@>@,@y+C C B B C C '@)@!@N+    ",
"                ~@< {@D >@v k.>@4 K ]@&         ^@/@=.(@j #+v _@Z D :@X+5+      ",
"                & & L ^@<@<@[@<@, &             & & }@|@) 1@2@l+ .3@4@          ",
"                                                                                ",
"                                                                                "};
