/* XPM */
static char * rock1test_xpm[] = {
"40 40 253 2",
"  	c #734136",
". 	c #6F3F35",
"+ 	c #4F3228",
"@ 	c #48312C",
"# 	c #442F2A",
"$ 	c #412E29",
"% 	c #3A2A27",
"& 	c #412D29",
"* 	c #46302C",
"= 	c #42302E",
"- 	c #352624",
"; 	c #4D2F2B",
"> 	c #683C32",
", 	c #352625",
"' 	c #342726",
") 	c #3B2A28",
"! 	c #5E372F",
"~ 	c #56332D",
"{ 	c #472D28",
"] 	c #3D3030",
"^ 	c #483939",
"/ 	c #4C3C3C",
"( 	c #453737",
"_ 	c #4F3E3E",
": 	c #514040",
"< 	c #5C4948",
"[ 	c #342B2C",
"} 	c #2A2425",
"| 	c #2D2424",
"1 	c #4A2F27",
"2 	c #6E3E34",
"3 	c #463736",
"4 	c #4A3A3B",
"5 	c #382B29",
"6 	c #272223",
"7 	c #392C2C",
"8 	c #493838",
"9 	c #4E3D3D",
"0 	c #503F3F",
"a 	c #544242",
"b 	c #5A4747",
"c 	c #574544",
"d 	c #352B2B",
"e 	c #2E2626",
"f 	c #2D2525",
"g 	c #342826",
"h 	c #382825",
"i 	c #372725",
"j 	c #362928",
"k 	c #4B3A3A",
"l 	c #403333",
"m 	c #362A29",
"n 	c #5E362F",
"o 	c #2F2525",
"p 	c #3D3131",
"q 	c #5C4848",
"r 	c #5B4847",
"s 	c #3C3030",
"t 	c #2F2728",
"u 	c #302828",
"v 	c #3B3030",
"w 	c #554342",
"x 	c #34292A",
"y 	c #6B3D33",
"z 	c #3B2727",
"A 	c #352827",
"B 	c #534141",
"C 	c #624E4D",
"D 	c #544342",
"E 	c #403434",
"F 	c #644F4E",
"G 	c #554242",
"H 	c #584545",
"I 	c #312728",
"J 	c #4D302A",
"K 	c #2B2324",
"L 	c #483837",
"M 	c #5D4949",
"N 	c #433635",
"O 	c #423434",
"P 	c #574444",
"Q 	c #4B3C3B",
"R 	c #413434",
"S 	c #5F4B4A",
"T 	c #524040",
"U 	c #503E3E",
"V 	c #3C2F2F",
"W 	c #54322C",
"X 	c #262122",
"Y 	c #403130",
"Z 	c #3C3131",
"` 	c #3A2F2F",
" .	c #463737",
"..	c #2F2828",
"+.	c #634E4D",
"@.	c #604C4B",
"#.	c #382D2D",
"$.	c #5B362F",
"%.	c #5D362F",
"&.	c #2E2324",
"*.	c #564343",
"=.	c #493939",
"-.	c #4B3B3B",
";.	c #524141",
">.	c #232022",
",.	c #2E2727",
"'.	c #584544",
").	c #282222",
"!.	c #53322C",
"~.	c #643A32",
"{.	c #2A2223",
"].	c #382C2C",
"^.	c #5D4A49",
"/.	c #5A4746",
"(.	c #4A3B3B",
"_.	c #3F3333",
":.	c #2C2526",
"<.	c #292425",
"[.	c #564443",
"}.	c #372D2D",
"|.	c #252122",
"1.	c #452C28",
"2.	c #242022",
"3.	c #2C2527",
"4.	c #4D3D3D",
"5.	c #342B2B",
"6.	c #564444",
"7.	c #4C3B3B",
"8.	c #5E4A49",
"9.	c #262223",
"0.	c #392F2F",
"a.	c #554343",
"b.	c #524241",
"c.	c #442C28",
"d.	c #2F2627",
"e.	c #4E3E3E",
"f.	c #594646",
"g.	c #513F3F",
"h.	c #614D4C",
"i.	c #3D3232",
"j.	c #2D2323",
"k.	c #6B3D34",
"l.	c #332929",
"m.	c #392E2E",
"n.	c #312929",
"o.	c #352C2C",
"p.	c #272224",
"q.	c #50403F",
"r.	c #322A2A",
"s.	c #2F2423",
"t.	c #55332D",
"u.	c #302728",
"v.	c #544343",
"w.	c #413534",
"x.	c #262123",
"y.	c #2F2324",
"z.	c #473838",
"A.	c #443636",
"B.	c #463837",
"C.	c #2D2626",
"D.	c #272324",
"E.	c #2C2323",
"F.	c #50302B",
"G.	c #362725",
"H.	c #3B2E2D",
"I.	c #4A3A3A",
"J.	c #3E3332",
"K.	c #3F3332",
"L.	c #2E2627",
"M.	c #322827",
"N.	c #382725",
"O.	c #443432",
"P.	c #443737",
"Q.	c #362D2D",
"R.	c #2B2526",
"S.	c #302523",
"T.	c #4E2F2B",
"U.	c #302424",
"V.	c #453533",
"W.	c #463838",
"X.	c #2F2727",
"Y.	c #2D2627",
"Z.	c #282324",
"`.	c #322525",
" +	c #4A3836",
".+	c #362C2C",
"++	c #292324",
"@+	c #472D29",
"#+	c #2B2223",
"$+	c #483635",
"%+	c #594645",
"&+	c #312524",
"*+	c #4D3937",
"=+	c #51403F",
"-+	c #5A4847",
";+	c #2B2323",
">+	c #503E3C",
",+	c #382724",
"'+	c #643A31",
")+	c #2F2524",
"!+	c #2C2525",
"~+	c #523F3E",
"{+	c #584645",
"]+	c #524140",
"^+	c #2A2323",
"/+	c #432B28",
"(+	c #6C3D33",
"_+	c #2E2525",
":+	c #3E2A25",
"<+	c #332A2A",
"[+	c #544241",
"}+	c #604B4A",
"|+	c #312828",
"1+	c #2A2324",
"2+	c #322929",
"3+	c #493A3A",
"4+	c #3E3131",
"5+	c #5D372F",
"6+	c #613830",
"7+	c #362C2B",
"8+	c #554443",
"9+	c #3B2F2F",
"0+	c #402B25",
"a+	c #392D2C",
"b+	c #382E2E",
"c+	c #252123",
"d+	c #483838",
"e+	c #4D3C3C",
"f+	c #342A2A",
"g+	c #2D2727",
"h+	c #423535",
"i+	c #3F3232",
"j+	c #3A2E2E",
"k+	c #372825",
"l+	c #473939",
"m+	c #372C2C",
"n+	c #382924",
"o+	c #242123",
"p+	c #3E3232",
"q+	c #312827",
"r+	c #262224",
"s+	c #2C2626",
"t+	c #433535",
"u+	c #342827",
"v+	c #292424",
"w+	c #372925",
"x+	c #372924",
"y+	c #5B352C",
"z+	c #392923",
"A+	c #402A25",
"B+	c #402B24",
"C+	c #332827",
"D+	c #362724",
"                        .                               . . .                   ",
"                  + @ # $ % & * = - ; >             > , ' ' ' ' ) # @ !         ",
"            . ~ { ] ^ / / ( _ : < [ } } | 1 2       { 3 4 4 4 ^ 4 / ^ 5         ",
"          > 6 7 8 9 _ _ _ _ _ 0 a b c d e f g h i j k 9 _ _ _ _ _ _ _ l m       ",
"        n o p _ _ _ _ _ _ _ _ _ _ q r ( s t u u u v w 0 _ _ : w _ _ _ / x y     ",
"    > z A / _ _ _ _ _ _ _ _ _ _ _ _ B C D u u u u E F G _ _ H F 0 _ _ _ I !     ",
"    J K L _ _ _ _ _ _ _ B M N O _ _ 0 P Q u u u u R F S r 0 T c U _ _ c V ~     ",
"  W X Y _ _ _ _ 0 _ _ _ w C Z ` _ _ _ 0  .......u R F +.@.: _ _ _ U 0 S #.$.    ",
"  %.&.Y _ _ _ : F *._ _ =.u -._ _ _ B C ;.>.>.>.,.R F G _ _ _ _ _ '.F R ).!.    ",
"  ~.{.]._ _ _ 9 ^ c ^.^.D u -._ _ /.b (._.:.:.:.<.Z F G _ _ _ _ < [.^ }.|.1.    ",
"  . 2.3._ _ _ 4.5.6.@.@.H 5.7._ _ S 8.}.u u u u 9.0.@.a.: _ 0 : @.b.u u ).c.    ",
"  . 2.d._ _ _ _ -.R s s l -.e._ _ S 8.}.u u u u ,.u [ f.S g.P h.i.#.u u j.; .   ",
"  k.|.l._ _ _ _ _ R m.n.}.=.9 0 a.f.a.o.u u u u u ,.p.q.6.(.0 b r.u u u s.t.    ",
"  > {.u._ _ _ _ _ _ / o.u u -.v.F w.u u u u u u u u u p.x.t u u u u u u s.t.    ",
"  > y.]._ _ _ _ _ l v z.A.u }.B.F w.u u u u u u u u u ,.C.D.} u u u u u E.F.    ",
"  > G.H._ _ _ 0 B p d / I.}.n.J.^.K.u u u u u u u u u u ,.9.<.L.u u u M.N.>     ",
"  > E.O._ _ _ : F P.d / _ _ Q.u u u u u u u u u u u u u u u R.>...u u S.T.      ",
"  . U.V._ _ _ 9 w.W.I.9 _ _ I.A.u u u u u u u u u u u u u u X.Y.p.} Z., t.      ",
"    `. +_ _ _ 4..+^ _ _ _ _ T / u u u u u u u u u u u u u u u u x.++9.@+        ",
"  . #+$+_ _ _ _ / 9 _ _ _ _ S %+u u u u u u u u u u u u u u u u X.} >.>         ",
"  > &+*+_ _ g.=+_ _ _ _ _ _ h.-+u u u u u u u u u u u u u u u u u R.2.          ",
"  ;+f >+_ _ < S _ _ _ _ _ _ h.-+u u u u u u u u u u u u u u u u u ..9.,+        ",
"'+)+!+~+_ _ -+^._ _ _ _ _ _ {+]+u u u u u u u u u u u u u u u u u u u ^+/+      ",
"  (+R.-._ _ _ _ _ _ _ _ _ _ Q.u u u u u u u u u u u u u u u u u u u u L._+:+    ",
"  2 <+-._ _ _ _ _ _ _ _ [+}+` u u u u u u u u u u u u u u u u u u u u u |+1+.   ",
"  2 <+-._ _ _ _ _ _ _ _ a.F s u u u u u u u u u u u u o.o.|+r.Q.u r.Q.2+u D.'+  ",
"  2 <+-._ _ _ _ _ _ _ _ a.F s u u u u u u u u u u u u 3+-.5.4+_ n.p _ m.u D.5+. ",
"  2 d f.q _ _ _ _ _ : ^.f.R <+u u u u u u u u u u }.3+p s ^ -._ 3+A.m. .A.<.6+  ",
"    7+%+b 7.7.7.7.7.9 < 8+X.u u u u u u r..+5.u u #.7.s 9+4._ _ _ z..+z.z.t >   ",
"    0+a+}.d d d d d d b+5.c+X.u u u u u p / W.u u n.d d+e+_ _ _ _ 9 / 9+f+L.>   ",
"      g u u m.v u m.9+2+,.Z.:.g+u u 2+9+R z.h+u u <+s -._ _ _ _ _ / z.i+j+L.>   ",
"      k+u u ^ 4.u l+/ o.u u c+p.u u m+e+( u u u u m._ _ _ _ _ _ _ ( u 3+3+R.'+  ",
"        n+u <+}.4.p #.(.z.u c+2.o+Y.|+5.<+u u u u n.5.I._ _ _ _ o.p+e+v f+D.'+  ",
"          g q+<+l+b+<+( h+u ++r+>.} s+s+,.u u u u u u t+l+l+l+l+s l l+p+m.c+>   ",
"          1 u+u u u u u u u u C.>.>.>.>.v+u u u u u u u u u u u 9 ( u 3+z.R.>   ",
"                      1 w+u x+y+              z+M.u u u u u u u m..+u }.}.:..   ",
"                        2 h                     A+k+M.|+u M.g h M.q+u u |+f .   ",
"                                                    B+C+M.z+    1 w+u u M.D+    ",
"                                                                                ",
"                                                                                "};
