/* XPM */
static char * rock2test_xpm[] = {
"40 40 309 2",
"  	c #734136",
". 	c #6A3C33",
"+ 	c #4F302B",
"@ 	c #442C28",
"# 	c #392726",
"$ 	c #3E2A27",
"% 	c #50302C",
"& 	c #5B362F",
"* 	c #613830",
"= 	c #643A32",
"- 	c #6F3F35",
"; 	c #5E372F",
"> 	c #55332D",
", 	c #53322D",
"' 	c #58342D",
") 	c #6B3D33",
"! 	c #693C32",
"~ 	c #412B27",
"{ 	c #2E2526",
"] 	c #2A2426",
"^ 	c #2C2526",
"/ 	c #2F2728",
"( 	c #282325",
"_ 	c #262224",
": 	c #2B2526",
"< 	c #342B2B",
"[ 	c #272224",
"} 	c #332524",
"| 	c #342624",
"1 	c #272223",
"2 	c #242122",
"3 	c #262223",
"4 	c #2C2527",
"5 	c #2A2425",
"6 	c #292324",
"7 	c #4A2E28",
"8 	c #643A31",
"9 	c #362928",
"0 	c #2E2626",
"a 	c #433535",
"b 	c #544242",
"c 	c #534141",
"d 	c #5D4848",
"e 	c #362C2C",
"f 	c #453330",
"g 	c #4C2F2A",
"h 	c #2F2626",
"i 	c #302728",
"j 	c #392F2F",
"k 	c #3A2F2F",
"l 	c #423435",
"m 	c #503F40",
"n 	c #514040",
"o 	c #463838",
"p 	c #3A2F30",
"q 	c #2F2627",
"r 	c #362725",
"s 	c #292323",
"t 	c #2B2426",
"u 	c #5A4746",
"v 	c #382E2F",
"w 	c #2E2729",
"x 	c #2B2527",
"y 	c #33292B",
"z 	c #2F2729",
"A 	c #2F2628",
"B 	c #382D2E",
"C 	c #423535",
"D 	c #4D3D3D",
"E 	c #392F30",
"F 	c #3B2926",
"G 	c #683C32",
"H 	c #44312E",
"I 	c #483939",
"J 	c #644E4D",
"K 	c #5D4949",
"L 	c #4D3C3D",
"M 	c #30282A",
"N 	c #372D2E",
"O 	c #503F3F",
"P 	c #604B4A",
"Q 	c #5B4747",
"R 	c #403334",
"S 	c #3B3031",
"T 	c #2D2425",
"U 	c #5B4746",
"V 	c #584545",
"W 	c #554342",
"X 	c #5C4848",
"Y 	c #5C4847",
"Z 	c #362B2D",
"` 	c #3D3132",
" .	c #4E3D3E",
"..	c #4C3C3C",
"+.	c #574444",
"@.	c #5D4948",
"#.	c #352B2B",
"$.	c #3E2B26",
"%.	c #57332D",
"&.	c #663B32",
"*.	c #352828",
"=.	c #554343",
"-.	c #5F4A4A",
";.	c #564343",
">.	c #3F3233",
",.	c #392D2F",
"'.	c #524040",
").	c #5E4949",
"!.	c #3E3133",
"~.	c #483839",
"{.	c #3B2D2C",
"].	c #3D2926",
"^.	c #492D29",
"/.	c #392B2A",
"(.	c #2F2829",
"_.	c #534241",
":.	c #5F4A49",
"<.	c #564444",
"[.	c #594645",
"}.	c #624C4C",
"|.	c #574544",
"1.	c #382C2E",
"2.	c #3B2F31",
"3.	c #4A3A3A",
"4.	c #4F3E3F",
"5.	c #524141",
"6.	c #433435",
"7.	c #2E2525",
"8.	c #4E302B",
"9.	c #342727",
"0.	c #584645",
"a.	c #594646",
"b.	c #594545",
"c.	c #513F3F",
"d.	c #413435",
"e.	c #413334",
"f.	c #3C3031",
"g.	c #524041",
"h.	c #48393A",
"i.	c #482D28",
"j.	c #292325",
"k.	c #4B3B3B",
"l.	c #624D4C",
"m.	c #584544",
"n.	c #443637",
"o.	c #2E2627",
"p.	c #372725",
"q.	c #544241",
"r.	c #53403F",
"s.	c #3B2E30",
"t.	c #634E4D",
"u.	c #4F3E3E",
"v.	c #2C2627",
"w.	c #282223",
"x.	c #402A27",
"y.	c #372B2C",
"z.	c #554242",
"A.	c #584444",
"B.	c #473737",
"C.	c #534040",
"D.	c #433536",
"E.	c #443636",
"F.	c #4A3A3B",
"G.	c #442C29",
"H.	c #332525",
"I.	c #372A2B",
"J.	c #372B2D",
"K.	c #3C2F31",
"L.	c #322A2B",
"M.	c #2A2527",
"N.	c #482E28",
"O.	c #3F2A27",
"P.	c #3D3032",
"Q.	c #3F3133",
"R.	c #614C4B",
"S.	c #503E3F",
"T.	c #3E3132",
"U.	c #372C2E",
"V.	c #49393A",
"W.	c #2D2627",
"X.	c #422C27",
"Y.	c #292223",
"Z.	c #4C3C3D",
"`.	c #453637",
" +	c #3B3030",
".+	c #50312A",
"++	c #312625",
"@+	c #252123",
"#+	c #32282A",
"$+	c #3C3131",
"%+	c #31282A",
"&+	c #402B27",
"*+	c #332625",
"=+	c #4B3B3C",
"-+	c #352B2C",
";+	c #462D28",
">+	c #2C2425",
",+	c #2A2325",
"'+	c #5A4747",
")+	c #614B4B",
"!+	c #392E2F",
"~+	c #4D3029",
"{+	c #3E2A26",
"]+	c #4E3029",
"^+	c #382726",
"/+	c #2F2524",
"(+	c #382B2C",
"_+	c #4E3E3E",
":+	c #3A2E2F",
"<+	c #5E4A49",
"[+	c #604B49",
"}+	c #2B2323",
"|+	c #34292A",
"1+	c #3C2F30",
"2+	c #614B4A",
"3+	c #5D4847",
"4+	c #3D2C2A",
"5+	c #724035",
"6+	c #53322C",
"7+	c #292224",
"8+	c #352B2D",
"9+	c #473839",
"0+	c #443536",
"a+	c #342A2B",
"b+	c #724136",
"c+	c #2E2424",
"d+	c #2B2425",
"e+	c #403233",
"f+	c #5A4646",
"g+	c #352A2C",
"h+	c #2A2324",
"i+	c #54332B",
"j+	c #382926",
"k+	c #302729",
"l+	c #252223",
"m+	c #302A2A",
"n+	c #312B2B",
"o+	c #282525",
"p+	c #2D2728",
"q+	c #262123",
"r+	c #3F2A28",
"s+	c #232022",
"t+	c #262324",
"u+	c #272424",
"v+	c #2B2626",
"w+	c #332624",
"x+	c #31292A",
"y+	c #222222",
"z+	c #32292B",
"A+	c #6A3D33",
"B+	c #352624",
"C+	c #2E2727",
"D+	c #4A3939",
"E+	c #2A2627",
"F+	c #443537",
"G+	c #282324",
"H+	c #362C2D",
"I+	c #282425",
"J+	c #2E2628",
"K+	c #2B2325",
"L+	c #242123",
"M+	c #242022",
"N+	c #382D2F",
"O+	c #634D4C",
"P+	c #3A2726",
"Q+	c #403234",
"R+	c #5C362F",
"S+	c #2A2223",
"T+	c #564443",
"U+	c #352625",
"V+	c #50302B",
"W+	c #2D2424",
"X+	c #252222",
"Y+	c #2B2321",
"Z+	c #272123",
"`+	c #653A31",
" @	c #55332B",
".@	c #312524",
"+@	c #292222",
"@@	c #633931",
"#@	c #312829",
"$@	c #2D2628",
"%@	c #302829",
"&@	c #342A2C",
"*@	c #34292B",
"=@	c #51312B",
"-@	c #6E3D30",
";@	c #482D29",
">@	c #5B362E",
",@	c #432B27",
"'@	c #272324",
")@	c #252122",
"!@	c #282224",
"~@	c #703E31",
"{@	c #3E2927",
"]@	c #53322B",
"^@	c #683B30",
"/@	c #32241E",
"(@	c #2F231F",
"_@	c #2C2220",
":@	c #2D2321",
"<@	c #6D3E33",
"[@	c #4C2F28",
"}@	c #2F2322",
"|@	c #2C2322",
"1@	c #272121",
"2@	c #61382D",
"3@	c #713F32",
"4@	c #6D3E34",
"                                                                                ",
"                                                                                ",
"          . + @ # $ % & * = - -             - ; > , > > ' ) - -                 ",
"      ! ~ { ] ^ / ( _ : < [ } '         - | 1 2 3 4 ( 3 ] 5 6 7                 ",
"    8 9 0 a b b c c b b d e 3 f &     g h i j k l m n b o p 4 q r               ",
"    s t n b b b b b b b b u v w x y z A B C b b b b b b b b D E i F G           ",
"  H 4 I b b J K b b b b b b b L M z N O O b b P J J Q b b b b b R S ~ ;         ",
"G T ( n b b U V W X Y b b b b L Z Z ` b b b b  .....+.@.b Y u o ..D #.$.%.&.    ",
"8 *.x O =.b b b =.P -.b b W ;. .Z Z >.b b b b l ,.Z '.P ;.).Q !.~.b b {.].^.    ",
"G /.(._.:.b b b b <.;.b b [.}.|.Z Z >.b b b b n ..1.2.l }.3.l 4.5.b b 6.7.8.    ",
"- 9.x b d b b b b b b b 0.a.b.c.Z Z >.b b b b b O d.p ,.b.e.f.g.b b b h.^ #     ",
"- i.j.k.b b b b b b b b l.m.Z Z Z Z >.b b b b b b b n.Z Z Z f.g.b b b n o.#     ",
"  p.[ Z R b b b b b q.r.s.Z Z Z Z  .b b b b b b |.t.L Z Z  .b b b b b u.v.w.    ",
"  x.1 y.2.I b b z.U A.B.B Z Z Z Z  .b b b b b u u C.D.Z Z E.F.c b b b _.: [ !   ",
"  G.H.I.Z Z 5.5.c :.[.Z Z Z Z Z Z  .b b b b =.:.U ,.1.,.,.J.K.O c b b b.L.M.N.  ",
"    O.7.Z Z P.P.P.R Q.Z Z Z Z Z Z  .b b b <.R.k.>.J.o S.S.T.U.f.V.b b b.j W.X.  ",
"    & Y.^ t Z Z Z Z Z Z Z Z Z Z Z V.O V V b.Q l B >.Z.b b `.>.>.F.b b b. +z ].  ",
"      .+++@+#+Z Z Z Z Z Z Z Z Z Z Z `.J J K Z Z T.c b b b b b b b b b b.$+%+&+  ",
"          *+_ y Z Z Z Z Z Z Z Z Z Z 1.P.P.K.Z =+'.b b b b b b b b b b X C -+;+  ",
"          - >+,+Z Z Z Z Z Z Z Z Z Z Z Z Z Z Z  .b b b W '+;.b b b b '+)+P !+~+  ",
"            {+w.z Z Z U.Z Z Z Z Z Z Z Z Z Z Z  .b b b =.J V b b b b J J P !+]+  ",
"              ^+/+(+P._+:+Z Z Z Z Z Z Z Z Z Z V <+z.b b V =.b b b b J J [+/.)   ",
"              g }+|+>.b 1+Z Z Z Z Z Z Z Z Z Z U 2+=.b b b b b b b b J J 3+4+    ",
"  5+            6+7+8+N L 9+Z Z Z Z Z Z Z Z Z e.k.P )+)+)+)+)+)+)+)+0+0+a+-     ",
"  b+            G c+d+4 _+=+Z Z Z Z Z Z Z Z Z Z e+f+Q Q Q Q Q Q Q Q Z g+h+-     ",
"    b+b+5+        i+j+4 n =+Z Z Z Z Z Z Z Z Z Z Z Z Z Z Z Z Z Z Z Z Z k+[ )     ",
"                    - l+m+n+o+p+Z Z Z Z Z Z Z Z Z Z Z Z Z Z Z Z Z Z Z ] q+      ",
"                  - r+s+t+u+u+v+L.-+Z Z Z Z Z Z Z Z Z Z Z Z Z Z Z Z Z : 6       ",
"              - & w+w.y Z Z Z x+y+z+Z Z Z Z Z Z Z Z Z Z Z Z Z Z Z Z Z ( h+      ",
"            A+B+q+C+D+ . .9+Z g+z+E+v.Z Z Z Z Z Z Z Z Z Z V. . .F+Z Z [ 6 -     ",
"          ; 1 G+H+O b b b D T.K.Z I+u+%+g+Z Z Z Z Z Z J.T.u.b b L D.Z J+K+-     ",
"      .+Y.L+S O c b b b b b c ..Z I+y+s+M+[ ] Z Z Z Z N+c b b b Q O+Z Z h+      ",
"  G P+w.6 F.b b b b b b b u.D.Q+Z I+y+y+R+@ S+^ Z Z Z U.D.O ;.K T+..Z h+U+      ",
"- V+W+J+>.5.b b b 5.5.5.5.F.Z Z Z I+X+Y+    ) 1 : 8+Z Z Z ..b P O Z j.Z+`+      ",
"   @] y Z Z b b c P.Z Z Z Z Z Z Z x .@        & +@t g+Z Z Z Z Z Z ( w.@@        ",
"    ++#@z $@%@&@U.z+*@#+#+g+g+y *@: =@        -@;@U+7.$@z+Z Z Z h+M+>@          ",
"    ,@7.6 ,+6 '@Z+Z+q+@+2 q+)@M+)@!@            ~@G {@w.w.!@6 j.q+]@            ",
"      ^@/@(@_@:@A+G G G G G ; & - <@              5+; [@].}@|@1@-               ",
"      ^@2@2@2@                                    3@  5+b+b+b+4@                ",
"                                                                                "};
