/* XPM */
static char * rock2_4_xpm[] = {
"40 40 309 2",
"  	c #734136",
". 	c #6F3F35",
"+ 	c #683C32",
"@ 	c #643A31",
"# 	c #55332B",
"$ 	c #50302B",
"% 	c #724136",
"& 	c #724035",
"* 	c #442C29",
"= 	c #402A27",
"- 	c #372725",
"; 	c #482D28",
"> 	c #342727",
", 	c #392B2A",
"' 	c #352828",
") 	c #2D2425",
"! 	c #44312E",
"~ 	c #432B27",
"{ 	c #312625",
"] 	c #2A2426",
"^ 	c #2D2424",
"/ 	c #3A2726",
"( 	c #5B362F",
"_ 	c #3F2A27",
": 	c #332525",
"< 	c #272223",
"[ 	c #272224",
"} 	c #292325",
"| 	c #2B2527",
"1 	c #2F2829",
"2 	c #282325",
"3 	c #2C2527",
"4 	c #292323",
"5 	c #683B30",
"6 	c #2E2525",
"7 	c #312829",
"8 	c #33292B",
"9 	c #2E2628",
"0 	c #282223",
"a 	c #50312A",
"b 	c #292223",
"c 	c #372A2B",
"d 	c #372B2C",
"e 	c #362B2D",
"f 	c #4B3B3B",
"g 	c #544242",
"h 	c #534241",
"i 	c #503F3F",
"j 	c #514040",
"k 	c #483939",
"l 	c #2B2426",
"m 	c #362928",
"n 	c #693C32",
"o 	c #61382D",
"p 	c #32241E",
"q 	c #292324",
"r 	c #2F2729",
"s 	c #3F3233",
"t 	c #2C2526",
"u 	c #3B2F31",
"v 	c #403334",
"w 	c #5D4848",
"x 	c #5F4A49",
"y 	c #554343",
"z 	c #2E2626",
"A 	c #412B27",
"B 	c #2F231F",
"C 	c #2A2325",
"D 	c #2D2628",
"E 	c #524141",
"F 	c #4A3A3B",
"G 	c #242123",
"H 	c #5E372F",
"I 	c #332625",
"J 	c #252123",
"K 	c #433535",
"L 	c #2E2526",
"M 	c #6A3C33",
"N 	c #2C2220",
"O 	c #302829",
"P 	c #3B3031",
"Q 	c #6A3D33",
"R 	c #3E2A26",
"S 	c #2C2425",
"T 	c #262224",
"U 	c #32282A",
"V 	c #3D3032",
"W 	c #5B4746",
"X 	c #644E4D",
"Y 	c #4F302B",
"Z 	c #2D2321",
"` 	c #272324",
" .	c #342A2C",
"..	c #282324",
"+.	c #352624",
"@.	c #4C2F2A",
"#.	c #382726",
"$.	c #584545",
"%.	c #5D4949",
"&.	c #442C28",
"*.	c #272123",
"=.	c #372C2E",
"-.	c #534141",
";.	c #362C2D",
">.	c #262123",
",.	c #53322C",
"'.	c #2B2323",
").	c #2F2524",
"!.	c #554242",
"~.	c #554342",
"{.	c #2F2728",
"].	c #392726",
"^.	c #32292B",
"/.	c #2E2727",
"(.	c #332624",
"_.	c #54332B",
":.	c #2E2424",
"<.	c #292224",
"[.	c #34292A",
"}.	c #382B2C",
"|.	c #564444",
"1.	c #604B4A",
"2.	c #5C4848",
"3.	c #3E2A27",
"4.	c #34292B",
"5.	c #4A3939",
"6.	c #3F2A28",
"7.	c #382926",
"8.	c #2B2425",
"9.	c #352B2D",
"0.	c #3F3133",
"a.	c #594645",
"b.	c #584444",
"c.	c #544241",
"d.	c #564343",
"e.	c #5F4A4A",
"f.	c #5C4847",
"g.	c #50302C",
"h.	c #4E3D3E",
"i.	c #232022",
"j.	c #252223",
"k.	c #372D2E",
"l.	c #4E3E3E",
"m.	c #473737",
"n.	c #53403F",
"o.	c #2B2526",
"p.	c #242122",
"q.	c #262324",
"r.	c #302A2A",
"s.	c #4D3C3D",
"t.	c #3C2F30",
"u.	c #3A2E2F",
"v.	c #382D2E",
"w.	c #3B2E30",
"x.	c #624D4C",
"y.	c #584645",
"z.	c #342B2B",
"A.	c #613830",
"B.	c #352A2C",
"C.	c #4F3E3E",
"D.	c #4D3D3D",
"E.	c #473839",
"F.	c #272424",
"G.	c #312B2B",
"H.	c #4B3B3C",
"I.	c #584544",
"J.	c #594646",
"K.	c #5A4746",
"L.	c #362C2C",
"M.	c #643A32",
"N.	c #252122",
"O.	c #433536",
"P.	c #3E3132",
"Q.	c #282525",
"R.	c #594545",
"S.	c #624C4C",
"T.	c #382E2F",
"U.	c #262223",
"V.	c #332524",
"W.	c #242022",
"X.	c #403234",
"Y.	c #4C3C3C",
"Z.	c #3C2F31",
"`.	c #31292A",
" +	c #2B2626",
".+	c #2D2728",
"++	c #513F3F",
"@+	c #574544",
"#+	c #2E2729",
"$+	c #453330",
"%+	c #58342D",
"&+	c #222222",
"*+	c #322A2B",
"=+	c #30282A",
"-+	c #6D3E33",
";+	c #282224",
">+	c #282425",
",+	c #2A2627",
"'+	c #352B2C",
")+	c #49393A",
"!+	c #51312B",
"~+	c #312524",
"{+	c #252222",
"]+	c #2C2627",
"^+	c #382C2E",
"/+	c #453637",
"(+	c #3D3132",
"_+	c #2B2321",
":+	c #31282A",
"<+	c #2F2628",
"[+	c #5C362F",
"}+	c #2F2626",
"|+	c #423535",
"1+	c #302728",
"2+	c #342624",
"3+	c #6B3D33",
"4+	c #2A2223",
"5+	c #5B4747",
"6+	c #614C4B",
"7+	c #392F2F",
"8+	c #6E3D30",
"9+	c #413334",
"0+	c #423435",
"a+	c #3A2F2F",
"b+	c #703E31",
"c+	c #482D29",
"d+	c #292222",
"e+	c #403233",
"f+	c #614B4A",
"g+	c #5E4A49",
"h+	c #524040",
"i+	c #392D2F",
"j+	c #55332D",
"k+	c #713F32",
"l+	c #352625",
"m+	c #5A4646",
"n+	c #372B2D",
"o+	c #534040",
"p+	c #634E4D",
"q+	c #413435",
"r+	c #503F40",
"s+	c #53322D",
"t+	c #3E2927",
"u+	c #614B4B",
"v+	c #4C3C3D",
"w+	c #463838",
"x+	c #443637",
"y+	c #3A2F30",
"z+	c #574444",
"A+	c #4C2F28",
"B+	c #382D2F",
"C+	c #503E3F",
"D+	c #5D4948",
"E+	c #3D2926",
"F+	c #5A4747",
"G+	c #2F2322",
"H+	c #443636",
"I+	c #4A3A3A",
"J+	c #5E4949",
"K+	c #2A2425",
"L+	c #2C2322",
"M+	c #3C3031",
"N+	c #6D3E34",
"O+	c #272121",
"P+	c #524041",
"Q+	c #4F3E3F",
"R+	c #3E3133",
"S+	c #392F30",
"T+	c #2F2627",
"U+	c #4A2E28",
"V+	c #2A2324",
"W+	c #564443",
"X+	c #443537",
"Y+	c #483839",
"Z+	c #362725",
"`+	c #53322B",
" @	c #634D4C",
".@	c #3B2926",
"+@	c #5B362E",
"@@	c #443536",
"#@	c #352B2B",
"$@	c #633931",
"%@	c #302729",
"&@	c #48393A",
"*@	c #433435",
"=@	c #3B2D2C",
"-@	c #3E2B26",
";@	c #653A31",
">@	c #2B2325",
",@	c #342A2B",
"'@	c #5D4847",
")@	c #604B49",
"!@	c #3C3131",
"~@	c #3B3030",
"{@	c #2E2627",
"]@	c #57332D",
"^@	c #3D2C2A",
"/@	c #392E2F",
"(@	c #2D2627",
"_@	c #2A2527",
":@	c #4E302B",
"<@	c #492D29",
"[@	c #663B32",
"}@	c #4E3029",
"|@	c #4D3029",
"1@	c #462D28",
"2@	c #402B27",
"3@	c #422C27",
"4@	c #482E28",
"            .                                           . . + @ +               ",
"          # $ +               % &                 * = - ; > , ' ) !             ",
"      ~ { ] ^ /             %                 ( _ : < [ } | 1 | 2 3 4 @         ",
"  5 5 6 7 8 9 0 a           %               a b 6 c d e f g h i j k l m n       ",
"  o p q r e s q b           &               { t e e u v g w x y g g j z A       ",
"  o B C D e E F G H                     . I J l e e k g g g g g g g g K L M     ",
"  o N q O g g g P < Q                 R S T U e V E g g g g g g W X g g ] Y     ",
"    Z `  .g g g i ..+..           @.#.0 C 8 e e V E g g g g g g $.%.g g t &.    ",
"    Q *.=.-.g g -.;.>.(       + ,.'.).r e e e e V -.!.g g g g y ~.g g -.{.].    ",
"    + *.^.V E g g i /.(..   _.:.<.[.}.e e e e e v x W g g g |.1.2.g g -.2 3.    ",
"    + >.4.e E g g g 5.0 6.. 7.8.9.s V e e e e e 0.a.b.c.g g d.e.f.g g g T g.    ",
"    + J U e E g g g h.8 i.j.3 3 k.g l.=.e e e e e e m.n.g g g g g g g g o.(     ",
"    + p.U e E g g g h.e q.r.j l.s.t.u.e e e e e e e v.w.x.y.g g g g g w z.A.    ",
"    + >.B.e F C.g D.E.e F.G.H.H.E.e e e e e e e e e e e I.J.a.~.g g K.L.[ M.    ",
"    H N.B.e e O.-.P.e e F.Q.e e e e e e e e e e e e e e e R.S.d.g g T.U.V..     ",
"    ( W.8 e e X.Y.Z.B.`. +.+e e e e e e e e e e e e e e e ++@+h.s.s.#+$+%+.     ",
"    . N.4.e e e e e ^.&+*+e e e e e e e e e e e e e e e e e e e e =+| (         ",
"    -+;+o.| >+>+>+>+,+^.'+e e e e e e e e e e )+h.h.h.h.e e e e e r 8           ",
"        !+~+{+&+&+F.]+e e e e e e e e e e ^+/+i g g g g s s s s (+k.r           ",
"            _+&+i.:+e e e e e e e e e e e V X $.g g g g g g g g g i <+@.        ",
"              [+W.B.e e e e e e e e e e e V X $.g g g g g g g g g i v.}+.       ",
"              &.[ e e e e e e e e e e e e Z.%.R.|.g g g g g g g g g |+1+2+      ",
"            3+4+] e e e e e e e e e e e e e e 5+6+y g g g g g g g g g 7+< .     ",
"        8+( < t e e e e e e e e 9+W $.h.h.H.e 0+f x K.g g g j 0+h.1.g a+p.H     ",
"      b+c+d+o.e e e e e e e e e+f f+g+g g h+P.v.s W K.@+g i Y.i+Y.X g 0+U.j+    ",
"  k+& + l+l 9.e e e e e e e e m+1.y !.g g g -.s n+i+o+p+g q+^+e Y.X g r+3 s+    ",
"    H t+6 B.e e e e e e e e e 5+u+g g g g g g v+w+^+O.s.x+y+u h+z+5+g j 2 j+    ",
"  & A+0 D e e =.B+n+e e e e e 5+u+g g y ~.g g g C+i+e e e i+0+1.D+g g g U.j+    ",
"  % E+0 ^.e e O.-.P.e e e e e 5+u+g $.X F+g g g C+i+e e e R.S.d.g g g w+] %+    ",
"  % G+;+e e Y.i g C.)+e e e e 5+u+g y $.d.g g /+P.n+H+h.e 9+I+J+f.g g y+K+3+    ",
"  % L+q e e g d.g g h.e e e e 5+u+g g g g g g s =.Z.F g M+M+0+5+K.g D.3 q .     ",
"  N+O+} e e 1.%.g g h.e e e e 5+u+g g g g g g s M+i -.g P+P+Q+R+w+g S+T+U+.     ",
"    . >.V+e i W+5+s.X+e e e e 5+u+g g g g g g F )+-.g g g g E Y+Y.v 1+Z+        ",
"      `+W.2 e Y. @O.e e e e e 5+u+g g g g g g g g g g g g g g g D.P .@          ",
"        +@0 } e e e e e e e e e @@X X X F+g g g g g g g g g g g #@A +           ",
"          $@*.V+e 9 [ 2 o.] %@B.@@X X X u+2.R.R.R.R.h C.j &@*@=@-@H             ",
"            ;@l+V+>@q V+q >.[ V+,@'@)@1.1.|+!@~@7+*+o.]+{@t 6 E+]@              ",
"                  . .       3+. . ^@, /@/@'+:+r (@_@[ 0 ].].:@<@[@              ",
"                                    3+}@|@1@2@E+3@4@n                           ",
"                                                                                "};
