/* XPM */
static char * rock2_xpm[] = {
"90 100 18 1",
" 	c None",
".	c #5B2C0C",
"+	c #502A11",
"@	c #402C26",
"#	c #362B2D",
"$	c #544242",
"%	c #644E4D",
"&	c #53403F",
"*	c #5F2D0B",
"=	c #603D2F",
"-	c #4A2D20",
";	c #222222",
">	c #5D2C0C",
",	c #432C24",
"'	c #6C2F06",
")	c #392619",
"!	c #4B2D1F",
"~	c #652E09",
"                                                                                          ",
"                                                                                          ",
"                                                                                          ",
"                                                                                          ",
"                                                                                          ",
"                                                                                          ",
"                                                                                          ",
"                                                                                          ",
"                                                                                          ",
"                                                                                          ",
"                                                                                          ",
"                                                                                          ",
"                                                                                          ",
"            ...++++++++++++++++++....         ...++++++++++++++++++...                    ",
"            ...++++++++++++++++++....         ...++++++++++++++++++...                    ",
"            ...++++++++++++++++++....         ...++++++++++++++++++...                    ",
"         ...@@@###$$$$$$$$$$$$%%%@@@@+++++++++@@@######$$$$$$$$$###@@@...                 ",
"         ...@@@###$$$$$$$$$$$$%%%@@@@+++++++++@@@######$$$$$$$$$###@@@...                 ",
"         ...@@@###$$$$$$$$$$$$%%%@@@@+++++++++@@@######$$$$$$$$$###@@@...                 ",
"      ...@@@$$$$$$$$$$$$$$$$$$$$$%%%%#########$$$$$$$$$$$$$$$$$$$$$$$$@@@...              ",
"      ...@@@$$$$$$$$$$$$$$$$$$$$$%%%%#########$$$$$$$$$$$$$$$$$$$$$$$$@@@...              ",
"      ...@@@$$$$$$$$$$$$$$$$$$$$$%%%%#########$$$$$$$$$$$$$$$$$$$$$$$$@@@...              ",
"      +++$$$$$$$$$%%%$$$$$$$$$$$$$$$$######$$$$$$$$$%%%%%%$$$$$$$$$$$$$$$@@@...           ",
"      +++$$$$$$$$$%%%$$$$$$$$$$$$$$$$######$$$$$$$$$%%%%%%$$$$$$$$$$$$$$$@@@...           ",
"      +++$$$$$$$$$%%%$$$$$$$$$$$$$$$$######$$$$$$$$$%%%%%%$$$$$$$$$$$$$$$@@@...           ",
"      +++$$$$$$$$$$$$$$$%%%$$$$$$$$$$######$$$$$$$$$######%%%$$$%%%###$$$$$$@@@...        ",
"      +++$$$$$$$$$$$$$$$%%%$$$$$$$$$$######$$$$$$$$$######%%%$$$%%%###$$$$$$@@@...        ",
"      +++$$$$$$$$$$$$$$$%%%$$$$$$$$$$######$$$$$$$$$######%%%$$$%%%###$$$$$$@@@...        ",
"      +++$$$%%%$$$$$$$$$$$$$$$$$$%%%%######$$$$$$$$$$$$######%%%###$$$$$$$$$###+++        ",
"      +++$$$%%%$$$$$$$$$$$$$$$$$$%%%%######$$$$$$$$$$$$######%%%###$$$$$$$$$###+++        ",
"      +++$$$%%%$$$$$$$$$$$$$$$$$$%%%%######$$$$$$$$$$$$######%%%###$$$$$$$$$###+++        ",
"      +++###$$$$$$$$$$$$$$$$$$%%%##########$$$$$$$$$$$$$$$#########$$$$$$$$$$$$+++        ",
"      +++###$$$$$$$$$$$$$$$$$$%%%##########$$$$$$$$$$$$$$$#########$$$$$$$$$$$$+++        ",
"      +++###$$$$$$$$$$$$$$$$$$%%%##########$$$$$$$$$$$$$$$#########$$$$$$$$$$$$+++        ",
"      +++######$$$$$$$$$$$$&&&##########$$$$$$$$$$$$$$$%%%######$$$$$$$$$$$$$$$@@@...     ",
"      +++######$$$$$$$$$$$$&&&##########$$$$$$$$$$$$$$$%%%######$$$$$$$$$$$$$$$@@@...     ",
"      +++######$$$$$$$$$$$$&&&##########$$$$$$$$$$$$$$$%%%######$$$$$$$$$$$$$$$@@@...     ",
"      ...@@@######$$$$$$%%%#############$$$$$$$$$$$$%%%############$$$$$$$$$%%%###+++     ",
"      ...@@@######$$$$$$%%%#############$$$$$$$$$$$$%%%############$$$$$$$$$%%%###+++     ",
"      ...@@@######$$$$$$%%%#############$$$$$$$$$$$$%%%############$$$$$$$$$%%%###+++     ",
"         +++############################$$$$$$$$$%%%######$$$$$$######$$$$$$%%%###+++     ",
"         +++############################$$$$$$$$$%%%######$$$$$$######$$$$$$%%%###+++     ",
"         +++############################$$$$$$$$$%%%######$$$$$$######$$$$$$%%%###+++     ",
"         ...@@@############################%%%%%%######$$$$$$$$$$$$$$$$$$$$$%%%###+++     ",
"         ...@@@############################%%%%%%######$$$$$$$$$$$$$$$$$$$$$%%%###+++     ",
"         ...@@@############################%%%%%%######$$$$$$$$$$$$$$$$$$$$$%%%###+++     ",
"            ...@@@##################################$$$$$$$$$$$$$$$$$$$$$$$$%%%###+++     ",
"            ...@@@##################################$$$$$$$$$$$$$$$$$$$$$$$$%%%###+++     ",
"            ...@@@##################################$$$$$$$$$$$$$$$$$$$$$$$$%%%###+++     ",
"               ...@@@###############################$$$$$$$$$%%%$$$$$$$$$%%%%%%###+++     ",
"               ...@@@###############################$$$$$$$$$%%%$$$$$$$$$%%%%%%###+++     ",
"               ...@@@###############################$$$$$$$$$%%%$$$$$$$$$%%%%%%###+++     ",
"         ***      ...@@@###$$$######################%%%$$$$$$$$$$$$$$$$$$%%%%%%@@@...     ",
"         ***      ...@@@###$$$######################%%%$$$$$$$$$$$$$$$$$$%%%%%%@@@...     ",
"         ***      ...@@@###$$$######################%%%$$$$$$$$$$$$$$$$$$%%%%%%@@@...     ",
"         ***      ...@@@###$$$######################%%%$$$$$$$$$$$$$$$$$$%%%%%%@@@...     ",
"      ...===...      +++######$$$######################%%%%%%%%%%%%%%%%%%######+++        ",
"      ...===...      +++######$$$######################%%%%%%%%%%%%%%%%%%######+++        ",
"      ...===...      +++######$$$######################%%%%%%%%%%%%%%%%%%######+++        ",
"      ...@@@---***   ...@@@###$$$##############################################+++        ",
"      ...@@@---***   ...@@@###$$$##############################################+++        ",
"      ...@@@---***   ...@@@###$$$##############################################+++        ",
"         ......         +++;;;;;;;;;;##########################################+++        ",
"         ......         +++;;;;;;;;;;##########################################+++        ",
"         ......         +++;;;;;;;;;;##########################################+++        ",
"                  ...+++@@@##########;;;#######################################+++        ",
"                  ...+++@@@##########;;;#######################################+++        ",
"                  ...+++@@@##########;;;#######################################+++        ",
"            ...+++@@@###$$$$$$$$$#######;;;#####################$$$$$$#########+++        ",
"            ...+++@@@###$$$$$$$$$#######;;;#####################$$$$$$#########+++        ",
"            ...+++@@@###$$$$$$$$$#######;;;#####################$$$$$$#########+++        ",
"         ...@@@###$$$$$$$$$$$$$$$$$$$###;;;;;;###############$$$$$$$$$%%%######+++        ",
"         ...@@@###$$$$$$$$$$$$$$$$$$$###;;;;;;###############$$$$$$$$$%%%######+++        ",
"         ...@@@###$$$$$$$$$$$$$$$$$$$###;;;;;;###############$$$$$$$$$%%%######+++        ",
"      ...@@@###$$$$$$$$$$$$$$$$$$#######;;;;;;>>>,,,############$$$%%%######@@@...        ",
"      ...@@@###$$$$$$$$$$$$$$$$$$#######;;;;;;>>>,,,############$$$%%%######@@@...        ",
"      ...@@@###$$$$$$$$$$$$$$$$$$#######;;;;;;>>>,,,############$$$%%%######@@@...        ",
"      +++#########$$$$$$###################>>>   ''',,,##################@@@...           ",
"      +++#########$$$$$$###################>>>   ''',,,##################@@@...           ",
"      +++#########$$$$$$###################>>>   ''',,,##################@@@...           ",
"      ...@@@###############################>>>      ''',,,############@@@...              ",
"      ...@@@###############################>>>      ''',,,############@@@...              ",
"      ...@@@###############################>>>      ''',,,############@@@...              ",
"         ...)))))))))!!!!!!!!!!!!!!!!!!!)))~~~         ~~~))))))))))))...                 ",
"         ...)))))))))!!!!!!!!!!!!!!!!!!!)))~~~         ~~~))))))))))))...                 ",
"         ...)))))))))!!!!!!!!!!!!!!!!!!!)))~~~         ~~~))))))))))))...                 ",
"                                                                                          ",
"                                                                                          ",
"                                                                                          ",
"                                                                                          ",
"                                                                                          ",
"                                                                                          ",
"                                                                                          ",
"                                                                                          ",
"                                                                                          ",
"                                                                                          ",
"                                                                                          ",
"                                                                                          ",
"                                                                                          ",
"                                                                                          "};
