/* XPM */
static char * rock1_2_xpm[] = {
"40 40 253 2",
"  	c #734136",
". 	c #6F3F35",
"+ 	c #643A31",
"@ 	c #5D372F",
"# 	c #613830",
"$ 	c #683C32",
"% 	c #6B3D33",
"& 	c #5E372F",
"* 	c #56332D",
"= 	c #5B362F",
"- 	c #53322C",
"; 	c #452C28",
"> 	c #442C28",
", 	c #4D2F2B",
"' 	c #55332D",
") 	c #50302B",
"! 	c #3E2A25",
"~ 	c #2A2324",
"{ 	c #272324",
"] 	c #292425",
"^ 	c #2F2728",
"/ 	c #2E2627",
"( 	c #2B2526",
"_ 	c #252123",
": 	c #2C2526",
"< 	c #2D2525",
"[ 	c #362724",
"} 	c #362A29",
"| 	c #34292A",
"1 	c #312728",
"2 	c #3C2F2F",
"3 	c #382D2D",
"4 	c #282222",
"5 	c #252122",
"6 	c #2D2323",
"7 	c #2F2423",
"8 	c #2C2323",
"9 	c #382725",
"0 	c #4E2F2B",
"a 	c #432B28",
"b 	c #2E2525",
"c 	c #312828",
"d 	c #302828",
"e 	c #443636",
"f 	c #473838",
"g 	c #342A2A",
"h 	c #3A2E2E",
"i 	c #493A3A",
"j 	c #392E2E",
"k 	c #372D2D",
"l 	c #322827",
"m 	c #382B29",
"n 	c #403333",
"o 	c #4C3C3C",
"p 	c #4F3E3E",
"q 	c #574544",
"r 	c #5F4B4A",
"s 	c #413434",
"t 	c #302523",
"u 	c #352625",
"v 	c #472D29",
"w 	c #382724",
"x 	c #2A2323",
"y 	c #322929",
"z 	c #463737",
"A 	c #3B2F2F",
"B 	c #3F3232",
"C 	c #3B3030",
"D 	c #3E3232",
"E 	c #48312C",
"F 	c #483939",
"G 	c #503F3F",
"H 	c #644F4E",
"I 	c #282324",
"J 	c #262223",
"K 	c #232022",
"L 	c #242022",
"M 	c #362D2D",
"N 	c #362C2C",
"O 	c #4D3C3C",
"P 	c #473939",
"Q 	c #442F2A",
"R 	c #503E3E",
"S 	c #584544",
"T 	c #564443",
"U 	c #524241",
"V 	c #2A2425",
"W 	c #292324",
"X 	c #2F2828",
"Y 	c #322A2A",
"Z 	c #3D3131",
"` 	c #4E3D3D",
" .	c #453737",
"..	c #312827",
"+.	c #372925",
"@.	c #3B2A28",
"#.	c #4A3A3B",
"$.	c #5C4948",
"%.	c #604C4B",
"&.	c #3D3232",
"*.	c #272224",
"=.	c #262123",
"-.	c #2F2727",
";.	c #312929",
">.	c #352C2C",
",.	c #3C3030",
"'.	c #4A2F27",
").	c #342726",
"!.	c #554342",
"~.	c #514040",
"{.	c #614D4C",
"].	c #5A4747",
"^.	c #2D2627",
"/.	c #382825",
"(.	c #584545",
"_.	c #524040",
":.	c #574444",
"<.	c #3E3131",
"[.	c #4B3B3B",
"}.	c #342826",
"|.	c #513F3F",
"1.	c #4A3B3B",
"2.	c #342B2B",
"3.	c #4D3D3D",
"4.	c #392923",
"5.	c #5B4847",
"6.	c #564444",
"7.	c #2D2626",
"8.	c #2E2727",
"9.	c #463736",
"0.	c #554242",
"a.	c #634E4D",
"b.	c #554343",
"c.	c #594646",
"d.	c #50403F",
"e.	c #483838",
"f.	c #4A3A3A",
"g.	c #433535",
"h.	c #332827",
"i.	c #472D28",
"j.	c #4B3A3A",
"k.	c #342B2C",
"l.	c #4C3B3B",
"m.	c #352B2B",
"n.	c #402B24",
"o.	c #362928",
"p.	c #403434",
"q.	c #3C3131",
"r.	c #392F2F",
"s.	c #332A2A",
"t.	c #372825",
"u.	c #372725",
"v.	c #402A25",
"w.	c #6E3E34",
"x.	c #463838",
"y.	c #423535",
"z.	c #2D2424",
"A.	c #2E2626",
"B.	c #544342",
"C.	c #4B3C3B",
"D.	c #524141",
"E.	c #3F3333",
"F.	c #292424",
"G.	c #624E4D",
"H.	c #2C2626",
"I.	c #534141",
"J.	c #5E4A49",
"K.	c #372C2C",
"L.	c #352624",
"M.	c #5C4848",
"N.	c #5A4746",
"O.	c #413534",
"P.	c #3F3332",
"Q.	c #42302E",
"R.	c #544242",
"S.	c #5D4A49",
"T.	c #242123",
"U.	c #46302C",
"V.	c #423434",
"W.	c #3A2F2F",
"X.	c #544343",
"Y.	c #463837",
"Z.	c #3E3332",
"`.	c #594645",
" +	c #5A4847",
".+	c #524140",
"++	c #2D2727",
"@+	c #262224",
"#+	c #5B352C",
"$+	c #412D29",
"%+	c #433635",
"&+	c #4E3E3E",
"*+	c #584645",
"=+	c #372924",
"-+	c #3A2A27",
";+	c #5D4949",
">+	c #493939",
",+	c #604B4A",
"'+	c #412E29",
")+	c #544241",
"!+	c #554443",
"~+	c #382E2E",
"{+	c #4F3228",
"]+	c #3D3030",
"^+	c #564343",
"/+	c #443737",
"(+	c #493838",
"_+	c #392C2C",
":+	c #51403F",
"<+	c #272223",
"[+	c #342827",
"}+	c #2F2525",
"|+	c #5E362F",
"1+	c #352827",
"2+	c #483837",
"3+	c #382924",
"4+	c #3B2727",
"5+	c #2B2324",
"6+	c #403130",
"7+	c #382C2C",
"8+	c #2C2527",
"9+	c #2F2627",
"0+	c #332929",
"a+	c #302728",
"b+	c #3B2E2D",
"c+	c #443432",
"d+	c #453533",
"e+	c #4A3836",
"f+	c #483635",
"g+	c #4D3937",
"h+	c #503E3C",
"i+	c #523F3E",
"j+	c #392D2C",
"k+	c #4D302A",
"l+	c #262122",
"m+	c #2E2324",
"n+	c #2A2223",
"o+	c #2F2324",
"p+	c #362725",
"q+	c #302424",
"r+	c #322525",
"s+	c #2B2223",
"t+	c #312524",
"u+	c #2C2525",
"v+	c #362C2B",
"w+	c #402B25",
"x+	c #54322C",
"y+	c #5D362F",
"z+	c #643A32",
"A+	c #6B3D34",
"B+	c #2B2323",
"C+	c #2F2524",
"D+	c #6C3D33",
"                                                    .                           ",
"                      .                         . + @ # $ $ $ + + $ $ . .       ",
"        % & * = - ; > , ' ' ) $               ! ~ { { ] ^ / / ( { _ ( : < [     ",
"      } | 1 2 3 4 5 4 6 7 7 8 9 0 '         a b c d d e f g h i g j f k c l     ",
"  & m n o p q r s k d d d d d l t u v $   w x / d y j z f A B i C D i k d d     ",
"  E F p p p p G H F d d d d d d d I J K L J d d d M p j N o f d O P d d d d     ",
"  Q o p p p p R S T U 3 d d d d d V W V ( X d d d Y Z e f ` o  .D n  .N ..+.    ",
"  @.#.p p G R p p $.%.&.Y d d d X *.=.-.d d d d d d ;.i p p p p >.,.` j l '.    ",
"  ).F p !.H q p p p ~.{.].d d / K ^.d d d d d d d M p p p p p p p P d d /.      ",
". ).#.p ~.(._.p p p G :.G d V ] ( -.d d d d d d d Y <.[.p p p p p P d d }.      ",
". ).#.p p p G ~.p p p |.1.^ { J d d d d d d d d d c 2.F 3.p p p p P d d l 4.    ",
". ).#.p p p 5.%.p p ~.r 6.=.7.8.d d d d d d d d d >.[.,.A O p p p P d d d l     ",
"  u 9.` G 0.r a.0.0.b.c.d.*.8.d d d d d d d d d d >.i Z ,.e.[.p f.g.d d c h.    ",
"  $ i.j.!.H H H H H %.k.*.d d d d d d d d d d d d d d i l.m.,.p 2.d d d l n.    ",
"      o.C p.s s s q.r.d 8.d d d d d d d d d d d d d d k 3 ;.s.j ;.d d d t.      ",
"      u.d d d d 8.] J 8.d d d d d d d d d d d d d d d d d d d d d d d l v.      ",
"      /.d d d X K : d d d d d d d d d d d d d d d d d d d d d d d d d 4.        ",
"    w.}.d d d X K : d d d d d d d d d d d d d d d d d d 2.x.y.d d d d           ",
"    '.< ^ d d X K : d d d d d d d d d d d d d d d d d d N o f d d d d           ",
"    z.A.,.B.C.z D.E.d d d d d d d d d d d d d d d d d d Y Z s  .s.8.F.          ",
"  $ V m. .G.:.G G.1.k k >.d d d d d d d d d d d d d d d d d A O 2.H.K           ",
"  , V q 5.I.G p I.].J.J.b.d d d d d d d d d d d d d d d d d y K.c H.K           ",
"  L.k.].M.p p p p N.r r c.O.O.P.d d d d d d d d d d d d d d d d ^.V K           ",
"  Q.$.R.p p p p p p p p b.H H S.d d d d d d d d d d d d d d d d T.K K           ",
"  U.~.G p p V.W.p p p p G X.Y.Z.d e o `. + +.+d d d d d d d ++*.L @+7.#+        ",
"  $+p p p p %+q.[.[.l.&+` [.k ;.M f._.r {.{.*+M W.,.,.s.d -.: _ _ W d =+        ",
"  -+ .p p p ;+G.d d 2.[.>+d d k p p p p p p p p ,+H H s -._ I d d d d d /.      ",
". '+o p p p I.!.>+B.(.n k d e f.p p p p p p p p )+b.b.c.!+2.8.d f y.d +.w.      ",
"  Q o p p p p p p S.%.,.;.>.f o o ` p p p p p p p p p S.$.~+y >.1. .d '.        ",
"  E F p p p p p p S.%.,.j o C m.m.f.p p p p p p p p p ~.` m.A o 3 s.d           ",
"  {+]+` p p p p ^+q 6.s s p n Z /+x.F ` p p p p p p p p l.m.j P Z ~+d           ",
"    i.(+p p p G H F 2.[.p p p I.H O.N o p p p p p p p p l.m.d d 3.P d           ",
"    * _+p p p p ~.` 3.p p p p G ~.` 3.p :+r S.p p p p p l.m.C 3.k s.d           ",
"    . <+Z p p p p p p p p p p p p p p p |.$. +p p p p p l.m.j F s...[+          ",
"      $ }+o p p p p p p p p p p p p p p p p p p p p p p l.m.d d d }.'.          ",
"        |+1+2+p p p p p p p p p p p p p p p p p p p p M.].k d d 3+              ",
"          4+5+6+6+7+8+9+0+a+7+b+c+d+e+f+g+h+i+[.[.[.[.c.`.j+}.t.                ",
"          $ k+l+m+n+L L 5 n+o+p+8 q+r+s+t+< u+( s.s.s.m.v+w+                    ",
"              x+y+z+. . A+$ $ $ $ .   . $ B+C+D+w.w.w.w.                        ",
"                                            +                                   "};
