/* XPM */
static char * rock2_2_xpm[] = {
"40 40 309 2",
"  	c #734136",
". 	c #693C32",
"+ 	c #482E28",
"@ 	c #422C27",
"# 	c #3D2926",
"$ 	c #402B27",
"% 	c #462D28",
"& 	c #4D3029",
"* 	c #4E3029",
"= 	c #6B3D33",
"- 	c #663B32",
"; 	c #492D29",
"> 	c #4E302B",
", 	c #392726",
"' 	c #282223",
") 	c #272224",
"! 	c #2A2527",
"~ 	c #2D2627",
"{ 	c #2F2729",
"] 	c #31282A",
"^ 	c #352B2C",
"/ 	c #392E2F",
"( 	c #392B2A",
"_ 	c #3D2C2A",
": 	c #6F3F35",
"< 	c #57332D",
"[ 	c #2E2525",
"} 	c #2C2526",
"| 	c #2E2627",
"1 	c #2C2627",
"2 	c #2B2526",
"3 	c #322A2B",
"4 	c #392F2F",
"5 	c #3B3030",
"6 	c #3C3131",
"7 	c #423535",
"8 	c #604B4A",
"9 	c #604B49",
"0 	c #5D4847",
"a 	c #342A2B",
"b 	c #2A2324",
"c 	c #262123",
"d 	c #292324",
"e 	c #2B2325",
"f 	c #352625",
"g 	c #653A31",
"h 	c #5E372F",
"i 	c #3E2B26",
"j 	c #3B2D2C",
"k 	c #433435",
"l 	c #48393A",
"m 	c #514040",
"n 	c #4F3E3E",
"o 	c #534241",
"p 	c #594545",
"q 	c #5C4848",
"r 	c #614B4B",
"s 	c #644E4D",
"t 	c #443536",
"u 	c #352A2C",
"v 	c #302729",
"w 	c #2A2426",
"x 	c #282325",
"y 	c #2E2628",
"z 	c #362B2D",
"A 	c #272123",
"B 	c #633931",
"C 	c #683C32",
"D 	c #412B27",
"E 	c #352B2B",
"F 	c #544242",
"G 	c #5A4747",
"H 	c #292325",
"I 	c #5B362E",
"J 	c #3B2926",
"K 	c #3B3031",
"L 	c #4D3D3D",
"M 	c #5B4747",
"N 	c #433536",
"O 	c #634D4C",
"P 	c #4C3C3C",
"Q 	c #242022",
"R 	c #53322B",
"S 	c #362725",
"T 	c #302728",
"U 	c #403334",
"V 	c #483839",
"W 	c #524141",
"X 	c #534141",
"Y 	c #49393A",
"Z 	c #4A3A3B",
"` 	c #443537",
" .	c #4D3C3D",
"..	c #564443",
"+.	c #503F3F",
"@.	c #4A2E28",
"#.	c #2F2627",
"$.	c #392F30",
"%.	c #463838",
"&.	c #3E3133",
"*.	c #4F3E3F",
"=.	c #524041",
"-.	c #3C3031",
";.	c #3F3233",
">.	c #4E3D3E",
",.	c #5D4949",
"'.	c #272121",
").	c #6D3E34",
"!.	c #2C2527",
"~.	c #5A4746",
"{.	c #423435",
"].	c #3C2F31",
"^.	c #372C2E",
"/.	c #564343",
"(.	c #2C2322",
"_.	c #724136",
":.	c #2A2425",
"<.	c #3A2F30",
"[.	c #5C4847",
"}.	c #5E4949",
"|.	c #4A3A3A",
"1.	c #413334",
"2.	c #443636",
"3.	c #372B2D",
"4.	c #3E3132",
"5.	c #453637",
"6.	c #584545",
"7.	c #554343",
"8.	c #282224",
"9.	c #2F2322",
"0.	c #58342D",
"a.	c #624C4C",
"b.	c #392D2F",
"c.	c #503E3F",
"d.	c #32292B",
"e.	c #55332D",
"f.	c #262223",
"g.	c #5D4948",
"h.	c #554342",
"i.	c #382D2F",
"j.	c #2D2628",
"k.	c #4C2F28",
"l.	c #724035",
"m.	c #574444",
"n.	c #524040",
"o.	c #3B2F31",
"p.	c #443637",
"q.	c #382C2E",
"r.	c #4C3C3D",
"s.	c #3E2927",
"t.	c #53322D",
"u.	c #503F40",
"v.	c #413435",
"w.	c #634E4D",
"x.	c #534040",
"y.	c #554242",
"z.	c #5A4646",
"A.	c #352B2D",
"B.	c #2B2426",
"C.	c #713F32",
"D.	c #574544",
"E.	c #5B4746",
"F.	c #382D2E",
"G.	c #5E4A49",
"H.	c #614B4A",
"I.	c #4B3B3B",
"J.	c #403233",
"K.	c #292222",
"L.	c #482D29",
"M.	c #703E31",
"N.	c #242122",
"O.	c #3A2F2F",
"P.	c #5F4A49",
"Q.	c #4B3B3C",
"R.	c #272223",
"S.	c #5B362F",
"T.	c #6E3D30",
"U.	c #614C4B",
"V.	c #2A2223",
"W.	c #342624",
"X.	c #564444",
"Y.	c #442C28",
"Z.	c #2F2626",
"`.	c #3D3032",
" +	c #5C362F",
".+	c #4C2F2A",
"++	c #2F2628",
"@+	c #232022",
"#+	c #222222",
"$+	c #2B2321",
"%+	c #372D2E",
"&+	c #3D3132",
"*+	c #272424",
"=+	c #252222",
"-+	c #312524",
";+	c #51312B",
">+	c #33292B",
",+	c #2A2627",
"'+	c #282425",
")+	c #2B2527",
"!+	c #6D3E33",
"~+	c #30282A",
"{+	c #34292B",
"]+	c #252122",
"^+	c #453330",
"/+	c #2E2729",
"(+	c #513F3F",
"_+	c #2D2728",
":+	c #2B2626",
"<+	c #31292A",
"[+	c #403234",
"}+	c #332524",
"|+	c #382E2F",
"1+	c #282525",
"2+	c #643A32",
"3+	c #362C2C",
"4+	c #594645",
"5+	c #594646",
"6+	c #584544",
"7+	c #473839",
"8+	c #312B2B",
"9+	c #613830",
"0+	c #342B2B",
"a+	c #5D4848",
"b+	c #584645",
"c+	c #624D4C",
"d+	c #3B2E30",
"e+	c #3A2E2F",
"f+	c #3C2F30",
"g+	c #4E3E3E",
"h+	c #302A2A",
"i+	c #262324",
"j+	c #32282A",
"k+	c #53403F",
"l+	c #473737",
"m+	c #252223",
"n+	c #252123",
"o+	c #50302C",
"p+	c #262224",
"q+	c #5F4A4A",
"r+	c #544241",
"s+	c #584444",
"t+	c #3F3133",
"u+	c #2B2425",
"v+	c #382926",
"w+	c #3F2A28",
"x+	c #4A3939",
"y+	c #3E2A27",
"z+	c #382B2C",
"A+	c #34292A",
"B+	c #292224",
"C+	c #2E2424",
"D+	c #54332B",
"E+	c #332624",
"F+	c #2E2727",
"G+	c #2F2728",
"H+	c #2F2524",
"I+	c #2B2323",
"J+	c #53322C",
"K+	c #362C2D",
"L+	c #6A3D33",
"M+	c #2A2325",
"N+	c #382726",
"O+	c #352624",
"P+	c #282324",
"Q+	c #342A2C",
"R+	c #272324",
"S+	c #2D2321",
"T+	c #4F302B",
"U+	c #2C2425",
"V+	c #3E2A26",
"W+	c #302829",
"X+	c #2C2220",
"Y+	c #61382D",
"Z+	c #6A3C33",
"`+	c #2E2526",
" @	c #433535",
".@	c #483939",
"+@	c #332625",
"@@	c #242123",
"#@	c #2F231F",
"$@	c #2E2626",
"%@	c #312625",
"&@	c #292223",
"*@	c #32241E",
"=@	c #362928",
"-@	c #372B2C",
";@	c #372A2B",
">@	c #50312A",
",@	c #312829",
"'@	c #683B30",
")@	c #643A31",
"!@	c #292323",
"~@	c #2F2829",
"{@	c #332525",
"]@	c #3F2A27",
"^@	c #3A2726",
"/@	c #2D2424",
"(@	c #432B27",
"_@	c #44312E",
":@	c #2D2425",
"<@	c #352828",
"[@	c #342727",
"}@	c #482D28",
"|@	c #372725",
"1@	c #402A27",
"2@	c #442C29",
"3@	c #50302B",
"4@	c #55332B",
"                                                                                ",
"                          . + @ # $ % & * =                                     ",
"              - ; > , , ' ) ! ~ { ] ^ / / ( _ : : =       : :                   ",
"              < # [ } | 1 2 3 4 5 6 7 8 8 9 0 a b ) c d b d e b f g             ",
"            h i j k l m n o p p p p q r s s s t u v w 2 x ) y z b A B           ",
"          C D E F F F F F F F F F F F G s s s t z z z z z z z z z H ' I         ",
"          J K L F F F F F F F F F F F F F F F r M z z z z z N O P z x Q R       ",
"        S T U P V W F F F F X Y Z F F F F F F r M z z z z `  .M ..+.z b c :     ",
"    : @.#.$.F %.&.*.=.=.F X +.-.;.F F F F F F r M z z z z >.F F ,.8 z z H '.).  ",
"    : d !.L F ~.M {.-.-.F Z ].^.;.F F F F F F r M z z z z >.F F /.F z z d (._.  ",
"    = :.<.F F [.}.|.1.z >.2.3.4.5.F F /.6.7.F r M z z z z Y n F +.P z z 8.9._.  ",
"    0.w %.F F F /.a.p z z z b.c.F F F G s 6.F r M z z z z z 4.X N z z d.' # _.  ",
"    e.f.F F F g.8 {.b.z z z b.c.F F F h.7.F F r M z z z z z 3.i.^.z z j.' k.l.  ",
"    e.x m F M m.n.o.<.p. .N q.%.r.F F F F F F r M z z z z z z z z z u [ s.h     ",
"    t.!.u.F s P z q.v.F w.x.b.3.;.X F F F y.7.8 z.z z z z z z z z A.B.f C l.C.  ",
"    e.f.{.F s P b.P +.F D.~.E.;.F.4.n.F F G.H.I.J.z z z z z z z z 2 K.L.M.      ",
"    h N.O.F 8 >.{.m F F F ~.P.I.{.z Q.>.>.6.E.1.z z z z z z z z } R.S.T.        ",
"    : R.4 F F F F F F F F F 7.U.M z z z z z z z z z z z z z z w V.=             ",
"      W.T 7 F F F F F F F F F X.p ,.].z z z z z z z z z z z z ) Y.              ",
"      : Z.F.+.F F F F F F F F F 6.s `.z z z z z z z z z z z u Q  +              ",
"        .++++.F F F F F F F F F 6.s `.z z z z z z z z z z z ] @+#+$+            ",
"          { %+&+;.;.;.;.F F F F +.5.q.z z z z z z z z z z 1 *+#+#+=+-+;+        ",
"          >+{ z z z z z >.>.>.>.Y z z z z z z z z z z ^ d.,+'+'+'+'+)+2 8.!+    ",
"        S.)+~+z z z z z z z z z z z z z z z z z z z z 3 #+d.z z z z z {+]+:     ",
"    : 0.^+/+ . .>.D.(+z z z z z z z z z z z z z z z _+:+<+u ].P [+z z >+Q S.    ",
"    : }+f.|+F F /.a.p z z z z z z z z z z z z z z z 1+*+z z 4.X N z z u ]+h     ",
"    2+) 3+~.F F h.4+5+6+z z z z z z z z z z z 7+Q.Q.8+*+z 7+L F n Z z u c C     ",
"    9+0+a+F F F F F b+c+d+F.z z z z z z z e+f+ .g+m h+i+z >.F F F W z j+N.C     ",
"    S.2 F F F F F F F F k+l+z z z z z z ^.g+F %+!.!.m+@+>+>.F F F W z j+n+C     ",
"    o+p+F F F [.q+/.F F r+s+4+t+z z z z z `.;.A.u+v+: w+' x+F F F W z {+c C     ",
"    y+x X F F q 8 X.F F F E.P.U z z z z z z+A+B+C+D+  : E+F++.F F W `.d.A C     ",
"    , G+X F F h.7.F F F F y.X `.z z z z { H+I+J+C       S.c K+X F F X ^.A L+    ",
"    Y.} F F ,.6.F F F F F F W `.z z >+M+' N+.+          : O+P++.F F F Q+R+S+    ",
"    T+w F F s E.F F F F F F W `.z j+p+U+V+                L+R.K F F F W+d X+Y+  ",
"    Z+`+ @F F F F F F F F .@z z B.n++@:                     h @@Z W z j.M+#@Y+  ",
"      D $@m F F 7.P.a+F U o.z z } %@              l.          &@d ;.z { d *@Y+  ",
"      . =@B..@m +.o F I.z -@;@[ &@>@              _.          >@' y >+,@[ '@'@  ",
"        )@!@!.x )+~@)+H ) R.{@]@S.                _.            ^@/@w %@(@      ",
"            _@:@<@( [@}@|@1@2@                l._.              C 3@4@          ",
"              C )@C : :                                           :             "};
