/* XPM */
static char * tears_xpm[] = {
"112 127 5 1",
" 	c None",
".	c #080000",
"+	c #84ABF9",
"@	c #FFFFFF",
"#	c #B9CFFC",
"                                                                                                                ",
"                                                                                                                ",
"                                                                                                                ",
"                                                                                                                ",
"                                                                                                                ",
"                                                                                                                ",
"                                                                                                                ",
"                                                                                                                ",
"                                                                                                                ",
"                                                                                                                ",
"                                                                                                                ",
"                                                                                                                ",
"                                                                                                                ",
"                                                                                                                ",
"                                                                                                                ",
"                                                                                                                ",
"                                                                                                                ",
"                                                                                                                ",
"                                                                                                                ",
"                                                                                                                ",
"                                                                                                                ",
"                                                                                                                ",
"                                                                                                                ",
"                                                                                                                ",
"                                                                                                                ",
"                                                                                                                ",
"                                                                                                                ",
"                                                                                                                ",
"                                                                                                                ",
"                                                                                                                ",
"                                                                                                                ",
"                                                                                                                ",
"                                                                                                                ",
"                                                                                                                ",
"                                                                                                                ",
"                                                                                                                ",
"                                                   ..........                                                   ",
"                                                   ..........                                                   ",
"                                                   ..........                                                   ",
"                                                   ..........                                                   ",
"                                                   ..........                                                   ",
"                                         ..............................                                         ",
"                                         ..............................                                         ",
"                                         ..............................                                         ",
"                                         ..............................                                         ",
"                                         ..............................                                         ",
"                                    ...............++++++++++...............                                    ",
"                                    ...............++++++++++...............                                    ",
"                                    ...............++++++++++...............                                    ",
"                                    ...............++++++++++...............                                    ",
"                                    ...............++++++++++...............                                    ",
"                               ..........+++++@@@@@###############+++++..........                               ",
"                               ..........+++++@@@@@###############+++++..........                               ",
"                               ..........+++++@@@@@###############+++++..........                               ",
"                               ..........+++++@@@@@###############+++++..........                               ",
"                               ..........+++++@@@@@###############+++++..........                               ",
"                               ..........@@@@@@@@@@@@@@@###############..........                               ",
"                               ..........@@@@@@@@@@@@@@@###############..........                               ",
"                               ..........@@@@@@@@@@@@@@@###############..........                               ",
"                               ..........@@@@@@@@@@@@@@@###############..........                               ",
"                               ..........@@@@@@@@@@@@@@@###############..........                               ",
"                          ..........+++++#####@@@@@####################+++++..........                          ",
"                          ..........+++++#####@@@@@####################+++++..........                          ",
"                          ..........+++++#####@@@@@####################+++++..........                          ",
"                          ..........+++++#####@@@@@####################+++++..........                          ",
"                          ..........+++++#####@@@@@####################+++++..........                          ",
"                          ..........+++++##############################+++++..........                          ",
"                          ..........+++++##############################+++++..........                          ",
"                          ..........+++++##############################+++++..........                          ",
"                          ..........+++++##############################+++++..........                          ",
"                          ..........+++++##############################+++++..........                          ",
"                               ..........++++++++++##########@@@@@+++++..........                               ",
"                               ..........++++++++++##########@@@@@+++++..........                               ",
"                               ..........++++++++++##########@@@@@+++++..........                               ",
"                               ..........++++++++++##########@@@@@+++++..........                               ",
"                               ..........++++++++++##########@@@@@+++++..........                               ",
"                               ..........++++++++++++++++++++++++++++++..........                               ",
"                               ..........++++++++++++++++++++++++++++++..........                               ",
"                               ..........++++++++++++++++++++++++++++++..........                               ",
"                               ..........++++++++++++++++++++++++++++++..........                               ",
"                               ..........++++++++++++++++++++++++++++++..........                               ",
"                                    ...............++++++++++...............                                    ",
"                                    ...............++++++++++...............                                    ",
"                                    ...............++++++++++...............                                    ",
"                                    ...............++++++++++...............                                    ",
"                                    ...............++++++++++...............                                    ",
"                                         ..............................                                         ",
"                                         ..............................                                         ",
"                                         ..............................                                         ",
"                                         ..............................                                         ",
"                                         ..............................                                         ",
"                                                   ..........                                                   ",
"                                                   ..........                                                   ",
"                                                   ..........                                                   ",
"                                                   ..........                                                   ",
"                                                   ..........                                                   ",
"                                                                                                                ",
"                                                                                                                ",
"                                                                                                                ",
"                                                                                                                ",
"                                                                                                                ",
"                                                                                                                ",
"                                                                                                                ",
"                                                                                                                ",
"                                                                                                                ",
"                                                                                                                ",
"                                                                                                                ",
"                                                                                                                ",
"                                                                                                                ",
"                                                                                                                ",
"                                                                                                                ",
"                                                                                                                ",
"                                                                                                                ",
"                                                                                                                ",
"                                                                                                                ",
"                                                                                                                ",
"                                                                                                                ",
"                                                                                                                ",
"                                                                                                                ",
"                                                                                                                ",
"                                                                                                                ",
"                                                                                                                ",
"                                                                                                                ",
"                                                                                                                ",
"                                                                                                                ",
"                                                                                                                ",
"                                                                                                                "};
