/* XPM */
static char * TheLostTrapU_xpm[] = {
"40 40 205 2",
"  	c #734136",
". 	c #6E3E33",
"+ 	c #693B31",
"@ 	c #080000",
"# 	c #714035",
"$ 	c #6A3C31",
"% 	c #724136",
"& 	c #23150D",
"* 	c #24160E",
"= 	c #65392F",
"- 	c #22150D",
"; 	c #23150E",
"> 	c #23160E",
", 	c #241710",
"' 	c #24160F",
") 	c #261811",
"! 	c #251711",
"~ 	c #24170F",
"{ 	c #251812",
"] 	c #251811",
"^ 	c #271914",
"/ 	c #22140C",
"( 	c #6F3E34",
"_ 	c #6D5A5A",
": 	c #7F6B6B",
"< 	c #665453",
"[ 	c #261912",
"} 	c #796565",
"| 	c #7D6B6A",
"1 	c #796766",
"2 	c #826F6F",
"3 	c #8F7D7D",
"4 	c #403431",
"5 	c #B7B7B7",
"6 	c #483938",
"7 	c #756363",
"8 	c #5E4F4F",
"9 	c #7B6B6A",
"0 	c #897776",
"a 	c #7D6D6C",
"b 	c #675454",
"c 	c #766565",
"d 	c #6E5C5B",
"e 	c #564746",
"f 	c #625252",
"g 	c #493A3A",
"h 	c #5F504F",
"i 	c #685959",
"j 	c #675858",
"k 	c #665656",
"l 	c #665757",
"m 	c #312421",
"n 	c #FFFFFF",
"o 	c #645454",
"p 	c #5F5050",
"q 	c #7B6868",
"r 	c #867171",
"s 	c #746161",
"t 	c #271A14",
"u 	c #281A14",
"v 	c #483939",
"w 	c #291B15",
"x 	c #2E211D",
"y 	c #281B16",
"z 	c #5A4B4B",
"A 	c #5B4C4C",
"B 	c #685757",
"C 	c #6C5A5A",
"D 	c #5D4E4D",
"E 	c #291C17",
"F 	c #2E201D",
"G 	c #2B1F19",
"H 	c #2B1E1A",
"I 	c #362A27",
"J 	c #453837",
"K 	c #433534",
"L 	c #3A2D2A",
"M 	c #4A3C3B",
"N 	c #413433",
"O 	c #271913",
"P 	c #423534",
"Q 	c #544443",
"R 	c #443634",
"S 	c #4E403F",
"T 	c #655555",
"U 	c #2D211D",
"V 	c #403230",
"W 	c #4A3B39",
"X 	c #413331",
"Y 	c #776464",
"Z 	c #61504F",
"` 	c #5F4E4D",
" .	c #786565",
"..	c #6E5B5B",
"+.	c #826D6D",
"@.	c #836E6E",
"#.	c #715E5E",
"$.	c #857474",
"%.	c #6E5E5D",
"&.	c #887676",
"*.	c #887777",
"=.	c #746564",
"-.	c #6F605F",
";.	c #8A7878",
">.	c #7A6666",
",.	c #716261",
"'.	c #8C7A7A",
").	c #675756",
"!.	c #816E6E",
"~.	c #898989",
"{.	c #907C7C",
"].	c #9E8B8B",
"^.	c #9D8A8A",
"/.	c #9B8888",
"(.	c #988585",
"_.	c #7E6C6C",
":.	c #9C8989",
"<.	c #857070",
"[.	c #846F6F",
"}.	c #948181",
"|.	c #877676",
"1.	c #6A5959",
"2.	c #937F7F",
"3.	c #827171",
"4.	c #917D7D",
"5.	c #705D5C",
"6.	c #B68011",
"7.	c #785123",
"8.	c #504241",
"9.	c #7C6B6B",
"0.	c #816D6D",
"a.	c #775123",
"b.	c #4E403E",
"c.	c #6E5D5D",
"d.	c #938080",
"e.	c #887474",
"f.	c #725F5F",
"g.	c #2D201D",
"h.	c #594A4A",
"i.	c #5E4D4C",
"j.	c #8F7C7C",
"k.	c #9A8787",
"l.	c #847070",
"m.	c #6B5A5A",
"n.	c #816C6C",
"o.	c #766363",
"p.	c #604F4E",
"q.	c #4B3D3C",
"r.	c #625353",
"s.	c #836F6F",
"t.	c #857171",
"u.	c #715F5F",
"v.	c #4C3E3D",
"w.	c #322622",
"x.	c #3F3230",
"y.	c #3D302E",
"z.	c #261913",
"A.	c #483937",
"B.	c #534342",
"C.	c #463836",
"D.	c #493B39",
"E.	c #4A3B3A",
"F.	c #453736",
"G.	c #493A38",
"H.	c #3C2F2D",
"I.	c #332623",
"J.	c #593229",
"K.	c #241610",
"L.	c #5D4C4B",
"M.	c #514140",
"N.	c #30231F",
"O.	c #6B5D5C",
"P.	c #635353",
"Q.	c #675757",
"R.	c #5F4F4E",
"S.	c #574746",
"T.	c #433634",
"U.	c #281A15",
"V.	c #50403F",
"W.	c #685655",
"X.	c #796666",
"Y.	c #695757",
"Z.	c #382C29",
"`.	c #867373",
" +	c #917F7F",
".+	c #7C6969",
"++	c #726060",
"@+	c #5C4D4D",
"#+	c #504242",
"$+	c #2B1E19",
"%+	c #584949",
"&+	c #564847",
"*+	c #574848",
"=+	c #524443",
"-+	c #584A4A",
";+	c #4F4141",
">+	c #514342",
",+	c #22140D",
"'+	c #261812",
")+	c #271B15",
"!+	c #2A1C18",
"~+	c #2A1C17",
"{+	c #704035",
"]+	c #6B3D32",
"^+	c #6F3F34",
"                                                                                ",
"                                                                                ",
"                    . +         @ @ @ @ @ @ @ @           # #               $ % ",
"  & * * = & - ; > * , & > ' @ @ @ @ @ @ @ @ @ @ @ @ ) ! ~ { ! & ] ^ /   & / & ( ",
"/ _ : < [ } | 1 2 3 4 _ @ @ @ @ 5 5 5 5 5 5 5 5 @ @ @ @ 6 7 8 9 0 a / / b c d / ",
"/ e f g ; h i j k l m @ @ @ 5 n n n n n n n n n n 5 @ @ @ o p q r s t u e o v / ",
"  & w x y z 8 8 8 A @ @ 5 n n n n n n n n n n n n n n 5 @ @ 8 B C D E F G H !   ",
"  / I J K L M M M @ @ 5 n n n n n n n n n n n n n n n n 5 @ @ M M N O P Q R /   ",
"  / S T z U V W @ @ 5 n n n n n n n n n n n n n n n n n n 5 @ @ W X H z Y Z /   ",
"  / `  .A U ..+.@ @ n n n n n n n n n n n n n n n n n n n n @ @ @.#.H z Y Z /   ",
"  / `  .A U ..@ @ 5 n n n n n n n n n n n n n n n n n n n n 5 @ @ $.H z Y Z /   ",
"  / %.&.A U ..@ @ n n n n n n n n n n n n n n n n n n n n n n @ @ *.H z Y Z /   ",
"  / =.3 A U @ @ 5 n n n n n n n n n n n n n n n n n n n n n n 5 @ @ H z Y Z /   ",
"  / -.;.A U @ @ 5 n n n n n n n n n n n n n n n n n n n n n n 5 @ @ H z Y Z /   ",
"  / Z >.A U @ @ 5 n n n n n n n n n n n n n n n n n n n n n n 5 @ @ H z Y Z /   ",
"  / ,.'.A U @ @ 5 n n n n n n n n n n n n n n n n n n n n n n 5 @ @ H z Y Z /   ",
"  / ).!.A U @ @ ~.5 n n n n n n n n n n n n n n n n n n n n 5 ~.@ @ H z Y Z /   ",
"  / `  .A U ..@ @ 5 n n n n n n n n n n n n n n n n n n n n 5 @ @ *.H z Y Z /   ",
"  / `  .A U ..@ @ ~.5 n n n n n n n n n n n n n n n n n n 5 ~.@ @ *.H z Y Z /   ",
"  / `  .A U ..{.@ @ 5 n n n n n n n n n n n n n n n n n n 5 @ @ ].*.H z Y Z /   ",
"  / `  .A U ..{.@ @ ~.5 n n n n n n n n n n n n n n n n 5 ~.@ @ ].*.H z Y Z /   ",
"  / `  .A U ..{.].@ @ ~.5 n n n n n n n n n n n n n n 5 ~.@ @ ].].*.H z Y Z /   ",
"  / `  .A U ..{.].^.@ @ ~.5 5 n n n n n n n n n n 5 5 ~.@ @ /.].(._.H z Y Z /   ",
"  / `  .A U ..{.].:.<.@ @ @ ~.5 5 n n n n n n 5 5 ~.@ @ @ [./.].}.Y H z Y Z /   ",
"  / `  .A U ..{.].:.<.@ @ @ @ @ ~.5 5 5 5 5 5 ~.@ @ @ @ @ @ /.].^.|.H z Y Z /   ",
"  / `  .A U ..{.].:.<.1.@ @ @ @ @ @ @ @ @ @ @ @ @ @ @ 5 @ @ /.].2.s H z Y Z /   ",
"  / `  .A U ..{.].:.<.1.3.@ @ @ @ @ @ @ @ @ @ @ @ @ @ @ @ [./.].4.5.H z Y Z /   ",
"  / `  .A U ..{.].:.<.1.3.@ @ 5 n n n 5 @ @ 6.7.8.9.0.@ 1.[./.].4.5.H z Y Z /   ",
"  / `  .A U ..{.].:.<.1.@ @ 5 n n n n n @ @ a.b.c.d.e.f.1.[./.].4.5.g.h.Y Z /   ",
"  / i.Y A U ..j.^.k.l.1.@ @ 5 n n n n n 5 @ @ m.n.n.n.f.1.[.k.^.{.5.g.h.o.p./   ",
"  / q.r.A U ..s.r t.+.1.u.@ @ 5 n n n n n 5 @ @ n.n.n.f.1.n.t.r s.5.H z f v./   ",
"  / w.x.y.z.A.B.B.B.B.C.D.B.@ @ 5 n n n n n 5 @ B.B.B.E.F.B.B.B.B.G.{ H.x.I./   ",
"J.K.L.M.N.O.P.Q.,.-.R.L.L.L.L.@ @ @ 5 n n n n @ @ L.L.L.L.L.L.L.L.S.T.U.V.L.*   ",
"/ W.X.Y.Z.;.!.`. +3 .+X.X.X.X.X.@ @ @ @ 5 n 5 @ @ X.X.X.X.X.X.X.X.++A U W.X.X / ",
"/ 8.@+#+$+%+@+@+@+@+@+@+@+@+@+@+@+@+@ @ @ 5 5 @ %+&+*+z @+@+@+@+=+@+-+x ;+@+>+/ ",
"  & & ! ,+' ' '+' * ; ~ z.z.z.t ) )+) @ @ 5 @ @ O U.] ^ ) , K.; ' ' '+!+' '+~+  ",
"          # {+]+^+    . .             @ 5 5 @                 . .               ",
"                                      @ 5 @ @                                   ",
"                                      @ @ @                                     ",
"                                        @                                       "};
