/* XPM */
static char * TheLostTrapR_xpm[] = {
"40 40 197 2",
"  	c #734136",
". 	c #6E3E33",
"+ 	c #693B31",
"@ 	c #080000",
"# 	c #714035",
"$ 	c #6A3C31",
"% 	c #724136",
"& 	c #23150D",
"* 	c #24160E",
"= 	c #65392F",
"- 	c #22150D",
"; 	c #23150E",
"> 	c #23160E",
", 	c #241710",
"' 	c #24160F",
") 	c #261811",
"! 	c #251711",
"~ 	c #24170F",
"{ 	c #251812",
"] 	c #251811",
"^ 	c #271914",
"/ 	c #22140C",
"( 	c #6F3E34",
"_ 	c #6D5A5A",
": 	c #7F6B6B",
"< 	c #665453",
"[ 	c #261912",
"} 	c #796565",
"| 	c #7D6B6A",
"1 	c #796766",
"2 	c #826F6F",
"3 	c #8F7D7D",
"4 	c #403431",
"5 	c #B7B7B7",
"6 	c #483938",
"7 	c #756363",
"8 	c #5E4F4F",
"9 	c #7B6B6A",
"0 	c #897776",
"a 	c #7D6D6C",
"b 	c #675454",
"c 	c #766565",
"d 	c #6E5C5B",
"e 	c #564746",
"f 	c #625252",
"g 	c #493A3A",
"h 	c #5F504F",
"i 	c #685959",
"j 	c #675858",
"k 	c #665656",
"l 	c #665757",
"m 	c #312421",
"n 	c #FFFFFF",
"o 	c #645454",
"p 	c #5F5050",
"q 	c #7B6868",
"r 	c #867171",
"s 	c #746161",
"t 	c #271A14",
"u 	c #281A14",
"v 	c #483939",
"w 	c #291B15",
"x 	c #2E211D",
"y 	c #281B16",
"z 	c #5A4B4B",
"A 	c #5B4C4C",
"B 	c #685757",
"C 	c #6C5A5A",
"D 	c #5D4E4D",
"E 	c #291C17",
"F 	c #2E201D",
"G 	c #2B1F19",
"H 	c #2B1E1A",
"I 	c #362A27",
"J 	c #453837",
"K 	c #433534",
"L 	c #3A2D2A",
"M 	c #4A3C3B",
"N 	c #413433",
"O 	c #271913",
"P 	c #423534",
"Q 	c #544443",
"R 	c #443634",
"S 	c #4E403F",
"T 	c #655555",
"U 	c #2D211D",
"V 	c #403230",
"W 	c #4A3B39",
"X 	c #413331",
"Y 	c #776464",
"Z 	c #61504F",
"` 	c #5F4E4D",
" .	c #786565",
"..	c #6E5B5B",
"+.	c #826D6D",
"@.	c #836E6E",
"#.	c #715E5E",
"$.	c #857474",
"%.	c #6E5E5D",
"&.	c #887676",
"*.	c #887777",
"=.	c #746564",
"-.	c #6F605F",
";.	c #8A7878",
">.	c #7A6666",
",.	c #716261",
"'.	c #8C7A7A",
").	c #675756",
"!.	c #816E6E",
"~.	c #898989",
"{.	c #9CC8CC",
"].	c #907C7C",
"^.	c #9CC8CD",
"/.	c #9E8B8B",
"(.	c #9D8A8A",
"_.	c #988585",
":.	c #7E6C6C",
"<.	c #9C8989",
"[.	c #857070",
"}.	c #67979C",
"|.	c #9B8888",
"1.	c #948181",
"2.	c #6A5959",
"3.	c #846F6F",
"4.	c #877676",
"5.	c #806F6F",
"6.	c #725F5F",
"7.	c #937F7F",
"8.	c #917D7D",
"9.	c #705D5C",
"0.	c #2D201D",
"a.	c #594A4A",
"b.	c #5E4D4C",
"c.	c #8F7C7C",
"d.	c #9A8787",
"e.	c #847070",
"f.	c #382A27",
"g.	c #766363",
"h.	c #604F4E",
"i.	c #4B3D3C",
"j.	c #625353",
"k.	c #836F6F",
"l.	c #857171",
"m.	c #715F5F",
"n.	c #816C6C",
"o.	c #4C3E3D",
"p.	c #322622",
"q.	c #3F3230",
"r.	c #3D302E",
"s.	c #261913",
"t.	c #483937",
"u.	c #534342",
"v.	c #463836",
"w.	c #493B39",
"x.	c #4A3B3A",
"y.	c #453736",
"z.	c #493A38",
"A.	c #3C2F2D",
"B.	c #332623",
"C.	c #593229",
"D.	c #241610",
"E.	c #5D4C4B",
"F.	c #514140",
"G.	c #30231F",
"H.	c #6B5D5C",
"I.	c #635353",
"J.	c #675757",
"K.	c #5F4F4E",
"L.	c #574746",
"M.	c #433634",
"N.	c #281A15",
"O.	c #50403F",
"P.	c #685655",
"Q.	c #796666",
"R.	c #695757",
"S.	c #382C29",
"T.	c #867373",
"U.	c #917F7F",
"V.	c #7C6969",
"W.	c #726060",
"X.	c #504241",
"Y.	c #5C4D4D",
"Z.	c #504242",
"`.	c #2B1E19",
" +	c #584949",
".+	c #574848",
"++	c #524443",
"@+	c #584A4A",
"#+	c #4F4141",
"$+	c #514342",
"%+	c #22140D",
"&+	c #261812",
"*+	c #2A1C18",
"=+	c #2A1C17",
"-+	c #704035",
";+	c #6B3D32",
">+	c #6F3F34",
"                                                                                ",
"                                                                                ",
"                    . +         @ @ @ @ @ @ @ @           # #               $ % ",
"  & * * = & - ; > * , & > ' @ @ @ @ @ @ @ @ @ @ @ @ ) ! ~ { ! & ] ^ /   & / & ( ",
"/ _ : < [ } | 1 2 3 4 _ @ @ @ @ 5 5 5 5 5 5 5 5 @ @ @ @ 6 7 8 9 0 a / / b c d / ",
"/ e f g ; h i j k l m @ @ @ 5 n n n n n n n n n n 5 @ @ @ o p q r s t u e o v / ",
"  & w x y z 8 8 8 A @ @ 5 n n n n n n n n n n n n n n 5 @ @ 8 B C D E F G H !   ",
"  / I J K L M M M @ @ 5 n n n n n n n n n n n n n n n n 5 @ @ M M N O P Q R /   ",
"  / S T z U V W @ @ 5 n n n n n n n n n n n n n n n n n n 5 @ @ W X H z Y Z /   ",
"  / `  .A U ..+.@ @ n n n n n n n n n n n n n n n n n n n n @ @ @.#.H z Y Z /   ",
"  / `  .A U ..@ @ 5 n n n n n n n n n n n n n n n n n n n n 5 @ @ $.H z Y Z /   ",
"  / %.&.A U ..@ @ n n n n n n n n n n n n n n n n n n n n n n @ @ *.H z Y Z /   ",
"  / =.3 A U @ @ 5 n n n n n n n n n n n 5 @ @ @ @ 5 n n n n n 5 @ @ H z Y Z /   ",
"  / -.;.A U @ @ 5 n n n n n n n n n n n @ n n @ @ @ n n n n n 5 @ @ H z Y Z /   ",
"  / Z >.A U @ @ 5 n n n n n n n n n n n @ n n @ @ @ n n n n n 5 @ @ H z Y Z /   ",
"  / ,.'.A U @ @ 5 n n n n n n n n n n n @ @ @ @ @ @ n n n 5 @ @ @ @ H z Y Z /   ",
"  / ).!.A U @ @ ~.5 n n n n n n n n n n @ @ @ @ @ @ n n 5 @ @ @ @ @ H z Y Z /   ",
"  / `  .A U ..@ @ 5 n n n n n n n n n n 5 @ @ @ @ 5 n n @ n n n @ @ H z Y Z /   ",
"  / `  .A U ..@ @ ~.5 n n n n n n n n n n {.{.{.{.n n n @ @ @ @ @ @ H z Y Z /   ",
"  / `  .A U ..].@ @ 5 n n n n n n n n n n {.^.^.^.n n n 5 5 5 @ @ *.H z Y Z /   ",
"  / `  .A U ..].@ @ ~.5 n n n n n n n n n {.{.^.^.n n n n 5 ~.@ @ *.H z Y Z /   ",
"  / `  .A U ..]./.@ @ ~.5 n n n n n n n n {.^.^.^.n n n 5 ~.@ @ /.*.H z Y Z /   ",
"  / `  .A U ..]./.(.@ @ ~.5 5 n n n n n n ^.^.^.^.n n 5 ~.@ @ /._.:.H z Y Z /   ",
"  / `  .A U ..]./.<.[.@ @ @ ~.5 n n n n n ^.^.^.}.5 ~.@ @ @ |./.1.Y H z Y Z /   ",
"  / `  .A U ..]./.<.[.2.@ @ @ @ ~.5 5 5 5 }.}.}.@ @ @ @ @ 3.|./.(.4.H z Y Z /   ",
"  / `  .A U ..]./.<.[.2.5.@ @ @ @ @ @ @ @ @ @ @ @ @ @ 6.2.3.|./.7.s H z Y Z /   ",
"  / `  .A U ..]./.<.[.2.@ @ 5 n @ @ @ @ @ @ @ @ 5 @ @ 6.2.3.|./.8.9.H z Y Z /   ",
"  / `  .A U ..]./.<.[.2.@ @ n n n @ @ @ @ 5 n n n 5 @ @ 2.3.|./.8.9.H z Y Z /   ",
"  / `  .A U ..]./.<.[.2.@ @ n n n 5 @ @ @ 5 n n n n 5 @ @ 3.|./.8.9.0.a.Y Z /   ",
"  / b.Y A U ..c.(.d.e.2.@ @ 5 @ @ @ @ f.@ @ @ @ @ @ 5 @ @ 3.d.(.].9.0.a.g.h./   ",
"  / i.j.A U ..k.r l.+.2.m.@ @ @ @ @ @ @ @ @ @ @ @ @ @ @ 2.n.l.r k.9.H z f o./   ",
"  / p.q.r.s.t.u.u.u.u.v.w.u.@ @ @ @ @ @ @ @ @ u.u.@ @ x.y.u.u.u.u.z.{ A.q.B./   ",
"C.D.E.F.G.H.I.J.,.-.K.E.E.E.@ @ 5 n n n n 5 @ @ E.E.E.E.E.E.E.E.E.L.M.N.O.E.*   ",
"/ P.Q.R.S.;.!.T.U.3 V.Q.Q.Q.@ @ 5 n n n n n 5 @ @ Q.Q.Q.Q.Q.Q.Q.Q.W.A U P.Q.X / ",
"/ X.Y.Z.`. +Y.Y.Y.Y.Y.Y.Y.Y.Y.@ @ 5 n n n n n 5 @ @ .+z Y.Y.Y.Y.++Y.@+x #+Y.$+/ ",
"  & & ! %+' ' &+' * ; ~ s.s.s.t @ @ @ 5 n n n 5 @ @ ] ^ ) , D.; ' ' &+*+' &+=+  ",
"          # -+;+>+    . .         @ @ @ @ n 5 @ @             . .               ",
"                                    @ @ @ 5 @ @                                 ",
"                                        @ @ @                                   ",
"                                          @                                     "};
