/* XPM */
static char * TheLostFloorL_xpm[] = {
"40 40 19 1",
" 	c #734136",
".	c #080000",
"+	c #B7B7B7",
"@	c #FFFFFF",
"#	c #724136",
"$	c #898989",
"%	c #9CC8CC",
"&	c #9CC8CD",
"*	c #67979C",
"=	c #704035",
"-	c #6C3F34",
";	c #6D4035",
">	c #714035",
",	c #714136",
"'	c #6E4035",
")	c #6F4035",
"!	c #6C4034",
"~	c #6D4034",
"{	c #734236",
"                                        ",
"                                        ",
"                ........                ",
"              ............              ",
"            ....++++++++....            ",
"           ...+@@@@@@@@@@+...           ",
"          ..+@@@@@@@@@@@@@@+..          ",
"         ..+@@@@@@@@@@@@@@@@+..         ",
"        ..+@@@@@@@@@@@@@@@@@@+..        ",
"        ..@@@@@@@@@@@@@@@@@@@@..        ",
"       ..+@@@@@@@@@@@@@@@@@@@@+..       ",
"       ..@@@@@@@@@@@@@@@@@@@@@@..       ",
"      ..+@@@@@+....+@@@@@@@@@@@+..      ",
"      ..+@@@@@...@@.@@@@@@@@@@@+..      ",
"     #..+@@@@@...@@.@@@@@@@@@@@+..      ",
"      ....+@@@......@@@@@@@@@@@+..      ",
"      .....+@@......@@@@@@@@@@+$..      ",
"      ..@@@.@@+....+@@@@@@@@@@+..       ",
"      ......@@@%%%%@@@@@@@@@@+$..       ",
"       ..+++@@@&&&%@@@@@@@@@@+..        ",
"       ..$+@@@@&&%%@@@@@@@@@+$..        ",
"        ..$+@@@&&&%@@@@@@@@+$..         ",
"         ..$+@@&&&&@@@@@@++$..          ",
"     ##   ...$+*&&&@@@@@+$...           ",
"    =-;    .....***++++$....            ",
"    #>,      ..............             ",
"        =',  ..+........@+..            ",
"        ,)# ..+@@@+....@@@..            ",
"           ..+@@@@+...+@@@..>==#,#      ",
"           ..+...... ....+..'!~#=#      ",
"            ...............             ",
"             ..  .........              ",
"                ..+@@@@+..              ",
"               ..+@@@@@+..              ",
"              ..+@@@@@+..               ",
"              ..+@@@+...                ",
"               ..+@....                 ",
"                ..+...                  ",
"                 ...                    ",
"                 {.                     "};
