/* XPM */
static char * TheLostDeath1_xpm[] = {
"38 37 29 1",
" 	c None",
".	c #000000",
"+	c #C7B299",
"@	c #0A810E",
"#	c #1EB12A",
"$	c #34DC33",
"%	c #67979B",
"&	c #67979C",
"*	c #68989C",
"=	c #68B2B4",
"-	c #837F7F",
";	c #878482",
">	c #898989",
",	c #9ACCCD",
"'	c #9CC8CC",
")	c #9CC8CD",
"!	c #9DC9CD",
"~	c #AEE2E3",
"{	c #B7B7B7",
"]	c #B9C3B3",
"^	c #CAC5C2",
"/	c #D3D1D1",
"(	c #D9F9D9",
"_	c #EBFCEB",
":	c #F9F9F9",
"<	c #FFFFFF",
"[	c #000000",
"}	c #C7B299",
"|	c #080000",
"               ||||||||               ",
"             ||||||||||||             ",
"           ||||{{{{{{{{||||           ",
"          |||{<<<<<<<<<<{|||          ",
"         ||{<<<<{<<<<{<<<<{||         ",
"        ||{<<<<{><<<<>{<<<<{||        ",
"       ||{{{{>>>{<<<<{>>>{{{{||       ",
"       ||>||||{{<<<<<<{{||||>||       ",
"      ||{|<<|||<<<<<<<<|<<|||{||      ",
"      ||<|<<|||<<<<<<<<|<<|||<||      ",
"     ||{<||||||<{||||{<||||||<{||     ",
"     ||{<||||||<|<<<<|<||||||<{||     ",
"     ||{<{'''{{<|-||-|<{{'''{<{||     ",
"     ||{{{'''<<<||||||<<<'''{{{||     ",
"     ||>{{'''<<<||||||<<<))){{>||     ",
"      ||||||'<<<||||||<<<)||||||      ",
"      |||||||{<<||<<||<<{|||||||      ",
"     |||{<{|||<<{||||{<<|||{<{|||     ",
"     ||{<<<{||<<<<<<<<<<||{<<<{||     ",
"     ||<<<<<||<<<<{{<<<<||<<<<<||     ",
"     ||{<<<<||<<<<<<<<<<||<<<<{||     ",
"     ||>{<<{||{<<<<<<<<{||{<<{>||     ",
"      ||>{{>>||>{{{{{{>||>>{{>||      ",
"       ||>>>>||||||||||||>>>>||       ",
"        |||>>||||||||||||>>|||        ",
"         ||||||<<<|||  ||||||         ",
"           |||<<<<<{|||||||           ",
"           ||{<<<<<<<{|||             ",
"            ||{<<<<<<<<{||            ",
"             ||||||||||{||            ",
"              |||||||||||             ",
"                ||||   |              ",
"               ||{{||                 ",
"                ||<{||                ",
"                ||{||                 ",
"                 |||                  ",
"                  |                   "};
