/* XPM */
static char * TheLostDeath3_xpm[] = {
"40 40 13 1",
" 	c #734136",
".	c #080000",
"+	c #571717",
"@	c #792020",
"#	c #B7B7B7",
"$	c #724136",
"%	c #380F0F",
"&	c #FFFFFF",
"*	c #68B2B4",
"=	c #9ACCCD",
"-	c #898989",
";	c #992424",
">	c #734236",
"                                        ",
"                                        ",
"                                        ",
"                                        ",
"                ........                ",
"             .............              ",
"            ....++@@@@++....            ",
"           ..@@@@@.@@@@@++...           ",
"          ..@@...+@.@@@@.+@..           ",
"         ..++.....@.+++..@...           ",
"        ..+@......@++@........          ",
"        ..@+.....@@.............        ",
"       ..+@.....@......####......       ",
"      $..%@....@....#&&#.#&&&#....      ",
"     $..+.@...@...#&&&*##.#&&&&#...     ",
"      ..+.@..@@..#&&&==.##.&&&&&#..     ",
"      ..+.@..@..#&&&&==..&#&&&&&&#..    ",
"      ..+%......&&&&===..&&&&&&&&&...   ",
"      ..%......#&&&&==*..&&&&&&&&&#..   ",
"       ...#&&..&&&&&==&..&&&&&&&&&&..   ",
"       ..#&&&..&&&&&*=&.#&&&&&&&&&&#..  ",
"     . ..&&&..#&&&&&...#&&&&&&&&&&&#..  ",
"   ......&&&..#&&&&&.&..#&&&&&&&&&&&..  ",
"  ...#...&&&..#&&&&&.&...&&&&&&&&&&&..  ",
" ..#&#...#&#..#&&&&&.&...&&&&&&&&&&&..  ",
"  ..#....###..-#&&&&.&...&&&&&&&&&&&..  ",
"   ... ..##...-#&&&&.&..#&&&&&&&&&&#..  ",
"    .  ..##. ..###&&...##&&&&&&&&##..   ",
"       ..#.. ..-#######--#&&&&&###-..   ",
"      ..##.. ...#######..#########...   ",
"       .... ....-#####=..#-.#####-..    ",
"        .. ..@;..-###==.-#.-####-..     ",
"           ..@;...-#===.-.-####-...     ",
"           ..@;.....===*-####-....      ",
"            ....;......==#-......       ",
"             ...;;;............         ",
"              ...;;.........            ",
"               ..........               ",
"                ...  ...                ",
"                 >>                     "};
