/* XPM */
static char * TheLostJump2_1_xpm[] = {
"40 40 226 2",
"  	c #734136",
". 	c #080000",
"+ 	c #6E3E33",
"@ 	c #693B31",
"# 	c #714035",
"$ 	c #6A3C31",
"% 	c #724136",
"& 	c #23150D",
"* 	c #24160E",
"= 	c #65392F",
"- 	c #22150D",
"; 	c #23150E",
"> 	c #23160E",
", 	c #241710",
"' 	c #B7B7B7",
") 	c #24170F",
"! 	c #251812",
"~ 	c #251711",
"{ 	c #251811",
"] 	c #271914",
"^ 	c #22140C",
"/ 	c #6F3E34",
"( 	c #6D5A5A",
"_ 	c #7F6B6B",
": 	c #665453",
"< 	c #261912",
"[ 	c #796565",
"} 	c #7D6B6A",
"| 	c #796766",
"1 	c #826F6F",
"2 	c #8F7D7D",
"3 	c #403431",
"4 	c #FFFFFF",
"5 	c #756363",
"6 	c #5E4F4F",
"7 	c #7B6B6A",
"8 	c #897776",
"9 	c #7D6D6C",
"0 	c #675454",
"a 	c #766565",
"b 	c #6E5C5B",
"c 	c #564746",
"d 	c #625252",
"e 	c #493A3A",
"f 	c #5F504F",
"g 	c #685959",
"h 	c #675858",
"i 	c #665656",
"j 	c #665757",
"k 	c #5F5050",
"l 	c #7B6868",
"m 	c #867171",
"n 	c #746161",
"o 	c #271A14",
"p 	c #281A14",
"q 	c #645454",
"r 	c #483939",
"s 	c #291B15",
"t 	c #2E211D",
"u 	c #281B16",
"v 	c #5A4B4B",
"w 	c #685757",
"x 	c #6C5A5A",
"y 	c #5D4E4D",
"z 	c #291C17",
"A 	c #2E201D",
"B 	c #2B1F19",
"C 	c #2B1E1A",
"D 	c #281B15",
"E 	c #2D201C",
"F 	c #332724",
"G 	c #564847",
"H 	c #3B2E2C",
"I 	c #24160F",
"J 	c #392C2A",
"K 	c #574948",
"L 	c #352825",
"M 	c #342723",
"N 	c #2E211C",
"O 	c #453836",
"P 	c #5A4C4C",
"Q 	c #332623",
"R 	c #2E201B",
"S 	c #2F211C",
"T 	c #322521",
"U 	c #564848",
"V 	c #736060",
"W 	c #5E4D4C",
"X 	c #5A4948",
"Y 	c #6B5958",
"Z 	c #3A2D2B",
"` 	c #805513",
" .	c #825613",
"..	c #3A2D2A",
"+.	c #715E5D",
"@.	c #625050",
"#.	c #604F4E",
"$.	c #6F5C5C",
"%.	c #B99655",
"&.	c #BC9856",
"*.	c #6E5B5B",
"=.	c #675756",
"-.	c #786565",
";.	c #756565",
">.	c #897877",
",.	c #8E7C7C",
"'.	c #574848",
").	c #766363",
"!.	c #61504F",
"~.	c #7A6666",
"{.	c #5B4C4C",
"].	c #2D211D",
"^.	c #776464",
"/.	c #716261",
"(.	c #8C7A7A",
"_.	c #898989",
":.	c #816E6E",
"<.	c #261A15",
"[.	c #5F4E4D",
"}.	c #120B09",
"|.	c #120B08",
"1.	c #211714",
"2.	c #9CC8CC",
"3.	c #221815",
"4.	c #120D0C",
"5.	c #9CC8CD",
"6.	c #060607",
"7.	c #191210",
"8.	c #68989C",
"9.	c #9DC9CD",
"0.	c #67979C",
"a.	c #1A1310",
"b.	c #150F0D",
"c.	c #4F3918",
"d.	c #67979B",
"e.	c #563E18",
"f.	c #160F0E",
"g.	c #0E0A0A",
"h.	c #2D201B",
"i.	c #2E201C",
"j.	c #100B0B",
"k.	c #946211",
"l.	c #966310",
"m.	c #090708",
"n.	c #18110F",
"o.	c #5A3B16",
"p.	c #5B3C16",
"q.	c #090808",
"r.	c #281C18",
"s.	c #3C2719",
"t.	c #3C2718",
"u.	c #281D18",
"v.	c #2C1F1B",
"w.	c #342B28",
"x.	c #352C29",
"y.	c #221814",
"z.	c #1F1613",
"A.	c #2D211B",
"B.	c #201714",
"C.	c #0A0809",
"D.	c #1C1411",
"E.	c #1D1412",
"F.	c #0B0809",
"G.	c #2D201D",
"H.	c #594A4A",
"I.	c #4B3D3C",
"J.	c #625353",
"K.	c #4C3E3D",
"L.	c #322622",
"M.	c #3F3230",
"N.	c #3D302E",
"O.	c #261913",
"P.	c #483937",
"Q.	c #534342",
"R.	c #463836",
"S.	c #493B39",
"T.	c #4A3B3A",
"U.	c #453736",
"V.	c #493A38",
"W.	c #3C2F2D",
"X.	c #593229",
"Y.	c #241610",
"Z.	c #5D4C4B",
"`.	c #514140",
" +	c #30231F",
".+	c #6B5D5C",
"++	c #635353",
"@+	c #675757",
"#+	c #6F605F",
"$+	c #5F4F4E",
"%+	c #635352",
"&+	c #574746",
"*+	c #433634",
"=+	c #281A15",
"-+	c #50403F",
";+	c #685655",
">+	c #796666",
",+	c #695757",
"'+	c #382C29",
")+	c #8A7878",
"!+	c #867373",
"~+	c #917F7F",
"{+	c #7C6969",
"]+	c #726060",
"^+	c #413331",
"/+	c #504241",
"(+	c #5C4D4D",
"_+	c #504242",
":+	c #2B1E19",
"<+	c #584949",
"[+	c #4E423F",
"}+	c #564747",
"|+	c #4F4141",
"1+	c #524443",
"2+	c #584A4A",
"3+	c #514342",
"4+	c #22140D",
"5+	c #261812",
"6+	c #261811",
"7+	c #271B15",
"8+	c #271913",
"9+	c #2A1C18",
"0+	c #2A1C17",
"a+	c #704035",
"b+	c #6B3D32",
"c+	c #6F3F34",
"                                                                                ",
"                                . . . . . . . .                                 ",
"                    + @     . . . . . . . . . . . .       # #               $ % ",
"  & * * = & - ; > * , & . . . . ' ' ' ' ' ' ' ' . . . . ) ! ~ & { ] ^   & ^ & / ",
"^ ( _ : < [ } | 1 2 3 . . . ' 4 4 4 4 4 4 4 4 4 4 ' . . . 5 6 7 8 9 ^ ^ 0 a b ^ ",
"^ c d e ; f g h i j . . ' 4 4 4 4 4 4 4 4 4 4 4 4 4 4 ' . . k l m n o p c q r ^ ",
"  & s t u v 6 6 6 . . ' 4 4 4 4 4 4 4 4 4 4 4 4 4 4 4 4 ' . . w x y z A B C ~   ",
"  ^ D E F G H I . . ' 4 4 4 4 4 4 4 4 4 4 4 4 4 4 4 4 4 4 ' . . I J K L M N ^   ",
"  ^ O P K Q R S . . 4 4 4 4 4 4 4 4 4 4 4 4 4 4 4 4 4 4 4 4 . . S R T U V W ^   ",
"  ^ X Y Z N ` . . ' 4 4 4 4 4 4 4 4 4 4 4 4 4 4 4 4 4 4 4 4 ' . .  .R ..+.@.^   ",
"  ^ #.$.* S %.. . 4 4 4 4 4 4 4 4 4 4 4 4 4 4 4 4 4 4 4 4 4 4 . . &.S I *.@.^   ",
"  ^ =.-.* S . . ' 4 4 4 4 4 4 4 4 4 4 4 4 4 4 4 4 4 4 4 4 4 4 ' . . S I *.@.^   ",
"  ^ ;.>.E S . . ' 4 ' . . . . ' 4 4 4 4 4 4 4 4 ' . . . . ' 4 ' . . S E $.@.^   ",
"  ^ ;.,.'.E . . ' 4 . 4 4 . . . 4 4 4 4 4 4 4 4 . 4 4 . . . 4 ' . . C G ).@.^   ",
"  ^ !.~.{.].. . ' ' . 4 4 . . . 4 4 4 4 4 4 4 4 . 4 4 . . . ' ' . . C v ^.!.^   ",
"  ^ /.(.{.].. . _.' . . . . . . 4 4 . . . . 4 4 . . . . . . ' _.. . C v ^.!.^   ",
"  ^ =.:.{.].<.. . ' . . . . . . 4 . . . . . . 4 . . . . . . ' . . <.C v ^.!.^   ",
"  ^ [.-.{.].}.. . _.' . . . . ' 4 . 4 4 4 4 . 4 ' . . . . ' _.. . |.C v ^.!.^   ",
"  ^ [.-.{.].}.1.. . ' 2.2.2.' 4 4 . . . . . . 4 4 ' 2.2.2.' . . 3.|.C v ^.!.^   ",
"  ^ [.-.{.].}.4.. . _.5.5.5.4 4 4 4 4 4 4 4 4 4 4 4 5.5.5._.. . 4.|.C v ^.!.^   ",
"  ^ [.-.{.].}.6.7.. . 8.2.9.4 . . . 4 4 4 4 . . . 4 2.5.0.. . a.6.|.C v ^.!.^   ",
"  ^ [.-.{.].}.6.b.c.. . 0.2.. . . . . ' ' . . . . . 2.d.. . e.f.6.|.C v ^.!.^   ",
"  ^ [.-.{.].}.6.6.g.h.. . . . ' 4 ' . . . . ' 4 ' . . . . i.j.6.6.|.C v ^.!.^   ",
"  ^ [.-.{.].}.6.6.g.h.k.. . ' 4 4 4 ' . . ' 4 4 4 ' . . l.i.j.6.6.|.C v ^.!.^   ",
"  ^ [.-.{.].}.6.6.m.n.o.. . _.' ' ' _.. . _.' ' ' _.. . p.n.q.6.6.|.C v ^.!.^   ",
"  ^ [.-.{.].}.6.6.6.6.r.s.. . _.' _.. . . . _.' _.. . t.u.6.6.6.6.|.C v ^.!.^   ",
"  ^ [.-.{.].}.6.6.6.6.1.v.w.. . . . . . . . . . . . x.v.y.6.6.6.6.|.C v ^.!.^   ",
"  ^ [.-.{.].}.6.6.6.6.6.z.h.A.. . . 4 4 4 4 . . . A.h.B.6.6.6.6.6.|.C v ^.!.^   ",
"  ^ [.-.{.].}.6.6.6.6.6.C.D.i.b.. . ' 4 4 4 4 ' . . E.F.6.6.6.6.6.|.G.H.^.!.^   ",
"  ^ W ^.{.].}.6.6.6.6.6.6.g.n.q.6.. . . . . . ' . . g.6.6.6.6.6.6.|.G.H.).#.^   ",
"  ^ I.J.{.].}.6.6.6.6.6.6.6.6.6.6.6.. . . . . . . 6.6.6.6.6.6.6.6.|.C v d K.^   ",
"  ^ L.M.N.O.P.Q.Q.Q.Q.R.S.Q.Q.Q.Q.Q.Q.Q.Q.Q.Q.. Q.Q.Q.T.U.Q.Q.Q.Q.V.! W.M.Q ^   ",
"X.Y.Z.`. +.+++@+/.#+$+Z.Z.Z.Z.Z.Z.Z.%+/./.++Z.Z.Z.Z.Z.Z.Z.Z.Z.Z.Z.&+*+=+-+Z.*   ",
"^ ;+>+,+'+)+:.!+~+2 {+>+>+>+>+>+>+>+:.~+~+:.>+>+>+>+>+>+>+>+>+>+>+]+{.].;+>+^+^ ",
"^ /+(+_+:+<+(+(+(+(+(+(+(+(+(+(+(+(+v [+}+|+G v <+G '.v (+(+(+(+1+(+2+t |+(+3+^ ",
"  & & ~ 4+I I 5+I * ; ) O.O.O.o 6+7+6+Y.> > I ; 8+=+{ ] 6+, Y.; I I 5+9+I 5+0+  ",
"          # a+b+c+    + +                 +                   + +               ",
"                                                                                ",
"                                                                                ",
"                                                                                "};
