/* XPM */
static char * TheLostDeath1_xpm[] = {
"40 40 24 1",
" 	c #734136",
".	c #080000",
"+	c #B7B7B7",
"@	c #FFFFFF",
"#	c #898989",
"$	c #9CC8CC",
"%	c #837F7F",
"&	c #724136",
"*	c #9CC8CD",
"=	c #704035",
"-	c #6C3F34",
";	c #6D4035",
">	c #714035",
",	c #714136",
"'	c #6E4035",
")	c #571717",
"!	c #380F0F",
"~	c #6F4035",
"{	c #714135",
"]	c #6C4034",
"^	c #6D4034",
"/	c #792020",
"(	c #992424",
"_	c #734236",
"                                        ",
"                ........                ",
"              ............              ",
"            ....++++++++....            ",
"           ...+@@@@@@@@@@+...           ",
"          ..+@@@@+@@@@+@@@@+..          ",
"         ..+@@@@+#@@@@#+@@@@+..         ",
"        ..++++###+@@@@+###++++..        ",
"        ..#....++@@@@@@++....#..        ",
"       ..+.@@...@@@@@@@@.@@...+..       ",
"       ..@.@@...@@@@@@@@.@@...@..       ",
"      ..+@......@+....+@......@+..      ",
"      ..+@......@.@@@@.@......@+..      ",
"      ..+@+$$$++@.%..%.@++$$$+@+..      ",
"     &..+++$$$@@@......@@@$$$+++..      ",
"      ..#++$$$@@@......@@@***++#..      ",
"      .......$@@@......@@@*.......      ",
"      ........+@@..@@..@@+........      ",
"      ...+@+...@@+....+@@...+@+...      ",
"      ..+@@@+..@@@@@@@@@@..+@@@+..      ",
"      ..@@@@@..@@@@++@@@@..@@@@@..      ",
"      ..+@@@@..@@@@@@@@@@..@@@@+..      ",
"      ..#+@@+..+@@@@@@@@+..+@@+#..      ",
"     &&..#++##..#++++++#..##++#..       ",
"    =-; ..####............####..        ",
"    &>,  ...##............##...         ",
"        ='......@@@...)!......          ",
"        ,~& ...@@@@@+.......            ",
"            ..+@@@@@@@+...~{>==&,&      ",
"             ..+@@@@@@@@+..~']^&=&      ",
"            ............+...            ",
"           ../(.........../..           ",
"           ../(./....((/.(/..           ",
"           ../(...++..((.(/..           ",
"            ....(..@+..(....            ",
"             ...(..+..((...             ",
"              ...(.../(...              ",
"               ..........               ",
"                ...  ...                ",
"                 __                     "};
