/* XPM */
static char * trapdoor_open_xpm[] = {
"40 40 376 2",
"  	c #734136",
". 	c #22140C",
"+ 	c #645251",
"@ 	c #705D5C",
"# 	c #645252",
"$ 	c #342723",
"% 	c #6C5959",
"& 	c #817070",
"* 	c #7D6B6B",
"= 	c #776565",
"- 	c #837272",
"; 	c #392D2A",
"> 	c #604F4E",
", 	c #7C6B6A",
"' 	c #827070",
") 	c #725F5F",
"! 	c #867574",
"~ 	c #887777",
"{ 	c #554544",
"] 	c #443533",
"^ 	c #6D5B5A",
"/ 	c #564747",
"( 	c #7A6A6A",
"_ 	c #766766",
": 	c #635251",
"< 	c #655352",
"[ 	c #615050",
"} 	c #715F5F",
"| 	c #625150",
"1 	c #30231F",
"2 	c #6C5A5A",
"3 	c #7D6C6C",
"4 	c #7A6969",
"5 	c #766565",
"6 	c #7D6D6C",
"7 	c #372B28",
"8 	c #7A6868",
"9 	c #7E6C6C",
"0 	c #736060",
"a 	c #827171",
"b 	c #564645",
"c 	c #443635",
"d 	c #6F5D5D",
"e 	c #605151",
"f 	c #837171",
"g 	c #907C7C",
"h 	c #60504F",
"i 	c #625251",
"j 	c #493C3B",
"k 	c #514342",
"l 	c #473A38",
"m 	c #2C1F1B",
"n 	c #5A4B4B",
"o 	c #554747",
"p 	c #4E403F",
"q 	c #2A1D18",
"r 	c #463938",
"s 	c #3F3230",
"t 	c #342825",
"u 	c #524444",
"v 	c #5D4E4E",
"w 	c #695857",
"x 	c #6E5B5B",
"y 	c #3B2E2C",
"z 	c #261913",
"A 	c #463937",
"B 	c #4A3C3B",
"C 	c #281B15",
"D 	c #2D201C",
"E 	c #332724",
"F 	c #564847",
"G 	c #24160F",
"H 	c #24160E",
"I 	c #2A1D19",
"J 	c #3B2F2C",
"K 	c #392C2A",
"L 	c #574948",
"M 	c #352825",
"N 	c #2E211C",
"O 	c #453836",
"P 	c #5A4C4C",
"Q 	c #332623",
"R 	c #2E201B",
"S 	c #2F211C",
"T 	c #4E4040",
"U 	c #4F4140",
"V 	c #31241F",
"W 	c #322521",
"X 	c #564848",
"Y 	c #5E4D4C",
"Z 	c #5A4948",
"` 	c #6B5958",
" .	c #3A2D2B",
"..	c #805513",
"+.	c #BA9755",
"@.	c #D7B264",
"#.	c #CC9516",
"$.	c #573D19",
"%.	c #372A27",
"&.	c #392F2D",
"*.	c #372F2E",
"=.	c #503819",
"-.	c #CA9316",
";.	c #D7B263",
">.	c #BB9857",
",.	c #825613",
"'.	c #3A2D2A",
").	c #715E5D",
"!.	c #625050",
"~.	c #6F5C5C",
"{.	c #B99655",
"].	c #E9BC63",
"^.	c #F7C254",
"/.	c #ECAD13",
"(.	c #63471C",
"_.	c #271913",
":.	c #1B120D",
"<.	c #100F0E",
"[.	c #1A110D",
"}.	c #271912",
"|.	c #5B411C",
"1.	c #EAAB14",
"2.	c #F7C253",
"3.	c #E9BD63",
"4.	c #BC9856",
"5.	c #675756",
"6.	c #786565",
"7.	c #D6B974",
"8.	c #F8C864",
"9.	c #EDAD1B",
"0.	c #CB9629",
"a.	c #5B462D",
"b.	c #322B29",
"c.	c #2B2826",
"d.	c #262626",
"e.	c #55422D",
"f.	c #C99529",
"g.	c #ECAD1B",
"h.	c #F8C762",
"i.	c #D9BC76",
"j.	c #756565",
"k.	c #897877",
"l.	c #CCB06E",
"m.	c #F2C464",
"n.	c #D6A138",
"o.	c #464646",
"p.	c #585858",
"q.	c #5A5A5A",
"r.	c #595959",
"s.	c #474747",
"t.	c #D39F38",
"u.	c #F2C463",
"v.	c #CFB370",
"w.	c #8E7C7C",
"x.	c #574848",
"y.	c #53442C",
"z.	c #C0A464",
"A.	c #D9BA74",
"B.	c #565656",
"C.	c #A9A9A9",
"D.	c #B1B1B1",
"E.	c #ABABAB",
"F.	c #D6B873",
"G.	c #C3A766",
"H.	c #54452C",
"I.	c #2B1E1A",
"J.	c #766363",
"K.	c #675655",
"L.	c #7F6C6C",
"M.	c #5A4C4B",
"N.	c #2C1E19",
"O.	c #BCB4A8",
"P.	c #DCD4C6",
"Q.	c #4D4D4D",
"R.	c #7F7F7F",
"S.	c #848484",
"T.	c #808080",
"U.	c #4F4F4F",
"V.	c #D9D2C4",
"W.	c #BFB8AB",
"X.	c #2C1F19",
"Y.	c #2B1E19",
"Z.	c #594B4B",
"`.	c #776464",
" +	c #6B5B5A",
".+	c #847272",
"++	c #BAA389",
"@+	c #E0C3A2",
"#+	c #825E35",
"$+	c #5C5753",
"%+	c #5B5653",
"&+	c #815E36",
"*+	c #DEC1A0",
"=+	c #BDA68C",
"-+	c #6F5F5F",
";+	c #887676",
">+	c #261A15",
",+	c #9C7117",
"'+	c #CF9513",
")+	c #C18714",
"!+	c #7E5D36",
"~+	c #584739",
"{+	c #453E3A",
"]+	c #3D3B3A",
"^+	c #393939",
"/+	c #443E3A",
"(+	c #574739",
"_+	c #7C5B37",
":+	c #BF8616",
"<+	c #9F7317",
"[+	c #120B09",
"}+	c #211714",
"|+	c #936A1A",
"1+	c #F0AF11",
"2+	c #B67B09",
"3+	c #7F5204",
"4+	c #4F3313",
"5+	c #281C18",
"6+	c #060607",
"7+	c #4E3213",
"8+	c #7E5104",
"9+	c #B47909",
"0+	c #EFAE11",
"a+	c #976E1A",
"b+	c #221815",
"c+	c #120B08",
"d+	c #A86F08",
"e+	c #7E5314",
"f+	c #7C5215",
"g+	c #120D0C",
"h+	c #563D13",
"i+	c #966B19",
"j+	c #AA710B",
"k+	c #865F30",
"l+	c #5C4A3A",
"m+	c #3D3B3B",
"n+	c #5B493A",
"o+	c #855E31",
"p+	c #AA710A",
"q+	c #966C19",
"r+	c #593F14",
"s+	c #191210",
"t+	c #543B1C",
"u+	c #CB9110",
"v+	c #886739",
"w+	c #4E4E4E",
"x+	c #84653A",
"y+	c #CE920F",
"z+	c #5A3F1C",
"A+	c #1A1310",
"B+	c #150F0D",
"C+	c #4F3918",
"D+	c #C99216",
"E+	c #987031",
"F+	c #67584C",
"G+	c #5C5C5C",
"H+	c #67594D",
"I+	c #966E32",
"J+	c #CB9416",
"K+	c #563E18",
"L+	c #160F0E",
"M+	c #0E0A0A",
"N+	c #2D201B",
"O+	c #946211",
"P+	c #865E2D",
"Q+	c #464340",
"R+	c #464240",
"S+	c #434241",
"T+	c #414141",
"U+	c #404040",
"V+	c #434141",
"W+	c #845D2E",
"X+	c #966310",
"Y+	c #2E201C",
"Z+	c #100B0B",
"`+	c #8A5B0E",
" @	c #543612",
".@	c #513514",
"+@	c #372921",
"@@	c #211B1A",
"#@	c #141415",
"$@	c #201B1A",
"%@	c #362822",
"&@	c #513415",
"*@	c #88590E",
"=@	c #090708",
"-@	c #18110F",
";@	c #5A3B16",
">@	c #603E10",
",@	c #553402",
"'@	c #523305",
")@	c #36241B",
"!@	c #1A1210",
"~@	c #34241B",
"{@	c #523206",
"]@	c #603D0F",
"^@	c #5B3C16",
"/@	c #090808",
"(@	c #3C2719",
"_@	c #48311E",
":@	c #4C3C30",
"<@	c #3D3734",
"[@	c #343232",
"}@	c #303030",
"|@	c #4B3C30",
"1@	c #48321F",
"2@	c #3C2718",
"3@	c #281D18",
"4@	c #342B28",
"5@	c #3E3C3B",
"6@	c #3F3C3B",
"7@	c #3B3A3A",
"8@	c #352C29",
"9@	c #221814",
"0@	c #1F1613",
"a@	c #2D211B",
"b@	c #19110F",
"c@	c #201714",
"d@	c #0A0809",
"e@	c #1C1411",
"f@	c #130E0D",
"g@	c #1D1412",
"h@	c #0B0809",
"i@	c #080708",
"j@	c #6C5B5B",
"k@	c #564746",
"l@	c #514343",
"m@	c #4E4140",
"n@	c #180E0A",
"o@	c #281B16",
"p@	c #403331",
"q@	c #352724",
"r@	c #362825",
"s@	c #31231F",
"t@	c #261812",
"u@	c #3C302D",
"v@	c #382B28",
"w@	c #3E3230",
"x@	c #3E312F",
"y@	c #372926",
"z@	c #392C29",
"A@	c #332622",
"B@	c #2C1F1A",
"C@	c #23160E",
"D@	c #352824",
"E@	c #7B6767",
"F@	c #6A5858",
"G@	c #907E7E",
"H@	c #857171",
"I@	c #8A7777",
"J@	c #978585",
"K@	c #958282",
"L@	c #7F6B6B",
"M@	c #847170",
"N@	c #695756",
"O@	c #6C5A59",
"P@	c #5B4C4B",
"Q@	c #6A5959",
"R@	c #5C4C4C",
"S@	c #322522",
"T@	c #706161",
"U@	c #6E5D5D",
"V@	c #706060",
"W@	c #766666",
"X@	c #6B5A5A",
"Y@	c #675656",
"Z@	c #5B4C4C",
"`@	c #2E211D",
" #	c #5B4B4A",
".#	c #5C4D4C",
"+#	c #433534",
"@#	c #483A39",
"##	c #271A14",
"$#	c #453736",
"%#	c #453837",
"&#	c #433634",
"                                                                                ",
"                                                                                ",
"                                                                                ",
"  . . .   . . . . . . . . . . . . . . . . . . . . . . . . . . . . . .   . . .   ",
". + @ # $ % & * = - ; > , ' ) ! ~ * @ @ @ @ @ @ @ @ @ { ] ^ / ( ~ _ . . : @ < . ",
". [ } | 1 2 3 4 5 6 7 [ 8 9 0 & a 4 } } } } } } } } } b c d e f g * . . h } i . ",
". j k l m n o k k p q r k k k k k k k k k k k k k k k s t u v w x : y z A k B . ",
"  . C D E F y G G H . q D D D D D D D D D D D D D D D D I q F J G K L M $ N .   ",
"  . O P L Q R S S R H T P P P P P P P P P P P P P P P P U G $ V S R W X 0 Y .   ",
"  . Z `  .N ..+.@.#.$.%.&.*.*.*.*.*.*.*.*.*.*.*.*.*.*.&.7 =.-.;.>.,.R '.).!..   ",
"  . > ~.H S {.].^./.(._.:.<.<.<.<.<.<.<.<.<.<.<.<.<.<.[.}.|.1.2.3.4.S G x !..   ",
"  . 5.6.H S 7.8.9.0.a.b.c.d.d.d.d.d.d.d.d.d.d.d.d.d.d.c.b.e.f.g.h.i.S G x !..   ",
"  . j.k.D S l.m.n.o.p.q.q.q.q.q.q.q.q.q.q.q.q.q.q.q.q.q.q.r.s.t.u.v.S D ~.!..   ",
"  . j.w.x.D y.z.A.B.C.D.D.D.D.D.D.D.D.D.D.D.D.D.D.D.D.D.D.E.q.F.G.H.I.F J.!..   ",
"  . K.L.M.D N.O.P.Q.R.S.S.S.S.S.S.S.S.S.S.S.S.S.S.S.S.S.S.T.U.V.W.X.Y.Z.`.!..   ",
"  .  +.+M.D N.++@+#+$+B.B.B.B.B.B.B.B.B.B.B.B.B.B.B.B.B.B.%+&+*+=+X.Y.Z.`.!..   ",
"  . -+;+M.D >+,+'+)+!+~+{+]+^+^+^+^+^+^+^+^+^+^+^+^+]+/+(+_+:+'+<+>+Y.Z.`.!..   ",
"  . > 6.M.D [+}+|+1+2+3+4+5+6+6+6+6+6+6+6+6+6+6+6+6+5+7+8+9+0+a+b+c+Y.Z.`.!..   ",
"  . > 6.M.D [+}+|+1+2+d+e+5+6+6+6+6+6+6+6+6+6+6+6+6+5+f+d+9+0+a+b+c+Y.Z.`.!..   ",
"  . > 6.M.D [+g+h+i+j+k+l+m+^+^+^+^+^+^+^+^+^+^+^+^+m+n+o+p+q+r+g+c+Y.Z.`.!..   ",
"  . > 6.M.D [+6+s+t+u+v+Q.B.B.B.B.B.B.B.B.B.B.B.B.B.B.w+x+y+z+A+6+c+Y.Z.`.!..   ",
"  . > 6.M.D [+6+B+C+D+E+F+G+G+G+G+G+G+G+G+G+G+G+G+G+G+H+I+J+K+L+6+c+Y.Z.`.!..   ",
"  . > 6.M.D [+6+6+M+N+O+P+Q+R+S+T+U+U+U+U+U+U+T+V+R+Q+W+X+Y+Z+6+6+c+Y.Z.`.!..   ",
"  . > 6.M.D [+6+6+M+N+O+`+ @.@+@@@#@#@#@#@#@#@$@%@&@ @*@X+Y+Z+6+6+c+Y.Z.`.!..   ",
"  . > 6.M.D [+6+6+=@-@;@>@,@'@)@!@6+6+6+6+6+6+s+~@{@,@]@^@-@/@6+6+c+Y.Z.`.!..   ",
"  . > 6.M.D [+6+6+6+6+5+(@_@:@<@[@}@}@}@}@}@}@[@<@|@1@2@3@6+6+6+6+c+Y.Z.`.!..   ",
"  . > 6.M.D [+6+6+6+6+}+m 4@5@6@7@^+^+^+^+^+^+7@6@5@8@m 9@6+6+6+6+c+Y.Z.`.!..   ",
"  . > 6.M.D [+6+6+6+6+6+0@N+a@N+b@6+6+6+6+6+6+-@N+a@N+c@6+6+6+6+6+c+Y.Z.`.!..   ",
"  . > 6.M.D [+6+6+6+6+6+d@e@Y+B+=@6+6+6+6+6+6+=@f@N+g@h@6+6+6+6+6+c+Y.Z.`.!..   ",
"  . > 6.M.D [+6+6+6+6+6+6+M+-@/@6+6+6+6+6+6+6+6+i@-@M+6+6+6+6+6+6+c+Y.Z.`.!..   ",
"  . { j@M.D [+6+6+6+6+6+6+6+6+6+6+6+6+6+6+6+6+6+6+6+6+6+6+6+6+6+6+c+Y.Z.2 k@.   ",
"  . s l@m@q n@[+[+[+[+[+[+[+[+[+[+[+[+[+[+[+[+[+[+[+[+[+[+[+[+[+[+n@o@p l@p@.   ",
"  q@r@s@t@u@v@ .w@x@y@r@r@r@r@r@r@r@v@w@w@z@r@r@r@r@r@r@r@r@r@r@r@A@B@C@1 r@D@  ",
". ` E@F@J G@H@I@J@K@L@E@E@E@E@E@E@E@M@J@J@H@E@E@E@E@E@E@E@E@E@E@E@0 x.D N@E@O@. ",
". P@Q@R@S@T@U@V@W@j.X@Q@Q@Q@Q@Q@Q@Q@U@W@W@U@Q@Q@Q@Q@Q@Q@Q@Q@Q@Q@Q@Y@Z@`@ #Q@.#. ",
"  +#@#s ##$#@#@#@#@#@#@#@#@#@#@#@#@#@#@#@#@#@#@#@#@#@#@#@#@#@#@#@#@#%#o@w@@#&#  ",
"    . . . . . . . . . . . . . . . . . . . . . . . . . . . . . . . . . . . . .   ",
"                                                                                ",
"                                                                                ",
"                                                                                "};
