/* XPM */
static char * trapdoor_closed_xpm[] = {
"40 40 318 2",
"  	c #734136",
". 	c #473836",
"+ 	c #4A3B39",
"@ 	c #493A38",
"# 	c #544745",
"$ 	c #524442",
"% 	c #4E403F",
"& 	c #554847",
"* 	c #2C201B",
"= 	c #403230",
"- 	c #514442",
"; 	c #554746",
"> 	c #4B3D3B",
", 	c #574A48",
"' 	c #594B4A",
") 	c #3A2C2A",
"! 	c #312420",
"~ 	c #483A38",
"{ 	c #3B2E2C",
"] 	c #504342",
"^ 	c #4E413F",
"/ 	c #22140C",
"( 	c #6D5A5A",
"_ 	c #7F6B6B",
": 	c #6E5C5B",
"< 	c #332622",
"[ 	c #796565",
"} 	c #938080",
"| 	c #8F7B7B",
"1 	c #887474",
"2 	c #958383",
"3 	c #403431",
"4 	c #8E7A7A",
"5 	c #948181",
"6 	c #826E6E",
"7 	c #988686",
"8 	c #9B8989",
"9 	c #604F4E",
"0 	c #4C3D3C",
"a 	c #7D6969",
"b 	c #625353",
"c 	c #8D7B7B",
"d 	c #9D8A8A",
"e 	c #877676",
"f 	c #564746",
"g 	c #645454",
"h 	c #574848",
"i 	c #2D201B",
"j 	c #5F504F",
"k 	c #685959",
"l 	c #675858",
"m 	c #665656",
"n 	c #665757",
"o 	c #312421",
"p 	c #675757",
"q 	c #695959",
"r 	c #655555",
"s 	c #6A5A5A",
"t 	c #6A5B5B",
"u 	c #4C3E3D",
"v 	c #3E312F",
"w 	c #5F5050",
"x 	c #7B6868",
"y 	c #867171",
"z 	c #746161",
"A 	c #3C2F2D",
"B 	c #3F3230",
"C 	c #382B29",
"D 	c #2B1E1A",
"E 	c #5A4B4B",
"F 	c #5E4F4F",
"G 	c #5B4C4C",
"H 	c #2D211D",
"I 	c #372B28",
"J 	c #332623",
"K 	c #685757",
"L 	c #6C5A5A",
"M 	c #5D4E4D",
"N 	c #362A27",
"O 	c #453837",
"P 	c #463837",
"Q 	c #493C3B",
"R 	c #4A3C3B",
"S 	c #5B4A49",
"T 	c #5D4C4B",
"U 	c #524342",
"V 	c #4D3E3D",
"W 	c #574746",
"X 	c #4A3D3C",
"Y 	c #6D5E5D",
"Z 	c #635353",
"` 	c #483B39",
" .	c #564645",
"..	c #473938",
"+.	c #413433",
"@.	c #271913",
"#.	c #423534",
"$.	c #473937",
"%.	c #5E504F",
"&.	c #857171",
"*.	c #897575",
"=.	c #776565",
"-.	c #6A5959",
";.	c #826D6D",
">.	c #786565",
",.	c #907C7C",
"'.	c #877272",
").	c #7F6A6A",
"!.	c #6B5A5A",
"~.	c #7A6666",
"{.	c #725F5F",
"].	c #594A49",
"^.	c #413331",
"/.	c #776464",
"(.	c #61504F",
"_.	c #5F4E4D",
":.	c #6E5B5B",
"<.	c #8B7777",
"[.	c #9E8B8B",
"}.	c #847373",
"|.	c #846F6F",
"1.	c #9B8888",
"2.	c #917D7D",
"3.	c #968282",
"4.	c #836E6E",
"5.	c #816C6C",
"6.	c #715E5E",
"7.	c #937F7F",
"8.	c #8C7878",
"9.	c #9A8787",
"0.	c #8A7575",
"a.	c #836F6F",
"b.	c #988484",
"c.	c #857474",
"d.	c #6E5E5D",
"e.	c #887676",
"f.	c #9A8686",
"g.	c #887777",
"h.	c #746564",
"i.	c #8F7D7D",
"j.	c #7C6A6A",
"k.	c #6F605F",
"l.	c #8A7878",
"m.	c #6D5C5C",
"n.	c #9C8989",
"o.	c #7F6C6C",
"p.	c #756565",
"q.	c #978585",
"r.	c #716261",
"s.	c #8C7A7A",
"t.	c #978484",
"u.	c #675756",
"v.	c #816E6E",
"w.	c #7E6C6C",
"x.	c #715F5F",
"y.	c #837070",
"z.	c #756262",
"A.	c #6D5B5B",
"B.	c #917E7E",
"C.	c #776767",
"D.	c #8A7676",
"E.	c #988585",
"F.	c #877474",
"G.	c #645352",
"H.	c #504241",
"I.	c #816F6F",
"J.	c #998686",
"K.	c #7B675A",
"L.	c #8D784C",
"M.	c #7C685A",
"N.	c #867373",
"O.	c #62504F",
"P.	c #947E4E",
"Q.	c #FAD785",
"R.	c #998250",
"S.	c #897474",
"T.	c #3B2D29",
"U.	c #926D27",
"V.	c #F7BA39",
"W.	c #977128",
"X.	c #3A2C29",
"Y.	c #9C8888",
"Z.	c #847070",
"`.	c #B69D66",
" +	c #9E8755",
".+	c #795419",
"++	c #CA8D0C",
"@+	c #7D5719",
"#+	c #986E1A",
"$+	c #B5852A",
"%+	c #877473",
"&+	c #998585",
"*+	c #6E5D5D",
"=+	c #716161",
"-+	c #705D55",
";+	c #AD955F",
">+	c #D0AC65",
",+	c #A5874D",
"'+	c #54381B",
")+	c #865914",
"!+	c #573A1A",
"~+	c #A07217",
"{+	c #CE9312",
"]+	c #AB7D22",
"^+	c #725A4F",
"/+	c #857070",
"(+	c #715E5D",
"_+	c #5D4B2E",
":+	c #EDC671",
"<+	c #BD9246",
"[+	c #775123",
"}+	c #765024",
"|+	c #B37C10",
"1+	c #DDA011",
"2+	c #5F441C",
"3+	c #6F5C5C",
"4+	c #726060",
"5+	c #5C411C",
"6+	c #E7A813",
"7+	c #9C711A",
"8+	c #56443A",
"9+	c #5D4E4E",
"0+	c #605151",
"a+	c #56443B",
"b+	c #744F18",
"c+	c #A56E0B",
"d+	c #4C331B",
"e+	c #806F6F",
"f+	c #867574",
"g+	c #4B331C",
"h+	c #B0780D",
"i+	c #D99D11",
"j+	c #AE7F20",
"k+	c #544443",
"l+	c #625252",
"m+	c #AB7D20",
"n+	c #D79B11",
"o+	c #827171",
"p+	c #8D7C7B",
"q+	c #554440",
"r+	c #6D4920",
"s+	c #B47D10",
"t+	c #CDA251",
"u+	c #B89F67",
"v+	c #554544",
"w+	c #B18123",
"x+	c #CC9212",
"y+	c #B67E10",
"z+	c #6E491E",
"A+	c #56443F",
"B+	c #756261",
"C+	c #705D5C",
"D+	c #4F403F",
"E+	c #775124",
"F+	c #B68E4B",
"G+	c #D1AD65",
"H+	c #AF965D",
"I+	c #845E27",
"J+	c #C28911",
"K+	c #B68011",
"L+	c #785123",
"M+	c #7C6B6B",
"N+	c #816D6D",
"O+	c #7E6D6D",
"P+	c #877373",
"Q+	c #AF8744",
"R+	c #D8B973",
"S+	c #A2742C",
"T+	c #98650F",
"U+	c #4E403E",
"V+	c #5E4D4C",
"W+	c #8F7C7C",
"X+	c #504140",
"Y+	c #382A27",
"Z+	c #4F413F",
"`+	c #766363",
" @	c #4B3D3C",
".@	c #7E6A6A",
"+@	c #7B6767",
"@@	c #7E6969",
"#@	c #322622",
"$@	c #3D302E",
"%@	c #261913",
"&@	c #483937",
"*@	c #534342",
"=@	c #463836",
"-@	c #493B39",
";@	c #4A3B3A",
">@	c #453736",
",@	c #251812",
"'@	c #514140",
")@	c #30231F",
"!@	c #6B5D5C",
"~@	c #5F4F4E",
"{@	c #635352",
"]@	c #433634",
"^@	c #281A15",
"/@	c #50403F",
"(@	c #574645",
"_@	c #685655",
":@	c #796666",
"<@	c #695757",
"[@	c #382C29",
"}@	c #917F7F",
"|@	c #7C6969",
"1@	c #5C4D4D",
"2@	c #504242",
"3@	c #2B1E19",
"4@	c #584949",
"5@	c #584A4A",
"6@	c #2D201C",
"7@	c #4F4141",
"8@	c #514342",
"9@	c #302420",
"0@	c #23160F",
"a@	c #2F221E",
"b@	c #2F221F",
"c@	c #24160F",
"                                                                                ",
"                                                                                ",
"                                                                                ",
"  . + .   @ # $ % & * = - ; > , ' $ + + + + + + + + + ) ! ~ { ] ' ^ /   . + .   ",
"/ ( _ : < [ } | 1 2 3 ( 4 5 6 7 8 | _ _ _ _ _ _ _ _ _ 9 0 a b c d e / / ( _ : / ",
"/ f g h i j k l m n o f p q r s t l g g g g g g g g g u v g w x y z / / f g h / ",
"  A B C D E F F F G H I B B B B B B B B B B B B B B B J { F F K L M / / I B A   ",
"  / N O P Q R R R u S T U V T T T T W X Y Z T T S `  .U ..R R R R +.@.#. .$./   ",
"  / % r G H = + % %.&.*.=.-.;.1 *.&.>.m 7 ,.*.'.).!.~.{.].+ + + + ^.D E /.(./   ",
"  / _.>.G H :.;.<.[.[.[.}.-.|.1.[.2.>.m 7 [.d 3.4.4.;.{.-.5.4.4.4.6.D E /.(./   ",
"  / _.>.G H :.4 1.[.[.[.}.-.|.1.[.2.>.m 7 [.7.8.9.9.0.{.-.a.b.9.9.c.D E /.(./   ",
"  / d.e.G H :.,.[.[.[.[.}.-.|.1.[.2.>.m 7 [.f.b.[.[.<.{.-.|.1.[.[.g.D E /.(./   ",
"  / h.i.G H :.,.[.[.[.3.j.-.|.1.[.2.>.m 7 [.[.[.[.[.<.{.-.|.1.[.[.g.D E /.(./   ",
"  / k.l.G H :.,.[.[.[.<.{.m.<.n.[.5 o.m 7 [.[.[.[.[.<.{.m.<.n.[.[.g.D E /.(./   ",
"  / (.~.G H :.,.[.[.[.<.{.p.[.[.[.[.i.m q.[.[.[.[.[.<.{.p.[.[.[.[.g.D E /.(./   ",
"  / r.s.G H :.,.[.[.[.<.{.p.[.[.[.[.i.b 6 t.[.[.[.[.<.{.p.[.[.[.[.g.D E /.(./   ",
"  / u.v.G H :.,.[.[.[.w.x.y.[.[.[.[.5 z.A.B.[.[.[.[.<.{.p.[.[.[.[.g.D E /.(./   ",
"  / _.>.G H :.,.[.[.[.C.x.D.[.[.[.E.F.G.H.I.E.[.[.[.<.{.p.[.[.[.[.g.D E /.(./   ",
"  / _.>.G H :.,.[.[.[.C.x.D.[.[.J.F.K.L.L.M.N.J.[.[.,.=.p.[.[.[.[.g.D E /.(./   ",
"  / _.>.G H :.,.[.[.[.C.x.D.[.d *.O.P.Q.Q.R.9 1 d [.[.}.p.[.[.[.[.g.D E /.(./   ",
"  / _.>.G H :.,.[.[.[.C.x.D.n.S._.T.U.V.V.W.X.T 1 Y.[.}.p.[.[.[.[.g.D E /.(./   ",
"  / _.>.G H :.,.[.[.[.C.x.Z.1 _.`. +.+++++@+#+$+T %+&+}.*+4 n.[.[.g.D E /.(./   ",
"  / _.>.G H :.,.[.d } =+x.~.-+;+>+,+'+)+)+!+~+{+]+^+N.j.-.|.1.[.E.w.D E /.(./   ",
"  / _.>.G H :.,.[.n./+-.x.(+_+:+<+[+= = = = }+|+1+2+3+{.-.|.1.[.5 /.D E /.(./   ",
"  / _.>.G H :.,.[.n./+-.4+{.5+6+7+8+9+0+F 9+a+b+c+d+3+{.-.|.1.[.d e D E /.(./   ",
"  / _.>.G H :.,.[.n./+-.e+f+g+h+i+j+k+~.l+..m+n+c+d+3+{.-.|.1.[.7.z D E /.(./   ",
"  / _.>.G H :.,.[.n./+-.o+p+q+r+s+t+u+v+P w+x+y+z+A+B+{.-.|.1.[.2.C+D E /.(./   ",
"  / _.>.G H :.,.[.n./+-.o+} A.D+E+F+G+H+I+J+K+L+H.M+N+{.-.|.1.[.2.C+D E /.(./   ",
"  / _.>.G H :.,.[.n./+-.O+} P+A.D+}+Q+R+S+T+[+U+*+} 1 {.-.|.1.[.2.C+D E /.(./   ",
"  / V+/.G H :.W+d 9.Z.-.x.0.9.Z.L X+Y+Y+Y+Y+Z+!.5.5.5.{.-.|.9.d ,.C+D E `+9 /   ",
"  /  @b G H :.a.y &.;.-.x.6 &.;..@+@[ [ [ [ +@@@5.5.5.{.-.5.&.y a.C+D E l+u /   ",
"  / #@B $@%@&@*@*@*@*@=@-@*@*@*@*@*@*@*@*@*@*@*@*@*@*@;@>@*@*@*@*@@ ,@A B J /   ",
"   .T '@)@!@Z p r.k.~@T T T T T T T {@r.r.Z T T T T T T T T T T T W ]@^@/@T (@  ",
"/ _@:@<@[@l.v.N.}@i.|@:@:@:@:@:@:@:@v.}@}@v.:@:@:@:@:@:@:@:@:@:@:@4+G H _@:@<@/ ",
"/ H.1@2@3@4@1@1@1@1@1@1@1@1@1@1@1@1@1@1@1@1@1@1@1@1@1@1@1@1@1@1@1@1@5@6@7@1@8@/ ",
"  )@9@6@0@a@9@9@9@9@9@9@9@9@9@9@9@9@9@9@9@9@9@9@9@9@9@9@9@9@9@9@9@9@b@c@* 9@)@  ",
"                                                                                ",
"                                                                                ",
"                                                                                ",
"                                                                                "};
