/* XPM */
static char * trapdoor_open_xpm[] = {
"40 40 17 1",
" 	c None",
".	c #22140C",
"+	c #816C6C",
"@	c #9E8B8B",
"#	c #5E4F4F",
"$	c #30221D",
"%	c #AC7208",
"&	c #FAD988",
"*	c #F6B412",
"=	c #171514",
"-	c #060607",
";	c #444444",
">	c #B8B8B8",
",	c #FFFFFF",
"'	c #646464",
")	c #553402",
"!	c #2C211B",
"                                        ",
"                                        ",
"                                        ",
"                                        ",
"                                        ",
"                                        ",
"                                        ",
"     .. ........................ ..     ",
"    .++.+@+@.+@+@@++++++++.+#@@..++.    ",
"    .##.####.#############.##++..##.    ",
"     ...#...................#..#...     ",
"     .##.$$$.##############.$$$.#+.     ",
"     .+.$%&*$.============.$*&%$.+.     ",
"     .+.$&**$.------------.$**&$.+.     ",
"     .@.$&*;;;;;;;;;;;;;;;;;;*&$.+.     ",
"     .@#.$&;>>>>>>>>>>>>>>>>;&$.#+.     ",
"     .+#.$,;'''''''''''''''';,$.#+.     ",
"     .@#.$*%;;;;;;;;;;;;;;;;%*$.#+.     ",
"     .+#.-$*%)$----------$)%*$-.#+.     ",
"     .+#.-$*%%$----------$%%*$-.#+.     ",
"     .+#.--$%;;;;;;;;;;;;;;%$--.#+.     ",
"     .+#.--$*;'''''''''''';*$--.#+.     ",
"     .+#.---$%;;;;;;;;;;;;%$---.#+.     ",
"     .+#.---$%))$------$))%$---.#+.     ",
"     .+#.----$))$------$))$----.#+.     ",
"     .+#.----$$;;;;;;;;;;$$----.#+.     ",
"     .+#.-----$!$------$!$-----.#+.     ",
"     .+#.------$--------$------.#+.     ",
"     .+#.----------------------.#+.     ",
"     .##.----------------------.##.     ",
"     ..............................     ",
"    .++.@+@@+++++++@@++++++++++#.++.    ",
"    .##.########################.##.    ",
"     ..............................     ",
"                                        ",
"                                        ",
"                                        ",
"                                        ",
"                                        ",
"                                        "};
