/* XPM */
static char * trapdoor_closed_xpm[] = {
"40 40 9 1",
" 	c None",
".	c #22140C",
"+	c #816C6C",
"@	c #9E8B8B",
"#	c #5E4F4F",
"$	c #30221D",
"%	c #FAD988",
"&	c #F6B412",
"*	c #AC7208",
"                                        ",
"                                        ",
"                                        ",
"                                        ",
"                                        ",
"                                        ",
"     .. ........................ ..     ",
"    .++.+@+@.+@+@@++++++++.+#@@..++.    ",
"    .##.####.#############.##++..##.    ",
"     ...####...............####....     ",
"     .##....++#++++#@+++#+#.....#+.     ",
"     .+#.++@@@#+@@+#@@@+++#++++.#+.     ",
"     .+#.+@@@@#+@@+#@@+@@+#+@@@.#+.     ",
"     .@#.+@@@@#+@@+#@@@@@+#+@@@.#+.     ",
"     .@#.+@@@+#+@@+#@@@@@+#+@@@.#+.     ",
"     .+#.+@@@+#@@@@#@@@@@+#@@@@.#+.     ",
"     .@#.+@@@+#@@@@#+@@@@+#@@@@.#+.     ",
"     .+#.+@@@#+@@@@+#@@@@+#@@@@.#+.     ",
"     .+#.+@@@#+@@@+$$+@@@+#@@@@.#+.     ",
"     .+#.+@@@#+@@+$%%$+@@@#@@@@.#+.     ",
"     .+#.+@@@#+@+$$&&$$+@@#@@@@.#+.     ",
"     .+#.+@@@#++$%$**$&$+@#+@@@.#+.     ",
"     .+#.+@@+#+$%*$$$$*&$+#+@@+.#+.     ",
"     .+#.+@@+#+$&$####$*$+#+@@@.#+.     ",
"     .+#.+@@+#@$*&$+#$&*$+#+@@+.#+.     ",
"     .+#.+@@+#@#$*%$$&*$#+#+@@+.#+.     ",
"     .+#.+@@+#@+#$*%**$#@+#+@@+.#+.     ",
"     .+#.+@@+#+@+#$$$$#+++#+@@+.#+.     ",
"     .##.++++#++++++++++++#++++.##.     ",
"     ..............................     ",
"    .++.@+@@+++++++@@++++++++++#.++.    ",
"    .##.########################.##.    ",
"     ..............................     ",
"                                        ",
"                                        ",
"                                        ",
"                                        ",
"                                        ",
"                                        ",
"                                        "};
