/* XPM */
static char * trapdoor_open_xpm[] = {
"40 40 405 2",
"  	c #734136",
". 	c #6E3E33",
"+ 	c #693B31",
"@ 	c #673A30",
"# 	c #6C3D32",
"$ 	c #714035",
"% 	c #6A3C31",
"& 	c #724136",
"* 	c #23150D",
"= 	c #24160E",
"- 	c #65392F",
"; 	c #22150D",
"> 	c #23150E",
", 	c #23160E",
"' 	c #241710",
") 	c #24160F",
"! 	c #261811",
"~ 	c #251711",
"{ 	c #271913",
"] 	c #241610",
"^ 	c #261812",
"/ 	c #251710",
"( 	c #24170F",
"_ 	c #251812",
": 	c #251811",
"< 	c #271914",
"[ 	c #22140C",
"} 	c #6F3E34",
"| 	c #6D5A5A",
"1 	c #7F6B6B",
"2 	c #665453",
"3 	c #261912",
"4 	c #796565",
"5 	c #7D6B6A",
"6 	c #796766",
"7 	c #826F6F",
"8 	c #8F7D7D",
"9 	c #403431",
"0 	c #8E7A7A",
"a 	c #8E7B7B",
"b 	c #826E6E",
"c 	c #988686",
"d 	c #9B8989",
"e 	c #8F7B7B",
"f 	c #7A6666",
"g 	c #604F4E",
"h 	c #483938",
"i 	c #756363",
"j 	c #5E4F4F",
"k 	c #7B6B6A",
"l 	c #897776",
"m 	c #7D6D6C",
"n 	c #675454",
"o 	c #766565",
"p 	c #6E5C5B",
"q 	c #564746",
"r 	c #625252",
"s 	c #493A3A",
"t 	c #5F504F",
"u 	c #685959",
"v 	c #675858",
"w 	c #665656",
"x 	c #665757",
"y 	c #312421",
"z 	c #675757",
"A 	c #695959",
"B 	c #655555",
"C 	c #6A5A5A",
"D 	c #6A5B5B",
"E 	c #645454",
"F 	c #4C3E3D",
"G 	c #3E312F",
"H 	c #5F5050",
"I 	c #7B6868",
"J 	c #867171",
"K 	c #746161",
"L 	c #271A14",
"M 	c #281A14",
"N 	c #483939",
"O 	c #291B15",
"P 	c #2E211D",
"Q 	c #281B16",
"R 	c #5A4B4B",
"S 	c #5B4C4C",
"T 	c #2D211D",
"U 	c #372B28",
"V 	c #3F3230",
"W 	c #332623",
"X 	c #3B2E2C",
"Y 	c #685757",
"Z 	c #6C5A5A",
"` 	c #5D4E4D",
" .	c #291C17",
"..	c #2E201D",
"+.	c #2B1F19",
"@.	c #2B1E1A",
"#.	c #281B15",
"$.	c #2D201C",
"%.	c #332724",
"&.	c #564847",
"*.	c #2A1D18",
"=.	c #2A1D19",
"-.	c #3B2F2C",
";.	c #392C2A",
">.	c #574948",
",.	c #352825",
"'.	c #342723",
").	c #2E211C",
"!.	c #453836",
"~.	c #5A4C4C",
"{.	c #2E201B",
"].	c #2F211C",
"^.	c #4E4040",
"/.	c #4F4140",
"(.	c #31241F",
"_.	c #322521",
":.	c #564848",
"<.	c #736060",
"[.	c #5E4D4C",
"}.	c #5A4948",
"|.	c #6B5958",
"1.	c #3A2D2B",
"2.	c #805513",
"3.	c #BA9755",
"4.	c #D7B264",
"5.	c #CC9516",
"6.	c #573D19",
"7.	c #372A27",
"8.	c #392F2D",
"9.	c #372F2E",
"0.	c #503819",
"a.	c #CA9316",
"b.	c #D7B263",
"c.	c #BB9857",
"d.	c #825613",
"e.	c #3A2D2A",
"f.	c #715E5D",
"g.	c #625050",
"h.	c #6F5C5C",
"i.	c #B99655",
"j.	c #E9BC63",
"k.	c #F7C254",
"l.	c #ECAD13",
"m.	c #63471C",
"n.	c #1B120D",
"o.	c #100F0E",
"p.	c #1A110D",
"q.	c #271912",
"r.	c #5B411C",
"s.	c #EAAB14",
"t.	c #F7C253",
"u.	c #E9BD63",
"v.	c #BC9856",
"w.	c #6E5B5B",
"x.	c #675756",
"y.	c #786565",
"z.	c #D6B974",
"A.	c #F8C864",
"B.	c #EDAD1B",
"C.	c #CB9629",
"D.	c #5B462D",
"E.	c #322B29",
"F.	c #2B2826",
"G.	c #262626",
"H.	c #55422D",
"I.	c #C99529",
"J.	c #ECAD1B",
"K.	c #F8C762",
"L.	c #D9BC76",
"M.	c #756565",
"N.	c #897877",
"O.	c #CCB06E",
"P.	c #F2C464",
"Q.	c #D6A138",
"R.	c #464646",
"S.	c #585858",
"T.	c #5A5A5A",
"U.	c #595959",
"V.	c #474747",
"W.	c #D39F38",
"X.	c #F2C463",
"Y.	c #CFB370",
"Z.	c #8E7C7C",
"`.	c #574848",
" +	c #53442C",
".+	c #C0A464",
"++	c #D9BA74",
"@+	c #565656",
"#+	c #A9A9A9",
"$+	c #B1B1B1",
"%+	c #ABABAB",
"&+	c #D6B873",
"*+	c #C3A766",
"=+	c #54452C",
"-+	c #766363",
";+	c #61504F",
">+	c #2C1E19",
",+	c #BCB4A8",
"'+	c #DCD4C6",
")+	c #4D4D4D",
"!+	c #7F7F7F",
"~+	c #848484",
"{+	c #808080",
"]+	c #4F4F4F",
"^+	c #D9D2C4",
"/+	c #BFB8AB",
"(+	c #2C1F19",
"_+	c #776464",
":+	c #716261",
"<+	c #8C7A7A",
"[+	c #BAA389",
"}+	c #E0C3A2",
"|+	c #825E35",
"1+	c #5C5753",
"2+	c #5B5653",
"3+	c #815E36",
"4+	c #DEC1A0",
"5+	c #BDA68C",
"6+	c #816E6E",
"7+	c #261A15",
"8+	c #9C7117",
"9+	c #CF9513",
"0+	c #C18714",
"a+	c #7E5D36",
"b+	c #584739",
"c+	c #453E3A",
"d+	c #3D3B3A",
"e+	c #393939",
"f+	c #443E3A",
"g+	c #574739",
"h+	c #7C5B37",
"i+	c #BF8616",
"j+	c #9F7317",
"k+	c #5F4E4D",
"l+	c #120B09",
"m+	c #211714",
"n+	c #936A1A",
"o+	c #F0AF11",
"p+	c #B67B09",
"q+	c #7F5204",
"r+	c #4F3313",
"s+	c #281C18",
"t+	c #060607",
"u+	c #4E3213",
"v+	c #7E5104",
"w+	c #B47909",
"x+	c #EFAE11",
"y+	c #976E1A",
"z+	c #221815",
"A+	c #120B08",
"B+	c #A86F08",
"C+	c #7E5314",
"D+	c #7C5215",
"E+	c #120D0C",
"F+	c #563D13",
"G+	c #966B19",
"H+	c #AA710B",
"I+	c #865F30",
"J+	c #5C4A3A",
"K+	c #3D3B3B",
"L+	c #5B493A",
"M+	c #855E31",
"N+	c #AA710A",
"O+	c #966C19",
"P+	c #593F14",
"Q+	c #191210",
"R+	c #543B1C",
"S+	c #CB9110",
"T+	c #886739",
"U+	c #4E4E4E",
"V+	c #84653A",
"W+	c #CE920F",
"X+	c #5A3F1C",
"Y+	c #1A1310",
"Z+	c #150F0D",
"`+	c #4F3918",
" @	c #C99216",
".@	c #987031",
"+@	c #67584C",
"@@	c #5C5C5C",
"#@	c #67594D",
"$@	c #966E32",
"%@	c #CB9416",
"&@	c #563E18",
"*@	c #160F0E",
"=@	c #0E0A0A",
"-@	c #2D201B",
";@	c #946211",
">@	c #865E2D",
",@	c #464340",
"'@	c #464240",
")@	c #434241",
"!@	c #414141",
"~@	c #404040",
"{@	c #434141",
"]@	c #845D2E",
"^@	c #966310",
"/@	c #2E201C",
"(@	c #100B0B",
"_@	c #8A5B0E",
":@	c #543612",
"<@	c #513514",
"[@	c #372921",
"}@	c #211B1A",
"|@	c #141415",
"1@	c #201B1A",
"2@	c #362822",
"3@	c #513415",
"4@	c #88590E",
"5@	c #090708",
"6@	c #18110F",
"7@	c #5A3B16",
"8@	c #603E10",
"9@	c #553402",
"0@	c #523305",
"a@	c #36241B",
"b@	c #1A1210",
"c@	c #34241B",
"d@	c #523206",
"e@	c #603D0F",
"f@	c #5B3C16",
"g@	c #090808",
"h@	c #3C2719",
"i@	c #48311E",
"j@	c #4C3C30",
"k@	c #3D3734",
"l@	c #343232",
"m@	c #303030",
"n@	c #4B3C30",
"o@	c #48321F",
"p@	c #3C2718",
"q@	c #281D18",
"r@	c #2C1F1B",
"s@	c #342B28",
"t@	c #3E3C3B",
"u@	c #3F3C3B",
"v@	c #3B3A3A",
"w@	c #352C29",
"x@	c #221814",
"y@	c #1F1613",
"z@	c #2D211B",
"A@	c #19110F",
"B@	c #201714",
"C@	c #0A0809",
"D@	c #1C1411",
"E@	c #130E0D",
"F@	c #1D1412",
"G@	c #0B0809",
"H@	c #2D201D",
"I@	c #594A4A",
"J@	c #080708",
"K@	c #4B3D3C",
"L@	c #625353",
"M@	c #322622",
"N@	c #3D302E",
"O@	c #261913",
"P@	c #483937",
"Q@	c #534342",
"R@	c #463836",
"S@	c #493B39",
"T@	c #4A3B3A",
"U@	c #453736",
"V@	c #493A38",
"W@	c #3C2F2D",
"X@	c #593229",
"Y@	c #5D4C4B",
"Z@	c #514140",
"`@	c #30231F",
" #	c #6B5D5C",
".#	c #635353",
"+#	c #6F605F",
"@#	c #5F4F4E",
"##	c #635352",
"$#	c #574746",
"%#	c #433634",
"&#	c #281A15",
"*#	c #50403F",
"=#	c #685655",
"-#	c #796666",
";#	c #695757",
">#	c #382C29",
",#	c #8A7878",
"'#	c #867373",
")#	c #917F7F",
"!#	c #7C6969",
"~#	c #726060",
"{#	c #413331",
"]#	c #504241",
"^#	c #5C4D4D",
"/#	c #504242",
"(#	c #2B1E19",
"_#	c #584949",
":#	c #4E423F",
"<#	c #564747",
"[#	c #4F4141",
"}#	c #524443",
"|#	c #584A4A",
"1#	c #514342",
"2#	c #22140D",
"3#	c #271B15",
"4#	c #2A1C18",
"5#	c #2A1C17",
"6#	c #704035",
"7#	c #6B3D32",
"8#	c #6F3F34",
"                                                                                ",
"                                                                                ",
"                    . +           .   @ #                 $ $               % & ",
"  * = = - * ; > , = ' * , ) ) ! ~ ) { > ' ] ^ / ( ~ ! ~ ( _ ~ * : < [   * [ * } ",
"[ | 1 2 3 4 5 6 7 8 9 | 0 a b c d e 1 1 1 1 1 1 1 f 1 g h i j k l m [ [ n o p [ ",
"[ q r s > t u v w x y q z A B C D v E E E E E E E E E F G E H I J K L M q E N [ ",
"  * O P Q R j j j S T U V V V V V V V V V V V V V V V W X j j Y Z `  ...+.@.~   ",
"  [ #.$.%.&.X ) ) = [ *.$.$.$.$.$.$.$.$.$.$.$.$.$.$.$.$.=.*.&.-.) ;.>.,.'.).[   ",
"  [ !.~.>.W {.].].{.= ^.~.~.~.~.~.~.~.~.~.~.~.~.~.~.~.~./.) '.(.].{._.:.<.[.[   ",
"  [ }.|.1.).2.3.4.5.6.7.8.9.9.9.9.9.9.9.9.9.9.9.9.9.9.8.U 0.a.b.c.d.{.e.f.g.[   ",
"  [ g h.= ].i.j.k.l.m.{ n.o.o.o.o.o.o.o.o.o.o.o.o.o.o.p.q.r.s.t.u.v.].) w.g.[   ",
"  [ x.y.= ].z.A.B.C.D.E.F.G.G.G.G.G.G.G.G.G.G.G.G.G.G.F.E.H.I.J.K.L.].) w.g.[   ",
"  [ M.N.$.].O.P.Q.R.S.T.T.T.T.T.T.T.T.T.T.T.T.T.T.T.T.T.T.U.V.W.X.Y.].$.h.g.[   ",
"  [ M.Z.`.$. +.+++@+#+$+$+$+$+$+$+$+$+$+$+$+$+$+$+$+$+$+$+%+T.&+*+=+@.&.-+g.[   ",
"  [ ;+f S T >+,+'+)+!+~+~+~+~+~+~+~+~+~+~+~+~+~+~+~+~+~+~+{+]+^+/+(+@.R _+;+[   ",
"  [ :+<+S T >+[+}+|+1+@+@+@+@+@+@+@+@+@+@+@+@+@+@+@+@+@+@+2+3+4+5+(+@.R _+;+[   ",
"  [ x.6+S T 7+8+9+0+a+b+c+d+e+e+e+e+e+e+e+e+e+e+e+e+d+f+g+h+i+9+j+7+@.R _+;+[   ",
"  [ k+y.S T l+m+n+o+p+q+r+s+t+t+t+t+t+t+t+t+t+t+t+t+s+u+v+w+x+y+z+A+@.R _+;+[   ",
"  [ k+y.S T l+m+n+o+p+B+C+s+t+t+t+t+t+t+t+t+t+t+t+t+s+D+B+w+x+y+z+A+@.R _+;+[   ",
"  [ k+y.S T l+E+F+G+H+I+J+K+e+e+e+e+e+e+e+e+e+e+e+e+K+L+M+N+O+P+E+A+@.R _+;+[   ",
"  [ k+y.S T l+t+Q+R+S+T+)+@+@+@+@+@+@+@+@+@+@+@+@+@+@+U+V+W+X+Y+t+A+@.R _+;+[   ",
"  [ k+y.S T l+t+Z+`+ @.@+@@@@@@@@@@@@@@@@@@@@@@@@@@@@@#@$@%@&@*@t+A+@.R _+;+[   ",
"  [ k+y.S T l+t+t+=@-@;@>@,@'@)@!@~@~@~@~@~@~@!@{@'@,@]@^@/@(@t+t+A+@.R _+;+[   ",
"  [ k+y.S T l+t+t+=@-@;@_@:@<@[@}@|@|@|@|@|@|@1@2@3@:@4@^@/@(@t+t+A+@.R _+;+[   ",
"  [ k+y.S T l+t+t+5@6@7@8@9@0@a@b@t+t+t+t+t+t+Q+c@d@9@e@f@6@g@t+t+A+@.R _+;+[   ",
"  [ k+y.S T l+t+t+t+t+s+h@i@j@k@l@m@m@m@m@m@m@l@k@n@o@p@q@t+t+t+t+A+@.R _+;+[   ",
"  [ k+y.S T l+t+t+t+t+m+r@s@t@u@v@e+e+e+e+e+e+v@u@t@w@r@x@t+t+t+t+A+@.R _+;+[   ",
"  [ k+y.S T l+t+t+t+t+t+y@-@z@-@A@t+t+t+t+t+t+6@-@z@-@B@t+t+t+t+t+A+@.R _+;+[   ",
"  [ k+y.S T l+t+t+t+t+t+C@D@/@Z+5@t+t+t+t+t+t+5@E@-@F@G@t+t+t+t+t+A+H@I@_+;+[   ",
"  [ [._+S T l+t+t+t+t+t+t+=@6@g@t+t+t+t+t+t+t+t+J@6@=@t+t+t+t+t+t+A+H@I@-+g [   ",
"  [ K@L@S T l+t+t+t+t+t+t+t+t+t+t+t+t+t+t+t+t+t+t+t+t+t+t+t+t+t+t+A+@.R r F [   ",
"  [ M@V N@O@P@Q@Q@Q@Q@R@S@Q@Q@Q@Q@Q@Q@Q@Q@Q@Q@Q@Q@Q@Q@T@U@Q@Q@Q@Q@V@_ W@V W [   ",
"X@] Y@Z@`@ #.#z :++#@#Y@Y@Y@Y@Y@Y@Y@##:+:+.#Y@Y@Y@Y@Y@Y@Y@Y@Y@Y@Y@$#%#&#*#Y@=   ",
"[ =#-#;#>#,#6+'#)#8 !#-#-#-#-#-#-#-#6+)#)#6+-#-#-#-#-#-#-#-#-#-#-#~#S T =#-#{#[ ",
"[ ]#^#/#(#_#^#^#^#^#^#^#^#^#^#^#^#^#R :#<#[#&.R _#&.`.R ^#^#^#^#}#^#|#P [#^#1#[ ",
"  * * ~ 2#) ) ^ ) = > ( O@O@O@L ! 3#! ] , , ) > { &#: < ! ' ] > ) ) ^ 4#) ^ 5#  ",
"          $ 6#7#8#    . .                 .                   . .               ",
"                                                                                ",
"                                                                                ",
"                                                                                "};
