/* XPM */
static char * trapdoor_closed_xpm[] = {
"40 40 351 2",
"  	c #734136",
". 	c #6E3E33",
"+ 	c #693B31",
"@ 	c #673A30",
"# 	c #6C3D32",
"$ 	c #714035",
"% 	c #6A3C31",
"& 	c #724136",
"* 	c #23150D",
"= 	c #24160E",
"- 	c #65392F",
"; 	c #22150D",
"> 	c #23150E",
", 	c #23160E",
"' 	c #241710",
") 	c #24160F",
"! 	c #261811",
"~ 	c #251711",
"{ 	c #271913",
"] 	c #241610",
"^ 	c #261812",
"/ 	c #251710",
"( 	c #24170F",
"_ 	c #251812",
": 	c #251811",
"< 	c #271914",
"[ 	c #22140C",
"} 	c #6F3E34",
"| 	c #6D5A5A",
"1 	c #7F6B6B",
"2 	c #665453",
"3 	c #261912",
"4 	c #796565",
"5 	c #7D6B6A",
"6 	c #796766",
"7 	c #826F6F",
"8 	c #8F7D7D",
"9 	c #403431",
"0 	c #8E7A7A",
"a 	c #8E7B7B",
"b 	c #826E6E",
"c 	c #988686",
"d 	c #9B8989",
"e 	c #8F7B7B",
"f 	c #7A6666",
"g 	c #604F4E",
"h 	c #483938",
"i 	c #756363",
"j 	c #5E4F4F",
"k 	c #7B6B6A",
"l 	c #897776",
"m 	c #7D6D6C",
"n 	c #675454",
"o 	c #766565",
"p 	c #6E5C5B",
"q 	c #564746",
"r 	c #625252",
"s 	c #493A3A",
"t 	c #5F504F",
"u 	c #685959",
"v 	c #675858",
"w 	c #665656",
"x 	c #665757",
"y 	c #312421",
"z 	c #675757",
"A 	c #695959",
"B 	c #655555",
"C 	c #6A5A5A",
"D 	c #6A5B5B",
"E 	c #645454",
"F 	c #4C3E3D",
"G 	c #3E312F",
"H 	c #5F5050",
"I 	c #7B6868",
"J 	c #867171",
"K 	c #746161",
"L 	c #271A14",
"M 	c #281A14",
"N 	c #483939",
"O 	c #291B15",
"P 	c #2E211D",
"Q 	c #281B16",
"R 	c #5A4B4B",
"S 	c #5B4C4C",
"T 	c #2D211D",
"U 	c #372B28",
"V 	c #3F3230",
"W 	c #332623",
"X 	c #3B2E2C",
"Y 	c #685757",
"Z 	c #6C5A5A",
"` 	c #5D4E4D",
" .	c #291C17",
"..	c #2E201D",
"+.	c #2B1F19",
"@.	c #2B1E1A",
"#.	c #362A27",
"$.	c #453837",
"%.	c #433534",
"&.	c #3A2D2A",
"*.	c #4A3C3B",
"=.	c #5B4A49",
"-.	c #5D4C4B",
";.	c #524342",
">.	c #4D3E3D",
",.	c #574746",
"'.	c #4A3D3C",
").	c #6D5E5D",
"!.	c #635353",
"~.	c #483B39",
"{.	c #564645",
"].	c #473938",
"^.	c #413433",
"/.	c #423534",
"(.	c #544443",
"_.	c #443634",
":.	c #4E403F",
"<.	c #403230",
"[.	c #4A3B39",
"}.	c #5E504F",
"|.	c #857171",
"1.	c #897575",
"2.	c #776565",
"3.	c #6A5959",
"4.	c #826D6D",
"5.	c #887474",
"6.	c #786565",
"7.	c #907C7C",
"8.	c #877272",
"9.	c #7F6A6A",
"0.	c #6B5A5A",
"a.	c #725F5F",
"b.	c #594A49",
"c.	c #413331",
"d.	c #776464",
"e.	c #61504F",
"f.	c #5F4E4D",
"g.	c #6E5B5B",
"h.	c #8B7777",
"i.	c #9E8B8B",
"j.	c #847373",
"k.	c #846F6F",
"l.	c #9B8888",
"m.	c #917D7D",
"n.	c #9D8A8A",
"o.	c #968282",
"p.	c #836E6E",
"q.	c #816C6C",
"r.	c #715E5E",
"s.	c #937F7F",
"t.	c #8C7878",
"u.	c #9A8787",
"v.	c #8A7575",
"w.	c #836F6F",
"x.	c #988484",
"y.	c #857474",
"z.	c #6E5E5D",
"A.	c #887676",
"B.	c #9A8686",
"C.	c #887777",
"D.	c #746564",
"E.	c #7C6A6A",
"F.	c #6F605F",
"G.	c #8A7878",
"H.	c #6D5C5C",
"I.	c #9C8989",
"J.	c #948181",
"K.	c #7F6C6C",
"L.	c #756565",
"M.	c #978585",
"N.	c #716261",
"O.	c #8C7A7A",
"P.	c #625353",
"Q.	c #978484",
"R.	c #675756",
"S.	c #816E6E",
"T.	c #7E6C6C",
"U.	c #715F5F",
"V.	c #837070",
"W.	c #756262",
"X.	c #6D5B5B",
"Y.	c #917E7E",
"Z.	c #776767",
"`.	c #8A7676",
" +	c #988585",
".+	c #877474",
"++	c #645352",
"@+	c #504241",
"#+	c #816F6F",
"$+	c #998686",
"%+	c #7B675A",
"&+	c #8D784C",
"*+	c #7C685A",
"=+	c #867373",
"-+	c #62504F",
";+	c #947E4E",
">+	c #FAD785",
",+	c #998250",
"'+	c #897474",
")+	c #3B2D29",
"!+	c #926D27",
"~+	c #F7BA39",
"{+	c #977128",
"]+	c #3A2C29",
"^+	c #9C8888",
"/+	c #847070",
"(+	c #B69D66",
"_+	c #9E8755",
":+	c #795419",
"<+	c #CA8D0C",
"[+	c #7D5719",
"}+	c #986E1A",
"|+	c #B5852A",
"1+	c #877473",
"2+	c #998585",
"3+	c #6E5D5D",
"4+	c #938080",
"5+	c #716161",
"6+	c #705D55",
"7+	c #AD955F",
"8+	c #D0AC65",
"9+	c #A5874D",
"0+	c #54381B",
"a+	c #865914",
"b+	c #573A1A",
"c+	c #A07217",
"d+	c #CE9312",
"e+	c #AB7D22",
"f+	c #725A4F",
"g+	c #857070",
"h+	c #715E5D",
"i+	c #5D4B2E",
"j+	c #EDC671",
"k+	c #BD9246",
"l+	c #775123",
"m+	c #765024",
"n+	c #B37C10",
"o+	c #DDA011",
"p+	c #5F441C",
"q+	c #6F5C5C",
"r+	c #726060",
"s+	c #5C411C",
"t+	c #E7A813",
"u+	c #9C711A",
"v+	c #56443A",
"w+	c #5D4E4E",
"x+	c #605151",
"y+	c #56443B",
"z+	c #744F18",
"A+	c #A56E0B",
"B+	c #4C331B",
"C+	c #877676",
"D+	c #806F6F",
"E+	c #867574",
"F+	c #4B331C",
"G+	c #B0780D",
"H+	c #D99D11",
"I+	c #AE7F20",
"J+	c #AB7D20",
"K+	c #D79B11",
"L+	c #827171",
"M+	c #8D7C7B",
"N+	c #554440",
"O+	c #6D4920",
"P+	c #B47D10",
"Q+	c #CDA251",
"R+	c #B89F67",
"S+	c #554544",
"T+	c #463837",
"U+	c #B18123",
"V+	c #CC9212",
"W+	c #B67E10",
"X+	c #6E491E",
"Y+	c #56443F",
"Z+	c #756261",
"`+	c #705D5C",
" @	c #4F403F",
".@	c #775124",
"+@	c #B68E4B",
"@@	c #D1AD65",
"#@	c #AF965D",
"$@	c #845E27",
"%@	c #C28911",
"&@	c #B68011",
"*@	c #785123",
"=@	c #7C6B6B",
"-@	c #816D6D",
";@	c #7E6D6D",
">@	c #877373",
",@	c #AF8744",
"'@	c #D8B973",
")@	c #A2742C",
"!@	c #98650F",
"~@	c #4E403E",
"{@	c #2D201D",
"]@	c #594A4A",
"^@	c #5E4D4C",
"/@	c #8F7C7C",
"(@	c #504140",
"_@	c #382A27",
":@	c #4F413F",
"<@	c #766363",
"[@	c #4B3D3C",
"}@	c #7E6A6A",
"|@	c #7B6767",
"1@	c #7E6969",
"2@	c #322622",
"3@	c #3D302E",
"4@	c #261913",
"5@	c #483937",
"6@	c #534342",
"7@	c #463836",
"8@	c #493B39",
"9@	c #4A3B3A",
"0@	c #453736",
"a@	c #493A38",
"b@	c #3C2F2D",
"c@	c #593229",
"d@	c #514140",
"e@	c #30231F",
"f@	c #6B5D5C",
"g@	c #5F4F4E",
"h@	c #635352",
"i@	c #433634",
"j@	c #281A15",
"k@	c #50403F",
"l@	c #685655",
"m@	c #796666",
"n@	c #695757",
"o@	c #382C29",
"p@	c #917F7F",
"q@	c #7C6969",
"r@	c #5C4D4D",
"s@	c #504242",
"t@	c #2B1E19",
"u@	c #584949",
"v@	c #4E423F",
"w@	c #564747",
"x@	c #4F4141",
"y@	c #564847",
"z@	c #574848",
"A@	c #524443",
"B@	c #584A4A",
"C@	c #514342",
"D@	c #22140D",
"E@	c #271B15",
"F@	c #2A1C18",
"G@	c #2A1C17",
"H@	c #704035",
"I@	c #6B3D32",
"J@	c #6F3F34",
"                                                                                ",
"                                                                                ",
"                    . +           .   @ #                 $ $               % & ",
"  * = = - * ; > , = ' * , ) ) ! ~ ) { > ' ] ^ / ( ~ ! ~ ( _ ~ * : < [   * [ * } ",
"[ | 1 2 3 4 5 6 7 8 9 | 0 a b c d e 1 1 1 1 1 1 1 f 1 g h i j k l m [ [ n o p [ ",
"[ q r s > t u v w x y q z A B C D v E E E E E E E E E F G E H I J K L M q E N [ ",
"  * O P Q R j j j S T U V V V V V V V V V V V V V V V W X j j Y Z `  ...+.@.~   ",
"  [ #.$.%.&.*.*.*.F =.-.;.>.-.-.-.-.,.'.).!.-.-.=.~.{.;.].*.*.*.*.^.{ /.(._.[   ",
"  [ :.B R T <.[.:.}.|.1.2.3.4.5.1.|.6.w c 7.1.8.9.0.f a.b.[.[.[.[.c.@.R d.e.[   ",
"  [ f.6.S T g.4.h.i.i.i.j.3.k.l.i.m.6.w c i.n.o.p.p.4.a.3.q.p.p.p.r.@.R d.e.[   ",
"  [ f.6.S T g.0 l.i.i.i.j.3.k.l.i.m.6.w c i.s.t.u.u.v.a.3.w.x.u.u.y.@.R d.e.[   ",
"  [ z.A.S T g.7.i.i.i.i.j.3.k.l.i.m.6.w c i.B.x.i.i.h.a.3.k.l.i.i.C.@.R d.e.[   ",
"  [ D.8 S T g.7.i.i.i.o.E.3.k.l.i.m.6.w c i.i.i.i.i.h.a.3.k.l.i.i.C.@.R d.e.[   ",
"  [ F.G.S T g.7.i.i.i.h.a.H.h.I.i.J.K.w c i.i.i.i.i.h.a.H.h.I.i.i.C.@.R d.e.[   ",
"  [ e.f S T g.7.i.i.i.h.a.L.i.i.i.i.8 w M.i.i.i.i.i.h.a.L.i.i.i.i.C.@.R d.e.[   ",
"  [ N.O.S T g.7.i.i.i.h.a.L.i.i.i.i.8 P.b Q.i.i.i.i.h.a.L.i.i.i.i.C.@.R d.e.[   ",
"  [ R.S.S T g.7.i.i.i.T.U.V.i.i.i.i.J.W.X.Y.i.i.i.i.h.a.L.i.i.i.i.C.@.R d.e.[   ",
"  [ f.6.S T g.7.i.i.i.Z.U.`.i.i.i. +.+++@+#+ +i.i.i.h.a.L.i.i.i.i.C.@.R d.e.[   ",
"  [ f.6.S T g.7.i.i.i.Z.U.`.i.i.$+.+%+&+&+*+=+$+i.i.7.2.L.i.i.i.i.C.@.R d.e.[   ",
"  [ f.6.S T g.7.i.i.i.Z.U.`.i.n.1.-+;+>+>+,+g 5.n.i.i.j.L.i.i.i.i.C.@.R d.e.[   ",
"  [ f.6.S T g.7.i.i.i.Z.U.`.I.'+f.)+!+~+~+{+]+-.5.^+i.j.L.i.i.i.i.C.@.R d.e.[   ",
"  [ f.6.S T g.7.i.i.i.Z.U./+5.f.(+_+:+<+<+[+}+|+-.1+2+j.3+0 I.i.i.C.@.R d.e.[   ",
"  [ f.6.S T g.7.i.n.4+5+U.f 6+7+8+9+0+a+a+b+c+d+e+f+=+E.3.k.l.i. +T.@.R d.e.[   ",
"  [ f.6.S T g.7.i.I.g+3.U.h+i+j+k+l+<.<.<.<.m+n+o+p+q+a.3.k.l.i.J.d.@.R d.e.[   ",
"  [ f.6.S T g.7.i.I.g+3.r+a.s+t+u+v+w+x+j w+y+z+A+B+q+a.3.k.l.i.n.C+@.R d.e.[   ",
"  [ f.6.S T g.7.i.I.g+3.D+E+F+G+H+I+(.f r ].J+K+A+B+q+a.3.k.l.i.s.K @.R d.e.[   ",
"  [ f.6.S T g.7.i.I.g+3.L+M+N+O+P+Q+R+S+T+U+V+W+X+Y+Z+a.3.k.l.i.m.`+@.R d.e.[   ",
"  [ f.6.S T g.7.i.I.g+3.L+4+X. @.@+@@@#@$@%@&@*@@+=@-@a.3.k.l.i.m.`+@.R d.e.[   ",
"  [ f.6.S T g.7.i.I.g+3.;@4+>@X. @m+,@'@)@!@l+~@3+4+5.a.3.k.l.i.m.`+{@]@d.e.[   ",
"  [ ^@d.S T g./@n.u./+3.U.v.u./+Z (@_@_@_@_@:@0.q.q.q.a.3.k.u.n.7.`+{@]@<@g [   ",
"  [ [@P.S T g.w.J |.4.3.U.b |.4.}@|@4 4 4 4 |@1@q.q.q.a.3.q.|.J w.`+@.R r F [   ",
"  [ 2@V 3@4@5@6@6@6@6@7@8@6@6@6@6@6@6@6@6@6@6@6@6@6@6@9@0@6@6@6@6@a@_ b@V W [   ",
"c@] -.d@e@f@!.z N.F.g@-.-.-.-.-.-.-.h@N.N.!.-.-.-.-.-.-.-.-.-.-.-.,.i@j@k@-.=   ",
"[ l@m@n@o@G.S.=+p@8 q@m@m@m@m@m@m@m@S.p@p@S.m@m@m@m@m@m@m@m@m@m@m@r+S T l@m@c.[ ",
"[ @+r@s@t@u@r@r@r@r@r@r@r@r@r@r@r@r@R v@w@x@y@R u@y@z@R r@r@r@r@A@r@B@P x@r@C@[ ",
"  * * ~ D@) ) ^ ) = > ( 4@4@4@L ! E@! ] , , ) > { j@: < ! ' ] > ) ) ^ F@) ^ G@  ",
"          $ H@I@J@    . .                 .                   . .               ",
"                                                                                ",
"                                                                                ",
"                                                                                "};
