/* XPM */
static char * trapdoor_closed_Lost_xpm[] = {
"40 40 210 2",
"  	c #734136",
". 	c #6E3E33",
"+ 	c #693B31",
"@ 	c #080000",
"# 	c #714035",
"$ 	c #6A3C31",
"% 	c #724136",
"& 	c #23150D",
"* 	c #24160E",
"= 	c #65392F",
"- 	c #22150D",
"; 	c #23150E",
"> 	c #23160E",
", 	c #241710",
"' 	c #24160F",
") 	c #261811",
"! 	c #251711",
"~ 	c #24170F",
"{ 	c #251812",
"] 	c #251811",
"^ 	c #271914",
"/ 	c #22140C",
"( 	c #6F3E34",
"_ 	c #6D5A5A",
": 	c #7F6B6B",
"< 	c #665453",
"[ 	c #261912",
"} 	c #796565",
"| 	c #7D6B6A",
"1 	c #796766",
"2 	c #826F6F",
"3 	c #8F7D7D",
"4 	c #403431",
"5 	c #B7B7B7",
"6 	c #483938",
"7 	c #756363",
"8 	c #5E4F4F",
"9 	c #7B6B6A",
"0 	c #897776",
"a 	c #7D6D6C",
"b 	c #675454",
"c 	c #766565",
"d 	c #6E5C5B",
"e 	c #564746",
"f 	c #625252",
"g 	c #493A3A",
"h 	c #5F504F",
"i 	c #685959",
"j 	c #675858",
"k 	c #665656",
"l 	c #665757",
"m 	c #312421",
"n 	c #FFFFFF",
"o 	c #645454",
"p 	c #5F5050",
"q 	c #7B6868",
"r 	c #867171",
"s 	c #746161",
"t 	c #271A14",
"u 	c #281A14",
"v 	c #483939",
"w 	c #291B15",
"x 	c #2E211D",
"y 	c #281B16",
"z 	c #5A4B4B",
"A 	c #5B4C4C",
"B 	c #685757",
"C 	c #6C5A5A",
"D 	c #5D4E4D",
"E 	c #291C17",
"F 	c #2E201D",
"G 	c #2B1F19",
"H 	c #2B1E1A",
"I 	c #362A27",
"J 	c #453837",
"K 	c #433534",
"L 	c #3A2D2A",
"M 	c #4A3C3B",
"N 	c #413433",
"O 	c #271913",
"P 	c #423534",
"Q 	c #544443",
"R 	c #443634",
"S 	c #4E403F",
"T 	c #655555",
"U 	c #2D211D",
"V 	c #403230",
"W 	c #4A3B39",
"X 	c #413331",
"Y 	c #776464",
"Z 	c #61504F",
"` 	c #5F4E4D",
" .	c #786565",
"..	c #6E5B5B",
"+.	c #826D6D",
"@.	c #836E6E",
"#.	c #715E5E",
"$.	c #857474",
"%.	c #6E5E5D",
"&.	c #887676",
"*.	c #887777",
"=.	c #746564",
"-.	c #6F605F",
";.	c #8A7878",
">.	c #7A6666",
",.	c #716261",
"'.	c #8C7A7A",
").	c #675756",
"!.	c #816E6E",
"~.	c #898989",
"{.	c #907C7C",
"].	c #9CC8CC",
"^.	c #9E8B8B",
"/.	c #9CC8CD",
"(.	c #68989C",
"_.	c #9DC9CD",
":.	c #67979C",
"<.	c #9D8A8A",
"[.	c #67979B",
"}.	c #9B8888",
"|.	c #988585",
"1.	c #7E6C6C",
"2.	c #9C8989",
"3.	c #857070",
"4.	c #846F6F",
"5.	c #948181",
"6.	c #6A5959",
"7.	c #877676",
"8.	c #806F6F",
"9.	c #6F5C5C",
"0.	c #725F5F",
"a.	c #937F7F",
"b.	c #6E491E",
"c.	c #56443F",
"d.	c #756261",
"e.	c #917D7D",
"f.	c #705D5C",
"g.	c #B68011",
"h.	c #785123",
"i.	c #504241",
"j.	c #7C6B6B",
"k.	c #816D6D",
"l.	c #938080",
"m.	c #887474",
"n.	c #2D201D",
"o.	c #594A4A",
"p.	c #5E4D4C",
"q.	c #8F7C7C",
"r.	c #9A8787",
"s.	c #847070",
"t.	c #816C6C",
"u.	c #766363",
"v.	c #604F4E",
"w.	c #4B3D3C",
"x.	c #625353",
"y.	c #836F6F",
"z.	c #857171",
"A.	c #715F5F",
"B.	c #4C3E3D",
"C.	c #322622",
"D.	c #3F3230",
"E.	c #3D302E",
"F.	c #261913",
"G.	c #483937",
"H.	c #534342",
"I.	c #463836",
"J.	c #493B39",
"K.	c #4A3B3A",
"L.	c #453736",
"M.	c #493A38",
"N.	c #3C2F2D",
"O.	c #332623",
"P.	c #593229",
"Q.	c #241610",
"R.	c #5D4C4B",
"S.	c #514140",
"T.	c #30231F",
"U.	c #6B5D5C",
"V.	c #635353",
"W.	c #675757",
"X.	c #5F4F4E",
"Y.	c #574746",
"Z.	c #433634",
"`.	c #281A15",
" +	c #50403F",
".+	c #685655",
"++	c #796666",
"@+	c #695757",
"#+	c #382C29",
"$+	c #867373",
"%+	c #917F7F",
"&+	c #7C6969",
"*+	c #726060",
"=+	c #5C4D4D",
"-+	c #504242",
";+	c #2B1E19",
">+	c #584949",
",+	c #564847",
"'+	c #574848",
")+	c #524443",
"!+	c #584A4A",
"~+	c #4F4141",
"{+	c #514342",
"]+	c #22140D",
"^+	c #261812",
"/+	c #2A1C18",
"(+	c #2A1C17",
"_+	c #704035",
":+	c #6B3D32",
"<+	c #6F3F34",
"                                                                                ",
"                                                                                ",
"                    . +         @ @ @ @ @ @ @ @           # #               $ % ",
"  & * * = & - ; > * , & > ' @ @ @ @ @ @ @ @ @ @ @ @ ) ! ~ { ! & ] ^ /   & / & ( ",
"/ _ : < [ } | 1 2 3 4 _ @ @ @ @ 5 5 5 5 5 5 5 5 @ @ @ @ 6 7 8 9 0 a / / b c d / ",
"/ e f g ; h i j k l m @ @ @ 5 n n n n n n n n n n 5 @ @ @ o p q r s t u e o v / ",
"  & w x y z 8 8 8 A @ @ 5 n n n n n n n n n n n n n n 5 @ @ 8 B C D E F G H !   ",
"  / I J K L M M M @ @ 5 n n n n n n n n n n n n n n n n 5 @ @ M M N O P Q R /   ",
"  / S T z U V W @ @ 5 n n n n n n n n n n n n n n n n n n 5 @ @ W X H z Y Z /   ",
"  / `  .A U ..+.@ @ n n n n n n n n n n n n n n n n n n n n @ @ @.#.H z Y Z /   ",
"  / `  .A U ..@ @ 5 n n n n n n n n n n n n n n n n n n n n 5 @ @ $.H z Y Z /   ",
"  / %.&.A U ..@ @ n n n n n n n n n n n n n n n n n n n n n n @ @ *.H z Y Z /   ",
"  / =.3 A U @ @ 5 n n n n n n n n n n n n n n n n n n n n n n 5 @ @ H z Y Z /   ",
"  / -.;.A U @ @ 5 n 5 @ @ @ @ 5 n n n n n n n n 5 @ @ @ @ 5 n 5 @ @ H z Y Z /   ",
"  / Z >.A U @ @ 5 n @ n n @ @ @ n n n n n n n n @ n n @ @ @ n 5 @ @ H z Y Z /   ",
"  / ,.'.A U @ @ 5 5 @ n n @ @ @ n n n n n n n n @ n n @ @ @ 5 5 @ @ H z Y Z /   ",
"  / ).!.A U @ @ ~.5 @ @ @ @ @ @ n n @ @ @ @ n n @ @ @ @ @ @ 5 ~.@ @ H z Y Z /   ",
"  / `  .A U ..@ @ 5 @ @ @ @ @ @ n @ @ @ @ @ @ n @ @ @ @ @ @ 5 @ @ *.H z Y Z /   ",
"  / `  .A U ..@ @ ~.5 @ @ @ @ 5 n @ n n n n @ n 5 @ @ @ @ 5 ~.@ @ *.H z Y Z /   ",
"  / `  .A U ..{.@ @ 5 ].].].5 n n @ @ @ @ @ @ n n 5 ].].].5 @ @ ^.*.H z Y Z /   ",
"  / `  .A U ..{.@ @ ~./././.n n n n n n n n n n n n /././.~.@ @ ^.*.H z Y Z /   ",
"  / `  .A U ..{.^.@ @ (.]._.n n n n n n n n n n n n ]./.:.@ @ ^.^.*.H z Y Z /   ",
"  / `  .A U ..{.^.<.@ @ :.].5 n n n n n n n n n n 5 ].[.@ @ }.^.|.1.H z Y Z /   ",
"  / `  .A U ..{.^.2.3.@ @ @ [.5 n n n n n n n n 5 :.@ @ @ 4.}.^.5.Y H z Y Z /   ",
"  / `  .A U ..{.^.2.3.6.@ @ @ @ ~.5 5 5 5 5 5 ~.@ @ @ @ 6.4.}.^.<.7.H z Y Z /   ",
"  / `  .A U ..{.^.2.3.6.8.@ @ @ @ @ @ @ @ @ @ @ @ @ 9.0.6.4.}.^.a.s H z Y Z /   ",
"  / `  .A U ..{.^.2.3.6.@ @ 5 n @ @ @ @ @ @ @ @ b.c.d.0.6.4.}.^.e.f.H z Y Z /   ",
"  / `  .A U ..{.^.2.3.6.@ @ n n n n n @ @ @ g.h.i.j.k.0.6.4.}.^.e.f.H z Y Z /   ",
"  / `  .A U ..{.^.2.3.6.@ @ n n n n n n 5 @ @ @ @ l.m.0.6.4.}.^.e.f.n.o.Y Z /   ",
"  / p.Y A U ..q.<.r.s.6.@ @ 5 n n n n n n n 5 @ @ @ t.0.6.4.r.<.{.f.n.o.u.v./   ",
"  / w.x.A U ..y.r z.+.6.A.@ @ 5 n n n n n n n n 5 @ @ 0.6.t.z.r y.f.H z f B./   ",
"  / C.D.E.F.G.H.H.H.H.I.J.H.@ @ @ @ @ @ @ @ @ @ 5 @ @ K.L.H.H.H.H.M.{ N.D.O./   ",
"P.Q.R.S.T.U.V.W.,.-.X.R.R.R.R.@ @ @ @ @ @ @ @ @ @ @ R.R.R.R.R.R.R.Y.Z.`. +R.*   ",
"/ .+++@+#+;.!.$+%+3 &+++++++++++++@ @ @ @ !.++++@ ++++++++++++++++*+A U .+++X / ",
"/ i.=+-+;+>+=+=+=+=+=+=+=+=+=+=+@ @ 5 5 @ @ ,+z >+,+'+z =+=+=+=+)+=+!+x ~+=+{+/ ",
"  & & ! ]+' ' ^+' * ; ~ F.F.F.t ) @ @ n 5 @ @ ; O `.] ^ ) , Q.; ' ' ^+/+' ^+(+  ",
"          # _+:+<+    . .         @ @ 5 @ @                   . .               ",
"                                    @ @ @                                       ",
"                                      @                                         ",
"                                                                                "};
