/* XPM */
static char * wall_L_xpm[] = {
"40 40 186 2",
"  	c #000000",
". 	c #090403",
"+ 	c #1C110E",
"@ 	c #231511",
"# 	c #2B1A15",
"$ 	c #39231B",
"% 	c #3F271E",
"& 	c #492D24",
"* 	c #6E4435",
"= 	c #8E5E52",
"- 	c #8A594C",
"; 	c #835241",
"> 	c #835140",
", 	c #774A3A",
"' 	c #8C5C4F",
") 	c #825140",
"! 	c #78493A",
"~ 	c #704436",
"{ 	c #553429",
"] 	c #7B4C3C",
"^ 	c #704536",
"/ 	c #643E30",
"( 	c #6B4234",
"_ 	c #3C251D",
": 	c #855649",
"< 	c #814F3F",
"[ 	c #744738",
"} 	c #794A3B",
"| 	c #6A4133",
"1 	c #663F31",
"2 	c #020101",
"3 	c #150C09",
"4 	c #3B241C",
"5 	c #452B22",
"6 	c #8B5B4D",
"7 	c #845241",
"8 	c #653E31",
"9 	c #825040",
"0 	c #623C2F",
"a 	c #6C4334",
"b 	c #130A08",
"c 	c #442A21",
"d 	c #7F4E3E",
"e 	c #7B4B3C",
"f 	c #734638",
"g 	c #613C2F",
"h 	c #060302",
"i 	c #190F0C",
"j 	c #81503F",
"k 	c #7A4B3B",
"l 	c #714537",
"m 	c #82503F",
"n 	c #674032",
"o 	c #100907",
"p 	c #8D5D50",
"q 	c #523228",
"r 	c #6F4536",
"s 	c #1A0F0C",
"t 	c #1B100E",
"u 	c #77493A",
"v 	c #754739",
"w 	c #5A372C",
"x 	c #040202",
"y 	c #120907",
"z 	c #110907",
"A 	c #7E4E3D",
"B 	c #754839",
"C 	c #684032",
"D 	c #080403",
"E 	c #170D0B",
"F 	c #734637",
"G 	c #030201",
"H 	c #804F3F",
"I 	c #4E3026",
"J 	c #7C4D3C",
"K 	c #7D4D3D",
"L 	c #5F3A2E",
"M 	c #3E261E",
"N 	c #4B2E24",
"O 	c #6F4436",
"P 	c #663F32",
"Q 	c #1E120F",
"R 	c #291914",
"S 	c #331F19",
"T 	c #7E5144",
"U 	c #714637",
"V 	c #6C4234",
"W 	c #784A3A",
"X 	c #6D4234",
"Y 	c #5C392D",
"Z 	c #432920",
"` 	c #6C4134",
" .	c #050202",
"..	c #221511",
"+.	c #2A1914",
"@.	c #37221A",
"#.	c #482C23",
"$.	c #825447",
"%.	c #89594A",
"&.	c #523328",
"*.	c #724537",
"=.	c #764839",
"-.	c #070403",
";.	c #0C0604",
">.	c #190D0A",
",.	c #301D17",
"'.	c #3A241C",
").	c #58362B",
"!.	c #784C3E",
"~.	c #794B3B",
"{.	c #070303",
"].	c #140B09",
"^.	c #251612",
"/.	c #1F120E",
"(.	c #352019",
"_.	c #3D251D",
":.	c #472C23",
"<.	c #87584C",
"[.	c #4D3026",
"}.	c #1B100D",
"|.	c #1F130F",
"1.	c #2A1A15",
"2.	c #352119",
"3.	c #885749",
"4.	c #885747",
"5.	c #603B2F",
"6.	c #543429",
"7.	c #150C0A",
"8.	c #8D5D51",
"9.	c #885748",
"0.	c #714536",
"a.	c #6D4335",
"b.	c #724637",
"c.	c #694133",
"d.	c #6E4335",
"e.	c #010000",
"f.	c #8B5A4D",
"g.	c #865444",
"h.	c #8E5E51",
"i.	c #8A594B",
"j.	c #7C4C3C",
"k.	c #895849",
"l.	c #633D30",
"m.	c #7F4F3E",
"n.	c #5D392D",
"o.	c #7E4D3D",
"p.	c #1A100D",
"q.	c #855445",
"r.	c #673F32",
"s.	c #4C2F25",
"t.	c #503127",
"u.	c #6F4336",
"v.	c #603B2E",
"w.	c #603C2F",
"x.	c #482C24",
"y.	c #40281F",
"z.	c #865545",
"A.	c #452A21",
"B.	c #56352A",
"C.	c #4F3127",
"D.	c #482C22",
"E.	c #3F271F",
"F.	c #8A594A",
"G.	c #432921",
"H.	c #5E3A2D",
"I.	c #513228",
"J.	c #7F5245",
"K.	c #8A5B4E",
"L.	c #5C382D",
"M.	c #623D30",
"N.	c #7B4F43",
"O.	c #6F4435",
"P.	c #87584B",
"Q.	c #855343",
"R.	c #804F3E",
"S.	c #6D4334",
"T.	c #8A5B4F",
"U.	c #7A4F43",
"V.	c #7D5042",
"W.	c #7D4E3E",
"X.	c #865445",
"Y.	c #010100",
"Z.	c #050302",
"`.	c #87594C",
" +	c #815447",
".+	c #714636",
"              . + + + @ # $ % & * = - ; > > , ' > > > ) ! ~ { ] ^ ^ ^ ^ / ( { _ ",
"              . + + + @ # $ % & * = : ) > > > > > > > < [ ~ { ] ( } ^ ^ | 1 { _ ",
"              2 3 + + @ # $ 4 5 * = 6 7 > > > > > > > > } ~ { ] 8 9 ^ ^ 0 a { _ ",
"                b + + @ # $ $ c * = 6 7 > > > > > > > d e f { ] ^ ^ ^ ^ ^ g { _ ",
"              h i + + @ # $ % & * = 6 7 > > > > > > > j k l { ] ^ ^ ^ ^ ^ g { _ ",
"                b + + @ # $ % & * = 6 7 > > > > > > > m k l { ] ^ ^ ^ ^ n g { _ ",
"              . o i + @ # $ % & * = 6 7 > > > > > > p d ~ q { ] ^ ^ ^ ^ r g { _ ",
"              . s t + @ # $ % & * = 6 7 > > > > > u v m u w { ] ^ ^ ^ ^ 1 | { _ ",
"              x y z + @ # $ % & * = 6 7 > > > > > A > j B ~ { ] ^ ^ ^ ^ C C { _ ",
"              D z E + @ # $ % & * = 6 7 > > > > > > > d e F { ] ^ ^ ^ ^ * a { _ ",
"                G E + @ # $ % & * = 6 7 > > > > > > [ H B I { ] ^ ^ ^ ^ ^ ( { _ ",
"              x y G + @ # $ % & * = 6 7 J > K e e e e | L M N O ^ ^ ^ ^ ^ P { _ ",
"              2 x   Q R S $ % & * T 6 7 K B U ~ V 8 8 W X Y Z ` ^ ^ ^ ^ ^ / { _ ",
"                     ...+.@.M #.& ^ $.%.&.U d > > > *.=.} ~ { ] ^ ^ ^ ^ ^ a { _ ",
"                -.2 ;.    >.,.'.).!.6 7 ~.> > > > > > H k *.{ ] ^ ^ ^ ^ ^ g { _ ",
"                {.].^.3 /.(._.:.* <.6 7 > > > u ] > > H k *.{ ] ^ ^ ^ ^ n &.[._ ",
"              . }.{.|.1.2.$ % & * = 3.4.> > > 9 ) > > =.> f { ] ^ ^ ^ ^ r 5.6._ ",
"              2 7.+ + @ # $ % & * = 8.9.> > > > > > > m k 0.{ ] ^ ^ ^ ^ 0 g { _ ",
"              x E + + @ # $ % & * = 6 7 > > > > > > > j k l { ] ^ ^ ^ ^ | g { _ ",
"              D }.+ + @ # $ % & * = 6 7 > > > > > > > d l ~ { ] ^ ^ ^ ^ / g { _ ",
"              . + + + @ # $ % & * = 6 7 > > > > > > > j } ~ { ] ^ ^ ^ C a.g { _ ",
"              . + + + @ # $ % & * = 6 7 > > > > > > ] F b.0 { ] ^ ^ ^ ^ c.P { _ ",
"              . + + + @ # $ % & * = 6 7 > > > > > k ~ ~ d.L { ] ^ ^ ^ ^ 1 / { _ ",
"              e.b + + @ # $ % & * = f.7 > > > > > ! j 0.~ ~ { ] ^ r 0.^ ^ 0 { _ ",
"              . + + + @ # $ % & * p g.> > > > > > > ! ] f ~ { ] ^ C W ^ ^ c.{ _ ",
"              . + + + @ # $ % & * p g.> > > > > > > > ] f ~ { ] ^ ^ ^ ^ ^ c.{ _ ",
"              . + + + @ # $ % & * p g.> > > > > > > > B } ~ { ] ^ ^ ^ ^ ^ 0 { _ ",
"              . + + + @ # $ % & * h.i.7 > > > > > > > j.k b.{ ] ^ ^ ^ ^ ^ | { _ ",
"              . + + + @ # $ % & * 8.k.7 > > > > > > > e [ ~ { ] ^ ^ ^ ^ ^ C { _ ",
"              . + + + @ # $ % & * = 6 7 > > > > > > > ) ! ~ { ] ^ ^ ^ ^ ^ l.{ _ ",
"                b + + @ # $ % & * = h.k.> > > > > > > m.e F { ] ^ ^ ^ ^ * n.c $ ",
"                b + + @ # $ % & * = 6 7 > > > > > o.9.j v ~ { ] ^ ^ ^ V C g { _ ",
"              {.p.+ + @ # $ % & * = 6 7 > > > > > H q.d ~ ~ { ] ^ ^ ^ r.8 n.s._ ",
"              . + + + @ # $ % & * = 6 7 > > > > > > > > } ~ t.u.O v.w.w.v.x.y.$ ",
"              . + + + @ # $ _.:.* = ' z.> > > > > > > ] f ~ A.B.Y & C.C.c D.E.'.",
"              . + + + @ # $ $ c * = = F.> > > > > > > ] f ~ G.c & / H.H.g n I._ ",
"              . + + + @ # $ % & * = J.K.> > > > > > > B } ~ & L./ ^ ^ ^ M.0 { _ ",
"              . + + + @ # $ 4 5 * = N.O.P.Q.> > > > > R.b.~ I.f ^ ^ ^ ^ S.| { _ ",
"              . + + + @ # $ % & * T.U.V.W.X.> > > > > < k *.{ ] ^ ^ ^ ^ | C { _ ",
"              Y.Z.s + @ # $ % & * `. +8.> > > > > > > ) } ~ { ] ^ ^ V , .+l.{ _ "};
