/* XPM */
static char * wall_U_xpm[] = {
"40 40 186 2",
"  	c #000000",
". 	c #010100",
"+ 	c #090403",
"@ 	c #070303",
"# 	c #010000",
"$ 	c #080403",
"% 	c #040202",
"& 	c #020101",
"* 	c #060302",
"= 	c #050302",
"- 	c #1C110E",
"; 	c #1A100D",
"> 	c #130A08",
", 	c #1B100D",
"' 	c #170D0B",
") 	c #150C0A",
"! 	c #070403",
"~ 	c #120907",
"{ 	c #030201",
"] 	c #110907",
"^ 	c #1A0F0C",
"/ 	c #100907",
"( 	c #190F0C",
"_ 	c #150C09",
": 	c #140B09",
"< 	c #1B100E",
"[ 	c #1F130F",
"} 	c #251612",
"| 	c #0C0604",
"1 	c #050202",
"2 	c #1E120F",
"3 	c #231511",
"4 	c #2A1A15",
"5 	c #221511",
"6 	c #291914",
"7 	c #2B1A15",
"8 	c #352119",
"9 	c #1F120E",
"0 	c #2A1914",
"a 	c #331F19",
"b 	c #39231B",
"c 	c #352019",
"d 	c #190D0A",
"e 	c #37221A",
"f 	c #3F271E",
"g 	c #3B241C",
"h 	c #3D251D",
"i 	c #301D17",
"j 	c #3E261E",
"k 	c #492D24",
"l 	c #452B22",
"m 	c #442A21",
"n 	c #472C23",
"o 	c #3A241C",
"p 	c #482C23",
"q 	c #6E4435",
"r 	c #58362B",
"s 	c #87594C",
"t 	c #8A5B4F",
"u 	c #8E5E52",
"v 	c #8D5D51",
"w 	c #8E5E51",
"x 	c #8D5D50",
"y 	c #87584C",
"z 	c #784C3E",
"A 	c #704536",
"B 	c #7E5144",
"C 	c #815447",
"D 	c #7A4F43",
"E 	c #7B4F43",
"F 	c #7F5245",
"G 	c #8C5C4F",
"H 	c #8B5B4D",
"I 	c #895849",
"J 	c #8A594B",
"K 	c #865444",
"L 	c #8B5A4D",
"M 	c #885749",
"N 	c #825447",
"O 	c #855649",
"P 	c #8A594C",
"Q 	c #7D5042",
"R 	c #6F4435",
"S 	c #8A5B4E",
"T 	c #8A594A",
"U 	c #865545",
"V 	c #845241",
"W 	c #835140",
"X 	c #885748",
"Y 	c #885747",
"Z 	c #89594A",
"` 	c #825140",
" .	c #835241",
"..	c #7D4E3E",
"+.	c #87584B",
"@.	c #794B3B",
"#.	c #523328",
"$.	c #7D4D3D",
"%.	c #7C4D3C",
"&.	c #865445",
"*.	c #855343",
"=.	c #714637",
"-.	c #754839",
";.	c #7F4E3E",
">.	c #774A3A",
",.	c #825040",
"'.	c #77493A",
").	c #704436",
"!.	c #7B4B3C",
"~.	c #7B4C3C",
"{.	c #6C4234",
"].	c #804F3F",
"^.	c #7E4D3D",
"/.	c #78493A",
"(.	c #7A4B3B",
"_.	c #653E31",
":.	c #7E4E3D",
"<.	c #855445",
"[.	c #81503F",
"}.	c #724537",
"|.	c #744738",
"1.	c #754739",
"2.	c #814F3F",
"3.	c #804F3E",
"4.	c #7F4F3E",
"5.	c #7C4C3C",
"6.	c #714536",
"7.	c #734637",
"8.	c #82503F",
"9.	c #764839",
"0.	c #784A3A",
"a.	c #6A4133",
"b.	c #794A3B",
"c.	c #724637",
"d.	c #734638",
"e.	c #6E4335",
"f.	c #714537",
"g.	c #6D4234",
"h.	c #5F3A2E",
"i.	c #623C2F",
"j.	c #5C392D",
"k.	c #4E3026",
"l.	c #5A372C",
"m.	c #523228",
"n.	c #553429",
"o.	c #513228",
"p.	c #432921",
"q.	c #452A21",
"r.	c #503127",
"s.	c #432920",
"t.	c #4B2E24",
"u.	c #5C382D",
"v.	c #56352A",
"w.	c #6F4336",
"x.	c #6C4134",
"y.	c #6F4436",
"z.	c #643E30",
"A.	c #6B4234",
"B.	c #603B2E",
"C.	c #684032",
"D.	c #6F4536",
"E.	c #5E3A2D",
"F.	c #4F3127",
"G.	c #603C2F",
"H.	c #673F32",
"I.	c #714636",
"J.	c #6D4334",
"K.	c #623D30",
"L.	c #613C2F",
"M.	c #663F31",
"N.	c #694133",
"O.	c #6D4335",
"P.	c #674032",
"Q.	c #633D30",
"R.	c #482C22",
"S.	c #482C24",
"T.	c #5D392D",
"U.	c #663F32",
"V.	c #603B2F",
"W.	c #6C4334",
"X.	c #3F271F",
"Y.	c #40281F",
"Z.	c #4C2F25",
"`.	c #543429",
" +	c #4D3026",
".+	c #3C251D",
"                                                                                ",
"                                                                                ",
"                                                                                ",
"                                                                                ",
"                                                                                ",
"                                                                                ",
"                                                                                ",
". + + + + + + @     + + + + + + # + + + $ % & +       & %   $ % + +   *   & + + ",
"= - - - - - - ; > > - - - - - - > - - - , ' ) , @ !   % ~ { ] ~ ^ / > ( > _ - - ",
"^ - - - - - - - - - - - - - - - - - - - - - - @ : &     { ' ' ] < ( - - - - - - ",
"- - - - - - - - - - - - - - - - - - - - - - - [ } | 1 2 - - - - - - - - - - - - ",
"3 3 3 3 3 3 3 3 3 3 3 3 3 3 3 3 3 3 3 3 3 3 3 4 _   5 6 3 3 3 3 3 3 3 3 3 3 3 3 ",
"7 7 7 7 7 7 7 7 7 7 7 7 7 7 7 7 7 7 7 7 7 7 7 8 9   0 a 7 7 7 7 7 7 7 7 7 7 7 7 ",
"b b b b b b b b b b b b b b b b b b b b b b b b c d e b b b b b b b b b b b b b ",
"f f g f b h f f f f f f f f f f f f f f f f f f h i j f f f f f f f f f b g f f ",
"k k l k m n k k k k k k k k k k k k k k k k k k n o p k k k k k k k k k m l k k ",
"q q q q q q q q q q q q q q q q q q q q q q q q q r k q q q q q q q q q q q q q ",
"s t u u u u u u u u u v w x x x u u u u u u u u y z A B u u u u u u u u u u u u ",
"C D E F u G H H H w H I J K K K L H H H H H v M H H N H H H H H H H H H H H O P ",
"v Q R S T U V V V I V V V W W W V V V V V V X Y V V Z V V V V V V V V V V V `  .",
"W ..+.W W W W W W W W W W W W W W W W W W W W W W @.#.$.%.W W W W W W W W W W W ",
"W &.*.W W W W W W W W W W W W W W W W W W W W W W W =.-.W W W W W W W W W W W W ",
"W W W W W W W W W W W W W W W W W W W W W W W W W W ;.=.$.W W W W W W W W W W >.",
"W W W W W W W W W W W W W W W W W W W W W W W ,.'.W W ).!.W W W W W W W W W W G ",
"W W W W W W W W W W W W W W W W W W W W W W W ` ~.W W {.!.W W W W W W W W W W W ",
"W W W W W W W ].^.W W W W W W W /.(.W W W W W W W W W _.!.W W :.'.W W W W W W W ",
"W W W W W W W <.X W W W W W W /.[.).~.W W W W W W W }._.!.|.W W 1.x W W W W W W ",
"` 2.3.-.~.~.W ;.[.4.` !.5.-.~.~.6.).7.[.;.[.8.9.].].9.0.a.].;.[.8.;.8.[.;.W 2.` ",
"b.(.c.b.d.d.b.).1.!./.|.(.b.d.d.).e.c.b.f.(.(.W (.(.b.g.h.-.!.-.'.).(.(.!.b.|./.",
").}.).).).).).).).7.).).c.).).).).h.i.).).f.6.d.}.}.).j.j k.7.).l.m.f.f.d.).).).",
"n.n.o.k p.q.r.n.n.n.n.n.n.n.n.n.n.n.n.n.n.n.n.n.n.n.n.s.t.n.n.n.n.n.n.n.n.n.n.n.",
"~.~.d.u.m v.w.~.~.~.~.~.~.~.~.~.~.~.~.~.~.~.~.~.~.~.~.x.y.~.~.~.~.~.~.~.~.~.~.~.",
"A A A z.k j.y.A A A A A A A A A A A A A A A A A A A A A A A A A A A A A A _.A.A ",
"A A A A z.k B.A A A A A A A A C.D.A A A A A A A A A A A A A A A A A A A A ,.b.A ",
"{.A A A E.F.G.A A A A A A A A 0.6.A A A A A A A A A A A A A A A A A A A A A A A ",
">.A A A E.F.G.H.{.A A A A A A A A A A C.A A A A A A A A A A A A A A A A A A A A ",
"I.a.J.K.L.m B._.C.q A A A A A A A M.N.O.z.a.i.D.P.A A A A A q C.M.D.P.A A i.a.z.",
"Q.C.a.i.P.R.S.T.L.T.Q.C.a.i.N.N.i.z.U.L.L.L.L.V.#.L.W.z.U.A.W.C.a.L.L.L.L.W.M.A.",
"n.n.n.n.o.X.Y.Z.n.m n.n.n.n.n.n.n.n.n.n.n.n.n.`. +n.n.n.n.n.n.n.n.n.n.n.n.n.n.n.",
".+.+.+.+.+o b .+.+b .+.+.+.+.+.+.+.+.+.+.+.+.+.+.+.+.+.+.+.+.+.+.+.+.+.+.+.+.+.+"};
