/* XPM */
static char * wall_R_xpm[] = {
"40 40 186 2",
"  	c #3C251D",
". 	c #553429",
"+ 	c #633D30",
"@ 	c #714636",
"# 	c #774A3A",
"$ 	c #6C4234",
"% 	c #704536",
"& 	c #7B4C3C",
"* 	c #704436",
"= 	c #794A3B",
"- 	c #825140",
"; 	c #835140",
"> 	c #8D5D51",
", 	c #815447",
"' 	c #87594C",
") 	c #6E4435",
"! 	c #492D24",
"~ 	c #3F271E",
"{ 	c #39231B",
"] 	c #2B1A15",
"^ 	c #231511",
"/ 	c #1C110E",
"( 	c #1A0F0C",
"_ 	c #050302",
": 	c #010100",
"< 	c #000000",
"[ 	c #684032",
"} 	c #6A4133",
"| 	c #724537",
"1 	c #7A4B3B",
"2 	c #814F3F",
"3 	c #865445",
"4 	c #7D4E3E",
"5 	c #7D5042",
"6 	c #7A4F43",
"7 	c #8A5B4F",
"8 	c #090403",
"9 	c #6D4334",
"0 	c #734638",
"a 	c #513228",
"b 	c #724637",
"c 	c #804F3E",
"d 	c #855343",
"e 	c #87584B",
"f 	c #6F4435",
"g 	c #7B4F43",
"h 	c #8E5E52",
"i 	c #452B22",
"j 	c #3B241C",
"k 	c #623C2F",
"l 	c #623D30",
"m 	c #643E30",
"n 	c #5C382D",
"o 	c #754839",
"p 	c #8A5B4E",
"q 	c #7F5245",
"r 	c #674032",
"s 	c #613C2F",
"t 	c #5E3A2D",
"u 	c #442A21",
"v 	c #432921",
"w 	c #8A594A",
"x 	c #3A241C",
"y 	c #3F271F",
"z 	c #482C22",
"A 	c #4F3127",
"B 	c #5C392D",
"C 	c #56352A",
"D 	c #452A21",
"E 	c #865545",
"F 	c #8C5C4F",
"G 	c #472C23",
"H 	c #3D251D",
"I 	c #40281F",
"J 	c #482C24",
"K 	c #603B2E",
"L 	c #603C2F",
"M 	c #6F4436",
"N 	c #6F4336",
"O 	c #503127",
"P 	c #845241",
"Q 	c #8B5B4D",
"R 	c #4C2F25",
"S 	c #5D392D",
"T 	c #653E31",
"U 	c #673F32",
"V 	c #7F4E3E",
"W 	c #855445",
"X 	c #804F3F",
"Y 	c #1A100D",
"Z 	c #070303",
"` 	c #754739",
" .	c #81503F",
"..	c #885748",
"+.	c #7E4D3D",
"@.	c #130A08",
"#.	c #734637",
"$.	c #7B4B3C",
"%.	c #7F4F3E",
"&.	c #895849",
"*.	c #8E5E51",
"=.	c #78493A",
"-.	c #744738",
";.	c #7C4C3C",
">.	c #8A594B",
",.	c #865444",
"'.	c #8D5D50",
").	c #694133",
"!.	c #784A3A",
"~.	c #714536",
"{.	c #6F4536",
"].	c #8B5A4D",
"^.	c #010000",
"/.	c #663F31",
"(.	c #5F3A2E",
"_.	c #6E4335",
":.	c #663F32",
"<.	c #6D4335",
"[.	c #714537",
"}.	c #1B100D",
"|.	c #080403",
"1.	c #170D0B",
"2.	c #040202",
"3.	c #82503F",
"4.	c #150C0A",
"5.	c #020101",
"6.	c #543429",
"7.	c #603B2F",
"8.	c #764839",
"9.	c #825040",
"0.	c #885747",
"a.	c #885749",
"b.	c #352119",
"c.	c #2A1A15",
"d.	c #1F130F",
"e.	c #4D3026",
"f.	c #523328",
"g.	c #77493A",
"h.	c #87584C",
"i.	c #352019",
"j.	c #1F120E",
"k.	c #150C09",
"l.	c #251612",
"m.	c #140B09",
"n.	c #794B3B",
"o.	c #784C3E",
"p.	c #58362B",
"q.	c #301D17",
"r.	c #190D0A",
"s.	c #0C0604",
"t.	c #070403",
"u.	c #6C4334",
"v.	c #714637",
"w.	c #89594A",
"x.	c #825447",
"y.	c #482C23",
"z.	c #3E261E",
"A.	c #37221A",
"B.	c #2A1914",
"C.	c #221511",
"D.	c #050202",
"E.	c #6C4134",
"F.	c #432920",
"G.	c #6D4234",
"H.	c #7D4D3D",
"I.	c #7E5144",
"J.	c #331F19",
"K.	c #291914",
"L.	c #1E120F",
"M.	c #4B2E24",
"N.	c #7C4D3C",
"O.	c #030201",
"P.	c #120907",
"Q.	c #6B4234",
"R.	c #4E3026",
"S.	c #110907",
"T.	c #7E4E3D",
"U.	c #5A372C",
"V.	c #1B100E",
"W.	c #523228",
"X.	c #190F0C",
"Y.	c #100907",
"Z.	c #060302",
"`.	c #855649",
" +	c #835241",
".+	c #8A594C",
"  . + @ # $ % % & . * = - ; ; ; ; ; ; ; > , ' ) ! ~ { ] ^ / ( _ : < < < < < < < ",
"  . [ } % % % % & . | 1 2 ; ; ; ; ; 3 4 5 6 7 ) ! ~ { ] ^ / / / 8 < < < < < < < ",
"  . } 9 % % % % 0 a * b c ; ; ; ; ; d e f g h ) i j { ] ^ / / / 8 < < < < < < < ",
"  . k l % % % m n ! * = o ; ; ; ; ; ; ; p q h ) ! ~ { ] ^ / / / 8 < < < < < < < ",
"  a r s t t m ! u v * 0 & ; ; ; ; ; ; ; w h h ) u { { ] ^ / / / 8 < < < < < < < ",
"x y z u A A ! B C D * 0 & ; ; ; ; ; ; ; E F h ) G H { ] ^ / / / 8 < < < < < < < ",
"{ I J K L L K M N O * = ; ; ; ; ; ; ; ; P Q h ) ! ~ { ] ^ / / / 8 < < < < < < < ",
"  R S T U % % % & . * * V W X ; ; ; ; ; P Q h ) ! ~ { ] ^ / / Y Z < < < < < < < ",
"  . s [ $ % % % & . * `  ...+.; ; ; ; ; P Q h ) ! ~ { ] ^ / / @.< < < < < < < < ",
"{ u S ) % % % % & . #.$.%.; ; ; ; ; ; ; &.*.h ) ! ~ { ] ^ / / @.< < < < < < < < ",
"  . + % % % % % & . * =.- ; ; ; ; ; ; ; P Q h ) ! ~ { ] ^ / / / 8 < < < < < < < ",
"  . [ % % % % % & . * -.$.; ; ; ; ; ; ; P &.> ) ! ~ { ] ^ / / / 8 < < < < < < < ",
"  . } % % % % % & . b 1 ;.; ; ; ; ; ; ; P >.*.) ! ~ { ] ^ / / / 8 < < < < < < < ",
"  . k % % % % % & . * = o ; ; ; ; ; ; ; ; ,.'.) ! ~ { ] ^ / / / 8 < < < < < < < ",
"  . ).% % % % % & . * 0 & ; ; ; ; ; ; ; ; ,.'.) ! ~ { ] ^ / / / 8 < < < < < < < ",
"  . ).% % !.[ % & . * 0 & =.; ; ; ; ; ; ; ,.'.) ! ~ { ] ^ / / / 8 < < < < < < < ",
"  . k % % ~.{.% & . * * ~. .=.; ; ; ; ; P ].h ) ! ~ { ] ^ / / @.^.< < < < < < < ",
"  . m /.% % % % & . (._.* * 1 ; ; ; ; ; P Q h ) ! ~ { ] ^ / / / 8 < < < < < < < ",
"  . :.).% % % % & . k b #.& ; ; ; ; ; ; P Q h ) ! ~ { ] ^ / / / 8 < < < < < < < ",
"  . s <.[ % % % & . * =  .; ; ; ; ; ; ; P Q h ) ! ~ { ] ^ / / / 8 < < < < < < < ",
"  . s m % % % % & . * [.V ; ; ; ; ; ; ; P Q h ) ! ~ { ] ^ / / }.|.< < < < < < < ",
"  . s } % % % % & . [.1  .; ; ; ; ; ; ; P Q h ) ! ~ { ] ^ / / 1.2.< < < < < < < ",
"  . s k % % % % & . ~.1 3.; ; ; ; ; ; ; ..> h ) ! ~ { ] ^ / / 4.5.< < < < < < < ",
"  6.7.{.% % % % & . 0 ; 8.; ; - 9.; ; ; 0.a.h ) ! ~ { b.c.d.Z }.8 < < < < < < < ",
"  e.f.r % % % % & . | 1 X ; ; & g.; ; ; P Q h.) G H i.j.k.l.m.Z < < < < < < < < ",
"  . s % % % % % & . | 1 X ; ; ; ; ; ; n.P Q o.p.x q.r.< < s.5.t.< < < < < < < < ",
"  . u.% % % % % & . * = 8.| ; ; ; V v.f.w.x.% ! y.z.A.B.C.D.< < < < < < < < < < ",
"  . m % % % % % E.F.B G.!.T T $ * v.o H.P Q I.) ! ~ { J.K.L.< 2.5.< < < < < < < ",
"  . :.% % % % % M M.z.(.} $.$.$.$.H.; N.P Q h ) ! ~ { ] ^ / O.P.2.< < < < < < < ",
"  . Q.% % % % % & . R.o X -.; ; ; ; ; ; P Q h ) ! ~ { ] ^ / 1.O.< < < < < < < < ",
"  . u.) % % % % & . #.$.V ; ; ; ; ; ; ; P Q h ) ! ~ { ] ^ / 1.S.|.< < < < < < < ",
"  . [ [ % % % % & . * o  .; T.; ; ; ; ; P Q h ) ! ~ { ] ^ / S.P.2.< < < < < < < ",
"  . } /.% % % % & . U.g.3.` g.; ; ; ; ; P Q h ) ! ~ { ] ^ / V.( 8 < < < < < < < ",
"  . s {.% % % % & . W.* V '.; ; ; ; ; ; P Q h ) ! ~ { ] ^ / X.Y.8 < < < < < < < ",
"  . s r % % % % & . [.1 3.; ; ; ; ; ; ; P Q h ) ! ~ { ] ^ / / @.< < < < < < < < ",
"  . s % % % % % & . [.1  .; ; ; ; ; ; ; P Q h ) ! ~ { ] ^ / / X.Z.< < < < < < < ",
"  . s % % % % % & . 0 $.V ; ; ; ; ; ; ; P Q h ) u { { ] ^ / / @.< < < < < < < < ",
"  . u.k % % 9.T & . * = ; ; ; ; ; ; ; ; P Q h ) i j { ] ^ / / k.5.< < < < < < < ",
"  . /.} % % = Q.& . * -.2 ; ; ; ; ; ; ; - `.h ) ! ~ { ] ^ / / / 8 < < < < < < < ",
"  . Q.m % % % % & . * =.- ; ; ; F # ; ;  +.+h ) ! ~ { ] ^ / / / 8 < < < < < < < "};
