/* XPM */
static char * wall_D_xpm[] = {
"40 40 186 2",
"  	c #3C251D",
". 	c #39231B",
"+ 	c #3A241C",
"@ 	c #553429",
"# 	c #4D3026",
"$ 	c #543429",
"% 	c #442A21",
"& 	c #4C2F25",
"* 	c #40281F",
"= 	c #3F271F",
"- 	c #513228",
"; 	c #6B4234",
"> 	c #663F31",
", 	c #6C4334",
"' 	c #613C2F",
") 	c #6A4133",
"! 	c #684032",
"~ 	c #663F32",
"{ 	c #643E30",
"] 	c #523328",
"^ 	c #603B2F",
"/ 	c #623C2F",
"( 	c #694133",
"_ 	c #633D30",
": 	c #5D392D",
"< 	c #482C24",
"[ 	c #482C22",
"} 	c #674032",
"| 	c #704536",
"1 	c #6F4536",
"2 	c #6E4435",
"3 	c #6D4335",
"4 	c #653E31",
"5 	c #603B2E",
"6 	c #623D30",
"7 	c #6D4334",
"8 	c #714636",
"9 	c #6C4234",
"0 	c #673F32",
"a 	c #603C2F",
"b 	c #4F3127",
"c 	c #5E3A2D",
"d 	c #774A3A",
"e 	c #714536",
"f 	c #784A3A",
"g 	c #794A3B",
"h 	c #825040",
"i 	c #492D24",
"j 	c #6F4436",
"k 	c #5C392D",
"l 	c #7B4C3C",
"m 	c #6C4134",
"n 	c #6F4336",
"o 	c #56352A",
"p 	c #5C382D",
"q 	c #734638",
"r 	c #4B2E24",
"s 	c #432920",
"t 	c #503127",
"u 	c #452A21",
"v 	c #432921",
"w 	c #704436",
"x 	c #714537",
"y 	c #523228",
"z 	c #5A372C",
"A 	c #734637",
"B 	c #4E3026",
"C 	c #3E261E",
"D 	c #724537",
"E 	c #5F3A2E",
"F 	c #724637",
"G 	c #78493A",
"H 	c #744738",
"I 	c #7B4B3C",
"J 	c #7A4B3B",
"K 	c #77493A",
"L 	c #754839",
"M 	c #6D4234",
"N 	c #835140",
"O 	c #6E4335",
"P 	c #754739",
"Q 	c #825140",
"R 	c #814F3F",
"S 	c #7F4E3E",
"T 	c #81503F",
"U 	c #82503F",
"V 	c #804F3F",
"W 	c #764839",
"X 	c #7C4C3C",
"Y 	c #7F4F3E",
"Z 	c #804F3E",
"` 	c #8D5D50",
" .	c #885748",
"..	c #855445",
"+.	c #7E4E3D",
"@.	c #7E4D3D",
"#.	c #8C5C4F",
"$.	c #7D4D3D",
"%.	c #714637",
"&.	c #855343",
"*.	c #865445",
"=.	c #7C4D3C",
"-.	c #794B3B",
";.	c #87584B",
">.	c #7D4E3E",
",.	c #835241",
"'.	c #845241",
").	c #89594A",
"!.	c #885747",
"~.	c #895849",
"{.	c #865545",
"].	c #8A594A",
"^.	c #8A5B4E",
"/.	c #6F4435",
"(.	c #7D5042",
"_.	c #8D5D51",
":.	c #8A594C",
"<.	c #855649",
"[.	c #8B5B4D",
"}.	c #825447",
"|.	c #885749",
"1.	c #8B5A4D",
"2.	c #865444",
"3.	c #8A594B",
"4.	c #8E5E51",
"5.	c #8E5E52",
"6.	c #7F5245",
"7.	c #7B4F43",
"8.	c #7A4F43",
"9.	c #815447",
"0.	c #7E5144",
"a.	c #784C3E",
"b.	c #87584C",
"c.	c #8A5B4F",
"d.	c #87594C",
"e.	c #58362B",
"f.	c #452B22",
"g.	c #482C23",
"h.	c #472C23",
"i.	c #3F271E",
"j.	c #3B241C",
"k.	c #301D17",
"l.	c #3D251D",
"m.	c #37221A",
"n.	c #190D0A",
"o.	c #352019",
"p.	c #2B1A15",
"q.	c #331F19",
"r.	c #2A1914",
"s.	c #000000",
"t.	c #1F120E",
"u.	c #352119",
"v.	c #231511",
"w.	c #291914",
"x.	c #221511",
"y.	c #150C09",
"z.	c #2A1A15",
"A.	c #1C110E",
"B.	c #1E120F",
"C.	c #050202",
"D.	c #0C0604",
"E.	c #251612",
"F.	c #1F130F",
"G.	c #190F0C",
"H.	c #1B100E",
"I.	c #110907",
"J.	c #170D0B",
"K.	c #030201",
"L.	c #020101",
"M.	c #140B09",
"N.	c #070303",
"O.	c #1A0F0C",
"P.	c #130A08",
"Q.	c #100907",
"R.	c #120907",
"S.	c #040202",
"T.	c #070403",
"U.	c #1B100D",
"V.	c #150C0A",
"W.	c #1A100D",
"X.	c #050302",
"Y.	c #090403",
"Z.	c #060302",
"`.	c #080403",
" +	c #010000",
".+	c #010100",
"                                                            .     . +           ",
"@ @ @ @ @ @ @ @ @ @ @ @ @ @ @ # $ @ @ @ @ @ @ @ @ @ @ @ @ @ % @ & * = - @ @ @ @ ",
"; > , ' ' ' ' ) ! , ; ~ { , ' ] ^ ' ' ' ' ~ { / ( ( / ) ! _ : ' : < [ } / ) ! _ ",
"{ ) / | | } 1 > ! 2 | | | | | } 1 / ) { 3 ( > | | | | | | | 2 ! 4 5 % ' 6 7 ) 8 ",
"| | | | | | | | | | | | | | | | | | | | ! | | | | | | | | | | 9 0 a b c | | | d ",
"| | | | | | | | | | | | | | | | | | | | | | | e f | | | | | | | | a b c | | | 9 ",
"| g h | | | | | | | | | | | | | | | | | | | | 1 ! | | | | | | | | 5 i { | | | | ",
"| ; 4 | | | | | | | | | | | | | | | | | | | | | | | | | | | | | | j k i { | | | ",
"l l l l l l l l l l l j m l l l l l l l l l l l l l l l l l l l l n o % p q l l ",
"@ @ @ @ @ @ @ @ @ @ @ r s @ @ @ @ @ @ @ @ @ @ @ @ @ @ @ @ @ @ @ @ t u v i - @ @ ",
"w w w q x x y z w A B C k w D D q e x w w / E w w w w F w w A w w w w w w w D w ",
"G H g I J J w K L I L E M g J J N J J x g F O w q q g J H G I P w g q q g F J g ",
"Q R N S T U S U T S V ) f W V V W U T S T A w e l l L X I Q Y T S N l l L Z R Q ",
"N N N N N N ` P N N H I 4 D N N N N N N N l w T G N N N N N N  ...N N N N N N N ",
"N N N N N N N K +.N N I 4 N N N N N N N N N J G N N N N N N N @.V N N N N N N N ",
"N N N N N N N N N N N I 9 N N l Q N N N N N N N N N N N N N N N N N N N N N N N ",
"#.N N N N N N N N N N I w N N K h N N N N N N N N N N N N N N N N N N N N N N N ",
"d N N N N N N N N N N $.%.S N N N N N N N N N N N N N N N N N N N N N N N N N N ",
"N N N N N N N N N N N N L %.N N N N N N N N N N N N N N N N N N N N N N N &.*.N ",
"N N N N N N N N N N N =.$.] -.N N N N N N N N N N N N N N N N N N N N N N ;.>.N ",
",.Q '.'.'.'.'.'.'.'.'.'.'.).'.'.!. .'.'.'.'.'.'.N N N '.'.'.~.'.'.'.{.].^./.(._.",
":.<.[.[.[.[.[.[.[.[.[.[.[.}.[.[.|._.[.[.[.[.[.1.2.2.2.3.~.[.4.[.[.[.#.5.6.7.8.9.",
"5.5.5.5.5.5.5.5.5.5.5.5.0.| a.b.5.5.5.5.5.5.5.5.` ` ` 4._.5.5.5.5.5.5.5.5.5.c.d.",
"2 2 2 2 2 2 2 2 2 2 2 2 2 i e.2 2 2 2 2 2 2 2 2 2 2 2 2 2 2 2 2 2 2 2 2 2 2 2 2 ",
"i i f.% i i i i i i i i i g.+ h.i i i i i i i i i i i i i i i i i i h.% i f.i i ",
"i.i.j.. i.i.i.i.i.i.i.i.i.C k.l.i.i.i.i.i.i.i.i.i.i.i.i.i.i.i.i.i.i.l.. i.j.i.i.",
". . . . . . . . . . . . . m.n.o.. . . . . . . . . . . . . . . . . . . . . . . . ",
"p.p.p.p.p.p.p.p.p.p.p.p.q.r.s.t.u.p.p.p.p.p.p.p.p.p.p.p.p.p.p.p.p.p.p.p.p.p.p.p.",
"v.v.v.v.v.v.v.v.v.v.v.v.w.x.s.y.z.v.v.v.v.v.v.v.v.v.v.v.v.v.v.v.v.v.v.v.v.v.v.v.",
"A.A.A.A.A.A.A.A.A.A.A.A.B.C.D.E.F.A.A.A.A.A.A.A.A.A.A.A.A.A.A.A.A.A.A.A.A.A.A.A.",
"A.A.A.A.A.A.G.H.I.J.J.K.s.s.L.M.N.A.A.A.A.A.A.A.A.A.A.A.A.A.A.A.A.A.A.A.A.A.A.O.",
"A.A.y.P.G.P.Q.O.R.I.K.R.S.s.T.N.U.V.J.U.A.A.A.P.A.A.A.A.A.A.P.P.W.A.A.A.A.A.A.X.",
"Y.Y.L.s.Z.s.Y.Y.S.`.s.S.L.s.s.s.Y.L.S.`.Y.Y.Y. +Y.Y.Y.Y.Y.Y.s.s.N.Y.Y.Y.Y.Y.Y..+",
"s.s.s.s.s.s.s.s.s.s.s.s.s.s.s.s.s.s.s.s.s.s.s.s.s.s.s.s.s.s.s.s.s.s.s.s.s.s.s.s.",
"s.s.s.s.s.s.s.s.s.s.s.s.s.s.s.s.s.s.s.s.s.s.s.s.s.s.s.s.s.s.s.s.s.s.s.s.s.s.s.s.",
"s.s.s.s.s.s.s.s.s.s.s.s.s.s.s.s.s.s.s.s.s.s.s.s.s.s.s.s.s.s.s.s.s.s.s.s.s.s.s.s.",
"s.s.s.s.s.s.s.s.s.s.s.s.s.s.s.s.s.s.s.s.s.s.s.s.s.s.s.s.s.s.s.s.s.s.s.s.s.s.s.s.",
"s.s.s.s.s.s.s.s.s.s.s.s.s.s.s.s.s.s.s.s.s.s.s.s.s.s.s.s.s.s.s.s.s.s.s.s.s.s.s.s.",
"s.s.s.s.s.s.s.s.s.s.s.s.s.s.s.s.s.s.s.s.s.s.s.s.s.s.s.s.s.s.s.s.s.s.s.s.s.s.s.s.",
"s.s.s.s.s.s.s.s.s.s.s.s.s.s.s.s.s.s.s.s.s.s.s.s.s.s.s.s.s.s.s.s.s.s.s.s.s.s.s.s."};
